<svg width="1440" height="1024" viewBox="0 0 1440 1024" fill="none" xmlns="http://www.w3.org/2000/svg">
<g clip-path="url(#clip0_0:1216)">
<rect width="1440" height="1024" fill="#FCECD2"/>
<path d="M1420.44 10.6982C1426.64 10.6982 1431.89 14.7561 1431.89 19.5518V1008.21C1431.89 1013.01 1426.64 1017.07 1420.44 1017.07H20.562C14.3594 1017.07 9.11107 1013.01 9.11107 1008.21V19.5518C9.11107 14.7561 14.3594 10.6982 20.562 10.6982H1420.44ZM1420.44 4.42679H20.562C10.0653 4.42679 1 11.0671 1 19.5518V1008.21C1 1016.7 10.0653 1023.34 20.562 1023.34H1420.44C1431.41 1023.34 1440 1016.33 1440 1008.21V19.5518C1440 11.0671 1431.41 4.42679 1420.44 4.42679Z" fill="#6A2D01"/>
<path d="M1420.44 6.64027C1426.64 6.64027 1431.89 10.6982 1431.89 15.494V1004.16C1431.89 1008.95 1426.64 1013.01 1420.44 1013.01H20.562C14.3594 1013.01 9.11107 1008.95 9.11107 1004.16V15.1251C9.11107 10.3293 14.3594 6.27137 20.562 6.27137H1420.44V6.64027ZM1420.44 0H20.562C10.0653 0 1 7.00917 1 15.1251V1003.79C1 1012.27 10.0653 1018.91 20.562 1018.91H1420.44C1431.41 1018.91 1440 1011.9 1440 1003.79V15.1251C1440 7.00917 1431.41 0 1420.44 0Z" fill="#6A2D01"/>
<path d="M21.1129 1009.75C17.296 1009.75 13.9561 1007.16 13.9561 1004.21V15.5511C13.9561 12.5998 17.296 10.0175 21.1129 10.0175H1420.99C1424.81 10.0175 1428.15 12.5998 1428.15 15.5511V1004.21C1428.15 1007.16 1424.81 1009.75 1420.99 1009.75H21.1129Z" fill="#FCECD2"/>
<g opacity="0.67">
<path d="M12.896 10.6363V1024H1427.93V10.6363H12.896ZM1345.36 975.586C1301.71 1027.33 1173.58 997.761 1041.67 997.761C909.748 997.761 876.531 1003.67 769.289 1003.67H322.761C88.82 1003.67 69.839 968.564 69.839 801.518C69.839 620.059 69.839 652.581 69.839 565.362V325.88C69.839 247.901 87.8709 254.553 85.0238 201.705C82.1766 149.965 49.4344 49.4413 133.425 49.4413H1053.53C1383.8 49.4413 1371.46 57.9414 1371.46 154.399C1371.46 250.858 1361.02 286.706 1361.02 358.772C1361.02 430.839 1377.16 416.425 1377.16 516.949C1377.16 617.472 1361.5 659.603 1361.5 750.887C1361.5 842.171 1380.95 934.194 1345.36 975.586Z" fill="#FFC985"/>
<path d="M1303.13 948.608C1308.89 948.608 1313.57 945.629 1313.57 941.955C1313.57 938.281 1308.89 935.303 1303.13 935.303C1297.36 935.303 1292.69 938.281 1292.69 941.955C1292.69 945.629 1297.36 948.608 1303.13 948.608Z" fill="#FFC985"/>
<path d="M1324.01 971.521C1332.39 971.521 1339.19 967.384 1339.19 962.282C1339.19 957.179 1332.39 953.042 1324.01 953.042C1315.62 953.042 1308.82 957.179 1308.82 962.282C1308.82 967.384 1315.62 971.521 1324.01 971.521Z" fill="#FFC985"/>
<path d="M1202.06 1005.15C1210.44 1005.15 1217.24 1001.02 1217.24 995.913C1217.24 990.81 1210.44 986.673 1202.06 986.673C1193.67 986.673 1186.87 990.81 1186.87 995.913C1186.87 1001.02 1193.67 1005.15 1202.06 1005.15Z" fill="#FFC985"/>
<path d="M1350.11 817.04C1357.45 817.04 1363.39 814.062 1363.39 810.388C1363.39 806.714 1357.45 803.736 1350.11 803.736C1342.77 803.736 1336.82 806.714 1336.82 810.388C1336.82 814.062 1342.77 817.04 1350.11 817.04Z" fill="#FFC985"/>
<path d="M1357.22 984.086C1363.51 984.086 1368.61 980.777 1368.61 976.695C1368.61 972.613 1363.51 969.303 1357.22 969.303C1350.94 969.303 1345.84 972.613 1345.84 976.695C1345.84 980.777 1350.94 984.086 1357.22 984.086Z" fill="#FFC985"/>
<path d="M1287.94 981.869C1294.23 981.869 1299.33 978.56 1299.33 974.477C1299.33 970.395 1294.23 967.086 1287.94 967.086C1281.65 967.086 1276.56 970.395 1276.56 974.477C1276.56 978.56 1281.65 981.869 1287.94 981.869Z" fill="#FFC985"/>
<path d="M1221.99 1009.59C1228.28 1009.59 1233.37 1006.28 1233.37 1002.2C1233.37 998.113 1228.28 994.804 1221.99 994.804C1215.7 994.804 1210.6 998.113 1210.6 1002.2C1210.6 1006.28 1215.7 1009.59 1221.99 1009.59Z" fill="#FFC985"/>
<path d="M1318.31 995.913C1325.91 995.913 1332.08 992.107 1332.08 987.412C1332.08 982.718 1325.91 978.912 1318.31 978.912C1310.71 978.912 1304.55 982.718 1304.55 987.412C1304.55 992.107 1310.71 995.913 1318.31 995.913Z" fill="#FFC985"/>
<path d="M1257.1 1014.02C1264.7 1014.02 1270.86 1010.22 1270.86 1005.52C1270.86 1000.83 1264.7 997.021 1257.1 997.021C1249.5 997.021 1243.34 1000.83 1243.34 1005.52C1243.34 1010.22 1249.5 1014.02 1257.1 1014.02Z" fill="#FFC985"/>
<path d="M1354.85 957.107C1362.45 957.107 1368.61 953.302 1368.61 948.607C1368.61 943.913 1362.45 940.107 1354.85 940.107C1347.25 940.107 1341.09 943.913 1341.09 948.607C1341.09 953.302 1347.25 957.107 1354.85 957.107Z" fill="#FFC985"/>
<path d="M1365.29 917.564C1372.89 917.564 1379.05 913.758 1379.05 909.063C1379.05 904.369 1372.89 900.563 1365.29 900.563C1357.69 900.563 1351.53 904.369 1351.53 909.063C1351.53 913.758 1357.69 917.564 1365.29 917.564Z" fill="#FFC985"/>
<path d="M1354.85 1004.78C1362.45 1004.78 1368.61 1000.98 1368.61 996.282C1368.61 991.588 1362.45 987.782 1354.85 987.782C1347.25 987.782 1341.09 991.588 1341.09 996.282C1341.09 1000.98 1347.25 1004.78 1354.85 1004.78Z" fill="#FFC985"/>
<path d="M1354.38 859.911C1361.45 859.911 1367.19 856.27 1367.19 851.78C1367.19 847.29 1361.45 843.649 1354.38 843.649C1347.3 843.649 1341.57 847.29 1341.57 851.78C1341.57 856.27 1347.3 859.911 1354.38 859.911Z" fill="#FFC985"/>
<path d="M1146.06 1002.56C1153.14 1002.56 1158.87 998.925 1158.87 994.434C1158.87 989.944 1153.14 986.304 1146.06 986.304C1138.99 986.304 1133.25 989.944 1133.25 994.434C1133.25 998.925 1138.99 1002.56 1146.06 1002.56Z" fill="#FFC985"/>
<path d="M1342.51 984.825C1348.28 984.825 1352.95 981.847 1352.95 978.173C1352.95 974.499 1348.28 971.521 1342.51 971.521C1336.75 971.521 1332.08 974.499 1332.08 978.173C1332.08 981.847 1336.75 984.825 1342.51 984.825Z" fill="#FFC985"/>
<path d="M1305.5 965.977C1309.96 965.977 1313.57 963.661 1313.57 960.803C1313.57 957.946 1309.96 955.629 1305.5 955.629C1301.05 955.629 1297.43 957.946 1297.43 960.803C1297.43 963.661 1301.05 965.977 1305.5 965.977Z" fill="#FFC985"/>
<path d="M1351.06 904.628C1355.51 904.628 1359.12 902.312 1359.12 899.454C1359.12 896.597 1355.51 894.28 1351.06 894.28C1346.6 894.28 1342.99 896.597 1342.99 899.454C1342.99 902.312 1346.6 904.628 1351.06 904.628Z" fill="#FFC985"/>
<path d="M1303.13 993.325C1307.58 993.325 1311.2 991.009 1311.2 988.152C1311.2 985.294 1307.58 982.978 1303.13 982.978C1298.67 982.978 1295.06 985.294 1295.06 988.152C1295.06 991.009 1298.67 993.325 1303.13 993.325Z" fill="#FFC985"/>
<path d="M1332.08 944.173C1336.53 944.173 1340.14 941.856 1340.14 938.999C1340.14 936.141 1336.53 933.825 1332.08 933.825C1327.62 933.825 1324.01 936.141 1324.01 938.999C1324.01 941.856 1327.62 944.173 1332.08 944.173Z" fill="#FFC985"/>
<path d="M1332.08 918.672C1336.53 918.672 1340.14 916.356 1340.14 913.498C1340.14 910.641 1336.53 908.324 1332.08 908.324C1327.62 908.324 1324.01 910.641 1324.01 913.498C1324.01 916.356 1327.62 918.672 1332.08 918.672Z" fill="#FFC985"/>
<path d="M1360.07 876.911C1364.53 876.911 1368.14 874.594 1368.14 871.737C1368.14 868.879 1364.53 866.563 1360.07 866.563C1355.62 866.563 1352.01 868.879 1352.01 871.737C1352.01 874.594 1355.62 876.911 1360.07 876.911Z" fill="#FFC985"/>
<path d="M1349.63 837.367C1354.09 837.367 1357.7 835.05 1357.7 832.193C1357.7 829.335 1354.09 827.019 1349.63 827.019C1345.18 827.019 1341.57 829.335 1341.57 832.193C1341.57 835.05 1345.18 837.367 1349.63 837.367Z" fill="#FFC985"/>
<path d="M1339.67 863.237C1344.12 863.237 1347.73 860.92 1347.73 858.063C1347.73 855.205 1344.12 852.889 1339.67 852.889C1335.21 852.889 1331.6 855.205 1331.6 858.063C1331.6 860.92 1335.21 863.237 1339.67 863.237Z" fill="#FFC985"/>
<path d="M1345.84 926.803C1348.46 926.803 1350.58 925.479 1350.58 923.846C1350.58 922.213 1348.46 920.89 1345.84 920.89C1343.22 920.89 1341.09 922.213 1341.09 923.846C1341.09 925.479 1343.22 926.803 1345.84 926.803Z" fill="#FFC985"/>
<path d="M1351.06 887.259C1353.68 887.259 1355.8 885.935 1355.8 884.302C1355.8 882.669 1353.68 881.346 1351.06 881.346C1348.44 881.346 1346.31 882.669 1346.31 884.302C1346.31 885.935 1348.44 887.259 1351.06 887.259Z" fill="#FFC985"/>
<path d="M1312.62 871.367C1315.24 871.367 1317.36 870.044 1317.36 868.411C1317.36 866.778 1315.24 865.454 1312.62 865.454C1310 865.454 1307.87 866.778 1307.87 868.411C1307.87 870.044 1310 871.367 1312.62 871.367Z" fill="#FFC985"/>
<path d="M1330.65 845.867C1333.27 845.867 1335.4 844.543 1335.4 842.91C1335.4 841.277 1333.27 839.954 1330.65 839.954C1328.03 839.954 1325.91 841.277 1325.91 842.91C1325.91 844.543 1328.03 845.867 1330.65 845.867Z" fill="#FFC985"/>
<path d="M1335.87 828.127C1338.49 828.127 1340.62 826.804 1340.62 825.171C1340.62 823.538 1338.49 822.214 1335.87 822.214C1333.25 822.214 1331.13 823.538 1331.13 825.171C1331.13 826.804 1333.25 828.127 1335.87 828.127Z" fill="#FFC985"/>
<path d="M1338.24 798.192C1340.86 798.192 1342.99 796.868 1342.99 795.236C1342.99 793.603 1340.86 792.279 1338.24 792.279C1335.62 792.279 1333.5 793.603 1333.5 795.236C1333.5 796.868 1335.62 798.192 1338.24 798.192Z" fill="#FFC985"/>
<path d="M1284.62 1000.72C1289.08 1000.72 1292.69 998.401 1292.69 995.543C1292.69 992.685 1289.08 990.369 1284.62 990.369C1280.17 990.369 1276.56 992.685 1276.56 995.543C1276.56 998.401 1280.17 1000.72 1284.62 1000.72Z" fill="#FFC985"/>
<path d="M1162.67 1000.72C1167.13 1000.72 1170.74 998.401 1170.74 995.543C1170.74 992.685 1167.13 990.369 1162.67 990.369C1158.21 990.369 1154.6 992.685 1154.6 995.543C1154.6 998.401 1158.21 1000.72 1162.67 1000.72Z" fill="#FFC985"/>
<path d="M1314.04 929.759C1317.19 929.759 1319.74 928.27 1319.74 926.433C1319.74 924.596 1317.19 923.107 1314.04 923.107C1310.9 923.107 1308.35 924.596 1308.35 926.433C1308.35 928.27 1310.9 929.759 1314.04 929.759Z" fill="#FFC985"/>
<path d="M1240.49 965.238C1243.64 965.238 1246.19 963.749 1246.19 961.912C1246.19 960.075 1243.64 958.586 1240.49 958.586C1237.35 958.586 1234.8 960.075 1234.8 961.912C1234.8 963.749 1237.35 965.238 1240.49 965.238Z" fill="#FFC985"/>
<path d="M1112.84 1003.3C1118.09 1003.3 1122.34 1000.66 1122.34 997.391C1122.34 994.125 1118.09 991.478 1112.84 991.478C1107.6 991.478 1103.35 994.125 1103.35 997.391C1103.35 1000.66 1107.6 1003.3 1112.84 1003.3Z" fill="#FFC985"/>
<path d="M1319.26 897.976C1322.41 897.976 1324.96 896.487 1324.96 894.65C1324.96 892.813 1322.41 891.324 1319.26 891.324C1316.12 891.324 1313.57 892.813 1313.57 894.65C1313.57 896.487 1316.12 897.976 1319.26 897.976Z" fill="#FFC985"/>
<path d="M1277.03 938.629C1280.18 938.629 1282.72 937.14 1282.72 935.303C1282.72 933.466 1280.18 931.977 1277.03 931.977C1273.89 931.977 1271.34 933.466 1271.34 935.303C1271.34 937.14 1273.89 938.629 1277.03 938.629Z" fill="#FFC985"/>
<path d="M1269.91 967.455C1273.06 967.455 1275.61 965.966 1275.61 964.129C1275.61 962.292 1273.06 960.803 1269.91 960.803C1266.77 960.803 1264.22 962.292 1264.22 964.129C1264.22 965.966 1266.77 967.455 1269.91 967.455Z" fill="#FFC985"/>
<path d="M1263.27 990.369C1266.41 990.369 1268.96 988.88 1268.96 987.043C1268.96 985.206 1266.41 983.717 1263.27 983.717C1260.12 983.717 1257.57 985.206 1257.57 987.043C1257.57 988.88 1260.12 990.369 1263.27 990.369Z" fill="#FFC985"/>
<path d="M1174.06 984.456C1177.2 984.456 1179.75 982.967 1179.75 981.13C1179.75 979.293 1177.2 977.803 1174.06 977.803C1170.91 977.803 1168.36 979.293 1168.36 981.13C1168.36 982.967 1170.91 984.456 1174.06 984.456Z" fill="#FFC985"/>
<path d="M1224.83 987.782C1229.03 987.782 1232.43 985.631 1232.43 982.977C1232.43 980.324 1229.03 978.173 1224.83 978.173C1220.64 978.173 1217.24 980.324 1217.24 982.977C1217.24 985.631 1220.64 987.782 1224.83 987.782Z" fill="#FFC985"/>
<path d="M1196.84 975.956C1201.03 975.956 1204.43 973.805 1204.43 971.151C1204.43 968.498 1201.03 966.347 1196.84 966.347C1192.64 966.347 1189.24 968.498 1189.24 971.151C1189.24 973.805 1192.64 975.956 1196.84 975.956Z" fill="#FFC985"/>
<path d="M1240.49 996.652C1243.64 996.652 1246.19 995.163 1246.19 993.326C1246.19 991.488 1243.64 989.999 1240.49 989.999C1237.35 989.999 1234.8 991.488 1234.8 993.326C1234.8 995.163 1237.35 996.652 1240.49 996.652Z" fill="#FFC985"/>
<path d="M130.578 104.877C135.558 104.877 139.594 102.395 139.594 99.3334C139.594 96.2717 135.558 93.7898 130.578 93.7898C125.599 93.7898 121.562 96.2717 121.562 99.3334C121.562 102.395 125.599 104.877 130.578 104.877Z" fill="#FFC985"/>
<path d="M123.935 56.4631C131.273 56.4631 137.222 52.6575 137.222 47.963C137.222 43.2685 131.273 39.4628 123.935 39.4628C116.597 39.4628 110.648 43.2685 110.648 47.963C110.648 52.6575 116.597 56.4631 123.935 56.4631Z" fill="#FFC985"/>
<path d="M78.3805 197.639C84.6702 197.639 89.7691 194.495 89.7691 190.617C89.7691 186.739 84.6702 183.595 78.3805 183.595C72.0907 183.595 66.9919 186.739 66.9919 190.617C66.9919 194.495 72.0907 197.639 78.3805 197.639Z" fill="#FFC985"/>
<path d="M112.546 90.4636C119.622 90.4636 125.358 86.8234 125.358 82.333C125.358 77.8426 119.622 74.2025 112.546 74.2025C105.47 74.2025 99.7341 77.8426 99.7341 82.333C99.7341 86.8234 105.47 90.4636 112.546 90.4636Z" fill="#FFC985"/>
<path d="M67.9409 110.79C77.3756 110.79 85.0238 105.992 85.0238 100.072C85.0238 94.1533 77.3756 89.3549 67.9409 89.3549C58.5063 89.3549 50.858 94.1533 50.858 100.072C50.858 105.992 58.5063 110.79 67.9409 110.79Z" fill="#FFC985"/>
<path d="M216.467 61.6371C223.543 61.6371 229.279 57.9969 229.279 53.5065C229.279 49.0162 223.543 45.376 216.467 45.376C209.391 45.376 203.655 49.0162 203.655 53.5065C203.655 57.9969 209.391 61.6371 216.467 61.6371Z" fill="#FFC985"/>
<path d="M75.5333 212.052C81.8231 212.052 86.9219 209.405 86.9219 206.139C86.9219 202.874 81.8231 200.226 75.5333 200.226C69.2436 200.226 64.1447 202.874 64.1447 206.139C64.1447 209.405 69.2436 212.052 75.5333 212.052Z" fill="#FFC985"/>
<path d="M80.7531 80.1157C88.0911 80.1157 94.0398 76.4755 94.0398 71.9851C94.0398 67.4947 88.0911 63.8546 80.7531 63.8546C73.415 63.8546 67.4664 67.4947 67.4664 71.9851C67.4664 76.4755 73.415 80.1157 80.7531 80.1157Z" fill="#FFC985"/>
<path d="M143.39 77.8982C148.894 77.8982 153.355 75.0853 153.355 71.6154C153.355 68.1456 148.894 65.3327 143.39 65.3327C137.887 65.3327 133.425 68.1456 133.425 71.6154C133.425 75.0853 137.887 77.8982 143.39 77.8982Z" fill="#FFC985"/>
<path d="M199.384 54.6153C204.888 54.6153 209.349 51.8024 209.349 48.3326C209.349 44.8627 204.888 42.0499 199.384 42.0499C193.881 42.0499 189.419 44.8627 189.419 48.3326C189.419 51.8024 193.881 54.6153 199.384 54.6153Z" fill="#FFC985"/>
<path d="M117.766 67.9198C124.318 67.9198 129.629 64.6105 129.629 60.5284C129.629 56.4462 124.318 53.137 117.766 53.137C111.214 53.137 105.903 56.4462 105.903 60.5284C105.903 64.6105 111.214 67.9198 117.766 67.9198Z" fill="#FFC985"/>
<path d="M169.489 52.7674C176.041 52.7674 181.352 49.4581 181.352 45.3759C181.352 41.2938 176.041 37.9845 169.489 37.9845C162.937 37.9845 157.626 41.2938 157.626 45.3759C157.626 49.4581 162.937 52.7674 169.489 52.7674Z" fill="#FFC985"/>
<path d="M85.9729 101.181C92.5247 101.181 97.836 97.8719 97.836 93.7897C97.836 89.7076 92.5247 86.3983 85.9729 86.3983C79.421 86.3983 74.1097 89.7076 74.1097 93.7897C74.1097 97.8719 79.421 101.181 85.9729 101.181Z" fill="#FFC985"/>
<path d="M77.4315 134.812C83.9833 134.812 89.2946 131.503 89.2946 127.421C89.2946 123.339 83.9833 120.029 77.4315 120.029C70.8797 120.029 65.5684 123.339 65.5684 127.421C65.5684 131.503 70.8797 134.812 77.4315 134.812Z" fill="#FFC985"/>
<path d="M90.718 59.0501C97.2699 59.0501 102.581 55.7408 102.581 51.6587C102.581 47.5765 97.2699 44.2672 90.718 44.2672C84.1662 44.2672 78.8549 47.5765 78.8549 51.6587C78.8549 55.7408 84.1662 59.0501 90.718 59.0501Z" fill="#FFC985"/>
<path d="M82.6511 179.53C88.6788 179.53 93.5652 176.552 93.5652 172.878C93.5652 169.204 88.6788 166.226 82.6511 166.226C76.6235 166.226 71.7371 169.204 71.7371 172.878C71.7371 176.552 76.6235 179.53 82.6511 179.53Z" fill="#FFC985"/>
<path d="M264.394 56.4631C270.422 56.4631 275.308 53.4847 275.308 49.8108C275.308 46.1368 270.422 43.1585 264.394 43.1585C258.367 43.1585 253.48 46.1368 253.48 49.8108C253.48 53.4847 258.367 56.4631 264.394 56.4631Z" fill="#FFC985"/>
<path d="M96.887 74.2025C101.866 74.2025 105.903 71.7205 105.903 68.6589C105.903 65.5973 101.866 63.1154 96.887 63.1154C91.9076 63.1154 87.871 65.5973 87.871 68.6589C87.871 71.7205 91.9076 74.2025 96.887 74.2025Z" fill="#FFC985"/>
<path d="M128.68 87.8766C132.611 87.8766 135.798 85.8911 135.798 83.4418C135.798 80.9925 132.611 79.0069 128.68 79.0069C124.749 79.0069 121.562 80.9925 121.562 83.4418C121.562 85.8911 124.749 87.8766 128.68 87.8766Z" fill="#FFC985"/>
<path d="M89.7691 139.986C93.7001 139.986 96.8869 138.001 96.8869 135.551C96.8869 133.102 93.7001 131.116 89.7691 131.116C85.838 131.116 82.6512 133.102 82.6512 135.551C82.6512 138.001 85.838 139.986 89.7691 139.986Z" fill="#FFC985"/>
<path d="M130.578 64.5936C134.509 64.5936 137.696 62.6081 137.696 60.1588C137.696 57.7095 134.509 55.7239 130.578 55.7239C126.647 55.7239 123.46 57.7095 123.46 60.1588C123.46 62.6081 126.647 64.5936 130.578 64.5936Z" fill="#FFC985"/>
<path d="M105.903 106.355C109.834 106.355 113.021 104.37 113.021 101.92C113.021 99.471 109.834 97.4854 105.903 97.4854C101.972 97.4854 98.785 99.471 98.785 101.92C98.785 104.37 101.972 106.355 105.903 106.355Z" fill="#FFC985"/>
<path d="M105.903 128.16C109.834 128.16 113.021 126.174 113.021 123.725C113.021 121.276 109.834 119.29 105.903 119.29C101.972 119.29 98.785 121.276 98.785 123.725C98.785 126.174 101.972 128.16 105.903 128.16Z" fill="#FFC985"/>
<path d="M77.9059 161.791C81.837 161.791 85.0238 159.805 85.0238 157.356C85.0238 154.907 81.837 152.921 77.9059 152.921C73.9748 152.921 70.788 154.907 70.788 157.356C70.788 159.805 73.9748 161.791 77.9059 161.791Z" fill="#FFC985"/>
<path d="M68.8899 229.422C72.821 229.422 76.0078 227.437 76.0078 224.987C76.0078 222.538 72.821 220.553 68.8899 220.553C64.9588 220.553 61.772 222.538 61.772 224.987C61.772 227.437 64.9588 229.422 68.8899 229.422Z" fill="#FFC985"/>
<path d="M90.7181 200.596C94.6492 200.596 97.836 198.61 97.836 196.161C97.836 193.712 94.6492 191.726 90.7181 191.726C86.787 191.726 83.6002 193.712 83.6002 196.161C83.6002 198.61 86.787 200.596 90.7181 200.596Z" fill="#FFC985"/>
<path d="M94.9889 172.139C98.92 172.139 102.107 170.153 102.107 167.704C102.107 165.255 98.92 163.269 94.9889 163.269C91.0578 163.269 87.871 165.255 87.871 167.704C87.871 170.153 91.0578 172.139 94.9889 172.139Z" fill="#FFC985"/>
<path d="M94.0397 117.442C96.1363 117.442 97.8359 116.284 97.8359 114.855C97.8359 113.427 96.1363 112.268 94.0397 112.268C91.9432 112.268 90.2435 113.427 90.2435 114.855C90.2435 116.284 91.9432 117.442 94.0397 117.442Z" fill="#FFC985"/>
<path d="M89.7691 151.073C91.8657 151.073 93.5653 149.915 93.5653 148.486C93.5653 147.057 91.8657 145.899 89.7691 145.899C87.6725 145.899 85.9729 147.057 85.9729 148.486C85.9729 149.915 87.6725 151.073 89.7691 151.073Z" fill="#FFC985"/>
<path d="M111.123 157.725C113.219 157.725 114.919 156.567 114.919 155.138C114.919 153.71 113.219 152.551 111.123 152.551C109.026 152.551 107.326 153.71 107.326 155.138C107.326 156.567 109.026 157.725 111.123 157.725Z" fill="#FFC985"/>
<path d="M106.852 186.552C108.949 186.552 110.648 185.394 110.648 183.965C110.648 182.536 108.949 181.378 106.852 181.378C104.755 181.378 103.056 182.536 103.056 183.965C103.056 185.394 104.755 186.552 106.852 186.552Z" fill="#FFC985"/>
<path d="M102.581 208.357C104.678 208.357 106.377 207.199 106.377 205.77C106.377 204.341 104.678 203.183 102.581 203.183C100.485 203.183 98.785 204.341 98.785 205.77C98.785 207.199 100.485 208.357 102.581 208.357Z" fill="#FFC985"/>
<path d="M91.6672 218.335C93.7638 218.335 95.4634 217.177 95.4634 215.748C95.4634 214.319 93.7638 213.161 91.6672 213.161C89.5707 213.161 87.871 214.319 87.871 215.748C87.871 217.177 89.5707 218.335 91.6672 218.335Z" fill="#FFC985"/>
<path d="M76.9569 243.836C79.0535 243.836 80.7531 242.677 80.7531 241.249C80.7531 239.82 79.0535 238.662 76.9569 238.662C74.8603 238.662 73.1607 239.82 73.1607 241.249C73.1607 242.677 74.8603 243.836 76.9569 243.836Z" fill="#FFC985"/>
<path d="M146.238 58.311C150.169 58.311 153.355 56.3255 153.355 53.8762C153.355 51.4269 150.169 49.4413 146.238 49.4413C142.306 49.4413 139.12 51.4269 139.12 53.8762C139.12 56.3255 142.306 58.311 146.238 58.311Z" fill="#FFC985"/>
<path d="M250.159 58.311C254.09 58.311 257.276 56.3255 257.276 53.8762C257.276 51.4269 254.09 49.4413 250.159 49.4413C246.227 49.4413 243.041 51.4269 243.041 53.8762C243.041 56.3255 246.227 58.311 250.159 58.311Z" fill="#FFC985"/>
<path d="M121.088 115.594C123.708 115.594 125.833 114.271 125.833 112.638C125.833 111.005 123.708 109.681 121.088 109.681C118.467 109.681 116.342 111.005 116.342 112.638C116.342 114.271 118.467 115.594 121.088 115.594Z" fill="#FFC985"/>
<path d="M183.725 85.2897C186.346 85.2897 188.47 83.966 188.47 82.3331C188.47 80.7002 186.346 79.3765 183.725 79.3765C181.104 79.3765 178.98 80.7002 178.98 82.3331C178.98 83.966 181.104 85.2897 183.725 85.2897Z" fill="#FFC985"/>
<path d="M292.391 57.2022C296.846 57.2022 300.458 55.0512 300.458 52.3978C300.458 49.7444 296.846 47.5934 292.391 47.5934C287.936 47.5934 284.324 49.7444 284.324 52.3978C284.324 55.0512 287.936 57.2022 292.391 57.2022Z" fill="#FFC985"/>
<path d="M116.817 142.573C119.438 142.573 121.562 141.249 121.562 139.617C121.562 137.984 119.438 136.66 116.817 136.66C114.196 136.66 112.072 137.984 112.072 139.617C112.072 141.249 114.196 142.573 116.817 142.573Z" fill="#FFC985"/>
<path d="M152.406 108.203C155.027 108.203 157.152 106.879 157.152 105.246C157.152 103.614 155.027 102.29 152.406 102.29C149.786 102.29 147.661 103.614 147.661 105.246C147.661 106.879 149.786 108.203 152.406 108.203Z" fill="#FFC985"/>
<path d="M158.575 83.8114C161.196 83.8114 163.32 82.4877 163.32 80.8548C163.32 79.222 161.196 77.8983 158.575 77.8983C155.954 77.8983 153.83 79.222 153.83 80.8548C153.83 82.4877 155.954 83.8114 158.575 83.8114Z" fill="#FFC985"/>
<path d="M164.27 63.8545C166.89 63.8545 169.015 62.5308 169.015 60.898C169.015 59.2651 166.89 57.9414 164.27 57.9414C161.649 57.9414 159.524 59.2651 159.524 60.898C159.524 62.5308 161.649 63.8545 164.27 63.8545Z" fill="#FFC985"/>
<path d="M240.193 69.0285C242.814 69.0285 244.939 67.7048 244.939 66.0719C244.939 64.4391 242.814 63.1154 240.193 63.1154C237.573 63.1154 235.448 64.4391 235.448 66.0719C235.448 67.7048 237.573 69.0285 240.193 69.0285Z" fill="#FFC985"/>
<path d="M279.105 67.1807C281.725 67.1807 283.85 65.857 283.85 64.2241C283.85 62.5912 281.725 61.2675 279.105 61.2675C276.484 61.2675 274.359 62.5912 274.359 64.2241C274.359 65.857 276.484 67.1807 279.105 67.1807Z" fill="#FFC985"/>
<path d="M315.643 57.2023C318.264 57.2023 320.388 55.8786 320.388 54.2457C320.388 52.6129 318.264 51.2892 315.643 51.2892C313.022 51.2892 310.898 52.6129 310.898 54.2457C310.898 55.8786 313.022 57.2023 315.643 57.2023Z" fill="#FFC985"/>
<path d="M197.012 68.659C200.681 68.659 203.655 66.8389 203.655 64.5937C203.655 62.3485 200.681 60.5284 197.012 60.5284C193.343 60.5284 190.368 62.3485 190.368 64.5937C190.368 66.8389 193.343 68.659 197.012 68.659Z" fill="#FFC985"/>
<path d="M220.738 78.6374C224.407 78.6374 227.381 76.8173 227.381 74.5721C227.381 72.3269 224.407 70.5068 220.738 70.5068C217.069 70.5068 214.095 72.3269 214.095 74.5721C214.095 76.8173 217.069 78.6374 220.738 78.6374Z" fill="#FFC985"/>
<path d="M183.725 59.0501C186.346 59.0501 188.47 57.7264 188.47 56.0935C188.47 54.4607 186.346 53.137 183.725 53.137C181.104 53.137 178.98 54.4607 178.98 56.0935C178.98 57.7264 181.104 59.0501 183.725 59.0501Z" fill="#FFC985"/>
<path d="M125.833 953.043C131.599 953.043 136.273 950.064 136.273 946.39C136.273 942.716 131.599 939.738 125.833 939.738C120.067 939.738 115.393 942.716 115.393 946.39C115.393 950.064 120.067 953.043 125.833 953.043Z" fill="#FFC985"/>
<path d="M110.174 973.738C118.56 973.738 125.358 969.602 125.358 964.499C125.358 959.396 118.56 955.26 110.174 955.26C101.787 955.26 94.9889 959.396 94.9889 964.499C94.9889 969.602 101.787 973.738 110.174 973.738Z" fill="#FFC985"/>
<path d="M94.0398 962.282C100.592 962.282 105.903 958.973 105.903 954.89C105.903 950.808 100.592 947.499 94.0398 947.499C87.488 947.499 82.1767 950.808 82.1767 954.89C82.1767 958.973 87.488 962.282 94.0398 962.282Z" fill="#FFC985"/>
<path d="M226.907 1009.59C235.293 1009.59 242.092 1005.45 242.092 1000.35C242.092 995.245 235.293 991.108 226.907 991.108C218.52 991.108 211.722 995.245 211.722 1000.35C211.722 1005.45 218.52 1009.59 226.907 1009.59Z" fill="#FFC985"/>
<path d="M71.2626 821.475C78.6006 821.475 84.5493 818.497 84.5493 814.823C84.5493 811.149 78.6006 808.171 71.2626 808.171C63.9245 808.171 57.9759 811.149 57.9759 814.823C57.9759 818.497 63.9245 821.475 71.2626 821.475Z" fill="#FFC985"/>
<path d="M71.2625 988.521C77.5523 988.521 82.6511 985.212 82.6511 981.13C82.6511 977.048 77.5523 973.738 71.2625 973.738C64.9728 973.738 59.8739 977.048 59.8739 981.13C59.8739 985.212 64.9728 988.521 71.2625 988.521Z" fill="#FFC985"/>
<path d="M141.018 986.304C147.307 986.304 152.406 982.994 152.406 978.912C152.406 974.83 147.307 971.521 141.018 971.521C134.728 971.521 129.629 974.83 129.629 978.912C129.629 982.994 134.728 986.304 141.018 986.304Z" fill="#FFC985"/>
<path d="M119.664 999.608C129.361 999.608 137.222 994.644 137.222 988.521C137.222 982.398 129.361 977.434 119.664 977.434C109.967 977.434 102.107 982.398 102.107 988.521C102.107 994.644 109.967 999.608 119.664 999.608Z" fill="#FFC985"/>
<path d="M69.8394 794.497C76.1292 794.497 81.228 791.187 81.228 787.105C81.228 783.023 76.1292 779.714 69.8394 779.714C63.5497 779.714 58.4508 783.023 58.4508 787.105C58.4508 791.187 63.5497 794.497 69.8394 794.497Z" fill="#FFC985"/>
<path d="M110.648 1000.35C118.248 1000.35 124.409 996.542 124.409 991.847C124.409 987.153 118.248 983.347 110.648 983.347C103.048 983.347 96.8869 987.153 96.8869 991.847C96.8869 996.542 103.048 1000.35 110.648 1000.35Z" fill="#FFC985"/>
<path d="M194.639 1004.41C202.239 1004.41 208.4 1000.61 208.4 995.913C208.4 991.218 202.239 987.413 194.639 987.413C187.039 987.413 180.878 991.218 180.878 995.913C180.878 1000.61 187.039 1004.41 194.639 1004.41Z" fill="#FFC985"/>
<path d="M171.862 1018.09C179.462 1018.09 185.623 1014.28 185.623 1009.59C185.623 1004.89 179.462 1001.09 171.862 1001.09C164.262 1001.09 158.101 1004.89 158.101 1009.59C158.101 1014.28 164.262 1018.09 171.862 1018.09Z" fill="#FFC985"/>
<path d="M73.6351 961.173C81.2352 961.173 87.3964 957.367 87.3964 952.673C87.3964 947.978 81.2352 944.173 73.6351 944.173C66.035 944.173 59.8739 947.978 59.8739 952.673C59.8739 957.367 66.035 961.173 73.6351 961.173Z" fill="#FFC985"/>
<path d="M78.8549 931.607C86.455 931.607 92.6161 927.802 92.6161 923.107C92.6161 918.413 86.455 914.607 78.8549 914.607C71.2548 914.607 65.0937 918.413 65.0937 923.107C65.0937 927.802 71.2548 931.607 78.8549 931.607Z" fill="#FFC985"/>
<path d="M73.6351 1009.22C81.2352 1009.22 87.3964 1005.41 87.3964 1000.72C87.3964 996.023 81.2352 992.217 73.6351 992.217C66.035 992.217 59.8739 996.023 59.8739 1000.72C59.8739 1005.41 66.035 1009.22 73.6351 1009.22Z" fill="#FFC985"/>
<path d="M72.2115 864.345C79.2875 864.345 85.0237 860.705 85.0237 856.215C85.0237 851.724 79.2875 848.084 72.2115 848.084C65.1356 848.084 59.3994 851.724 59.3994 856.215C59.3994 860.705 65.1356 864.345 72.2115 864.345Z" fill="#FFC985"/>
<path d="M282.901 1010.7C289.977 1010.7 295.713 1007.06 295.713 1002.56C295.713 998.074 289.977 994.434 282.901 994.434C275.825 994.434 270.089 998.074 270.089 1002.56C270.089 1007.06 275.825 1010.7 282.901 1010.7Z" fill="#FFC985"/>
<path d="M86.4474 989.26C92.213 989.26 96.887 986.282 96.887 982.608C96.887 978.934 92.213 975.956 86.4474 975.956C80.6818 975.956 76.0079 978.934 76.0079 982.608C76.0079 986.282 80.6818 989.26 86.4474 989.26Z" fill="#FFC985"/>
<path d="M128.68 968.195C133.135 968.195 136.747 965.878 136.747 963.021C136.747 960.163 133.135 957.847 128.68 957.847C124.225 957.847 120.613 960.163 120.613 963.021C120.613 965.878 124.225 968.195 128.68 968.195Z" fill="#FFC985"/>
<path d="M74.5843 912.759C80.874 912.759 85.9729 909.615 85.9729 905.737C85.9729 901.859 80.874 898.715 74.5843 898.715C68.2945 898.715 63.1957 901.859 63.1957 905.737C63.1957 909.615 68.2945 912.759 74.5843 912.759Z" fill="#FFC985"/>
<path d="M125.833 997.76C130.288 997.76 133.9 995.444 133.9 992.587C133.9 989.729 130.288 987.413 125.833 987.413C121.378 987.413 117.766 989.729 117.766 992.587C117.766 995.444 121.378 997.76 125.833 997.76Z" fill="#FFC985"/>
<path d="M94.5143 940.846C98.9695 940.846 102.581 938.53 102.581 935.672C102.581 932.815 98.9695 930.498 94.5143 930.498C90.0591 930.498 86.4474 932.815 86.4474 935.672C86.4474 938.53 90.0591 940.846 94.5143 940.846Z" fill="#FFC985"/>
<path d="M96.887 922.738C101.342 922.738 104.954 920.421 104.954 917.563C104.954 914.706 101.342 912.389 96.887 912.389C92.4318 912.389 88.8201 914.706 88.8201 917.563C88.8201 920.421 92.4318 922.738 96.887 922.738Z" fill="#FFC985"/>
<path d="M68.89 881.346C73.3452 881.346 76.9569 879.029 76.9569 876.172C76.9569 873.314 73.3452 870.998 68.89 870.998C64.4347 870.998 60.8231 873.314 60.8231 876.172C60.8231 879.029 64.4347 881.346 68.89 881.346Z" fill="#FFC985"/>
<path d="M78.8549 841.802C83.3102 841.802 86.9219 839.485 86.9219 836.628C86.9219 833.77 83.3102 831.453 78.8549 831.453C74.3997 831.453 70.788 833.77 70.788 836.628C70.788 839.485 74.3997 841.802 78.8549 841.802Z" fill="#FFC985"/>
<path d="M89.2945 867.302C93.7497 867.302 97.3614 864.985 97.3614 862.128C97.3614 859.27 93.7497 856.954 89.2945 856.954C84.8392 856.954 81.2275 859.27 81.2275 862.128C81.2275 864.985 84.8392 867.302 89.2945 867.302Z" fill="#FFC985"/>
<path d="M250.633 968.934C253.254 968.934 255.378 967.61 255.378 965.977C255.378 964.344 253.254 963.021 250.633 963.021C248.012 963.021 245.888 964.344 245.888 965.977C245.888 967.61 248.012 968.934 250.633 968.934Z" fill="#FFC985"/>
<path d="M90.2436 893.172C94.4368 893.172 97.836 891.021 97.836 888.367C97.836 885.714 94.4368 883.563 90.2436 883.563C86.0504 883.563 82.6512 885.714 82.6512 888.367C82.6512 891.021 86.0504 893.172 90.2436 893.172Z" fill="#FFC985"/>
<path d="M115.868 875.802C118.489 875.802 120.613 874.478 120.613 872.845C120.613 871.213 118.489 869.889 115.868 869.889C113.247 869.889 111.123 871.213 111.123 872.845C111.123 874.478 113.247 875.802 115.868 875.802Z" fill="#FFC985"/>
<path d="M98.3105 849.932C100.931 849.932 103.056 848.608 103.056 846.976C103.056 845.343 100.931 844.019 98.3105 844.019C95.6898 844.019 93.5652 845.343 93.5652 846.976C93.5652 848.608 95.6898 849.932 98.3105 849.932Z" fill="#FFC985"/>
<path d="M93.0906 832.193C95.7114 832.193 97.8359 830.869 97.8359 829.236C97.8359 827.603 95.7114 826.28 93.0906 826.28C90.4699 826.28 88.3454 827.603 88.3454 829.236C88.3454 830.869 90.4699 832.193 93.0906 832.193Z" fill="#FFC985"/>
<path d="M90.718 802.627C93.3387 802.627 95.4632 801.303 95.4632 799.67C95.4632 798.038 93.3387 796.714 90.718 796.714C88.0972 796.714 85.9727 798.038 85.9727 799.67C85.9727 801.303 88.0972 802.627 90.718 802.627Z" fill="#FFC985"/>
<path d="M144.339 1005.15C148.795 1005.15 152.406 1002.84 152.406 999.978C152.406 997.12 148.795 994.804 144.339 994.804C139.884 994.804 136.272 997.12 136.272 999.978C136.272 1002.84 139.884 1005.15 144.339 1005.15Z" fill="#FFC985"/>
<path d="M268.665 1005.15C273.12 1005.15 276.732 1002.84 276.732 999.978C276.732 997.12 273.12 994.804 268.665 994.804C264.21 994.804 260.598 997.12 260.598 999.978C260.598 1002.84 264.21 1005.15 268.665 1005.15Z" fill="#FFC985"/>
<path d="M114.919 934.194C118.064 934.194 120.613 932.705 120.613 930.868C120.613 929.031 118.064 927.542 114.919 927.542C111.774 927.542 109.225 929.031 109.225 930.868C109.225 932.705 111.774 934.194 114.919 934.194Z" fill="#FFC985"/>
<path d="M188.47 969.673C191.615 969.673 194.164 968.184 194.164 966.347C194.164 964.51 191.615 963.021 188.47 963.021C185.325 963.021 182.776 964.51 182.776 966.347C182.776 968.184 185.325 969.673 188.47 969.673Z" fill="#FFC985"/>
<path d="M316.117 1007.37C321.359 1007.37 325.608 1004.72 325.608 1001.46C325.608 998.19 321.359 995.543 316.117 995.543C310.876 995.543 306.627 998.19 306.627 1001.46C306.627 1004.72 310.876 1007.37 316.117 1007.37Z" fill="#FFC985"/>
<path d="M109.699 902.411C112.844 902.411 115.393 900.922 115.393 899.085C115.393 897.248 112.844 895.759 109.699 895.759C106.554 895.759 104.005 897.248 104.005 899.085C104.005 900.922 106.554 902.411 109.699 902.411Z" fill="#FFC985"/>
<path d="M151.932 942.694C155.077 942.694 157.626 941.205 157.626 939.368C157.626 937.531 155.077 936.042 151.932 936.042C148.787 936.042 146.237 937.531 146.237 939.368C146.237 941.205 148.787 942.694 151.932 942.694Z" fill="#FFC985"/>
<path d="M158.575 971.521C161.72 971.521 164.269 970.032 164.269 968.195C164.269 966.358 161.72 964.869 158.575 964.869C155.43 964.869 152.881 966.358 152.881 968.195C152.881 970.032 155.43 971.521 158.575 971.521Z" fill="#FFC985"/>
<path d="M159.524 1002.93C166.076 1002.93 171.387 999.625 171.387 995.543C171.387 991.461 166.076 988.152 159.524 988.152C152.972 988.152 147.661 991.461 147.661 995.543C147.661 999.625 152.972 1002.93 159.524 1002.93Z" fill="#FFC985"/>
<path d="M254.429 988.891C257.574 988.891 260.123 987.401 260.123 985.565C260.123 983.728 257.574 982.238 254.429 982.238C251.284 982.238 248.735 983.728 248.735 985.565C248.735 987.401 251.284 988.891 254.429 988.891Z" fill="#FFC985"/>
<path d="M204.13 992.217C208.323 992.217 211.722 990.066 211.722 987.412C211.722 984.759 208.323 982.608 204.13 982.608C199.936 982.608 196.537 984.759 196.537 987.412C196.537 990.066 199.936 992.217 204.13 992.217Z" fill="#FFC985"/>
<path d="M231.652 980.39C235.845 980.39 239.244 978.239 239.244 975.586C239.244 972.933 235.845 970.782 231.652 970.782C227.459 970.782 224.06 972.933 224.06 975.586C224.06 978.239 227.459 980.39 231.652 980.39Z" fill="#FFC985"/>
<path d="M180.878 984.825C184.023 984.825 186.572 983.336 186.572 981.499C186.572 979.662 184.023 978.173 180.878 978.173C177.733 978.173 175.183 979.662 175.183 981.499C175.183 983.336 177.733 984.825 180.878 984.825Z" fill="#FFC985"/>
<path d="M1310.72 110.051C1315.44 110.051 1319.26 107.569 1319.26 104.507C1319.26 101.446 1315.44 98.9638 1310.72 98.9638C1306 98.9638 1302.18 101.446 1302.18 104.507C1302.18 107.569 1306 110.051 1310.72 110.051Z" fill="#FFC985"/>
<path d="M1324.01 97.1159C1331.08 97.1159 1336.82 93.6412 1336.82 89.3549C1336.82 85.0686 1331.08 81.5939 1324.01 81.5939C1316.93 81.5939 1311.2 85.0686 1311.2 89.3549C1311.2 93.6412 1316.93 97.1159 1324.01 97.1159Z" fill="#FFC985"/>
<path d="M1337.77 103.768C1343.27 103.768 1347.73 100.955 1347.73 97.4855C1347.73 94.0156 1343.27 91.2028 1337.77 91.2028C1332.27 91.2028 1327.8 94.0156 1327.8 97.4855C1327.8 100.955 1332.27 103.768 1337.77 103.768Z" fill="#FFC985"/>
<path d="M1225.78 66.8112C1232.86 66.8112 1238.59 63.3364 1238.59 59.0502C1238.59 54.7639 1232.86 51.2892 1225.78 51.2892C1218.71 51.2892 1212.97 54.7639 1212.97 59.0502C1212.97 63.3364 1218.71 66.8112 1225.78 66.8112Z" fill="#FFC985"/>
<path d="M1356.75 220.922C1362.78 220.922 1367.66 218.44 1367.66 215.379C1367.66 212.317 1362.78 209.835 1356.75 209.835C1350.72 209.835 1345.84 212.317 1345.84 215.379C1345.84 218.44 1350.72 220.922 1356.75 220.922Z" fill="#FFC985"/>
<path d="M1356.75 81.2243C1362.25 81.2243 1366.72 78.5769 1366.72 75.3112C1366.72 72.0455 1362.25 69.3981 1356.75 69.3981C1351.25 69.3981 1346.79 72.0455 1346.79 75.3112C1346.79 78.5769 1351.25 81.2243 1356.75 81.2243Z" fill="#FFC985"/>
<path d="M1298.38 83.0723C1303.89 83.0723 1308.35 80.4249 1308.35 77.1592C1308.35 73.8934 1303.89 71.246 1298.38 71.246C1292.88 71.246 1288.42 73.8934 1288.42 77.1592C1288.42 80.4249 1292.88 83.0723 1298.38 83.0723Z" fill="#FFC985"/>
<path d="M1315.94 78.2678C1324.07 78.2678 1330.65 74.1312 1330.65 69.0285C1330.65 63.9258 1324.07 59.7892 1315.94 59.7892C1307.82 59.7892 1301.23 63.9258 1301.23 69.0285C1301.23 74.1312 1307.82 78.2678 1315.94 78.2678Z" fill="#FFC985"/>
<path d="M1358.17 244.944C1363.68 244.944 1368.14 242.297 1368.14 239.031C1368.14 235.765 1363.68 233.118 1358.17 233.118C1352.67 233.118 1348.21 235.765 1348.21 239.031C1348.21 242.297 1352.67 244.944 1358.17 244.944Z" fill="#FFC985"/>
<path d="M1323.53 73.4634C1330.09 73.4634 1335.4 70.1541 1335.4 66.0719C1335.4 61.9898 1330.09 58.6805 1323.53 58.6805C1316.98 58.6805 1311.67 61.9898 1311.67 66.0719C1311.67 70.1541 1316.98 73.4634 1323.53 73.4634Z" fill="#FFC985"/>
<path d="M1252.83 70.1373C1259.38 70.1373 1264.69 66.8281 1264.69 62.7459C1264.69 58.6637 1259.38 55.3545 1252.83 55.3545C1246.28 55.3545 1240.97 58.6637 1240.97 62.7459C1240.97 66.8281 1246.28 70.1373 1252.83 70.1373Z" fill="#FFC985"/>
<path d="M1272.29 58.6806C1278.84 58.6806 1284.15 55.3713 1284.15 51.2892C1284.15 47.207 1278.84 43.8977 1272.29 43.8977C1265.73 43.8977 1260.42 47.207 1260.42 51.2892C1260.42 55.3713 1265.73 58.6806 1272.29 58.6806Z" fill="#FFC985"/>
<path d="M1354.85 106.355C1361.4 106.355 1366.72 103.046 1366.72 98.9639C1366.72 94.8817 1361.4 91.5724 1354.85 91.5724C1348.3 91.5724 1342.99 94.8817 1342.99 98.9639C1342.99 103.046 1348.3 106.355 1354.85 106.355Z" fill="#FFC985"/>
<path d="M1350.58 131.486C1357.13 131.486 1362.44 128.177 1362.44 124.095C1362.44 120.012 1357.13 116.703 1350.58 116.703C1344.03 116.703 1338.72 120.012 1338.72 124.095C1338.72 128.177 1344.03 131.486 1350.58 131.486Z" fill="#FFC985"/>
<path d="M1354.85 66.4416C1361.4 66.4416 1366.72 63.1323 1366.72 59.0501C1366.72 54.968 1361.4 51.6587 1354.85 51.6587C1348.3 51.6587 1342.99 54.968 1342.99 59.0501C1342.99 63.1323 1348.3 66.4416 1354.85 66.4416Z" fill="#FFC985"/>
<path d="M1356.28 187.291C1362.3 187.291 1367.19 184.313 1367.19 180.639C1367.19 176.965 1362.3 173.987 1356.28 173.987C1350.25 173.987 1345.36 176.965 1345.36 180.639C1345.36 184.313 1350.25 187.291 1356.28 187.291Z" fill="#FFC985"/>
<path d="M1178.33 63.8545C1184.36 63.8545 1189.24 60.8762 1189.24 57.2023C1189.24 53.5283 1184.36 50.55 1178.33 50.55C1172.3 50.55 1167.42 53.5283 1167.42 57.2023C1167.42 60.8762 1172.3 63.8545 1178.33 63.8545Z" fill="#FFC985"/>
<path d="M1343.94 79.7461C1348.66 79.7461 1352.48 77.2642 1352.48 74.2026C1352.48 71.1409 1348.66 68.659 1343.94 68.659C1339.22 68.659 1335.4 71.1409 1335.4 74.2026C1335.4 77.2642 1339.22 79.7461 1343.94 79.7461Z" fill="#FFC985"/>
<path d="M1308.35 94.8985C1312.02 94.8985 1314.99 92.913 1314.99 90.4637C1314.99 88.0144 1312.02 86.0288 1308.35 86.0288C1304.68 86.0288 1301.71 88.0144 1301.71 90.4637C1301.71 92.913 1304.68 94.8985 1308.35 94.8985Z" fill="#FFC985"/>
<path d="M1353.9 144.791C1359.14 144.791 1363.39 142.143 1363.39 138.877C1363.39 135.612 1359.14 132.964 1353.9 132.964C1348.66 132.964 1344.41 135.612 1344.41 138.877C1344.41 142.143 1348.66 144.791 1353.9 144.791Z" fill="#FFC985"/>
<path d="M1310.72 70.1373C1314.39 70.1373 1317.36 68.1517 1317.36 65.7024C1317.36 63.2531 1314.39 61.2675 1310.72 61.2675C1307.05 61.2675 1304.08 63.2531 1304.08 65.7024C1304.08 68.1517 1307.05 70.1373 1310.72 70.1373Z" fill="#FFC985"/>
<path d="M1337.29 118.182C1340.96 118.182 1343.94 116.196 1343.94 113.747C1343.94 111.297 1340.96 109.312 1337.29 109.312C1333.63 109.312 1330.65 111.297 1330.65 113.747C1330.65 116.196 1333.63 118.182 1337.29 118.182Z" fill="#FFC985"/>
<path d="M1335.4 132.964C1339.07 132.964 1342.04 130.979 1342.04 128.53C1342.04 126.08 1339.07 124.095 1335.4 124.095C1331.73 124.095 1328.75 126.08 1328.75 128.53C1328.75 130.979 1331.73 132.964 1335.4 132.964Z" fill="#FFC985"/>
<path d="M1358.65 168.074C1362.32 168.074 1365.29 166.088 1365.29 163.639C1365.29 161.189 1362.32 159.204 1358.65 159.204C1354.98 159.204 1352.01 161.189 1352.01 163.639C1352.01 166.088 1354.98 168.074 1358.65 168.074Z" fill="#FFC985"/>
<path d="M1350.11 201.335C1353.78 201.335 1356.75 199.349 1356.75 196.9C1356.75 194.451 1353.78 192.465 1350.11 192.465C1346.44 192.465 1343.46 194.451 1343.46 196.9C1343.46 199.349 1346.44 201.335 1350.11 201.335Z" fill="#FFC985"/>
<path d="M1341.57 179.9C1345.23 179.9 1348.21 177.914 1348.21 175.465C1348.21 173.016 1345.23 171.03 1341.57 171.03C1337.9 171.03 1334.92 173.016 1334.92 175.465C1334.92 177.914 1337.9 179.9 1341.57 179.9Z" fill="#FFC985"/>
<path d="M1205.85 90.8333C1207.95 90.8333 1209.65 89.675 1209.65 88.2463C1209.65 86.8175 1207.95 85.6593 1205.85 85.6593C1203.75 85.6593 1202.06 86.8175 1202.06 88.2463C1202.06 89.675 1203.75 90.8333 1205.85 90.8333Z" fill="#FFC985"/>
<path d="M1340.62 157.356C1344.02 157.356 1346.79 155.536 1346.79 153.291C1346.79 151.046 1344.02 149.226 1340.62 149.226C1337.21 149.226 1334.45 151.046 1334.45 153.291C1334.45 155.536 1337.21 157.356 1340.62 157.356Z" fill="#FFC985"/>
<path d="M1319.26 169.182C1321.36 169.182 1323.06 168.024 1323.06 166.595C1323.06 165.167 1321.36 164.008 1319.26 164.008C1317.17 164.008 1315.47 165.167 1315.47 166.595C1315.47 168.024 1317.17 169.182 1319.26 169.182Z" fill="#FFC985"/>
<path d="M1333.97 190.617C1336.07 190.617 1337.77 189.459 1337.77 188.03C1337.77 186.602 1336.07 185.443 1333.97 185.443C1331.88 185.443 1330.18 186.602 1330.18 188.03C1330.18 189.459 1331.88 190.617 1333.97 190.617Z" fill="#FFC985"/>
<path d="M1338.24 205.77C1340.34 205.77 1342.04 204.612 1342.04 203.183C1342.04 201.754 1340.34 200.596 1338.24 200.596C1336.15 200.596 1334.45 201.754 1334.45 203.183C1334.45 204.612 1336.15 205.77 1338.24 205.77Z" fill="#FFC985"/>
<path d="M1340.62 230.901C1342.71 230.901 1344.41 229.742 1344.41 228.314C1344.41 226.885 1342.71 225.727 1340.62 225.727C1338.52 225.727 1336.82 226.885 1336.82 228.314C1336.82 229.742 1338.52 230.901 1340.62 230.901Z" fill="#FFC985"/>
<path d="M1295.06 63.8545C1298.73 63.8545 1301.71 61.869 1301.71 59.4197C1301.71 56.9704 1298.73 54.9848 1295.06 54.9848C1291.39 54.9848 1288.42 56.9704 1288.42 59.4197C1288.42 61.869 1291.39 63.8545 1295.06 63.8545Z" fill="#FFC985"/>
<path d="M1190.19 63.8545C1193.86 63.8545 1196.84 61.869 1196.84 59.4197C1196.84 56.9704 1193.86 54.9848 1190.19 54.9848C1186.52 54.9848 1183.55 56.9704 1183.55 59.4197C1183.55 61.869 1186.52 63.8545 1190.19 63.8545Z" fill="#FFC985"/>
<path d="M1320.21 120.769C1322.83 120.769 1324.96 119.445 1324.96 117.812C1324.96 116.179 1322.83 114.855 1320.21 114.855C1317.59 114.855 1315.47 116.179 1315.47 117.812C1315.47 119.445 1317.59 120.769 1320.21 120.769Z" fill="#FFC985"/>
<path d="M1258.05 90.8332C1260.67 90.8332 1262.79 89.5095 1262.79 87.8766C1262.79 86.2438 1260.67 84.9201 1258.05 84.9201C1255.43 84.9201 1253.3 86.2438 1253.3 87.8766C1253.3 89.5095 1255.43 90.8332 1258.05 90.8332Z" fill="#FFC985"/>
<path d="M1150.33 62.7459C1154.53 62.7459 1157.92 60.5949 1157.92 57.9414C1157.92 55.288 1154.53 53.137 1150.33 53.137C1146.14 53.137 1142.74 55.288 1142.74 57.9414C1142.74 60.5949 1146.14 62.7459 1150.33 62.7459Z" fill="#FFC985"/>
<path d="M1324.48 147.378C1327.1 147.378 1329.23 146.054 1329.23 144.421C1329.23 142.788 1327.1 141.465 1324.48 141.465C1321.86 141.465 1319.74 142.788 1319.74 144.421C1319.74 146.054 1321.86 147.378 1324.48 147.378Z" fill="#FFC985"/>
<path d="M1288.89 113.377C1291.51 113.377 1293.64 112.053 1293.64 110.421C1293.64 108.788 1291.51 107.464 1288.89 107.464C1286.27 107.464 1284.15 108.788 1284.15 110.421C1284.15 112.053 1286.27 113.377 1288.89 113.377Z" fill="#FFC985"/>
<path d="M1283.2 88.9854C1285.82 88.9854 1287.94 87.6617 1287.94 86.0288C1287.94 84.3959 1285.82 83.0722 1283.2 83.0722C1280.58 83.0722 1278.45 84.3959 1278.45 86.0288C1278.45 87.6617 1280.58 88.9854 1283.2 88.9854Z" fill="#FFC985"/>
<path d="M1282.25 69.3981C1287.75 69.3981 1292.22 66.5852 1292.22 63.1154C1292.22 59.6455 1287.75 56.8327 1282.25 56.8327C1276.75 56.8327 1272.28 59.6455 1272.28 63.1154C1272.28 66.5852 1276.75 69.3981 1282.25 69.3981Z" fill="#FFC985"/>
<path d="M1202.53 74.5721C1205.15 74.5721 1207.27 73.2484 1207.27 71.6156C1207.27 69.9827 1205.15 68.659 1202.53 68.659C1199.91 68.659 1197.78 69.9827 1197.78 71.6156C1197.78 73.2484 1199.91 74.5721 1202.53 74.5721Z" fill="#FFC985"/>
<path d="M1244.76 74.2025C1248.43 74.2025 1251.41 72.3824 1251.41 70.1373C1251.41 67.8921 1248.43 66.072 1244.76 66.072C1241.09 66.072 1238.12 67.8921 1238.12 70.1373C1238.12 72.3824 1241.09 74.2025 1244.76 74.2025Z" fill="#FFC985"/>
<path d="M1221.51 84.181C1225.18 84.181 1228.15 82.3609 1228.15 80.1157C1228.15 77.8705 1225.18 76.0504 1221.51 76.0504C1217.84 76.0504 1214.87 77.8705 1214.87 80.1157C1214.87 82.3609 1217.84 84.181 1221.51 84.181Z" fill="#FFC985"/>
<path d="M1264.22 77.8982C1266.84 77.8982 1268.96 76.5745 1268.96 74.9417C1268.96 73.3088 1266.84 71.9851 1264.22 71.9851C1261.6 71.9851 1259.47 73.3088 1259.47 74.9417C1259.47 76.5745 1261.6 77.8982 1264.22 77.8982Z" fill="#FFC985"/>
</g>
<path d="M1420.44 12.9117C1421.87 12.9117 1423.3 14.0184 1423.3 15.1251V1003.79C1423.3 1004.89 1421.87 1006 1420.44 1006H20.562C19.1306 1006 17.6992 1004.89 17.6992 1003.79V15.1251C17.6992 14.0184 19.1306 12.9117 20.562 12.9117H1420.44V12.9117ZM1420.44 6.64029H20.562C14.3594 6.64029 9.11102 10.6982 9.11102 15.494V1004.16C9.11102 1008.95 14.3594 1013.01 20.562 1013.01H1420.44C1426.64 1013.01 1431.89 1008.95 1431.89 1004.16V15.1251C1431.89 10.3293 1426.64 6.64029 1420.44 6.64029Z" fill="#FFC985"/>
<path d="M1420.44 8.85368C1421.87 8.85368 1423.3 9.96039 1423.3 11.0671V999.729C1423.3 1000.84 1421.87 1001.94 1420.44 1001.94H20.562C19.1306 1001.94 17.6992 1000.84 17.6992 999.729V10.6982C17.6992 9.59149 19.1306 8.48477 20.562 8.48477H1420.44V8.85368ZM1420.44 2.21341H20.562C14.3594 2.21341 9.11102 6.27135 9.11102 11.0671V999.729C9.11102 1004.53 14.3594 1008.58 20.562 1008.58H1420.44C1426.64 1008.58 1431.89 1004.53 1431.89 999.729V10.6982C1431.89 6.27135 1426.64 2.21341 1420.44 2.21341Z" fill="#FFC985"/>
<path opacity="0.1" d="M1440 0H0V1024H1440V0Z" fill="url(#paint0_radial_0:1216)"/>
</g>
<defs>
<radialGradient id="paint0_radial_0:1216" cx="0" cy="0" r="1" gradientUnits="userSpaceOnUse" gradientTransform="translate(719.991 512.006) scale(1017.51 723.755)">
<stop offset="0.2288" stop-color="#121111" stop-opacity="0"/>
<stop offset="1" stop-color="#121111"/>
</radialGradient>
<clipPath id="clip0_0:1216">
<rect width="1440" height="1024" fill="white"/>
</clipPath>
</defs>
</svg>
