<svg width="203" height="75" viewBox="0 0 203 75" fill="none" xmlns="http://www.w3.org/2000/svg">
<path d="M196.253 67.9318C195.81 69.6555 193.742 71.1141 191.673 71.1141C133.322 71.1141 74.9712 71.1141 16.6201 71.1141C14.6997 71.1141 12.4838 69.6555 12.0407 67.9318C7.01804 49.8992 7.6089 30.8059 13.6656 12.7733C14.2565 11.0496 16.3247 9.59106 18.3928 9.59106C75.5621 9.59106 132.879 9.59106 190.048 9.59106C191.969 9.59106 194.185 11.0496 194.776 12.7733C200.685 30.8059 201.128 49.8992 196.253 67.9318Z" stroke="#34579D" stroke-width="6.62963" stroke-miterlimit="10" stroke-linecap="round" stroke-linejoin="round"/>
<path d="M196.253 66.3408C195.81 68.0645 193.742 69.523 191.673 69.523C133.322 69.523 74.9712 69.523 16.6201 69.523C14.6997 69.523 12.4838 68.0645 12.0407 66.3408C7.01804 48.3082 7.6089 29.2148 13.6656 11.1822C14.2565 9.45852 16.3247 8 18.3928 8C75.5621 8 132.879 8 190.048 8C191.969 8 194.185 9.45852 194.776 11.1822C200.685 29.2148 201.128 48.3082 196.253 66.3408Z" stroke="#34579D" stroke-width="6.62963" stroke-miterlimit="10" stroke-linecap="round" stroke-linejoin="round"/>
<path d="M196.253 66.3408C195.81 68.0645 193.742 69.523 191.673 69.523C133.322 69.523 74.9712 69.523 16.6201 69.523C14.6997 69.523 12.4838 68.0645 12.0407 66.3408C7.01804 48.3082 7.6089 29.2148 13.6656 11.1822C14.2565 9.45852 16.3247 8 18.3928 8C75.5621 8 132.879 8 190.048 8C191.969 8 194.185 9.45852 194.776 11.1822C200.685 29.2148 201.128 48.3082 196.253 66.3408Z" fill="#4CC3F6"/>
<path d="M196.253 66.3408C195.81 68.0645 193.742 69.523 191.673 69.523C133.322 69.523 74.9712 69.523 16.6201 69.523C14.6997 69.523 12.4838 68.0645 12.0407 66.3408C7.01804 48.3082 7.6089 29.2148 13.6656 11.1822C14.2565 9.45852 16.3247 8 18.3928 8C75.5621 8 132.879 8 190.048 8C191.969 8 194.185 9.45852 194.776 11.1822C200.685 29.2148 201.128 48.3082 196.253 66.3408Z" fill="url(#paint0_linear_1422:107762)" style="mix-blend-mode:soft-light"/>
<path opacity="0.5" d="M16.6201 66.2082C15.4383 66.2082 14.1088 65.28 13.8134 64.2193C8.93849 46.4519 9.52935 27.7563 15.4383 9.98889C15.7338 8.92815 17.211 8 18.3928 8H190.048C191.23 8 192.708 8.92815 193.003 9.98889C198.912 27.7563 199.503 46.5845 194.628 64.2193C194.332 65.28 193.003 66.2082 191.821 66.2082H16.6201Z" fill="white"/>
<g filter="url(#filter0_d_1422:107762)">
<path d="M55.2206 47.5185C52.8361 47.5185 50.9873 46.9051 49.6741 45.6783C48.3782 44.4515 47.6871 42.7236 47.6007 40.4946C47.5834 40.0281 47.5747 39.2679 47.5747 38.2139C47.5747 37.1426 47.5834 36.365 47.6007 35.8812C47.6871 33.6695 48.3868 31.9503 49.7 30.7235C51.0305 29.4795 52.8707 28.8574 55.2206 28.8574C56.7584 28.8574 58.0975 29.1252 59.2379 29.6609C60.3783 30.1792 61.2595 30.8963 61.8815 31.8121C62.5036 32.7106 62.8319 33.73 62.8664 34.8704V34.9223C62.8664 35.0605 62.806 35.1814 62.685 35.2851C62.5813 35.3715 62.4604 35.4147 62.3222 35.4147H59.8599C59.6526 35.4147 59.4971 35.3715 59.3934 35.2851C59.2897 35.1987 59.2033 35.0346 59.1342 34.7927C58.8578 33.7041 58.3999 32.9438 57.7606 32.5119C57.1213 32.0626 56.266 31.838 55.1947 31.838C52.7065 31.838 51.4106 33.2289 51.307 36.0108C51.2897 36.4773 51.281 37.1944 51.281 38.162C51.281 39.1296 51.2897 39.864 51.307 40.3651C51.4106 43.1469 52.7065 44.5379 55.1947 44.5379C56.266 44.5379 57.1213 44.3133 57.7606 43.864C58.4172 43.4148 58.875 42.6545 59.1342 41.5832C59.1861 41.3413 59.2638 41.1772 59.3675 41.0908C59.4884 41.0044 59.6526 40.9612 59.8599 40.9612H62.3222C62.4777 40.9612 62.6073 41.013 62.7109 41.1167C62.8319 41.2204 62.8837 41.3499 62.8664 41.5055C62.8319 42.6459 62.5036 43.6739 61.8815 44.5897C61.2595 45.4882 60.3783 46.2053 59.2379 46.7409C58.0975 47.2593 56.7584 47.5185 55.2206 47.5185ZM71.5903 47.5185C69.5687 47.5185 68.005 47.0001 66.8991 45.9634C65.7933 44.9094 65.1972 43.4752 65.1108 41.661L65.0849 40.5206L65.1108 39.3802C65.1972 37.5832 65.8019 36.1577 66.925 35.1037C68.0482 34.0497 69.6033 33.5227 71.5903 33.5227C73.5774 33.5227 75.1325 34.0497 76.2556 35.1037C77.3787 36.1577 77.9834 37.5832 78.0698 39.3802C78.0871 39.5875 78.0958 39.9676 78.0958 40.5206C78.0958 41.0735 78.0871 41.4536 78.0698 41.661C77.9834 43.4752 77.3873 44.9094 76.2815 45.9634C75.1756 47.0001 73.6119 47.5185 71.5903 47.5185ZM71.5903 44.9526C72.5061 44.9526 73.2145 44.6675 73.7156 44.0973C74.2167 43.5098 74.4931 42.6545 74.545 41.5314C74.5623 41.3586 74.5709 41.0217 74.5709 40.5206C74.5709 40.0195 74.5623 39.6825 74.545 39.5098C74.4931 38.3866 74.2167 37.54 73.7156 36.9698C73.2145 36.3823 72.5061 36.0886 71.5903 36.0886C70.6745 36.0886 69.9661 36.3823 69.465 36.9698C68.9639 37.54 68.6875 38.3866 68.6356 39.5098L68.6097 40.5206L68.6356 41.5314C68.6875 42.6545 68.9639 43.5098 69.465 44.0973C69.9661 44.6675 70.6745 44.9526 71.5903 44.9526ZM81.5894 47.2593C81.4166 47.2593 81.2698 47.1988 81.1488 47.0779C81.0279 46.9569 80.9674 46.81 80.9674 46.6372V34.4039C80.9674 34.2311 81.0279 34.0842 81.1488 33.9633C81.2698 33.8423 81.4166 33.7819 81.5894 33.7819H83.7147C83.8875 33.7819 84.0344 33.8423 84.1553 33.9633C84.2763 34.0842 84.3368 34.2311 84.3368 34.4039V35.4665C85.3562 34.1706 86.799 33.5227 88.6651 33.5227C90.2547 33.5227 91.5161 34.0497 92.4491 35.1037C93.3822 36.1404 93.8487 37.5573 93.8487 39.3543V46.6372C93.8487 46.81 93.7882 46.9569 93.6673 47.0779C93.5636 47.1988 93.4167 47.2593 93.2267 47.2593H90.9459C90.7731 47.2593 90.6262 47.1988 90.5053 47.0779C90.3843 46.9569 90.3238 46.81 90.3238 46.6372V39.5098C90.3238 38.4903 90.0733 37.7041 89.5722 37.1512C89.0884 36.581 88.38 36.2959 87.4469 36.2959C86.5312 36.2959 85.8054 36.581 85.2698 37.1512C84.7514 37.7214 84.4923 38.5076 84.4923 39.5098V46.6372C84.4923 46.81 84.4318 46.9569 84.3108 47.0779C84.2072 47.1988 84.0603 47.2593 83.8702 47.2593H81.5894ZM103.08 47.2593C101.507 47.2593 100.324 46.8532 99.529 46.0411C98.7515 45.2117 98.3627 44.0022 98.3627 42.4126V36.5292H96.3152C96.1424 36.5292 95.9955 36.4687 95.8746 36.3478C95.7536 36.2095 95.6931 36.054 95.6931 35.8812V34.4039C95.6931 34.2311 95.7536 34.0842 95.8746 33.9633C95.9955 33.8423 96.1424 33.7819 96.3152 33.7819H98.3627V29.4795C98.3627 29.2894 98.4232 29.1425 98.5441 29.0388C98.6651 28.9179 98.812 28.8574 98.9847 28.8574H101.084C101.274 28.8574 101.421 28.9179 101.525 29.0388C101.646 29.1425 101.706 29.2894 101.706 29.4795V33.7819H104.946C105.136 33.7819 105.283 33.8423 105.387 33.9633C105.507 34.067 105.568 34.2138 105.568 34.4039V35.8812C105.568 36.0713 105.507 36.2268 105.387 36.3478C105.266 36.4687 105.119 36.5292 104.946 36.5292H101.706V42.1534C101.706 42.8964 101.836 43.458 102.095 43.8381C102.354 44.2182 102.786 44.4083 103.391 44.4083H105.179C105.352 44.4083 105.499 44.4688 105.62 44.5897C105.741 44.7107 105.801 44.8575 105.801 45.0303V46.6372C105.801 46.81 105.741 46.9569 105.62 47.0779C105.516 47.1988 105.369 47.2593 105.179 47.2593H103.08ZM108.619 31.5529C108.446 31.5529 108.299 31.4924 108.178 31.3715C108.057 31.2505 107.997 31.1037 107.997 30.9309V29.0648C107.997 28.892 108.057 28.7451 108.178 28.6242C108.299 28.5032 108.446 28.4427 108.619 28.4427H110.977C111.15 28.4427 111.297 28.5032 111.418 28.6242C111.556 28.7451 111.625 28.892 111.625 29.0648V30.9309C111.625 31.1037 111.565 31.2505 111.444 31.3715C111.323 31.4924 111.167 31.5529 110.977 31.5529H108.619ZM108.722 47.2593C108.55 47.2593 108.403 47.1988 108.282 47.0779C108.161 46.9569 108.1 46.81 108.1 46.6372V34.4039C108.1 34.2311 108.161 34.0842 108.282 33.9633C108.403 33.8423 108.55 33.7819 108.722 33.7819H110.874C111.064 33.7819 111.211 33.8423 111.314 33.9633C111.435 34.067 111.496 34.2138 111.496 34.4039V46.6372C111.496 46.81 111.435 46.9569 111.314 47.0779C111.211 47.1988 111.064 47.2593 110.874 47.2593H108.722ZM115.556 47.2593C115.384 47.2593 115.237 47.1988 115.116 47.0779C114.995 46.9569 114.934 46.81 114.934 46.6372V34.4039C114.934 34.2311 114.995 34.0842 115.116 33.9633C115.237 33.8423 115.384 33.7819 115.556 33.7819H117.682C117.854 33.7819 118.001 33.8423 118.122 33.9633C118.243 34.0842 118.304 34.2311 118.304 34.4039V35.4665C119.323 34.1706 120.766 33.5227 122.632 33.5227C124.222 33.5227 125.483 34.0497 126.416 35.1037C127.349 36.1404 127.816 37.5573 127.816 39.3543V46.6372C127.816 46.81 127.755 46.9569 127.634 47.0779C127.53 47.1988 127.384 47.2593 127.194 47.2593H124.913C124.74 47.2593 124.593 47.1988 124.472 47.0779C124.351 46.9569 124.291 46.81 124.291 46.6372V39.5098C124.291 38.4903 124.04 37.7041 123.539 37.1512C123.055 36.581 122.347 36.2959 121.414 36.2959C120.498 36.2959 119.772 36.581 119.237 37.1512C118.718 37.7214 118.459 38.5076 118.459 39.5098V46.6372C118.459 46.81 118.399 46.9569 118.278 47.0779C118.174 47.1988 118.027 47.2593 117.837 47.2593H115.556ZM136.11 47.5185C134.52 47.5185 133.268 47.0001 132.352 45.9634C131.436 44.9094 130.978 43.4839 130.978 41.6869V34.4039C130.978 34.2311 131.039 34.0842 131.16 33.9633C131.281 33.8423 131.427 33.7819 131.6 33.7819H133.881C134.071 33.7819 134.218 33.8423 134.322 33.9633C134.443 34.067 134.503 34.2138 134.503 34.4039V41.5314C134.503 43.6739 135.445 44.7452 137.328 44.7452C138.227 44.7452 138.935 44.4601 139.453 43.8899C139.989 43.3197 140.257 42.5335 140.257 41.5314V34.4039C140.257 34.2311 140.317 34.0842 140.438 33.9633C140.559 33.8423 140.706 33.7819 140.879 33.7819H143.16C143.35 33.7819 143.497 33.8423 143.6 33.9633C143.721 34.067 143.782 34.2138 143.782 34.4039V46.6372C143.782 46.81 143.721 46.9569 143.6 47.0779C143.497 47.1988 143.35 47.2593 143.16 47.2593H141.06C140.888 47.2593 140.741 47.1988 140.62 47.0779C140.499 46.9569 140.438 46.81 140.438 46.6372V45.5746C139.471 46.8705 138.028 47.5185 136.11 47.5185ZM153.011 47.5185C151.093 47.5185 149.564 46.9655 148.424 45.8597C147.3 44.7366 146.704 43.1642 146.635 41.1426L146.609 40.4946L146.635 39.8467C146.722 37.8769 147.326 36.3305 148.449 35.2074C149.59 34.0842 151.11 33.5227 153.011 33.5227C155.05 33.5227 156.622 34.1447 157.728 35.3888C158.851 36.6329 159.413 38.2916 159.413 40.3651V40.9093C159.413 41.0821 159.352 41.229 159.231 41.3499C159.11 41.4709 158.955 41.5314 158.765 41.5314H150.16V41.7387C150.195 42.6891 150.454 43.4925 150.938 44.1491C151.439 44.7884 152.121 45.1081 152.985 45.1081C154.005 45.1081 154.825 44.7107 155.447 43.9158C155.603 43.7258 155.724 43.6048 155.81 43.553C155.914 43.5012 156.061 43.4752 156.251 43.4752H158.48C158.635 43.4752 158.765 43.5271 158.869 43.6307C158.989 43.7171 159.05 43.8294 159.05 43.9677C159.05 44.3824 158.799 44.8748 158.298 45.445C157.815 45.9979 157.115 46.4817 156.199 46.8964C155.283 47.3111 154.221 47.5185 153.011 47.5185ZM155.888 39.3543V39.2765C155.888 38.2571 155.629 37.4363 155.11 36.8143C154.609 36.1922 153.91 35.8812 153.011 35.8812C152.113 35.8812 151.413 36.1922 150.912 36.8143C150.411 37.4363 150.16 38.2571 150.16 39.2765V39.3543H155.888Z" fill="#FCECD2"/>
<path d="M55.2206 47.5185C52.8361 47.5185 50.9873 46.9051 49.6741 45.6783C48.3782 44.4515 47.6871 42.7236 47.6007 40.4946C47.5834 40.0281 47.5747 39.2679 47.5747 38.2139C47.5747 37.1426 47.5834 36.365 47.6007 35.8812C47.6871 33.6695 48.3868 31.9503 49.7 30.7235C51.0305 29.4795 52.8707 28.8574 55.2206 28.8574C56.7584 28.8574 58.0975 29.1252 59.2379 29.6609C60.3783 30.1792 61.2595 30.8963 61.8815 31.8121C62.5036 32.7106 62.8319 33.73 62.8664 34.8704V34.9223C62.8664 35.0605 62.806 35.1814 62.685 35.2851C62.5813 35.3715 62.4604 35.4147 62.3222 35.4147H59.8599C59.6526 35.4147 59.4971 35.3715 59.3934 35.2851C59.2897 35.1987 59.2033 35.0346 59.1342 34.7927C58.8578 33.7041 58.3999 32.9438 57.7606 32.5119C57.1213 32.0626 56.266 31.838 55.1947 31.838C52.7065 31.838 51.4106 33.2289 51.307 36.0108C51.2897 36.4773 51.281 37.1944 51.281 38.162C51.281 39.1296 51.2897 39.864 51.307 40.3651C51.4106 43.1469 52.7065 44.5379 55.1947 44.5379C56.266 44.5379 57.1213 44.3133 57.7606 43.864C58.4172 43.4148 58.875 42.6545 59.1342 41.5832C59.1861 41.3413 59.2638 41.1772 59.3675 41.0908C59.4884 41.0044 59.6526 40.9612 59.8599 40.9612H62.3222C62.4777 40.9612 62.6073 41.013 62.7109 41.1167C62.8319 41.2204 62.8837 41.3499 62.8664 41.5055C62.8319 42.6459 62.5036 43.6739 61.8815 44.5897C61.2595 45.4882 60.3783 46.2053 59.2379 46.7409C58.0975 47.2593 56.7584 47.5185 55.2206 47.5185ZM71.5903 47.5185C69.5687 47.5185 68.005 47.0001 66.8991 45.9634C65.7933 44.9094 65.1972 43.4752 65.1108 41.661L65.0849 40.5206L65.1108 39.3802C65.1972 37.5832 65.8019 36.1577 66.925 35.1037C68.0482 34.0497 69.6033 33.5227 71.5903 33.5227C73.5774 33.5227 75.1325 34.0497 76.2556 35.1037C77.3787 36.1577 77.9834 37.5832 78.0698 39.3802C78.0871 39.5875 78.0958 39.9676 78.0958 40.5206C78.0958 41.0735 78.0871 41.4536 78.0698 41.661C77.9834 43.4752 77.3873 44.9094 76.2815 45.9634C75.1756 47.0001 73.6119 47.5185 71.5903 47.5185ZM71.5903 44.9526C72.5061 44.9526 73.2145 44.6675 73.7156 44.0973C74.2167 43.5098 74.4931 42.6545 74.545 41.5314C74.5623 41.3586 74.5709 41.0217 74.5709 40.5206C74.5709 40.0195 74.5623 39.6825 74.545 39.5098C74.4931 38.3866 74.2167 37.54 73.7156 36.9698C73.2145 36.3823 72.5061 36.0886 71.5903 36.0886C70.6745 36.0886 69.9661 36.3823 69.465 36.9698C68.9639 37.54 68.6875 38.3866 68.6356 39.5098L68.6097 40.5206L68.6356 41.5314C68.6875 42.6545 68.9639 43.5098 69.465 44.0973C69.9661 44.6675 70.6745 44.9526 71.5903 44.9526ZM81.5894 47.2593C81.4166 47.2593 81.2698 47.1988 81.1488 47.0779C81.0279 46.9569 80.9674 46.81 80.9674 46.6372V34.4039C80.9674 34.2311 81.0279 34.0842 81.1488 33.9633C81.2698 33.8423 81.4166 33.7819 81.5894 33.7819H83.7147C83.8875 33.7819 84.0344 33.8423 84.1553 33.9633C84.2763 34.0842 84.3368 34.2311 84.3368 34.4039V35.4665C85.3562 34.1706 86.799 33.5227 88.6651 33.5227C90.2547 33.5227 91.5161 34.0497 92.4491 35.1037C93.3822 36.1404 93.8487 37.5573 93.8487 39.3543V46.6372C93.8487 46.81 93.7882 46.9569 93.6673 47.0779C93.5636 47.1988 93.4167 47.2593 93.2267 47.2593H90.9459C90.7731 47.2593 90.6262 47.1988 90.5053 47.0779C90.3843 46.9569 90.3238 46.81 90.3238 46.6372V39.5098C90.3238 38.4903 90.0733 37.7041 89.5722 37.1512C89.0884 36.581 88.38 36.2959 87.4469 36.2959C86.5312 36.2959 85.8054 36.581 85.2698 37.1512C84.7514 37.7214 84.4923 38.5076 84.4923 39.5098V46.6372C84.4923 46.81 84.4318 46.9569 84.3108 47.0779C84.2072 47.1988 84.0603 47.2593 83.8702 47.2593H81.5894ZM103.08 47.2593C101.507 47.2593 100.324 46.8532 99.529 46.0411C98.7515 45.2117 98.3627 44.0022 98.3627 42.4126V36.5292H96.3152C96.1424 36.5292 95.9955 36.4687 95.8746 36.3478C95.7536 36.2095 95.6931 36.054 95.6931 35.8812V34.4039C95.6931 34.2311 95.7536 34.0842 95.8746 33.9633C95.9955 33.8423 96.1424 33.7819 96.3152 33.7819H98.3627V29.4795C98.3627 29.2894 98.4232 29.1425 98.5441 29.0388C98.6651 28.9179 98.812 28.8574 98.9847 28.8574H101.084C101.274 28.8574 101.421 28.9179 101.525 29.0388C101.646 29.1425 101.706 29.2894 101.706 29.4795V33.7819H104.946C105.136 33.7819 105.283 33.8423 105.387 33.9633C105.507 34.067 105.568 34.2138 105.568 34.4039V35.8812C105.568 36.0713 105.507 36.2268 105.387 36.3478C105.266 36.4687 105.119 36.5292 104.946 36.5292H101.706V42.1534C101.706 42.8964 101.836 43.458 102.095 43.8381C102.354 44.2182 102.786 44.4083 103.391 44.4083H105.179C105.352 44.4083 105.499 44.4688 105.62 44.5897C105.741 44.7107 105.801 44.8575 105.801 45.0303V46.6372C105.801 46.81 105.741 46.9569 105.62 47.0779C105.516 47.1988 105.369 47.2593 105.179 47.2593H103.08ZM108.619 31.5529C108.446 31.5529 108.299 31.4924 108.178 31.3715C108.057 31.2505 107.997 31.1037 107.997 30.9309V29.0648C107.997 28.892 108.057 28.7451 108.178 28.6242C108.299 28.5032 108.446 28.4427 108.619 28.4427H110.977C111.15 28.4427 111.297 28.5032 111.418 28.6242C111.556 28.7451 111.625 28.892 111.625 29.0648V30.9309C111.625 31.1037 111.565 31.2505 111.444 31.3715C111.323 31.4924 111.167 31.5529 110.977 31.5529H108.619ZM108.722 47.2593C108.55 47.2593 108.403 47.1988 108.282 47.0779C108.161 46.9569 108.1 46.81 108.1 46.6372V34.4039C108.1 34.2311 108.161 34.0842 108.282 33.9633C108.403 33.8423 108.55 33.7819 108.722 33.7819H110.874C111.064 33.7819 111.211 33.8423 111.314 33.9633C111.435 34.067 111.496 34.2138 111.496 34.4039V46.6372C111.496 46.81 111.435 46.9569 111.314 47.0779C111.211 47.1988 111.064 47.2593 110.874 47.2593H108.722ZM115.556 47.2593C115.384 47.2593 115.237 47.1988 115.116 47.0779C114.995 46.9569 114.934 46.81 114.934 46.6372V34.4039C114.934 34.2311 114.995 34.0842 115.116 33.9633C115.237 33.8423 115.384 33.7819 115.556 33.7819H117.682C117.854 33.7819 118.001 33.8423 118.122 33.9633C118.243 34.0842 118.304 34.2311 118.304 34.4039V35.4665C119.323 34.1706 120.766 33.5227 122.632 33.5227C124.222 33.5227 125.483 34.0497 126.416 35.1037C127.349 36.1404 127.816 37.5573 127.816 39.3543V46.6372C127.816 46.81 127.755 46.9569 127.634 47.0779C127.53 47.1988 127.384 47.2593 127.194 47.2593H124.913C124.74 47.2593 124.593 47.1988 124.472 47.0779C124.351 46.9569 124.291 46.81 124.291 46.6372V39.5098C124.291 38.4903 124.04 37.7041 123.539 37.1512C123.055 36.581 122.347 36.2959 121.414 36.2959C120.498 36.2959 119.772 36.581 119.237 37.1512C118.718 37.7214 118.459 38.5076 118.459 39.5098V46.6372C118.459 46.81 118.399 46.9569 118.278 47.0779C118.174 47.1988 118.027 47.2593 117.837 47.2593H115.556ZM136.11 47.5185C134.52 47.5185 133.268 47.0001 132.352 45.9634C131.436 44.9094 130.978 43.4839 130.978 41.6869V34.4039C130.978 34.2311 131.039 34.0842 131.16 33.9633C131.281 33.8423 131.427 33.7819 131.6 33.7819H133.881C134.071 33.7819 134.218 33.8423 134.322 33.9633C134.443 34.067 134.503 34.2138 134.503 34.4039V41.5314C134.503 43.6739 135.445 44.7452 137.328 44.7452C138.227 44.7452 138.935 44.4601 139.453 43.8899C139.989 43.3197 140.257 42.5335 140.257 41.5314V34.4039C140.257 34.2311 140.317 34.0842 140.438 33.9633C140.559 33.8423 140.706 33.7819 140.879 33.7819H143.16C143.35 33.7819 143.497 33.8423 143.6 33.9633C143.721 34.067 143.782 34.2138 143.782 34.4039V46.6372C143.782 46.81 143.721 46.9569 143.6 47.0779C143.497 47.1988 143.35 47.2593 143.16 47.2593H141.06C140.888 47.2593 140.741 47.1988 140.62 47.0779C140.499 46.9569 140.438 46.81 140.438 46.6372V45.5746C139.471 46.8705 138.028 47.5185 136.11 47.5185ZM153.011 47.5185C151.093 47.5185 149.564 46.9655 148.424 45.8597C147.3 44.7366 146.704 43.1642 146.635 41.1426L146.609 40.4946L146.635 39.8467C146.722 37.8769 147.326 36.3305 148.449 35.2074C149.59 34.0842 151.11 33.5227 153.011 33.5227C155.05 33.5227 156.622 34.1447 157.728 35.3888C158.851 36.6329 159.413 38.2916 159.413 40.3651V40.9093C159.413 41.0821 159.352 41.229 159.231 41.3499C159.11 41.4709 158.955 41.5314 158.765 41.5314H150.16V41.7387C150.195 42.6891 150.454 43.4925 150.938 44.1491C151.439 44.7884 152.121 45.1081 152.985 45.1081C154.005 45.1081 154.825 44.7107 155.447 43.9158C155.603 43.7258 155.724 43.6048 155.81 43.553C155.914 43.5012 156.061 43.4752 156.251 43.4752H158.48C158.635 43.4752 158.765 43.5271 158.869 43.6307C158.989 43.7171 159.05 43.8294 159.05 43.9677C159.05 44.3824 158.799 44.8748 158.298 45.445C157.815 45.9979 157.115 46.4817 156.199 46.8964C155.283 47.3111 154.221 47.5185 153.011 47.5185ZM155.888 39.3543V39.2765C155.888 38.2571 155.629 37.4363 155.11 36.8143C154.609 36.1922 153.91 35.8812 153.011 35.8812C152.113 35.8812 151.413 36.1922 150.912 36.8143C150.411 37.4363 150.16 38.2571 150.16 39.2765V39.3543H155.888Z" fill="url(#paint1_linear_1422:107762)" fill-opacity="0.3"/>
<path d="M49.6741 45.6783L49.0377 46.3505L49.0422 46.3547L49.6741 45.6783ZM47.6007 40.4946L46.6757 40.5289L46.6757 40.5305L47.6007 40.4946ZM47.6007 35.8812L46.6757 35.8451L46.6756 35.8482L47.6007 35.8812ZM49.7 30.7235L50.3319 31.3999L50.3322 31.3996L49.7 30.7235ZM59.2379 29.6609L58.8443 30.4988L58.8549 30.5036L59.2379 29.6609ZM61.8815 31.8121L61.1158 32.3322L61.1205 32.339L61.8815 31.8121ZM62.8664 34.8704H63.7921V34.8564L63.7917 34.8424L62.8664 34.8704ZM62.685 35.2851L63.2777 35.9963L63.2874 35.9879L62.685 35.2851ZM59.3934 35.2851L58.8008 35.9962L58.8008 35.9962L59.3934 35.2851ZM59.1342 34.7927L58.2371 35.0205L58.2404 35.0338L58.2442 35.047L59.1342 34.7927ZM57.7606 32.5119L57.2284 33.2692L57.2353 33.2741L57.2423 33.2789L57.7606 32.5119ZM51.307 36.0108L50.382 35.9763L50.3819 35.9766L51.307 36.0108ZM51.307 40.3651L50.3819 40.397L50.382 40.3995L51.307 40.3651ZM57.7606 43.864L57.2378 43.1L57.2284 43.1066L57.7606 43.864ZM59.1342 41.5832L60.0339 41.8009L60.0368 41.7891L60.0393 41.7772L59.1342 41.5832ZM59.3675 41.0908L58.8295 40.3375L58.8014 40.3576L58.7749 40.3797L59.3675 41.0908ZM62.7109 41.1167L62.0564 41.7712L62.0815 41.7964L62.1085 41.8195L62.7109 41.1167ZM62.8664 41.5055L61.9464 41.4032L61.9423 41.4402L61.9412 41.4774L62.8664 41.5055ZM61.8815 44.5897L62.6426 45.1166L62.6473 45.1098L61.8815 44.5897ZM59.2379 46.7409L59.621 47.5837L59.6314 47.5787L59.2379 46.7409ZM55.2206 46.5928C52.9922 46.5928 51.3979 46.0219 50.306 45.0019L49.0422 46.3547C50.5767 47.7882 52.6801 48.4441 55.2206 48.4441V46.5928ZM50.3105 45.0061C49.2316 43.9847 48.6051 42.5097 48.5256 40.4588L46.6757 40.5305C46.769 42.9375 47.5249 44.9183 49.0378 46.3505L50.3105 45.0061ZM48.5257 40.4604C48.5091 40.0124 48.5004 39.267 48.5004 38.2139H46.6491C46.6491 39.2688 46.6577 40.0439 46.6757 40.5289L48.5257 40.4604ZM48.5004 38.2139C48.5004 37.1437 48.5091 36.3803 48.5257 35.9143L46.6756 35.8482C46.6577 36.3497 46.6491 37.1414 46.6491 38.2139H48.5004ZM48.5256 35.9174C48.6048 33.8895 49.2364 32.4234 50.3319 31.3999L49.0681 30.0471C47.5373 31.4772 46.7693 33.4495 46.6757 35.8451L48.5256 35.9174ZM50.3322 31.3996C51.4459 30.3583 53.035 29.7831 55.2206 29.7831V27.9318C52.7064 27.9318 50.6151 28.6006 49.0678 30.0474L50.3322 31.3996ZM55.2206 29.7831C56.6518 29.7831 57.8512 30.0322 58.8444 30.4987L59.6314 28.823C58.3438 28.2183 56.865 27.9318 55.2206 27.9318V29.7831ZM58.8549 30.5036C59.8613 30.961 60.6014 31.5748 61.1158 32.3322L62.6473 31.292C61.9176 30.2178 60.8952 29.3974 59.6209 28.8182L58.8549 30.5036ZM61.1205 32.339C61.6362 33.0838 61.9118 33.9284 61.9412 34.8985L63.7917 34.8424C63.7519 33.5316 63.371 32.3373 62.6426 31.2852L61.1205 32.339ZM61.9408 34.8704V34.9223H63.7921V34.8704H61.9408ZM61.9408 34.9223C61.9408 34.851 61.9577 34.7737 61.9932 34.7027C62.027 34.635 62.0658 34.5967 62.0826 34.5823L63.2874 35.9879C63.5788 35.7382 63.7921 35.3734 63.7921 34.9223H61.9408ZM62.0924 34.574C62.1199 34.5511 62.1581 34.5274 62.2052 34.5106C62.252 34.4939 62.2933 34.4891 62.3222 34.4891V36.3403C62.6712 36.3403 63.0032 36.2249 63.2776 35.9962L62.0924 34.574ZM62.3222 34.4891H59.8599V36.3403H62.3222V34.4891ZM59.8599 34.4891C59.8175 34.4891 59.8135 34.4843 59.8355 34.4904C59.8599 34.4972 59.9192 34.5184 59.986 34.574L58.8008 35.9962C59.1397 36.2786 59.5468 36.3403 59.8599 36.3403V34.4891ZM59.986 34.574C60.0219 34.604 60.0445 34.6307 60.0563 34.6463C60.0682 34.6619 60.072 34.6699 60.07 34.6661C60.0681 34.6624 60.0622 34.6506 60.0537 34.6285C60.0453 34.6064 60.0352 34.5768 60.0243 34.5384L58.2442 35.047C58.3266 35.3353 58.4764 35.7258 58.8008 35.9962L59.986 34.574ZM60.0314 34.5648C59.7241 33.3547 59.1763 32.3513 58.2788 31.7449L57.2423 33.2789C57.6235 33.5364 57.9915 34.0535 58.2371 35.0205L60.0314 34.5648ZM58.2928 31.7545C57.4493 31.1618 56.3875 30.9124 55.1947 30.9124V32.7636C56.1444 32.7636 56.7932 32.9634 57.2284 33.2692L58.2928 31.7545ZM55.1947 30.9124C53.7772 30.9124 52.5522 31.3134 51.6794 32.2502C50.823 33.1694 50.4383 34.464 50.382 35.9763L52.232 36.0453C52.2793 34.7757 52.5944 33.9839 53.0339 33.5122C53.457 33.058 54.124 32.7636 55.1947 32.7636V30.9124ZM50.3819 35.9766C50.364 36.4611 50.3554 37.1924 50.3554 38.162H52.2067C52.2067 37.1965 52.2154 36.4936 52.232 36.0451L50.3819 35.9766ZM50.3554 38.162C50.3554 39.1324 50.364 39.8796 50.3819 40.397L52.2321 40.3332C52.2153 39.8484 52.2067 39.1268 52.2067 38.162H50.3554ZM50.382 40.3995C50.4383 41.9118 50.823 43.2065 51.6794 44.1257C52.5522 45.0624 53.7772 45.4635 55.1947 45.4635V43.6122C54.124 43.6122 53.457 43.3178 53.0339 42.8637C52.5944 42.3919 52.2793 41.6001 52.232 40.3306L50.382 40.3995ZM55.1947 45.4635C56.3875 45.4635 57.4493 45.214 58.2928 44.6214L57.2284 43.1066C56.7932 43.4125 56.1444 43.6122 55.1947 43.6122V45.4635ZM58.2833 44.6279C59.1909 44.007 59.7417 43.0086 60.0339 41.8009L58.2345 41.3655C58.0084 42.3004 57.6435 42.8225 57.2379 43.1001L58.2833 44.6279ZM60.0393 41.7772C60.0469 41.7416 60.0541 41.7157 60.0598 41.6978C60.0655 41.6798 60.0689 41.673 60.068 41.6749C60.0671 41.6767 60.0602 41.6911 60.0443 41.713C60.0283 41.7352 60.0012 41.7676 59.9601 41.8019L58.7749 40.3797C58.4257 40.6707 58.2927 41.0928 58.2291 41.3893L60.0393 41.7772ZM59.9055 41.844C59.8626 41.8746 59.8282 41.8858 59.8169 41.8887C59.8073 41.8913 59.8189 41.8868 59.8599 41.8868V40.0355C59.5337 40.0355 59.1585 40.1025 58.8295 40.3375L59.9055 41.844ZM59.8599 41.8868H62.3222V40.0355H59.8599V41.8868ZM62.3222 41.8868C62.2956 41.8868 62.2486 41.882 62.1922 41.8595C62.1348 41.8365 62.0886 41.8035 62.0564 41.7712L63.3655 40.4622C63.0768 40.1735 62.7066 40.0355 62.3222 40.0355V41.8868ZM62.1085 41.8195C62.0718 41.788 62.018 41.7278 61.9811 41.6354C61.9439 41.5424 61.9403 41.4583 61.9464 41.4032L63.7864 41.6077C63.8382 41.1413 63.6617 40.7125 63.3133 40.4139L62.1085 41.8195ZM61.9412 41.4774C61.9118 42.4476 61.6359 43.304 61.1158 44.0696L62.6473 45.1098C63.3713 44.0439 63.7519 42.8441 63.7917 41.5335L61.9412 41.4774ZM61.1205 44.0628C60.6048 44.8077 59.8599 45.4261 58.8444 45.9031L59.6314 47.5787C60.8967 46.9844 61.9142 46.1687 62.6426 45.1166L61.1205 44.0628ZM58.8549 45.8982C57.8589 46.3509 56.6556 46.5928 55.2206 46.5928V48.4441C56.8612 48.4441 58.3361 48.1676 59.6209 47.5836L58.8549 45.8982ZM66.8991 45.9634L66.2605 46.6334L66.266 46.6387L66.8991 45.9634ZM65.1108 41.661L64.1854 41.682L64.1856 41.6935L64.1862 41.705L65.1108 41.661ZM65.0849 40.5206L64.1595 40.4995L64.159 40.5206L64.1595 40.5416L65.0849 40.5206ZM65.1108 39.3802L64.1862 39.3357L64.1856 39.3474L64.1854 39.3591L65.1108 39.3802ZM66.925 35.1037L67.5585 35.7787L67.5585 35.7787L66.925 35.1037ZM76.2556 35.1037L75.6221 35.7787L75.6221 35.7787L76.2556 35.1037ZM78.0698 39.3802L77.1453 39.4246L77.146 39.4409L77.1474 39.457L78.0698 39.3802ZM78.0698 41.661L77.1474 41.5841L77.146 41.6005L77.1452 41.6169L78.0698 41.661ZM76.2815 45.9634L76.9146 46.6387L76.9201 46.6334L76.2815 45.9634ZM73.7156 44.0973L74.411 44.7084L74.4199 44.698L73.7156 44.0973ZM74.545 41.5314L73.6239 41.4393L73.6215 41.4639L73.6203 41.4887L74.545 41.5314ZM74.545 39.5098L73.6203 39.5524L73.6215 39.5772L73.6239 39.6019L74.545 39.5098ZM73.7156 36.9698L73.0113 37.5705L73.0203 37.5808L73.7156 36.9698ZM69.465 36.9698L70.1604 37.5809L70.1693 37.5705L69.465 36.9698ZM68.6356 39.5098L67.711 39.4671L67.7105 39.4766L67.7103 39.486L68.6356 39.5098ZM68.6097 40.5206L67.6844 40.4968L67.6838 40.5206L67.6844 40.5443L68.6097 40.5206ZM68.6356 41.5314L67.7103 41.5551L67.7105 41.5646L67.711 41.5741L68.6356 41.5314ZM69.465 44.0973L68.7607 44.698L68.7697 44.7083L69.465 44.0973ZM71.5903 46.5928C69.7236 46.5928 68.4157 46.1164 67.5322 45.2881L66.266 46.6387C67.5942 47.8838 69.4138 48.4441 71.5903 48.4441V46.5928ZM67.5378 45.2933C66.636 44.4338 66.1127 43.2414 66.0354 41.6169L64.1862 41.705C64.2816 43.7091 64.9506 45.3849 66.2605 46.6334L67.5378 45.2933ZM66.0362 41.6399L66.0103 40.4995L64.1595 40.5416L64.1854 41.682L66.0362 41.6399ZM66.0103 40.5416L66.0362 39.4012L64.1854 39.3591L64.1595 40.4995L66.0103 40.5416ZM66.0354 39.4246C66.1123 37.8243 66.6398 36.6408 67.5585 35.7787L66.2916 34.4287C64.964 35.6746 64.2821 37.342 64.1862 39.3357L66.0354 39.4246ZM67.5585 35.7787C68.4646 34.9283 69.7679 34.4483 71.5903 34.4483V32.597C69.4386 32.597 67.6317 33.1711 66.2916 34.4287L67.5585 35.7787ZM71.5903 34.4483C73.4127 34.4483 74.716 34.9283 75.6221 35.7787L76.889 34.4287C75.5489 33.1711 73.742 32.597 71.5903 32.597V34.4483ZM75.6221 35.7787C76.5408 36.6408 77.0683 37.8243 77.1453 39.4246L78.9944 39.3357C78.8986 37.342 78.2166 35.6746 76.889 34.4287L75.6221 35.7787ZM77.1474 39.457C77.161 39.6209 77.1701 39.9648 77.1701 40.5206H79.0214C79.0214 39.9705 79.0132 39.5542 78.9923 39.3033L77.1474 39.457ZM77.1701 40.5206C77.1701 41.0764 77.161 41.4203 77.1474 41.5841L78.9923 41.7378C79.0132 41.487 79.0214 41.0706 79.0214 40.5206H77.1701ZM77.1452 41.6169C77.0679 43.2414 76.5446 44.4338 75.6428 45.2933L76.9201 46.6334C78.23 45.3849 78.899 43.7091 78.9944 41.705L77.1452 41.6169ZM75.6484 45.2881C74.7649 46.1164 73.457 46.5928 71.5903 46.5928V48.4441C73.7668 48.4441 75.5864 47.8838 76.9146 46.6387L75.6484 45.2881ZM71.5903 45.8782C72.7123 45.8782 73.698 45.5195 74.4109 44.7083L73.0203 43.4862C72.731 43.8154 72.2998 44.0269 71.5903 44.0269V45.8782ZM74.4199 44.698C75.1031 43.8969 75.4125 42.8121 75.4696 41.5741L73.6203 41.4887C73.5738 42.4969 73.3303 43.1226 73.0113 43.4966L74.4199 44.698ZM75.466 41.6235C75.4886 41.3976 75.4965 41.0153 75.4965 40.5206H73.6452C73.6452 41.028 73.6359 41.3196 73.6239 41.4393L75.466 41.6235ZM75.4965 40.5206C75.4965 40.0259 75.4886 39.6436 75.466 39.4177L73.6239 39.6019C73.6359 39.7215 73.6452 40.0131 73.6452 40.5206H75.4965ZM75.4696 39.4671C75.4126 38.2312 75.1037 37.1471 74.4109 36.3588L73.0203 37.5808C73.3297 37.9329 73.5737 38.542 73.6203 39.5524L75.4696 39.4671ZM74.4199 36.3691C73.7098 35.5366 72.7215 35.1629 71.5903 35.1629V37.0142C72.2907 37.0142 72.7192 37.228 73.0113 37.5705L74.4199 36.3691ZM71.5903 35.1629C70.4591 35.1629 69.4708 35.5366 68.7608 36.3691L70.1693 37.5705C70.4614 37.228 70.8899 37.0142 71.5903 37.0142V35.1629ZM68.7697 36.3588C68.0769 37.1471 67.768 38.2312 67.711 39.4671L69.5603 39.5524C69.6069 38.542 69.851 37.9329 70.1603 37.5808L68.7697 36.3588ZM67.7103 39.486L67.6844 40.4968L69.5351 40.5443L69.561 39.5335L67.7103 39.486ZM67.6844 40.5443L67.7103 41.5551L69.561 41.5076L69.5351 40.4968L67.6844 40.5443ZM67.711 41.5741C67.7681 42.8121 68.0775 43.8969 68.7608 44.698L70.1693 43.4966C69.8503 43.1226 69.6068 42.4969 69.5603 41.4887L67.711 41.5741ZM68.7697 44.7083C69.4826 45.5195 70.4683 45.8782 71.5903 45.8782V44.0269C70.8808 44.0269 70.4496 43.8154 70.1603 43.4862L68.7697 44.7083ZM81.1488 47.0779L81.8034 46.4233L81.8034 46.4233L81.1488 47.0779ZM81.1488 33.9633L81.8034 34.6178L81.8034 34.6178L81.1488 33.9633ZM84.1553 33.9633L83.5008 34.6178L83.5008 34.6178L84.1553 33.9633ZM84.3368 35.4665H83.4111V38.1403L85.0643 36.0388L84.3368 35.4665ZM92.4491 35.1037L91.756 35.7173L91.7611 35.7229L92.4491 35.1037ZM93.6673 47.0779L93.0127 46.4233L92.9876 46.4485L92.9645 46.4754L93.6673 47.0779ZM89.5722 37.1512L88.8664 37.7501L88.8762 37.7616L88.8863 37.7728L89.5722 37.1512ZM85.2698 37.1512L84.5952 36.5174L84.59 36.523L84.5849 36.5286L85.2698 37.1512ZM84.3108 47.0779L83.6563 46.4233L83.6312 46.4485L83.608 46.4754L84.3108 47.0779ZM81.5894 46.3336C81.6133 46.3336 81.6543 46.3383 81.7021 46.358C81.7502 46.3778 81.7841 46.4041 81.8034 46.4233L80.4943 47.7324C80.7908 48.0289 81.174 48.1849 81.5894 48.1849V46.3336ZM81.8034 46.4233C81.8226 46.4425 81.8489 46.4765 81.8687 46.5245C81.8884 46.5724 81.893 46.6134 81.893 46.6372H80.0418C80.0418 47.0527 80.1978 47.4359 80.4943 47.7324L81.8034 46.4233ZM81.893 46.6372V34.4039H80.0418V46.6372H81.893ZM81.893 34.4039C81.893 34.4277 81.8884 34.4687 81.8687 34.5166C81.8489 34.5646 81.8226 34.5986 81.8034 34.6178L80.4943 33.3088C80.1978 33.6053 80.0418 33.9884 80.0418 34.4039H81.893ZM81.8034 34.6178C81.7841 34.637 81.7502 34.6634 81.7021 34.6831C81.6543 34.7028 81.6133 34.7075 81.5894 34.7075V32.8562C81.174 32.8562 80.7908 33.0122 80.4943 33.3088L81.8034 34.6178ZM81.5894 34.7075H83.7147V32.8562H81.5894V34.7075ZM83.7147 34.7075C83.6909 34.7075 83.6499 34.7028 83.602 34.6831C83.554 34.6634 83.52 34.637 83.5008 34.6178L84.8099 33.3088C84.5133 33.0122 84.1302 32.8562 83.7147 32.8562V34.7075ZM83.5008 34.6178C83.4816 34.5986 83.4553 34.5646 83.4355 34.5166C83.4158 34.4687 83.4111 34.4277 83.4111 34.4039H85.2624C85.2624 33.9884 85.1064 33.6053 84.8099 33.3088L83.5008 34.6178ZM83.4111 34.4039V35.4665H85.2624V34.4039H83.4111ZM85.0643 36.0388C85.8835 34.9974 87.0404 34.4483 88.6651 34.4483V32.597C86.5576 32.597 84.8289 33.3439 83.6092 34.8942L85.0643 36.0388ZM88.6651 34.4483C90.0278 34.4483 91.0224 34.8886 91.756 35.7172L93.1422 34.4901C92.0097 33.2108 90.4817 32.597 88.6651 32.597V34.4483ZM91.7611 35.7229C92.5011 36.5452 92.9231 37.7181 92.9231 39.3543H94.7743C94.7743 37.3965 94.2632 35.7356 93.1372 34.4845L91.7611 35.7229ZM92.9231 39.3543V46.6372H94.7743V39.3543H92.9231ZM92.9231 46.6372C92.9231 46.6134 92.9277 46.5724 92.9474 46.5245C92.9672 46.4765 92.9935 46.4425 93.0127 46.4233L94.3218 47.7324C94.6183 47.4359 94.7743 47.0527 94.7743 46.6372H92.9231ZM92.9645 46.4754C93.0075 46.4253 93.0648 46.3836 93.1269 46.358C93.185 46.3341 93.2241 46.3336 93.2267 46.3336V48.1849C93.6296 48.1849 94.0563 48.0463 94.3701 47.6803L92.9645 46.4754ZM93.2267 46.3336H90.9459V48.1849H93.2267V46.3336ZM90.9459 46.3336C90.9697 46.3336 91.0107 46.3383 91.0586 46.358C91.1066 46.3778 91.1406 46.4041 91.1598 46.4233L89.8507 47.7324C90.1473 48.0289 90.5304 48.1849 90.9459 48.1849V46.3336ZM91.1598 46.4233C91.179 46.4425 91.2053 46.4765 91.2251 46.5245C91.2448 46.5724 91.2495 46.6134 91.2495 46.6372H89.3982C89.3982 47.0527 89.5542 47.4359 89.8507 47.7324L91.1598 46.4233ZM91.2495 46.6372V39.5098H89.3982V46.6372H91.2495ZM91.2495 39.5098C91.2495 38.3455 90.9623 37.3067 90.2581 36.5296L88.8863 37.7728C89.1843 38.1016 89.3982 38.6352 89.3982 39.5098H91.2495ZM90.278 36.5523C89.576 35.7249 88.5787 35.3703 87.4469 35.3703V37.2216C88.1813 37.2216 88.6008 37.4371 88.8664 37.7501L90.278 36.5523ZM87.4469 35.3703C86.3231 35.3703 85.3358 35.729 84.5952 36.5174L85.9445 37.785C86.2751 37.433 86.7392 37.2216 87.4469 37.2216V35.3703ZM84.5849 36.5286C83.8697 37.3153 83.5666 38.3484 83.5666 39.5098H85.4179C85.4179 38.6668 85.6332 38.1275 85.9547 37.7739L84.5849 36.5286ZM83.5666 39.5098V46.6372H85.4179V39.5098H83.5666ZM83.5666 46.6372C83.5666 46.6134 83.5713 46.5724 83.591 46.5245C83.6108 46.4765 83.6371 46.4425 83.6563 46.4233L84.9654 47.7324C85.2619 47.4359 85.4179 47.0527 85.4179 46.6372H83.5666ZM83.608 46.4754C83.651 46.4253 83.7083 46.3836 83.7705 46.358C83.8285 46.3341 83.8676 46.3336 83.8702 46.3336V48.1849C84.2731 48.1849 84.6999 48.0463 85.0136 47.6803L83.608 46.4754ZM83.8702 46.3336H81.5894V48.1849H83.8702V46.3336ZM99.529 46.0411L98.8537 46.6742L98.8605 46.6815L98.8675 46.6886L99.529 46.0411ZM98.3627 36.5292H99.2884V35.6035H98.3627V36.5292ZM95.8746 36.3478L95.1779 36.9573L95.1982 36.9805L95.22 37.0023L95.8746 36.3478ZM95.8746 33.9633L96.5291 34.6178L96.5291 34.6178L95.8746 33.9633ZM98.3627 33.7819V34.7075H99.2884V33.7819H98.3627ZM98.5441 29.0388L99.1465 29.7416L99.1735 29.7185L99.1987 29.6934L98.5441 29.0388ZM101.525 29.0388L100.822 29.6412L100.868 29.6953L100.922 29.7416L101.525 29.0388ZM101.706 33.7819H100.78V34.7075H101.706V33.7819ZM105.387 33.9633L104.684 34.5657L104.73 34.6198L104.784 34.6661L105.387 33.9633ZM101.706 36.5292V35.6035H100.78V36.5292H101.706ZM102.095 43.8381L101.33 44.3595L101.33 44.3595L102.095 43.8381ZM105.62 44.5897L106.274 43.9352L106.274 43.9352L105.62 44.5897ZM105.62 47.0779L104.965 46.4233L104.94 46.4485L104.917 46.4754L105.62 47.0779ZM103.08 46.3336C101.659 46.3336 100.753 45.9684 100.191 45.3937L98.8675 46.6886C99.8946 47.738 101.356 48.1849 103.08 48.1849V46.3336ZM100.204 45.408C99.6422 44.8084 99.2884 43.8613 99.2884 42.4126H97.4371C97.4371 44.1432 97.8608 45.6151 98.8537 46.6742L100.204 45.408ZM99.2884 42.4126V36.5292H97.4371V42.4126H99.2884ZM98.3627 35.6035H96.3152V37.4548H98.3627V35.6035ZM96.3152 35.6035C96.339 35.6035 96.38 35.6082 96.4279 35.6279C96.4759 35.6477 96.5099 35.674 96.5291 35.6932L95.22 37.0023C95.5166 37.2988 95.8997 37.4548 96.3152 37.4548V35.6035ZM96.5712 35.7382C96.5745 35.7419 96.5887 35.7598 96.6012 35.792C96.614 35.825 96.6188 35.857 96.6188 35.8812H94.7675C94.7675 36.2931 94.9195 36.6619 95.1779 36.9573L96.5712 35.7382ZM96.6188 35.8812V34.4039H94.7675V35.8812H96.6188ZM96.6188 34.4039C96.6188 34.4277 96.6141 34.4687 96.5944 34.5166C96.5746 34.5646 96.5483 34.5986 96.5291 34.6178L95.22 33.3088C94.9235 33.6053 94.7675 33.9884 94.7675 34.4039H96.6188ZM96.5291 34.6178C96.5099 34.637 96.4759 34.6634 96.4279 34.6831C96.38 34.7028 96.339 34.7075 96.3152 34.7075V32.8562C95.8997 32.8562 95.5165 33.0122 95.22 33.3088L96.5291 34.6178ZM96.3152 34.7075H98.3627V32.8562H96.3152V34.7075ZM99.2884 33.7819V29.4795H97.4371V33.7819H99.2884ZM99.2884 29.4795C99.2884 29.4821 99.2879 29.5211 99.264 29.5792C99.2384 29.6413 99.1967 29.6986 99.1465 29.7416L97.9417 28.336C97.5757 28.6498 97.4371 29.0766 97.4371 29.4795H99.2884ZM99.1987 29.6934C99.1794 29.7126 99.1455 29.7389 99.0974 29.7587C99.0496 29.7784 99.0086 29.7831 98.9847 29.7831V27.9318C98.5693 27.9318 98.1861 28.0878 97.8896 28.3843L99.1987 29.6934ZM98.9847 29.7831H101.084V27.9318H98.9847V29.7831ZM101.084 29.7831C101.082 29.7831 101.042 29.7826 100.984 29.7587C100.922 29.7331 100.865 29.6914 100.822 29.6412L102.228 28.4364C101.914 28.0704 101.487 27.9318 101.084 27.9318V29.7831ZM100.922 29.7416C100.872 29.6986 100.83 29.6413 100.805 29.5792C100.781 29.5211 100.78 29.4821 100.78 29.4795H102.632C102.632 29.0766 102.493 28.6498 102.127 28.336L100.922 29.7416ZM100.78 29.4795V33.7819H102.632V29.4795H100.78ZM101.706 34.7075H104.946V32.8562H101.706V34.7075ZM104.946 34.7075C104.943 34.7075 104.904 34.707 104.846 34.6831C104.784 34.6575 104.727 34.6159 104.684 34.5657L106.089 33.3609C105.776 32.9949 105.349 32.8562 104.946 32.8562V34.7075ZM104.784 34.6661C104.734 34.6231 104.692 34.5658 104.667 34.5036C104.643 34.4456 104.642 34.4065 104.642 34.4039H106.494C106.494 34.001 106.355 33.5742 105.989 33.2605L104.784 34.6661ZM104.642 34.4039V35.8812H106.494V34.4039H104.642ZM104.642 35.8812C104.642 35.8773 104.643 35.8479 104.66 35.8049C104.677 35.76 104.704 35.7212 104.732 35.6932L106.041 37.0023C106.356 36.6877 106.494 36.2869 106.494 35.8812H104.642ZM104.732 35.6932C104.751 35.674 104.785 35.6477 104.833 35.6279C104.881 35.6082 104.922 35.6035 104.946 35.6035V37.4548C105.361 37.4548 105.745 37.2988 106.041 37.0023L104.732 35.6932ZM104.946 35.6035H101.706V37.4548H104.946V35.6035ZM100.78 36.5292V42.1534H102.632V36.5292H100.78ZM100.78 42.1534C100.78 42.978 100.92 43.7576 101.33 44.3595L102.86 43.3166C102.752 43.1583 102.632 42.8148 102.632 42.1534H100.78ZM101.33 44.3595C101.814 45.0696 102.587 45.3339 103.391 45.3339V43.4826C102.985 43.4826 102.894 43.3669 102.86 43.3166L101.33 44.3595ZM103.391 45.3339H105.179V43.4826H103.391V45.3339ZM105.179 45.3339C105.155 45.3339 105.114 45.3293 105.066 45.3096C105.018 45.2898 104.984 45.2635 104.965 45.2442L106.274 43.9352C105.978 43.6387 105.595 43.4826 105.179 43.4826V45.3339ZM104.965 45.2442C104.946 45.225 104.92 45.191 104.9 45.143C104.88 45.0952 104.876 45.0541 104.876 45.0303H106.727C106.727 44.6148 106.571 44.2317 106.274 43.9352L104.965 45.2442ZM104.876 45.0303V46.6372H106.727V45.0303H104.876ZM104.876 46.6372C104.876 46.6134 104.88 46.5724 104.9 46.5245C104.92 46.4765 104.946 46.4425 104.965 46.4233L106.274 47.7324C106.571 47.4359 106.727 47.0527 106.727 46.6372H104.876ZM104.917 46.4754C104.96 46.4253 105.017 46.3836 105.079 46.358C105.137 46.3341 105.177 46.3336 105.179 46.3336V48.1849C105.582 48.1849 106.009 48.0463 106.323 47.6803L104.917 46.4754ZM105.179 46.3336H103.08V48.1849H105.179V46.3336ZM108.178 31.3715L108.833 30.7169L108.833 30.7169L108.178 31.3715ZM108.178 28.6242L107.524 27.9696L107.524 27.9696L108.178 28.6242ZM111.418 28.6242L110.763 29.2787L110.785 29.3005L110.808 29.3208L111.418 28.6242ZM111.444 31.3715L110.789 30.7169L110.789 30.7169L111.444 31.3715ZM108.282 47.0779L108.936 46.4233L108.936 46.4233L108.282 47.0779ZM108.282 33.9633L108.936 34.6178L108.936 34.6178L108.282 33.9633ZM111.314 33.9633L110.611 34.5657L110.658 34.6198L110.712 34.6661L111.314 33.9633ZM111.314 47.0779L110.66 46.4233L110.635 46.4485L110.611 46.4754L111.314 47.0779ZM108.619 30.6273C108.643 30.6273 108.684 30.6319 108.731 30.6516C108.78 30.6714 108.813 30.6977 108.833 30.7169L107.524 32.026C107.82 32.3225 108.203 32.4785 108.619 32.4785V30.6273ZM108.833 30.7169C108.852 30.7362 108.878 30.7701 108.898 30.8182C108.918 30.866 108.922 30.907 108.922 30.9309H107.071C107.071 31.3463 107.227 31.7295 107.524 32.026L108.833 30.7169ZM108.922 30.9309V29.0648H107.071V30.9309H108.922ZM108.922 29.0648C108.922 29.0886 108.918 29.1296 108.898 29.1775C108.878 29.2255 108.852 29.2595 108.833 29.2787L107.524 27.9696C107.227 28.2661 107.071 28.6493 107.071 29.0648H108.922ZM108.833 29.2787C108.813 29.2979 108.78 29.3242 108.731 29.344C108.684 29.3637 108.643 29.3684 108.619 29.3684V27.5171C108.203 27.5171 107.82 27.6731 107.524 27.9696L108.833 29.2787ZM108.619 29.3684H110.977V27.5171H108.619V29.3684ZM110.977 29.3684C110.954 29.3684 110.912 29.3637 110.865 29.344C110.817 29.3242 110.783 29.2979 110.763 29.2787L112.072 27.9696C111.776 27.6731 111.393 27.5171 110.977 27.5171V29.3684ZM110.808 29.3208C110.794 29.3083 110.762 29.2755 110.736 29.2192C110.709 29.1614 110.7 29.1057 110.7 29.0648H112.551C112.551 28.6066 112.352 28.2117 112.027 27.9275L110.808 29.3208ZM110.7 29.0648V30.9309H112.551V29.0648H110.7ZM110.7 30.9309C110.7 30.907 110.704 30.866 110.724 30.8182C110.744 30.7701 110.77 30.7362 110.789 30.7169L112.098 32.026C112.395 31.7295 112.551 31.3463 112.551 30.9309H110.7ZM110.789 30.7169C110.817 30.689 110.856 30.6623 110.901 30.6448C110.944 30.6281 110.973 30.6273 110.977 30.6273V32.4785C111.383 32.4785 111.784 32.3406 112.098 32.026L110.789 30.7169ZM110.977 30.6273H108.619V32.4785H110.977V30.6273ZM108.722 46.3336C108.746 46.3336 108.787 46.3383 108.835 46.358C108.883 46.3778 108.917 46.4041 108.936 46.4233L107.627 47.7324C107.924 48.0289 108.307 48.1849 108.722 48.1849V46.3336ZM108.936 46.4233C108.956 46.4425 108.982 46.4765 109.002 46.5245C109.021 46.5724 109.026 46.6134 109.026 46.6372H107.175C107.175 47.0527 107.331 47.4359 107.627 47.7324L108.936 46.4233ZM109.026 46.6372V34.4039H107.175V46.6372H109.026ZM109.026 34.4039C109.026 34.4277 109.021 34.4687 109.002 34.5166C108.982 34.5646 108.956 34.5986 108.936 34.6178L107.627 33.3088C107.331 33.6053 107.175 33.9884 107.175 34.4039H109.026ZM108.936 34.6178C108.917 34.637 108.883 34.6634 108.835 34.6831C108.787 34.7028 108.746 34.7075 108.722 34.7075V32.8562C108.307 32.8562 107.924 33.0122 107.627 33.3088L108.936 34.6178ZM108.722 34.7075H110.874V32.8562H108.722V34.7075ZM110.874 34.7075C110.871 34.7075 110.832 34.707 110.774 34.6831C110.712 34.6575 110.654 34.6159 110.611 34.5657L112.017 33.3609C111.703 32.9949 111.277 32.8562 110.874 32.8562V34.7075ZM110.712 34.6661C110.662 34.6231 110.62 34.5658 110.594 34.5036C110.571 34.4456 110.57 34.4065 110.57 34.4039H112.421C112.421 34.001 112.283 33.5742 111.917 33.2605L110.712 34.6661ZM110.57 34.4039V46.6372H112.421V34.4039H110.57ZM110.57 46.6372C110.57 46.6134 110.575 46.5724 110.594 46.5245C110.614 46.4765 110.641 46.4425 110.66 46.4233L111.969 47.7324C112.265 47.4359 112.421 47.0527 112.421 46.6372H110.57ZM110.611 46.4754C110.654 46.4253 110.712 46.3836 110.774 46.358C110.832 46.3341 110.871 46.3336 110.874 46.3336V48.1849C111.277 48.1849 111.703 48.0463 112.017 47.6803L110.611 46.4754ZM110.874 46.3336H108.722V48.1849H110.874V46.3336ZM115.116 47.0779L115.77 46.4233L115.77 46.4233L115.116 47.0779ZM115.116 33.9633L115.77 34.6178L115.77 34.6178L115.116 33.9633ZM118.122 33.9633L117.468 34.6178L117.468 34.6178L118.122 33.9633ZM118.304 35.4665H117.378V38.1403L119.031 36.0388L118.304 35.4665ZM126.416 35.1037L125.723 35.7173L125.728 35.7229L126.416 35.1037ZM127.634 47.0779L126.98 46.4233L126.955 46.4485L126.931 46.4754L127.634 47.0779ZM123.539 37.1512L122.833 37.7501L122.843 37.7616L122.853 37.7728L123.539 37.1512ZM119.237 37.1512L118.562 36.5174L118.557 36.523L118.552 36.5286L119.237 37.1512ZM118.278 47.0779L117.623 46.4233L117.598 46.4485L117.575 46.4754L118.278 47.0779ZM115.556 46.3336C115.58 46.3336 115.621 46.3383 115.669 46.358C115.717 46.3778 115.751 46.4041 115.77 46.4233L114.461 47.7324C114.758 48.0289 115.141 48.1849 115.556 48.1849V46.3336ZM115.77 46.4233C115.789 46.4425 115.816 46.4765 115.836 46.5245C115.855 46.5724 115.86 46.6134 115.86 46.6372H114.009C114.009 47.0527 114.165 47.4359 114.461 47.7324L115.77 46.4233ZM115.86 46.6372V34.4039H114.009V46.6372H115.86ZM115.86 34.4039C115.86 34.4277 115.855 34.4687 115.836 34.5166C115.816 34.5646 115.789 34.5986 115.77 34.6178L114.461 33.3088C114.165 33.6053 114.009 33.9884 114.009 34.4039H115.86ZM115.77 34.6178C115.751 34.637 115.717 34.6634 115.669 34.6831C115.621 34.7028 115.58 34.7075 115.556 34.7075V32.8562C115.141 32.8562 114.758 33.0122 114.461 33.3088L115.77 34.6178ZM115.556 34.7075H117.682V32.8562H115.556V34.7075ZM117.682 34.7075C117.658 34.7075 117.617 34.7028 117.569 34.6831C117.521 34.6634 117.487 34.637 117.468 34.6178L118.777 33.3088C118.48 33.0122 118.097 32.8562 117.682 32.8562V34.7075ZM117.468 34.6178C117.448 34.5986 117.422 34.5646 117.402 34.5166C117.383 34.4687 117.378 34.4277 117.378 34.4039H119.229C119.229 33.9884 119.073 33.6053 118.777 33.3088L117.468 34.6178ZM117.378 34.4039V35.4665H119.229V34.4039H117.378ZM119.031 36.0388C119.85 34.9974 121.007 34.4483 122.632 34.4483V32.597C120.524 32.597 118.796 33.3439 117.576 34.8942L119.031 36.0388ZM122.632 34.4483C123.995 34.4483 124.989 34.8886 125.723 35.7172L127.109 34.4901C125.977 33.2108 124.449 32.597 122.632 32.597V34.4483ZM125.728 35.7229C126.468 36.5452 126.89 37.7181 126.89 39.3543H128.741C128.741 37.3965 128.23 35.7356 127.104 34.4845L125.728 35.7229ZM126.89 39.3543V46.6372H128.741V39.3543H126.89ZM126.89 46.6372C126.89 46.6134 126.895 46.5724 126.914 46.5245C126.934 46.4765 126.96 46.4425 126.98 46.4233L128.289 47.7324C128.585 47.4359 128.741 47.0527 128.741 46.6372H126.89ZM126.931 46.4754C126.974 46.4253 127.032 46.3836 127.094 46.358C127.152 46.3341 127.191 46.3336 127.194 46.3336V48.1849C127.596 48.1849 128.023 48.0463 128.337 47.6803L126.931 46.4754ZM127.194 46.3336H124.913V48.1849H127.194V46.3336ZM124.913 46.3336C124.937 46.3336 124.978 46.3383 125.025 46.358C125.073 46.3778 125.107 46.4041 125.127 46.4233L123.818 47.7324C124.114 48.0289 124.497 48.1849 124.913 48.1849V46.3336ZM125.127 46.4233C125.146 46.4425 125.172 46.4765 125.192 46.5245C125.212 46.5724 125.216 46.6134 125.216 46.6372H123.365C123.365 47.0527 123.521 47.4359 123.818 47.7324L125.127 46.4233ZM125.216 46.6372V39.5098H123.365V46.6372H125.216ZM125.216 39.5098C125.216 38.3455 124.929 37.3067 124.225 36.5296L122.853 37.7728C123.151 38.1016 123.365 38.6352 123.365 39.5098H125.216ZM124.245 36.5523C123.543 35.7249 122.546 35.3703 121.414 35.3703V37.2216C122.148 37.2216 122.568 37.4371 122.833 37.7501L124.245 36.5523ZM121.414 35.3703C120.29 35.3703 119.303 35.729 118.562 36.5174L119.911 37.785C120.242 37.433 120.706 37.2216 121.414 37.2216V35.3703ZM118.552 36.5286C117.837 37.3153 117.534 38.3484 117.534 39.5098H119.385C119.385 38.6668 119.6 38.1275 119.922 37.7739L118.552 36.5286ZM117.534 39.5098V46.6372H119.385V39.5098H117.534ZM117.534 46.6372C117.534 46.6134 117.538 46.5724 117.558 46.5245C117.578 46.4765 117.604 46.4425 117.623 46.4233L118.932 47.7324C119.229 47.4359 119.385 47.0527 119.385 46.6372H117.534ZM117.575 46.4754C117.618 46.4253 117.675 46.3836 117.737 46.358C117.795 46.3341 117.835 46.3336 117.837 46.3336V48.1849C118.24 48.1849 118.667 48.0463 118.981 47.6803L117.575 46.4754ZM117.837 46.3336H115.556V48.1849H117.837V46.3336ZM132.352 45.9634L131.653 46.5705L131.658 46.5762L132.352 45.9634ZM131.16 33.9633L131.814 34.6178L131.814 34.6178L131.16 33.9633ZM134.322 33.9633L133.619 34.5657L133.665 34.6198L133.719 34.6661L134.322 33.9633ZM139.453 43.8899L138.779 43.2562L138.774 43.2617L138.769 43.2673L139.453 43.8899ZM140.438 33.9633L141.093 34.6178L141.093 34.6178L140.438 33.9633ZM143.6 33.9633L142.898 34.5657L142.944 34.6197L142.998 34.6661L143.6 33.9633ZM143.6 47.0779L142.946 46.4233L142.921 46.4485L142.898 46.4754L143.6 47.0779ZM140.438 45.5746H141.364V42.7877L139.697 45.0208L140.438 45.5746ZM136.11 46.5928C134.742 46.5928 133.759 46.1577 133.046 45.3506L131.658 46.5762C132.777 47.8425 134.299 48.4441 136.11 48.4441V46.5928ZM133.051 45.3563C132.319 44.5143 131.904 43.3264 131.904 41.6869H130.053C130.053 43.6414 130.553 45.3044 131.653 46.5705L133.051 45.3563ZM131.904 41.6869V34.4039H130.053V41.6869H131.904ZM131.904 34.4039C131.904 34.4277 131.899 34.4687 131.88 34.5166C131.86 34.5646 131.833 34.5986 131.814 34.6178L130.505 33.3088C130.209 33.6053 130.053 33.9884 130.053 34.4039H131.904ZM131.814 34.6178C131.795 34.637 131.761 34.6634 131.713 34.6831C131.665 34.7028 131.624 34.7075 131.6 34.7075V32.8562C131.185 32.8562 130.802 33.0122 130.505 33.3088L131.814 34.6178ZM131.6 34.7075H133.881V32.8562H131.6V34.7075ZM133.881 34.7075C133.878 34.7075 133.839 34.707 133.781 34.6831C133.719 34.6575 133.662 34.6159 133.619 34.5657L135.024 33.3609C134.711 32.9949 134.284 32.8562 133.881 32.8562V34.7075ZM133.719 34.6661C133.669 34.6231 133.627 34.5658 133.602 34.5036C133.578 34.4456 133.577 34.4065 133.577 34.4039H135.429C135.429 34.001 135.29 33.5742 134.924 33.2605L133.719 34.6661ZM133.577 34.4039V41.5314H135.429V34.4039H133.577ZM133.577 41.5314C133.577 42.7181 133.836 43.781 134.514 44.5529C135.213 45.3475 136.211 45.6709 137.328 45.6709V43.8196C136.562 43.8196 136.148 43.6073 135.905 43.3306C135.641 43.0312 135.429 42.4872 135.429 41.5314H133.577ZM137.328 45.6709C138.44 45.6709 139.415 45.3083 140.138 44.5126L138.769 43.2673C138.455 43.612 138.013 43.8196 137.328 43.8196V45.6709ZM140.128 44.5237C140.867 43.7376 141.183 42.7004 141.183 41.5314H139.331C139.331 42.3667 139.112 42.9018 138.779 43.2562L140.128 44.5237ZM141.183 41.5314V34.4039H139.331V41.5314H141.183ZM141.183 34.4039C141.183 34.4277 141.178 34.4687 141.158 34.5166C141.138 34.5646 141.112 34.5986 141.093 34.6178L139.784 33.3088C139.487 33.6053 139.331 33.9884 139.331 34.4039H141.183ZM141.093 34.6178C141.074 34.637 141.04 34.6634 140.992 34.6831C140.944 34.7028 140.903 34.7075 140.879 34.7075V32.8562C140.463 32.8562 140.08 33.0122 139.784 33.3088L141.093 34.6178ZM140.879 34.7075H143.16V32.8562H140.879V34.7075ZM143.16 34.7075C143.157 34.7075 143.118 34.707 143.06 34.6831C142.998 34.6575 142.941 34.6159 142.898 34.5657L144.303 33.3609C143.989 32.9949 143.563 32.8562 143.16 32.8562V34.7075ZM142.998 34.6661C142.948 34.6231 142.906 34.5658 142.88 34.5036C142.857 34.4456 142.856 34.4065 142.856 34.4039H144.707C144.707 34.001 144.569 33.5742 144.203 33.2605L142.998 34.6661ZM142.856 34.4039V46.6372H144.707V34.4039H142.856ZM142.856 46.6372C142.856 46.6134 142.861 46.5724 142.88 46.5245C142.9 46.4765 142.927 46.4425 142.946 46.4233L144.255 47.7324C144.551 47.4359 144.707 47.0527 144.707 46.6372H142.856ZM142.898 46.4754C142.941 46.4253 142.998 46.3836 143.06 46.358C143.118 46.3341 143.157 46.3336 143.16 46.3336V48.1849C143.563 48.1849 143.989 48.0463 144.303 47.6803L142.898 46.4754ZM143.16 46.3336H141.06V48.1849H143.16V46.3336ZM141.06 46.3336C141.084 46.3336 141.125 46.3383 141.173 46.358C141.221 46.3778 141.255 46.4041 141.274 46.4233L139.965 47.7324C140.262 48.0289 140.645 48.1849 141.06 48.1849V46.3336ZM141.274 46.4233C141.294 46.4425 141.32 46.4765 141.34 46.5245C141.359 46.5724 141.364 46.6134 141.364 46.6372H139.513C139.513 47.0527 139.669 47.4359 139.965 47.7324L141.274 46.4233ZM141.364 46.6372V45.5746H139.513V46.6372H141.364ZM139.697 45.0208C138.937 46.0376 137.797 46.5928 136.11 46.5928V48.4441C138.259 48.4441 140.004 47.7034 141.18 46.1284L139.697 45.0208ZM148.424 45.8597L147.769 46.5142L147.774 46.5193L147.779 46.5242L148.424 45.8597ZM146.635 41.1426L147.56 41.111L147.56 41.1056L146.635 41.1426ZM146.609 40.4946L145.684 40.4577L145.683 40.4946L145.684 40.5316L146.609 40.4946ZM146.635 39.8467L145.71 39.8061L145.71 39.8097L146.635 39.8467ZM148.449 35.2074L147.8 34.5478L147.795 34.5528L148.449 35.2074ZM157.728 35.3888L157.036 36.0038L157.041 36.0091L157.728 35.3888ZM159.231 41.3499L159.886 42.0045L159.886 42.0045L159.231 41.3499ZM150.16 41.5314V40.6057H149.234V41.5314H150.16ZM150.16 41.7387H149.234V41.7555L149.235 41.7724L150.16 41.7387ZM150.938 44.1491L150.192 44.6982L150.201 44.7093L150.209 44.7201L150.938 44.1491ZM155.447 43.9158L154.731 43.3297L154.725 43.3375L154.718 43.3454L155.447 43.9158ZM155.81 43.553L155.396 42.7251L155.364 42.741L155.334 42.7593L155.81 43.553ZM158.869 43.6307L158.214 44.2853L158.268 44.3394L158.331 44.384L158.869 43.6307ZM158.298 45.445L157.603 44.834L157.602 44.8355L158.298 45.445ZM156.199 46.8964L156.581 47.7396L156.199 46.8964ZM155.888 39.3543V40.2799H156.814V39.3543H155.888ZM155.11 36.8143L154.39 37.395L154.394 37.401L154.399 37.4069L155.11 36.8143ZM150.912 36.8143L150.191 36.2336L150.191 36.2336L150.912 36.8143ZM150.16 39.3543H149.234V40.2799H150.16V39.3543ZM153.011 46.5928C151.281 46.5928 150.001 46.0999 149.068 45.1952L147.779 46.5242C149.127 47.8311 150.906 48.4441 153.011 48.4441V46.5928ZM149.078 45.2052C148.163 44.2897 147.624 42.9648 147.56 41.111L145.71 41.1742C145.785 43.3636 146.438 45.1835 147.769 46.5142L149.078 45.2052ZM147.56 41.1056L147.534 40.4577L145.684 40.5316L145.71 41.1796L147.56 41.1056ZM147.534 40.5316L147.56 39.8837L145.71 39.8097L145.684 40.4577L147.534 40.5316ZM147.56 39.8873C147.639 38.0904 148.182 36.7843 149.104 35.8619L147.795 34.5528C146.471 35.8767 145.804 37.6634 145.71 39.8061L147.56 39.8873ZM149.099 35.8669C150.034 34.9457 151.305 34.4483 153.011 34.4483V32.597C150.916 32.597 149.145 33.2227 147.8 34.5478L149.099 35.8669ZM153.011 34.4483C154.85 34.4483 156.145 35.0008 157.036 36.0037L158.42 34.7738C157.1 33.2886 155.25 32.597 153.011 32.597V34.4483ZM157.041 36.0091C157.976 37.0452 158.487 38.4641 158.487 40.3651H160.338C160.338 38.1192 159.726 36.2205 158.415 34.7685L157.041 36.0091ZM158.487 40.3651V40.9093H160.338V40.3651H158.487ZM158.487 40.9093C158.487 40.8855 158.492 40.8445 158.512 40.7966C158.531 40.7486 158.558 40.7146 158.577 40.6954L159.886 42.0045C160.182 41.708 160.338 41.3248 160.338 40.9093H158.487ZM158.577 40.6954C158.605 40.6675 158.644 40.6408 158.689 40.6233C158.732 40.6066 158.761 40.6057 158.765 40.6057V42.457C159.171 42.457 159.571 42.3191 159.886 42.0045L158.577 40.6954ZM158.765 40.6057H150.16V42.457H158.765V40.6057ZM149.234 41.5314V41.7387H151.086V41.5314H149.234ZM149.235 41.7724C149.275 42.877 149.581 43.8681 150.192 44.6982L151.683 43.6C151.327 43.1169 151.114 42.5011 151.085 41.7051L149.235 41.7724ZM150.209 44.7201C150.898 45.5993 151.858 46.0337 152.985 46.0337V44.1824C152.385 44.1824 151.979 43.9776 151.666 43.5781L150.209 44.7201ZM152.985 46.0337C154.286 46.0337 155.377 45.508 156.176 44.4863L154.718 43.3454C154.274 43.9134 153.723 44.1824 152.985 44.1824V46.0337ZM156.164 44.502C156.23 44.4215 156.278 44.3687 156.309 44.3371C156.325 44.3217 156.332 44.3156 156.332 44.3159C156.331 44.3163 156.327 44.3193 156.321 44.3243C156.314 44.3291 156.302 44.3371 156.286 44.3467L155.334 42.7593C155.094 42.903 154.884 43.1422 154.731 43.3297L156.164 44.502ZM156.224 44.3809C156.2 44.3931 156.181 44.3998 156.17 44.403C156.16 44.4063 156.156 44.4068 156.159 44.4062C156.162 44.4056 156.171 44.4042 156.187 44.403C156.203 44.4018 156.224 44.4009 156.251 44.4009V42.5496C155.998 42.5496 155.685 42.5805 155.396 42.7251L156.224 44.3809ZM156.251 44.4009H158.48V42.5496H156.251V44.4009ZM158.48 44.4009C158.453 44.4009 158.406 44.3961 158.35 44.3736C158.292 44.3506 158.246 44.3175 158.214 44.2853L159.523 42.9762C159.234 42.6876 158.864 42.5496 158.48 42.5496V44.4009ZM158.331 44.384C158.295 44.3585 158.237 44.3061 158.19 44.2186C158.141 44.1288 158.124 44.0386 158.124 43.9677H159.976C159.976 43.5051 159.749 43.1223 159.407 42.8775L158.331 44.384ZM158.124 43.9677C158.124 44.0337 158.065 44.3079 157.603 44.834L158.994 46.056C159.533 45.4418 159.976 44.7311 159.976 43.9677H158.124ZM157.602 44.8355C157.231 45.2594 156.654 45.6741 155.817 46.0532L156.581 47.7396C157.575 47.2893 158.398 46.7365 158.995 46.0546L157.602 44.8355ZM155.817 46.0532C155.043 46.4037 154.115 46.5928 153.011 46.5928V48.4441C154.326 48.4441 155.523 48.2185 156.581 47.7396L155.817 46.0532ZM156.814 39.3543V39.2765H154.962V39.3543H156.814ZM156.814 39.2765C156.814 38.0981 156.511 37.0495 155.822 36.2217L154.399 37.4069C154.746 37.8231 154.962 38.416 154.962 39.2765H156.814ZM155.831 36.2336C155.131 35.3644 154.15 34.9556 153.011 34.9556V36.8069C153.669 36.8069 154.088 37.0201 154.39 37.395L155.831 36.2336ZM153.011 34.9556C151.872 34.9556 150.891 35.3644 150.191 36.2336L151.633 37.395C151.934 37.0201 152.353 36.8069 153.011 36.8069V34.9556ZM150.191 36.2336C149.524 37.0611 149.234 38.1052 149.234 39.2765H151.086C151.086 38.4089 151.297 37.8115 151.633 37.395L150.191 36.2336ZM149.234 39.2765V39.3543H151.086V39.2765H149.234ZM150.16 40.2799H155.888V38.4286H150.16V40.2799Z" fill="#4B370D"/>
</g>
<g clip-path="url(#clip0_1422:107762)">
<path d="M7.29356 26.3511C6.57691 26.5501 5.82903 26.6113 5.08957 26.5315L3.76796 26.4021L3.12087 25.2884C3.00714 25.0923 2.91302 24.8962 2.83067 24.7472C1.99133 23.1182 1.81836 21.2267 2.3483 19.4725C2.02228 19.0307 1.73618 18.5609 1.49338 18.0685C1.01729 17.1561 0.747987 16.1501 0.704608 15.1219C0.66123 14.0937 0.844835 13.0685 1.24238 12.1193C2.0581 10.2212 3.72482 8.87604 5.90136 8.24857H5.95235C6.48962 5.89555 8.30537 4.10333 10.8584 3.36213L10.9094 3.31507C12.2231 2.94251 21.9372 3.36997 24.4196 3.58959C25.9295 2.12287 28.6276 0.989498 32.1571 0.487521H32.2787C36.6671 -0.13603 57.2325 -0.104655 59.7306 1.05225C59.8992 0.965969 60.064 0.867925 60.2404 0.793413L60.311 0.76597C64.4641 -1.04978 70.0486 0.844402 72.5114 4.94258V4.96611C74.2039 4.93243 75.8776 5.32626 77.3775 6.11116C78.8773 6.89606 80.155 8.04667 81.0921 9.45646L81.7039 10.3741L81.3392 11.2997C81.1355 11.8349 80.8265 12.3238 80.4304 12.7375C80.0343 13.1511 79.5592 13.481 79.0332 13.7076C78.3657 13.9904 77.6483 14.1371 76.9233 14.139C74.5703 14.2252 72.3977 13.1546 70.531 12.0095C69.6604 13.2623 68.4433 14.234 67.0289 14.8057C65.9281 15.2665 64.7781 15.5994 63.6013 15.7978L62.966 15.9155L62.3189 15.6645C62.1072 15.5861 61.8954 15.4959 61.6915 15.3978C61.5581 15.4684 61.4209 15.5351 61.2993 15.5939L61.0718 15.688H61.0405C59.762 16.19 40.1927 14.4331 37.8436 14.2292C36.999 15.0046 36.0176 15.6164 34.9494 16.0331L34.6435 16.1626L34.2709 16.2528C33.514 16.4332 32.7022 16.5861 31.9179 16.6998C29.2159 17.092 16.1409 18.2685 14.4271 17.8763C14.2462 18.5632 13.8924 19.1922 13.3995 19.7037C12.9066 20.2151 12.291 20.5918 11.6114 20.798L11.4859 20.8372H11.4231C11.3604 20.8804 11.2506 20.9784 11.1721 21.0451C10.9117 21.2973 10.6158 21.51 10.2937 21.6765C10.3407 22.9785 10.0584 24.4216 8.85832 25.5236L8.79165 25.5864L8.72107 25.6413C8.29026 25.9593 7.80714 26.1996 7.29356 26.3511Z" fill="#7D95B5"/>
<path d="M71.2724 7.33883C71.091 6.81318 70.8516 6.30939 70.5586 5.83681C68.535 2.5465 64.3427 0.969993 61.1936 2.30729C60.7053 2.51627 60.2507 2.79645 59.8445 3.13869C57.7268 1.64845 37.4595 1.10725 33.3652 1.67982C29.6357 2.2014 27.2905 3.64067 26.8042 5.38583C24.0865 4.77797 13.1489 4.23676 11.588 4.67992C10.5094 4.95309 9.55216 5.57718 8.86705 6.45398C8.18194 7.33078 7.80782 8.4105 7.80359 9.52322C7.44054 9.56036 7.08115 9.62726 6.72905 9.72323C3.37992 10.6723 1.99163 14.1665 3.6309 17.5274C4.00379 18.2864 4.4949 18.9814 5.08586 19.5863C4.30152 20.9432 4.30151 22.8021 5.17997 24.6335C5.25056 24.7826 5.32901 24.9237 5.41136 25.0649C5.78804 25.1307 6.17411 25.1202 6.54665 25.034C6.9192 24.9478 7.2706 24.7876 7.58005 24.5629C8.78009 23.3864 8.50559 21.5079 7.91341 19.4647C9.48209 21.3118 9.50953 19.4294 10.8664 19.1706C12.5175 18.6216 12.6822 16.9274 12.6508 15.2489C15.4234 16.6529 29.1219 15.6411 32.4319 14.8254C34.0005 14.1273 34.9731 13.1822 35.2673 12.1233C36.0202 12.288 36.785 12.4135 37.5654 12.5155C39.6047 12.7782 59.0445 14.3822 60.1191 13.9626C60.6127 13.7663 61.0711 13.4908 61.476 13.1469C61.9773 13.4977 62.5135 13.7961 63.076 14.0371C66.0016 13.5508 68.8605 12.4214 69.437 9.10359C71.7391 10.6723 74.2686 12.6331 76.8177 12.6017C78.2412 12.6253 79.1079 11.9233 79.4648 10.8762C77.6177 8.11533 74.1705 6.66822 71.2724 7.33883Z" fill="white"/>
<path d="M68.7466 3.75842C68.829 3.95059 68.9074 4.15059 68.9702 4.32706C69.08 4.30353 69.1898 4.28 69.3035 4.26431C69.1231 4.08392 68.9388 3.91921 68.7466 3.75842Z" fill="#C9DDE9"/>
<path d="M76.9272 8.43311C76.4801 9.16647 75.6919 9.60962 74.535 9.60962C71.9859 9.66061 69.4603 7.64876 67.1544 6.11145C66.5818 9.42921 63.7189 10.5587 60.7973 11.045C60.2458 10.845 59.7194 10.5818 59.2286 10.2606C58.8364 10.594 41.3143 9.77825 40.373 9.92335H40.3338C38.2897 10.1719 36.2214 10.1442 34.1846 9.84099C33.4003 9.74295 32.6159 9.57825 31.8669 9.40961C31.5728 10.4724 30.5806 11.394 29.0197 12.092C25.7255 12.9038 13.4663 13.5784 10.6976 12.1744C10.725 13.8333 10.5603 15.5235 8.90926 16.0765C7.55627 16.3314 7.51315 18.2138 5.95623 16.3667C6.54449 18.3942 6.82291 20.2884 5.62287 21.4649C5.29881 21.718 4.91543 21.8841 4.50912 21.9473C4.52551 22.8933 4.7547 23.8236 5.17972 24.6689C5.25031 24.814 5.32876 24.9552 5.41111 25.0964C5.78779 25.1622 6.17386 25.1517 6.5464 25.0655C6.91894 24.9793 7.27035 24.8191 7.5798 24.5944C8.77984 23.4179 8.50533 21.5394 7.91316 19.4962C9.48184 21.3433 9.50928 19.4609 10.8662 19.2021C12.5172 18.653 12.6819 16.9589 12.6506 15.2804C15.4232 16.6844 29.1217 15.6725 32.4316 14.8568C34.0003 14.1588 34.9729 13.2137 35.267 12.1548C36.02 12.3195 36.7847 12.445 37.5651 12.547C39.6044 12.8097 59.0443 14.4137 60.1188 13.9941C60.6125 13.7978 61.0708 13.5223 61.4757 13.1784C61.9771 13.5292 62.5133 13.8276 63.0758 14.0686C66.0014 13.5823 68.8603 12.4528 69.4368 9.13509C71.7388 10.7038 74.2683 12.6646 76.8174 12.6332C78.241 12.6568 79.1077 11.9548 79.4646 10.9077C78.8015 9.91421 77.937 9.07113 76.9272 8.43311Z" fill="#C9DDE9"/>
<path d="M3.89754 15.9312C3.71929 15.7654 3.55163 15.5885 3.39555 15.4017C3.44878 15.7236 3.53552 16.0391 3.65438 16.343C3.72783 16.2013 3.80902 16.0639 3.89754 15.9312Z" fill="#C9DDE9"/>
<path d="M26.51 8.26435C29.3505 8.74621 32.2661 8.51719 34.9966 7.59768L14.2704 7.22119C14.6625 7.79768 25.4001 8.08788 26.51 8.26435Z" fill="#C9DDE9"/>
<path d="M10.0389 11.3821C10.3833 11.5655 10.7751 11.6405 11.1628 11.5971C11.5506 11.5537 11.9162 11.394 12.2115 11.1389L9.07413 10.6644C9.32551 10.9859 9.65874 11.2337 10.0389 11.3821Z" fill="#C9DDE9"/>
<path d="M63.3112 6.36215C63.7622 5.66408 63.5857 4.91896 63.0916 4.23267L62.5268 7.05237C62.8638 6.92573 63.1427 6.68024 63.3112 6.36215Z" fill="#C9DDE9"/>
</g>
<defs>
<filter id="filter0_d_1422:107762" x="47.5748" y="28.4427" width="111.838" height="20.927" filterUnits="userSpaceOnUse" color-interpolation-filters="sRGB">
<feFlood flood-opacity="0" result="BackgroundImageFix"/>
<feColorMatrix in="SourceAlpha" type="matrix" values="0 0 0 0 0 0 0 0 0 0 0 0 0 0 0 0 0 0 127 0" result="hardAlpha"/>
<feOffset dy="1.85129"/>
<feColorMatrix type="matrix" values="0 0 0 0 0.294118 0 0 0 0 0.215686 0 0 0 0 0.0509804 0 0 0 1 0"/>
<feBlend mode="normal" in2="BackgroundImageFix" result="effect1_dropShadow_1422:107762"/>
<feBlend mode="normal" in="SourceGraphic" in2="effect1_dropShadow_1422:107762" result="shape"/>
</filter>
<linearGradient id="paint0_linear_1422:107762" x1="-51.9926" y1="-2.10733" x2="272.862" y2="92.1132" gradientUnits="userSpaceOnUse">
<stop stop-color="white" stop-opacity="0"/>
<stop offset="0.454779" stop-color="white" stop-opacity="0"/>
<stop offset="0.455966" stop-color="white"/>
<stop offset="0.527979" stop-color="white"/>
<stop offset="0.529636" stop-color="white" stop-opacity="0"/>
</linearGradient>
<linearGradient id="paint1_linear_1422:107762" x1="103.657" y1="48.6513" x2="103.657" y2="12.2633" gradientUnits="userSpaceOnUse">
<stop stop-color="#C6753F"/>
<stop offset="0.5" stop-color="#C6753F" stop-opacity="0"/>
</linearGradient>
<clipPath id="clip0_1422:107762">
<rect width="81.0341" height="26.5185" fill="white" transform="translate(0.701294 0.0444336)"/>
</clipPath>
</defs>
</svg>
