<svg width="213" height="91" viewBox="0 0 213 91" fill="none" xmlns="http://www.w3.org/2000/svg">
<g clip-path="url(#clip0_126:12956)">
<path d="M21.5164 91C14.7407 91 7.7353 86.5011 5.66813 80.7753C-2.25603 58.4854 -1.10761 33.6393 8.76888 10.8382C11.2954 5.21461 18.3008 1.02247 24.9617 1.02247H188.039C194.814 1.02247 201.705 5.21461 204.117 10.8382C214.108 33.6393 215.142 58.4854 207.217 80.7753C205.15 86.5011 198.26 91 191.369 91H21.5164Z" fill="#A88F7C"/>
<path d="M12.3288 76.8899C13.4772 80.1618 17.8413 82.8202 21.6311 82.8202C78.2486 82.8202 134.981 82.8202 191.599 82.8202C195.388 82.8202 199.638 80.1618 200.901 76.8899C208.48 55.6225 207.217 32.3101 197.915 11.0427C196.422 7.77079 191.943 5.11236 188.153 5.11236C133.718 5.11236 79.2822 5.11236 24.9615 5.11236C21.1717 5.11236 16.6928 7.77079 15.1999 11.0427C6.01246 32.3101 4.74919 55.6225 12.3288 76.8899Z" stroke="#604939" stroke-width="6" stroke-miterlimit="10" stroke-linecap="round" stroke-linejoin="round"/>
<path d="M12.3288 74.8449C13.4772 78.1169 17.8413 80.7753 21.6311 80.7753C78.2486 80.7753 134.981 80.7753 191.599 80.7753C195.388 80.7753 199.638 78.1169 200.901 74.8449C208.48 53.5775 207.217 30.2652 197.915 8.99775C196.422 5.72584 191.943 3.06742 188.153 3.06742C133.718 3.06742 79.2822 3.06742 24.9615 3.06742C21.1717 3.06742 16.6928 5.72584 15.1999 8.99775C6.01246 30.2652 4.74919 53.5775 12.3288 74.8449Z" stroke="#604939" stroke-width="6" stroke-miterlimit="10" stroke-linecap="round" stroke-linejoin="round"/>
<path d="M12.3288 74.845C13.4772 78.1169 17.8413 80.7753 21.6311 80.7753C78.2486 80.7753 134.981 80.7753 191.599 80.7753C195.388 80.7753 199.638 78.1169 200.901 74.845C208.48 53.5775 207.217 30.2652 197.915 8.99775C196.422 5.72584 191.943 3.06742 188.153 3.06742C133.718 3.06742 79.2822 3.06742 24.9615 3.06742C21.1717 3.06742 16.6928 5.72584 15.1999 8.99775C6.01246 30.2652 4.74919 53.5775 12.3288 74.845Z" fill="#9D7C63"/>
<path d="M26.1099 74.6405C23.5834 74.6405 19.5639 73.9247 17.267 73.1067C17.267 73.1067 17.1522 73.1067 16.6928 71.573C9.57256 51.5326 10.6061 29.0382 19.5639 8.38427C20.2529 6.74831 20.7123 6.54382 20.7123 6.54382C23.0092 5.72584 27.0287 5.01011 29.5552 5.01011H183.445C185.971 5.01011 189.991 5.72584 192.288 6.54382C192.288 6.54382 192.747 6.74831 193.436 8.38427C202.394 29.0382 203.427 51.4303 196.307 71.4708C195.733 73.0045 195.733 73.0045 195.733 73.0045C193.436 73.8225 189.417 74.5382 186.89 74.5382H26.1099V74.6405Z" fill="#88664C"/>
<path d="M26.1099 76.6854C23.5834 76.6854 19.5639 75.9697 17.267 75.1517C17.267 75.1517 17.1522 75.1517 16.6928 73.618C9.57256 53.5775 10.6061 31.0831 19.5639 10.5315C20.2529 8.89551 20.7123 8.69101 20.7123 8.69101C23.0092 7.87303 27.0287 7.1573 29.5552 7.1573H183.445C185.971 7.1573 189.991 7.87303 192.288 8.69101C192.288 8.69101 192.747 8.89551 193.436 10.5315C202.394 31.1854 203.427 53.5775 196.307 73.618C195.733 75.1517 195.733 75.1517 195.733 75.1517C193.436 75.9697 189.417 76.6854 186.89 76.6854H26.1099Z" fill="#A88F7C"/>
<path opacity="0.5" d="M164.381 12.6787C124.645 12.6787 122.004 13.7011 122.004 17.5865C122.004 17.5865 123.841 13.2921 109.716 13.2921C95.5899 13.2921 51.9496 13.2921 51.9496 13.2921C51.9496 13.2921 122.348 12.7809 123.267 10.0202C123.267 11.6562 164.381 12.6787 164.381 12.6787Z" fill="#9D7C63"/>
<path opacity="0.5" d="M51.4902 64.2112C51.4902 64.2112 63.4339 64.2112 63.4339 60.0191C63.4339 64.2112 63.4339 64.2112 147.614 64.2112C68.0276 64.2112 63.4339 64.4157 63.4339 67.6876C63.4339 64.3135 51.4902 64.2112 51.4902 64.2112Z" fill="#9D7C63"/>
<path opacity="0.5" d="M174.602 22.4944C174.602 22.4944 166.907 22.4944 166.907 28.936C166.907 22.4944 167.367 22.4944 146.81 22.4944C146.81 22.4944 166.907 22.4944 166.907 18.8135C166.907 23.3124 174.602 22.4944 174.602 22.4944Z" fill="#9D7C63"/>
<path d="M187.464 11.5539C187.464 11.5539 195.388 12.4742 195.388 19.9382C195.388 21.6764 192.058 21.8809 192.058 21.8809C192.058 21.8809 199.063 20.9607 199.063 38.036C199.063 55.1112 193.321 59.2011 188.613 61.6551C198.259 67.5854 189.416 73.5157 180.459 74.3337L197.915 75.1517L203.312 59.8146L206.987 32.1056L204.461 20.2449L200.786 11.4517" fill="#9D7C63"/>
<path d="M187.464 11.6562C191.024 11.6562 190.909 5.82809 184.938 5.01011C183.215 4.80562 190.45 3.47641 192.977 5.93034C194.699 7.66854 195.733 13.3944 195.733 16.4618C195.848 16.564 193.551 11.6562 187.464 11.6562Z" fill="#9D7C63"/>
<path d="M204.346 23.2101L194.814 22.0854L204.346 20.8584V23.2101Z" fill="#735C4B"/>
<path d="M204.346 63.1888L192.173 62.0641L204.346 60.8371V63.1888Z" fill="#735C4B"/>
<path d="M189.072 11.9629L200.097 10.8382V13.1899L189.072 11.9629Z" fill="#735C4B"/>
<path d="M27.0286 74.3337C15.8888 74.3337 14.281 64.4157 22.7794 64.4157C22.7794 64.4157 13.7068 67.4831 13.7068 40.2854C13.7068 33.0258 15.0849 19.1202 21.1716 13.2921C19.7935 6.54382 6.70139 23.2101 5.89749 53.1685C5.78265 55.2135 7.96466 61.0416 12.7881 72.6977C15.774 79.6506 35.0676 74.3337 27.0286 74.3337Z" fill="#9D7C63"/>
<path d="M24.502 12.7809C21.9755 12.7809 20.4825 11.7584 20.5973 10.2247C20.9419 5.52135 30.7035 5.11236 35.9863 5.21461C28.0621 5.31685 14.6255 -0.715728 12.2138 19.018C11.9841 20.4494 14.6255 17.6888 15.4294 19.5292C15.4294 19.5292 17.0372 12.7809 24.502 12.7809Z" fill="#9D7C63"/>
<path d="M11.7545 11.6562L24.2724 12.7809L11.7545 14.0079V11.6562Z" fill="#735C4B"/>
<path d="M7.16077 62.9843L18.5302 64.2112L7.16077 65.336V62.9843Z" fill="#735C4B"/>
<g filter="url(#filter0_d_126:12956)">
<path d="M41.0259 47.2C39.1859 47.2 37.7593 46.7267 36.7459 45.78C35.7459 44.8333 35.2126 43.5 35.1459 41.78C35.1326 41.42 35.1259 40.8333 35.1259 40.02C35.1259 39.1933 35.1326 38.5933 35.1459 38.22C35.2126 36.5133 35.7526 35.1867 36.7659 34.24C37.7926 33.28 39.2126 32.8 41.0259 32.8C42.2126 32.8 43.2459 33.0067 44.1259 33.42C45.0059 33.82 45.6859 34.3733 46.1659 35.08C46.6459 35.7733 46.8993 36.56 46.9259 37.44V37.48C46.9259 37.5867 46.8793 37.68 46.7859 37.76C46.7059 37.8267 46.6126 37.86 46.5059 37.86H44.6059C44.4459 37.86 44.3259 37.8267 44.2459 37.76C44.1659 37.6933 44.0993 37.5667 44.0459 37.38C43.8326 36.54 43.4793 35.9533 42.9859 35.62C42.4926 35.2733 41.8326 35.1 41.0059 35.1C39.0859 35.1 38.0859 36.1733 38.0059 38.32C37.9926 38.68 37.9859 39.2333 37.9859 39.98C37.9859 40.7267 37.9926 41.2933 38.0059 41.68C38.0859 43.8267 39.0859 44.9 41.0059 44.9C41.8326 44.9 42.4926 44.7267 42.9859 44.38C43.4926 44.0333 43.8459 43.4467 44.0459 42.62C44.0859 42.4333 44.1459 42.3067 44.2259 42.24C44.3193 42.1733 44.4459 42.14 44.6059 42.14H46.5059C46.6259 42.14 46.7259 42.18 46.8059 42.26C46.8993 42.34 46.9393 42.44 46.9259 42.56C46.8993 43.44 46.6459 44.2333 46.1659 44.94C45.6859 45.6333 45.0059 46.1867 44.1259 46.6C43.2459 47 42.2126 47.2 41.0259 47.2ZM53.6578 47.2C52.0978 47.2 50.8911 46.8 50.0378 46C49.1845 45.1867 48.7245 44.08 48.6578 42.68L48.6378 41.8L48.6578 40.92C48.7245 39.5333 49.1911 38.4333 50.0578 37.62C50.9245 36.8067 52.1245 36.4 53.6578 36.4C55.1911 36.4 56.3911 36.8067 57.2578 37.62C58.1245 38.4333 58.5911 39.5333 58.6578 40.92C58.6711 41.08 58.6778 41.3733 58.6778 41.8C58.6778 42.2267 58.6711 42.52 58.6578 42.68C58.5911 44.08 58.1311 45.1867 57.2778 46C56.4245 46.8 55.2178 47.2 53.6578 47.2ZM53.6578 45.22C54.3645 45.22 54.9111 45 55.2978 44.56C55.6845 44.1067 55.8978 43.4467 55.9378 42.58C55.9511 42.4467 55.9578 42.1867 55.9578 41.8C55.9578 41.4133 55.9511 41.1533 55.9378 41.02C55.8978 40.1533 55.6845 39.5 55.2978 39.06C54.9111 38.6067 54.3645 38.38 53.6578 38.38C52.9511 38.38 52.4045 38.6067 52.0178 39.06C51.6311 39.5 51.4178 40.1533 51.3778 41.02L51.3578 41.8L51.3778 42.58C51.4178 43.4467 51.6311 44.1067 52.0178 44.56C52.4045 45 52.9511 45.22 53.6578 45.22ZM61.3737 47C61.2404 47 61.1271 46.9533 61.0337 46.86C60.9404 46.7667 60.8937 46.6533 60.8937 46.52V37.08C60.8937 36.9467 60.9404 36.8333 61.0337 36.74C61.1271 36.6467 61.2404 36.6 61.3737 36.6H63.0137C63.1471 36.6 63.2604 36.6467 63.3537 36.74C63.4471 36.8333 63.4937 36.9467 63.4937 37.08V37.9C64.2804 36.9 65.3937 36.4 66.8337 36.4C68.0604 36.4 69.0337 36.8067 69.7537 37.62C70.4737 38.42 70.8337 39.5133 70.8337 40.9V46.52C70.8337 46.6533 70.7871 46.7667 70.6937 46.86C70.6137 46.9533 70.5004 47 70.3537 47H68.5937C68.4604 47 68.3471 46.9533 68.2537 46.86C68.1604 46.7667 68.1137 46.6533 68.1137 46.52V41.02C68.1137 40.2333 67.9204 39.6267 67.5337 39.2C67.1604 38.76 66.6137 38.54 65.8937 38.54C65.1871 38.54 64.6271 38.76 64.2137 39.2C63.8137 39.64 63.6137 40.2467 63.6137 41.02V46.52C63.6137 46.6533 63.5671 46.7667 63.4737 46.86C63.3937 46.9533 63.2804 47 63.1337 47H61.3737ZM73.8542 47C73.7209 47 73.6075 46.9533 73.5142 46.86C73.4209 46.7667 73.3742 46.6533 73.3742 46.52V37.08C73.3742 36.9467 73.4209 36.8333 73.5142 36.74C73.6075 36.6467 73.7209 36.6 73.8542 36.6H75.4942C75.6275 36.6 75.7409 36.6467 75.8342 36.74C75.9275 36.8333 75.9742 36.9467 75.9742 37.08V37.9C76.7609 36.9 77.8742 36.4 79.3142 36.4C80.5409 36.4 81.5142 36.8067 82.2342 37.62C82.9542 38.42 83.3142 39.5133 83.3142 40.9V46.52C83.3142 46.6533 83.2675 46.7667 83.1742 46.86C83.0942 46.9533 82.9809 47 82.8342 47H81.0742C80.9409 47 80.8275 46.9533 80.7342 46.86C80.6409 46.7667 80.5942 46.6533 80.5942 46.52V41.02C80.5942 40.2333 80.4009 39.6267 80.0142 39.2C79.6409 38.76 79.0942 38.54 78.3742 38.54C77.6675 38.54 77.1075 38.76 76.6942 39.2C76.2942 39.64 76.0942 40.2467 76.0942 41.02V46.52C76.0942 46.6533 76.0475 46.7667 75.9542 46.86C75.8742 46.9533 75.7609 47 75.6142 47H73.8542ZM90.3347 47.2C88.8547 47.2 87.6747 46.7733 86.7947 45.92C85.928 45.0533 85.468 43.84 85.4147 42.28L85.3947 41.78L85.4147 41.28C85.4813 39.76 85.948 38.5667 86.8147 37.7C87.6947 36.8333 88.868 36.4 90.3347 36.4C91.908 36.4 93.1213 36.88 93.9747 37.84C94.8413 38.8 95.2747 40.08 95.2747 41.68V42.1C95.2747 42.2333 95.228 42.3467 95.1347 42.44C95.0413 42.5333 94.9213 42.58 94.7747 42.58H88.1347V42.74C88.1613 43.4733 88.3613 44.0933 88.7347 44.6C89.1213 45.0933 89.648 45.34 90.3147 45.34C91.1013 45.34 91.7347 45.0333 92.2147 44.42C92.3347 44.2733 92.428 44.18 92.4947 44.14C92.5747 44.1 92.688 44.08 92.8347 44.08H94.5547C94.6747 44.08 94.7747 44.12 94.8547 44.2C94.948 44.2667 94.9947 44.3533 94.9947 44.46C94.9947 44.78 94.8013 45.16 94.4147 45.6C94.0413 46.0267 93.5013 46.4 92.7947 46.72C92.088 47.04 91.268 47.2 90.3347 47.2ZM92.5547 40.9V40.84C92.5547 40.0533 92.3547 39.42 91.9547 38.94C91.568 38.46 91.028 38.22 90.3347 38.22C89.6413 38.22 89.1013 38.46 88.7147 38.94C88.328 39.42 88.1347 40.0533 88.1347 40.84V40.9H92.5547ZM101.898 47.2C100.431 47.2 99.2576 46.7933 98.3776 45.98C97.511 45.1667 97.051 44.04 96.9976 42.6L96.9776 41.8L96.9976 41C97.051 39.56 97.511 38.4333 98.3776 37.62C99.2576 36.8067 100.431 36.4 101.898 36.4C102.938 36.4 103.818 36.5867 104.538 36.96C105.271 37.3333 105.811 37.7933 106.158 38.34C106.518 38.8733 106.711 39.38 106.738 39.86C106.751 39.9933 106.704 40.1067 106.598 40.2C106.504 40.2933 106.391 40.34 106.258 40.34H104.498C104.364 40.34 104.258 40.3133 104.178 40.26C104.111 40.1933 104.044 40.0867 103.978 39.94C103.778 39.42 103.511 39.0467 103.178 38.82C102.858 38.5933 102.444 38.48 101.938 38.48C101.258 38.48 100.724 38.7 100.338 39.14C99.951 39.5667 99.7443 40.22 99.7176 41.1L99.6976 41.84L99.7176 42.5C99.771 44.2467 100.511 45.12 101.938 45.12C102.458 45.12 102.878 45.0067 103.198 44.78C103.518 44.5533 103.778 44.18 103.978 43.66C104.044 43.5133 104.111 43.4133 104.178 43.36C104.258 43.2933 104.364 43.26 104.498 43.26H106.258C106.391 43.26 106.504 43.3067 106.598 43.4C106.704 43.4933 106.751 43.6067 106.738 43.74C106.711 44.2067 106.524 44.7067 106.178 45.24C105.831 45.7733 105.298 46.2333 104.578 46.62C103.858 47.0067 102.964 47.2 101.898 47.2ZM113.523 47C112.31 47 111.397 46.6867 110.783 46.06C110.183 45.42 109.883 44.4867 109.883 43.26V38.72H108.303C108.17 38.72 108.057 38.6733 107.963 38.58C107.87 38.4733 107.823 38.3533 107.823 38.22V37.08C107.823 36.9467 107.87 36.8333 107.963 36.74C108.057 36.6467 108.17 36.6 108.303 36.6H109.883V33.28C109.883 33.1333 109.93 33.02 110.023 32.94C110.117 32.8467 110.23 32.8 110.363 32.8H111.983C112.13 32.8 112.243 32.8467 112.323 32.94C112.417 33.02 112.463 33.1333 112.463 33.28V36.6H114.963C115.11 36.6 115.223 36.6467 115.303 36.74C115.397 36.82 115.443 36.9333 115.443 37.08V38.22C115.443 38.3667 115.397 38.4867 115.303 38.58C115.21 38.6733 115.097 38.72 114.963 38.72H112.463V43.06C112.463 43.6333 112.563 44.0667 112.763 44.36C112.963 44.6533 113.297 44.8 113.763 44.8H115.143C115.277 44.8 115.39 44.8467 115.483 44.94C115.577 45.0333 115.623 45.1467 115.623 45.28V46.52C115.623 46.6533 115.577 46.7667 115.483 46.86C115.403 46.9533 115.29 47 115.143 47H113.523ZM124.274 47C124.074 47 123.914 46.9467 123.794 46.84C123.674 46.7333 123.6 46.5867 123.574 46.4L121.194 33.58L121.174 33.42C121.174 33.3 121.214 33.2 121.294 33.12C121.387 33.04 121.487 33 121.594 33H123.354C123.687 33 123.874 33.1333 123.914 33.4L125.574 42.46L127.374 36.6C127.507 36.2667 127.727 36.1 128.034 36.1H129.114C129.447 36.1 129.66 36.2667 129.754 36.6L131.574 42.44L133.234 33.4C133.26 33.2533 133.314 33.1533 133.394 33.1C133.487 33.0333 133.62 33 133.794 33H135.554C135.66 33 135.754 33.04 135.834 33.12C135.914 33.2 135.954 33.3 135.954 33.42C135.954 33.4867 135.947 33.54 135.934 33.58L133.554 46.4C133.487 46.8 133.254 47 132.854 47H131.514C131.327 47 131.174 46.9533 131.054 46.86C130.934 46.7667 130.854 46.6467 130.814 46.5L128.574 39.82L126.334 46.5C126.2 46.8333 125.96 47 125.614 47H124.274ZM140.652 47.2C139.972 47.2 139.345 47.0667 138.772 46.8C138.212 46.52 137.765 46.1467 137.432 45.68C137.112 45.2133 136.952 44.7 136.952 44.14C136.952 43.2333 137.319 42.5 138.052 41.94C138.785 41.38 139.792 41 141.072 40.8L143.812 40.4V39.98C143.812 39.3933 143.665 38.9533 143.372 38.66C143.079 38.3667 142.605 38.22 141.952 38.22C141.512 38.22 141.152 38.3067 140.872 38.48C140.605 38.64 140.392 38.8 140.232 38.96C140.072 39.1333 139.965 39.2467 139.912 39.3C139.859 39.46 139.759 39.54 139.612 39.54H138.072C137.952 39.54 137.845 39.5 137.752 39.42C137.672 39.34 137.632 39.2333 137.632 39.1C137.645 38.7667 137.805 38.3867 138.112 37.96C138.432 37.5333 138.919 37.1667 139.572 36.86C140.225 36.5533 141.025 36.4 141.972 36.4C143.545 36.4 144.692 36.7533 145.412 37.46C146.132 38.1667 146.492 39.0933 146.492 40.24V46.52C146.492 46.6533 146.445 46.7667 146.352 46.86C146.272 46.9533 146.159 47 146.012 47H144.392C144.259 47 144.145 46.9533 144.052 46.86C143.959 46.7667 143.912 46.6533 143.912 46.52V45.74C143.619 46.1667 143.199 46.52 142.652 46.8C142.119 47.0667 141.452 47.2 140.652 47.2ZM141.332 45.3C142.065 45.3 142.665 45.06 143.132 44.58C143.599 44.1 143.832 43.4 143.832 42.48V42.06L141.832 42.38C141.059 42.5 140.472 42.6933 140.072 42.96C139.685 43.2267 139.492 43.5533 139.492 43.94C139.492 44.3667 139.672 44.7 140.032 44.94C140.392 45.18 140.825 45.3 141.332 45.3ZM149.558 47C149.424 47 149.311 46.9533 149.218 46.86C149.124 46.7667 149.078 46.6533 149.078 46.52V33.28C149.078 33.1333 149.124 33.02 149.218 32.94C149.311 32.8467 149.424 32.8 149.558 32.8H151.218C151.364 32.8 151.478 32.8467 151.558 32.94C151.651 33.02 151.698 33.1333 151.698 33.28V46.52C151.698 46.6533 151.651 46.7667 151.558 46.86C151.478 46.9533 151.364 47 151.218 47H149.558ZM154.851 47C154.717 47 154.604 46.9533 154.511 46.86C154.417 46.7667 154.371 46.6533 154.371 46.52V33.28C154.371 33.1333 154.417 33.02 154.511 32.94C154.604 32.8467 154.717 32.8 154.851 32.8H156.511C156.657 32.8 156.771 32.8467 156.851 32.94C156.944 33.02 156.991 33.1333 156.991 33.28V46.52C156.991 46.6533 156.944 46.7667 156.851 46.86C156.771 46.9533 156.657 47 156.511 47H154.851ZM164.124 47.2C162.644 47.2 161.464 46.7733 160.584 45.92C159.717 45.0533 159.257 43.84 159.204 42.28L159.184 41.78L159.204 41.28C159.27 39.76 159.737 38.5667 160.604 37.7C161.484 36.8333 162.657 36.4 164.124 36.4C165.697 36.4 166.91 36.88 167.764 37.84C168.63 38.8 169.064 40.08 169.064 41.68V42.1C169.064 42.2333 169.017 42.3467 168.924 42.44C168.83 42.5333 168.71 42.58 168.564 42.58H161.924V42.74C161.95 43.4733 162.15 44.0933 162.524 44.6C162.91 45.0933 163.437 45.34 164.104 45.34C164.89 45.34 165.524 45.0333 166.004 44.42C166.124 44.2733 166.217 44.18 166.284 44.14C166.364 44.1 166.477 44.08 166.624 44.08H168.344C168.464 44.08 168.564 44.12 168.644 44.2C168.737 44.2667 168.784 44.3533 168.784 44.46C168.784 44.78 168.59 45.16 168.204 45.6C167.83 46.0267 167.29 46.4 166.584 46.72C165.877 47.04 165.057 47.2 164.124 47.2ZM166.344 40.9V40.84C166.344 40.0533 166.144 39.42 165.744 38.94C165.357 38.46 164.817 38.22 164.124 38.22C163.43 38.22 162.89 38.46 162.504 38.94C162.117 39.42 161.924 40.0533 161.924 40.84V40.9H166.344ZM175.848 47C174.634 47 173.721 46.6867 173.108 46.06C172.508 45.42 172.208 44.4867 172.208 43.26V38.72H170.628C170.494 38.72 170.381 38.6733 170.288 38.58C170.194 38.4733 170.148 38.3533 170.148 38.22V37.08C170.148 36.9467 170.194 36.8333 170.288 36.74C170.381 36.6467 170.494 36.6 170.628 36.6H172.208V33.28C172.208 33.1333 172.254 33.02 172.348 32.94C172.441 32.8467 172.554 32.8 172.688 32.8H174.308C174.454 32.8 174.568 32.8467 174.648 32.94C174.741 33.02 174.788 33.1333 174.788 33.28V36.6H177.288C177.434 36.6 177.548 36.6467 177.628 36.74C177.721 36.82 177.768 36.9333 177.768 37.08V38.22C177.768 38.3667 177.721 38.4867 177.628 38.58C177.534 38.6733 177.421 38.72 177.288 38.72H174.788V43.06C174.788 43.6333 174.888 44.0667 175.088 44.36C175.288 44.6533 175.621 44.8 176.088 44.8H177.468C177.601 44.8 177.714 44.8467 177.808 44.94C177.901 45.0333 177.948 45.1467 177.948 45.28V46.52C177.948 46.6533 177.901 46.7667 177.808 46.86C177.728 46.9533 177.614 47 177.468 47H175.848Z" fill="#FCECD2"/>
<path d="M41.0259 47.2C39.1859 47.2 37.7593 46.7267 36.7459 45.78C35.7459 44.8333 35.2126 43.5 35.1459 41.78C35.1326 41.42 35.1259 40.8333 35.1259 40.02C35.1259 39.1933 35.1326 38.5933 35.1459 38.22C35.2126 36.5133 35.7526 35.1867 36.7659 34.24C37.7926 33.28 39.2126 32.8 41.0259 32.8C42.2126 32.8 43.2459 33.0067 44.1259 33.42C45.0059 33.82 45.6859 34.3733 46.1659 35.08C46.6459 35.7733 46.8993 36.56 46.9259 37.44V37.48C46.9259 37.5867 46.8793 37.68 46.7859 37.76C46.7059 37.8267 46.6126 37.86 46.5059 37.86H44.6059C44.4459 37.86 44.3259 37.8267 44.2459 37.76C44.1659 37.6933 44.0993 37.5667 44.0459 37.38C43.8326 36.54 43.4793 35.9533 42.9859 35.62C42.4926 35.2733 41.8326 35.1 41.0059 35.1C39.0859 35.1 38.0859 36.1733 38.0059 38.32C37.9926 38.68 37.9859 39.2333 37.9859 39.98C37.9859 40.7267 37.9926 41.2933 38.0059 41.68C38.0859 43.8267 39.0859 44.9 41.0059 44.9C41.8326 44.9 42.4926 44.7267 42.9859 44.38C43.4926 44.0333 43.8459 43.4467 44.0459 42.62C44.0859 42.4333 44.1459 42.3067 44.2259 42.24C44.3193 42.1733 44.4459 42.14 44.6059 42.14H46.5059C46.6259 42.14 46.7259 42.18 46.8059 42.26C46.8993 42.34 46.9393 42.44 46.9259 42.56C46.8993 43.44 46.6459 44.2333 46.1659 44.94C45.6859 45.6333 45.0059 46.1867 44.1259 46.6C43.2459 47 42.2126 47.2 41.0259 47.2ZM53.6578 47.2C52.0978 47.2 50.8911 46.8 50.0378 46C49.1845 45.1867 48.7245 44.08 48.6578 42.68L48.6378 41.8L48.6578 40.92C48.7245 39.5333 49.1911 38.4333 50.0578 37.62C50.9245 36.8067 52.1245 36.4 53.6578 36.4C55.1911 36.4 56.3911 36.8067 57.2578 37.62C58.1245 38.4333 58.5911 39.5333 58.6578 40.92C58.6711 41.08 58.6778 41.3733 58.6778 41.8C58.6778 42.2267 58.6711 42.52 58.6578 42.68C58.5911 44.08 58.1311 45.1867 57.2778 46C56.4245 46.8 55.2178 47.2 53.6578 47.2ZM53.6578 45.22C54.3645 45.22 54.9111 45 55.2978 44.56C55.6845 44.1067 55.8978 43.4467 55.9378 42.58C55.9511 42.4467 55.9578 42.1867 55.9578 41.8C55.9578 41.4133 55.9511 41.1533 55.9378 41.02C55.8978 40.1533 55.6845 39.5 55.2978 39.06C54.9111 38.6067 54.3645 38.38 53.6578 38.38C52.9511 38.38 52.4045 38.6067 52.0178 39.06C51.6311 39.5 51.4178 40.1533 51.3778 41.02L51.3578 41.8L51.3778 42.58C51.4178 43.4467 51.6311 44.1067 52.0178 44.56C52.4045 45 52.9511 45.22 53.6578 45.22ZM61.3737 47C61.2404 47 61.1271 46.9533 61.0337 46.86C60.9404 46.7667 60.8937 46.6533 60.8937 46.52V37.08C60.8937 36.9467 60.9404 36.8333 61.0337 36.74C61.1271 36.6467 61.2404 36.6 61.3737 36.6H63.0137C63.1471 36.6 63.2604 36.6467 63.3537 36.74C63.4471 36.8333 63.4937 36.9467 63.4937 37.08V37.9C64.2804 36.9 65.3937 36.4 66.8337 36.4C68.0604 36.4 69.0337 36.8067 69.7537 37.62C70.4737 38.42 70.8337 39.5133 70.8337 40.9V46.52C70.8337 46.6533 70.7871 46.7667 70.6937 46.86C70.6137 46.9533 70.5004 47 70.3537 47H68.5937C68.4604 47 68.3471 46.9533 68.2537 46.86C68.1604 46.7667 68.1137 46.6533 68.1137 46.52V41.02C68.1137 40.2333 67.9204 39.6267 67.5337 39.2C67.1604 38.76 66.6137 38.54 65.8937 38.54C65.1871 38.54 64.6271 38.76 64.2137 39.2C63.8137 39.64 63.6137 40.2467 63.6137 41.02V46.52C63.6137 46.6533 63.5671 46.7667 63.4737 46.86C63.3937 46.9533 63.2804 47 63.1337 47H61.3737ZM73.8542 47C73.7209 47 73.6075 46.9533 73.5142 46.86C73.4209 46.7667 73.3742 46.6533 73.3742 46.52V37.08C73.3742 36.9467 73.4209 36.8333 73.5142 36.74C73.6075 36.6467 73.7209 36.6 73.8542 36.6H75.4942C75.6275 36.6 75.7409 36.6467 75.8342 36.74C75.9275 36.8333 75.9742 36.9467 75.9742 37.08V37.9C76.7609 36.9 77.8742 36.4 79.3142 36.4C80.5409 36.4 81.5142 36.8067 82.2342 37.62C82.9542 38.42 83.3142 39.5133 83.3142 40.9V46.52C83.3142 46.6533 83.2675 46.7667 83.1742 46.86C83.0942 46.9533 82.9809 47 82.8342 47H81.0742C80.9409 47 80.8275 46.9533 80.7342 46.86C80.6409 46.7667 80.5942 46.6533 80.5942 46.52V41.02C80.5942 40.2333 80.4009 39.6267 80.0142 39.2C79.6409 38.76 79.0942 38.54 78.3742 38.54C77.6675 38.54 77.1075 38.76 76.6942 39.2C76.2942 39.64 76.0942 40.2467 76.0942 41.02V46.52C76.0942 46.6533 76.0475 46.7667 75.9542 46.86C75.8742 46.9533 75.7609 47 75.6142 47H73.8542ZM90.3347 47.2C88.8547 47.2 87.6747 46.7733 86.7947 45.92C85.928 45.0533 85.468 43.84 85.4147 42.28L85.3947 41.78L85.4147 41.28C85.4813 39.76 85.948 38.5667 86.8147 37.7C87.6947 36.8333 88.868 36.4 90.3347 36.4C91.908 36.4 93.1213 36.88 93.9747 37.84C94.8413 38.8 95.2747 40.08 95.2747 41.68V42.1C95.2747 42.2333 95.228 42.3467 95.1347 42.44C95.0413 42.5333 94.9213 42.58 94.7747 42.58H88.1347V42.74C88.1613 43.4733 88.3613 44.0933 88.7347 44.6C89.1213 45.0933 89.648 45.34 90.3147 45.34C91.1013 45.34 91.7347 45.0333 92.2147 44.42C92.3347 44.2733 92.428 44.18 92.4947 44.14C92.5747 44.1 92.688 44.08 92.8347 44.08H94.5547C94.6747 44.08 94.7747 44.12 94.8547 44.2C94.948 44.2667 94.9947 44.3533 94.9947 44.46C94.9947 44.78 94.8013 45.16 94.4147 45.6C94.0413 46.0267 93.5013 46.4 92.7947 46.72C92.088 47.04 91.268 47.2 90.3347 47.2ZM92.5547 40.9V40.84C92.5547 40.0533 92.3547 39.42 91.9547 38.94C91.568 38.46 91.028 38.22 90.3347 38.22C89.6413 38.22 89.1013 38.46 88.7147 38.94C88.328 39.42 88.1347 40.0533 88.1347 40.84V40.9H92.5547ZM101.898 47.2C100.431 47.2 99.2576 46.7933 98.3776 45.98C97.511 45.1667 97.051 44.04 96.9976 42.6L96.9776 41.8L96.9976 41C97.051 39.56 97.511 38.4333 98.3776 37.62C99.2576 36.8067 100.431 36.4 101.898 36.4C102.938 36.4 103.818 36.5867 104.538 36.96C105.271 37.3333 105.811 37.7933 106.158 38.34C106.518 38.8733 106.711 39.38 106.738 39.86C106.751 39.9933 106.704 40.1067 106.598 40.2C106.504 40.2933 106.391 40.34 106.258 40.34H104.498C104.364 40.34 104.258 40.3133 104.178 40.26C104.111 40.1933 104.044 40.0867 103.978 39.94C103.778 39.42 103.511 39.0467 103.178 38.82C102.858 38.5933 102.444 38.48 101.938 38.48C101.258 38.48 100.724 38.7 100.338 39.14C99.951 39.5667 99.7443 40.22 99.7176 41.1L99.6976 41.84L99.7176 42.5C99.771 44.2467 100.511 45.12 101.938 45.12C102.458 45.12 102.878 45.0067 103.198 44.78C103.518 44.5533 103.778 44.18 103.978 43.66C104.044 43.5133 104.111 43.4133 104.178 43.36C104.258 43.2933 104.364 43.26 104.498 43.26H106.258C106.391 43.26 106.504 43.3067 106.598 43.4C106.704 43.4933 106.751 43.6067 106.738 43.74C106.711 44.2067 106.524 44.7067 106.178 45.24C105.831 45.7733 105.298 46.2333 104.578 46.62C103.858 47.0067 102.964 47.2 101.898 47.2ZM113.523 47C112.31 47 111.397 46.6867 110.783 46.06C110.183 45.42 109.883 44.4867 109.883 43.26V38.72H108.303C108.17 38.72 108.057 38.6733 107.963 38.58C107.87 38.4733 107.823 38.3533 107.823 38.22V37.08C107.823 36.9467 107.87 36.8333 107.963 36.74C108.057 36.6467 108.17 36.6 108.303 36.6H109.883V33.28C109.883 33.1333 109.93 33.02 110.023 32.94C110.117 32.8467 110.23 32.8 110.363 32.8H111.983C112.13 32.8 112.243 32.8467 112.323 32.94C112.417 33.02 112.463 33.1333 112.463 33.28V36.6H114.963C115.11 36.6 115.223 36.6467 115.303 36.74C115.397 36.82 115.443 36.9333 115.443 37.08V38.22C115.443 38.3667 115.397 38.4867 115.303 38.58C115.21 38.6733 115.097 38.72 114.963 38.72H112.463V43.06C112.463 43.6333 112.563 44.0667 112.763 44.36C112.963 44.6533 113.297 44.8 113.763 44.8H115.143C115.277 44.8 115.39 44.8467 115.483 44.94C115.577 45.0333 115.623 45.1467 115.623 45.28V46.52C115.623 46.6533 115.577 46.7667 115.483 46.86C115.403 46.9533 115.29 47 115.143 47H113.523ZM124.274 47C124.074 47 123.914 46.9467 123.794 46.84C123.674 46.7333 123.6 46.5867 123.574 46.4L121.194 33.58L121.174 33.42C121.174 33.3 121.214 33.2 121.294 33.12C121.387 33.04 121.487 33 121.594 33H123.354C123.687 33 123.874 33.1333 123.914 33.4L125.574 42.46L127.374 36.6C127.507 36.2667 127.727 36.1 128.034 36.1H129.114C129.447 36.1 129.66 36.2667 129.754 36.6L131.574 42.44L133.234 33.4C133.26 33.2533 133.314 33.1533 133.394 33.1C133.487 33.0333 133.62 33 133.794 33H135.554C135.66 33 135.754 33.04 135.834 33.12C135.914 33.2 135.954 33.3 135.954 33.42C135.954 33.4867 135.947 33.54 135.934 33.58L133.554 46.4C133.487 46.8 133.254 47 132.854 47H131.514C131.327 47 131.174 46.9533 131.054 46.86C130.934 46.7667 130.854 46.6467 130.814 46.5L128.574 39.82L126.334 46.5C126.2 46.8333 125.96 47 125.614 47H124.274ZM140.652 47.2C139.972 47.2 139.345 47.0667 138.772 46.8C138.212 46.52 137.765 46.1467 137.432 45.68C137.112 45.2133 136.952 44.7 136.952 44.14C136.952 43.2333 137.319 42.5 138.052 41.94C138.785 41.38 139.792 41 141.072 40.8L143.812 40.4V39.98C143.812 39.3933 143.665 38.9533 143.372 38.66C143.079 38.3667 142.605 38.22 141.952 38.22C141.512 38.22 141.152 38.3067 140.872 38.48C140.605 38.64 140.392 38.8 140.232 38.96C140.072 39.1333 139.965 39.2467 139.912 39.3C139.859 39.46 139.759 39.54 139.612 39.54H138.072C137.952 39.54 137.845 39.5 137.752 39.42C137.672 39.34 137.632 39.2333 137.632 39.1C137.645 38.7667 137.805 38.3867 138.112 37.96C138.432 37.5333 138.919 37.1667 139.572 36.86C140.225 36.5533 141.025 36.4 141.972 36.4C143.545 36.4 144.692 36.7533 145.412 37.46C146.132 38.1667 146.492 39.0933 146.492 40.24V46.52C146.492 46.6533 146.445 46.7667 146.352 46.86C146.272 46.9533 146.159 47 146.012 47H144.392C144.259 47 144.145 46.9533 144.052 46.86C143.959 46.7667 143.912 46.6533 143.912 46.52V45.74C143.619 46.1667 143.199 46.52 142.652 46.8C142.119 47.0667 141.452 47.2 140.652 47.2ZM141.332 45.3C142.065 45.3 142.665 45.06 143.132 44.58C143.599 44.1 143.832 43.4 143.832 42.48V42.06L141.832 42.38C141.059 42.5 140.472 42.6933 140.072 42.96C139.685 43.2267 139.492 43.5533 139.492 43.94C139.492 44.3667 139.672 44.7 140.032 44.94C140.392 45.18 140.825 45.3 141.332 45.3ZM149.558 47C149.424 47 149.311 46.9533 149.218 46.86C149.124 46.7667 149.078 46.6533 149.078 46.52V33.28C149.078 33.1333 149.124 33.02 149.218 32.94C149.311 32.8467 149.424 32.8 149.558 32.8H151.218C151.364 32.8 151.478 32.8467 151.558 32.94C151.651 33.02 151.698 33.1333 151.698 33.28V46.52C151.698 46.6533 151.651 46.7667 151.558 46.86C151.478 46.9533 151.364 47 151.218 47H149.558ZM154.851 47C154.717 47 154.604 46.9533 154.511 46.86C154.417 46.7667 154.371 46.6533 154.371 46.52V33.28C154.371 33.1333 154.417 33.02 154.511 32.94C154.604 32.8467 154.717 32.8 154.851 32.8H156.511C156.657 32.8 156.771 32.8467 156.851 32.94C156.944 33.02 156.991 33.1333 156.991 33.28V46.52C156.991 46.6533 156.944 46.7667 156.851 46.86C156.771 46.9533 156.657 47 156.511 47H154.851ZM164.124 47.2C162.644 47.2 161.464 46.7733 160.584 45.92C159.717 45.0533 159.257 43.84 159.204 42.28L159.184 41.78L159.204 41.28C159.27 39.76 159.737 38.5667 160.604 37.7C161.484 36.8333 162.657 36.4 164.124 36.4C165.697 36.4 166.91 36.88 167.764 37.84C168.63 38.8 169.064 40.08 169.064 41.68V42.1C169.064 42.2333 169.017 42.3467 168.924 42.44C168.83 42.5333 168.71 42.58 168.564 42.58H161.924V42.74C161.95 43.4733 162.15 44.0933 162.524 44.6C162.91 45.0933 163.437 45.34 164.104 45.34C164.89 45.34 165.524 45.0333 166.004 44.42C166.124 44.2733 166.217 44.18 166.284 44.14C166.364 44.1 166.477 44.08 166.624 44.08H168.344C168.464 44.08 168.564 44.12 168.644 44.2C168.737 44.2667 168.784 44.3533 168.784 44.46C168.784 44.78 168.59 45.16 168.204 45.6C167.83 46.0267 167.29 46.4 166.584 46.72C165.877 47.04 165.057 47.2 164.124 47.2ZM166.344 40.9V40.84C166.344 40.0533 166.144 39.42 165.744 38.94C165.357 38.46 164.817 38.22 164.124 38.22C163.43 38.22 162.89 38.46 162.504 38.94C162.117 39.42 161.924 40.0533 161.924 40.84V40.9H166.344ZM175.848 47C174.634 47 173.721 46.6867 173.108 46.06C172.508 45.42 172.208 44.4867 172.208 43.26V38.72H170.628C170.494 38.72 170.381 38.6733 170.288 38.58C170.194 38.4733 170.148 38.3533 170.148 38.22V37.08C170.148 36.9467 170.194 36.8333 170.288 36.74C170.381 36.6467 170.494 36.6 170.628 36.6H172.208V33.28C172.208 33.1333 172.254 33.02 172.348 32.94C172.441 32.8467 172.554 32.8 172.688 32.8H174.308C174.454 32.8 174.568 32.8467 174.648 32.94C174.741 33.02 174.788 33.1333 174.788 33.28V36.6H177.288C177.434 36.6 177.548 36.6467 177.628 36.74C177.721 36.82 177.768 36.9333 177.768 37.08V38.22C177.768 38.3667 177.721 38.4867 177.628 38.58C177.534 38.6733 177.421 38.72 177.288 38.72H174.788V43.06C174.788 43.6333 174.888 44.0667 175.088 44.36C175.288 44.6533 175.621 44.8 176.088 44.8H177.468C177.601 44.8 177.714 44.8467 177.808 44.94C177.901 45.0333 177.948 45.1467 177.948 45.28V46.52C177.948 46.6533 177.901 46.7667 177.808 46.86C177.728 46.9533 177.614 47 177.468 47H175.848Z" fill="url(#paint0_linear_126:12956)" fill-opacity="0.3"/>
<path d="M36.7459 45.78L36.0584 46.5062L36.0633 46.5107L36.7459 45.78ZM35.1459 41.78L34.1466 41.817L34.1467 41.8187L35.1459 41.78ZM35.1459 38.22L34.1467 38.181L34.1466 38.1843L35.1459 38.22ZM36.7659 34.24L37.4486 34.9707L37.4489 34.9704L36.7659 34.24ZM44.1259 33.42L43.7007 34.3252L43.7121 34.3304L44.1259 33.42ZM46.1659 35.08L45.3387 35.6419L45.3437 35.6492L46.1659 35.08ZM46.9259 37.44H47.9259V37.4249L47.9255 37.4097L46.9259 37.44ZM46.7859 37.76L47.4262 38.5283L47.4367 38.5193L46.7859 37.76ZM44.2459 37.76L43.6057 38.5282L43.6057 38.5282L44.2459 37.76ZM44.0459 37.38L43.0767 37.6262L43.0803 37.6405L43.0844 37.6547L44.0459 37.38ZM42.9859 35.62L42.411 36.4382L42.4185 36.4435L42.4261 36.4486L42.9859 35.62ZM38.0059 38.32L37.0066 38.2828L37.0066 38.283L38.0059 38.32ZM38.0059 41.68L37.0065 41.7145L37.0066 41.7173L38.0059 41.68ZM42.9859 44.38L42.4212 43.5546L42.411 43.5618L42.9859 44.38ZM44.0459 42.62L45.0179 42.8552L45.021 42.8424L45.0237 42.8295L44.0459 42.62ZM44.2259 42.24L43.6447 41.4263L43.6144 41.4479L43.5857 41.4718L44.2259 42.24ZM46.8059 42.26L46.0988 42.9671L46.126 42.9943L46.1551 43.0193L46.8059 42.26ZM46.9259 42.56L45.932 42.4496L45.9276 42.4895L45.9264 42.5297L46.9259 42.56ZM46.1659 44.94L46.9881 45.5092L46.9931 45.5019L46.1659 44.94ZM44.1259 46.6L44.5398 47.5104L44.5511 47.5051L44.1259 46.6ZM41.0259 46.2C39.3545 46.2 38.2028 45.7726 37.4286 45.0493L36.0633 46.5107C37.3157 47.6808 39.0173 48.2 41.0259 48.2V46.2ZM37.4334 45.0538C36.6678 44.3291 36.2044 43.2689 36.1452 41.7413L34.1467 41.8187C34.2208 43.7311 34.824 45.3376 36.0584 46.5062L37.4334 45.0538ZM36.1452 41.743C36.1326 41.403 36.1259 40.8324 36.1259 40.02H34.1259C34.1259 40.8343 34.1325 41.437 34.1466 41.817L36.1452 41.743ZM36.1259 40.02C36.1259 39.1946 36.1326 38.6099 36.1453 38.2557L34.1466 38.1843C34.1325 38.5768 34.1259 39.1921 34.1259 40.02H36.1259ZM36.1452 38.259C36.2041 36.751 36.6704 35.6978 37.4486 34.9707L36.0833 33.5093C34.8348 34.6756 34.2211 36.2757 34.1467 38.181L36.1452 38.259ZM37.4489 34.9704C38.2414 34.2294 39.3901 33.8 41.0259 33.8V31.8C39.0351 31.8 37.3438 32.3306 36.0829 33.5096L37.4489 34.9704ZM41.0259 33.8C42.0974 33.8 42.9798 33.9865 43.7008 34.3251L44.5511 32.5149C43.512 32.0268 42.3278 31.8 41.0259 31.8V33.8ZM43.7121 34.3304C44.4474 34.6646 44.975 35.1064 45.3387 35.6419L46.9931 34.5181C46.3969 33.6403 45.5644 32.9754 44.5397 32.5096L43.7121 34.3304ZM45.3437 35.6492C45.7088 36.1766 45.9053 36.7743 45.9264 37.4703L47.9255 37.4097C47.8932 36.3457 47.583 35.3701 46.9881 34.5108L45.3437 35.6492ZM45.9259 37.44V37.48H47.9259V37.44H45.9259ZM45.9259 37.48C45.9259 37.3817 45.9488 37.2781 45.9965 37.1828C46.0424 37.091 46.0983 37.0323 46.1351 37.0008L47.4367 38.5193C47.7141 38.2815 47.9259 37.9247 47.9259 37.48H45.9259ZM46.1457 36.9918C46.1914 36.9537 46.25 36.9181 46.3196 36.8933C46.3888 36.8685 46.4534 36.86 46.5059 36.86V38.86C46.8403 38.86 47.1617 38.7486 47.4261 38.5282L46.1457 36.9918ZM46.5059 36.86H44.6059V38.86H46.5059V36.86ZM44.6059 36.86C44.5921 36.86 44.6158 36.8582 44.6636 36.8715C44.7138 36.8855 44.798 36.9183 44.8861 36.9918L43.6057 38.5282C43.9398 38.8067 44.3317 38.86 44.6059 38.86V36.86ZM44.8861 36.9918C44.9768 37.0674 45.0145 37.1373 45.0208 37.1493C45.0286 37.164 45.0214 37.1542 45.0074 37.1053L43.0844 37.6547C43.1521 37.8915 43.2872 38.2628 43.6057 38.5282L44.8861 36.9918ZM45.0151 37.1339C44.7685 36.1626 44.318 35.3132 43.5458 34.7914L42.4261 36.4486C42.6405 36.5935 42.8967 36.9174 43.0767 37.6262L45.0151 37.1339ZM43.5609 34.8018C42.847 34.3002 41.9639 34.1 41.0059 34.1V36.1C41.7013 36.1 42.1381 36.2465 42.411 36.4382L43.5609 34.8018ZM41.0059 34.1C39.8585 34.1 38.8271 34.426 38.0843 35.2233C37.3591 36.0017 37.0515 37.0783 37.0066 38.2828L39.0052 38.3573C39.0403 37.415 39.2728 36.8817 39.5476 36.5867C39.8047 36.3107 40.2333 36.1 41.0059 36.1V34.1ZM37.0066 38.283C36.9925 38.6624 36.9859 39.2311 36.9859 39.98H38.9859C38.9859 39.2356 38.9926 38.6976 39.0052 38.357L37.0066 38.283ZM36.9859 39.98C36.9859 40.7297 36.9926 41.3102 37.0065 41.7145L39.0053 41.6455C38.9926 41.2765 38.9859 40.7236 38.9859 39.98H36.9859ZM37.0066 41.7173C37.0515 42.9217 37.3591 43.9983 38.0843 44.7767C38.8271 45.5741 39.8585 45.9 41.0059 45.9V43.9C40.2333 43.9 39.8047 43.6893 39.5476 43.4133C39.2728 43.1184 39.0403 42.585 39.0052 41.6428L37.0066 41.7173ZM41.0059 45.9C41.9639 45.9 42.847 45.6998 43.5609 45.1982L42.411 43.5618C42.1381 43.7535 41.7013 43.9 41.0059 43.9V45.9ZM43.5506 45.2053C44.3284 44.6731 44.7822 43.8292 45.0179 42.8552L43.074 42.3849C42.9096 43.0641 42.6567 43.3936 42.4212 43.5547L43.5506 45.2053ZM45.0237 42.8295C45.0329 42.7865 45.0371 42.7867 45.0247 42.8131C45.0129 42.8379 44.9691 42.9224 44.8661 43.0082L43.5857 41.4718C43.2404 41.7595 43.1208 42.1648 43.0681 42.4105L45.0237 42.8295ZM44.8072 43.0537C44.6757 43.1476 44.5744 43.14 44.6059 43.14V41.14C44.3175 41.14 43.9628 41.1991 43.6447 41.4263L44.8072 43.0537ZM44.6059 43.14H46.5059V41.14H44.6059V43.14ZM46.5059 43.14C46.4532 43.14 46.3804 43.1308 46.2995 43.0985C46.2175 43.0657 46.1497 43.018 46.0988 42.9671L47.513 41.5529C47.2332 41.2731 46.8733 41.14 46.5059 41.14V43.14ZM46.1551 43.0193C46.0968 42.9692 46.0254 42.8862 45.9774 42.7664C45.9292 42.6459 45.9228 42.533 45.932 42.4496L47.9198 42.6704C47.9705 42.2146 47.7958 41.7914 47.4567 41.5008L46.1551 43.0193ZM45.9264 42.5297C45.9053 43.2259 45.7085 43.8337 45.3387 44.3781L46.9931 45.5019C47.5833 44.633 47.8932 43.6541 47.9255 42.5903L45.9264 42.5297ZM45.3437 44.3708C44.9786 44.8982 44.4459 45.3449 43.7008 45.6949L44.5511 47.5051C45.566 47.0284 46.3932 46.3685 46.9881 45.5092L45.3437 44.3708ZM43.7121 45.6896C42.9881 46.0187 42.1016 46.2 41.0259 46.2V48.2C42.3236 48.2 43.5037 47.9813 44.5397 47.5104L43.7121 45.6896ZM50.0378 46L49.3478 46.7239L49.3539 46.7295L50.0378 46ZM48.6578 42.68L47.6581 42.7027L47.6583 42.7152L47.6589 42.7276L48.6578 42.68ZM48.6378 41.8L47.6381 41.7773L47.6375 41.8L47.6381 41.8227L48.6378 41.8ZM48.6578 40.92L47.6589 40.872L47.6583 40.8846L47.6581 40.8973L48.6578 40.92ZM50.0578 37.62L50.7421 38.3492L50.0578 37.62ZM57.2578 37.62L56.5735 38.3492L57.2578 37.62ZM58.6578 40.92L57.6589 40.968L57.6598 40.9856L57.6612 41.0031L58.6578 40.92ZM58.6578 42.68L57.6612 42.597L57.6598 42.6147L57.6589 42.6324L58.6578 42.68ZM57.2778 46L57.9618 46.7296L57.9677 46.7239L57.2778 46ZM55.2978 44.56L56.049 45.2201L56.0538 45.2146L56.0586 45.209L55.2978 44.56ZM55.9378 42.58L54.9428 42.4805L54.9401 42.5072L54.9389 42.5339L55.9378 42.58ZM55.9378 41.02L54.9389 41.0661L54.9401 41.0929L54.9428 41.1195L55.9378 41.02ZM55.2978 39.06L54.537 39.709L54.5418 39.7146L54.5466 39.7201L55.2978 39.06ZM52.0178 39.06L52.769 39.7201L52.7738 39.7146L52.7786 39.709L52.0178 39.06ZM51.3778 41.02L50.3789 40.9739L50.3784 40.9841L50.3781 40.9944L51.3778 41.02ZM51.3578 41.8L50.3581 41.7744L50.3575 41.8L50.3581 41.8256L51.3578 41.8ZM51.3778 42.58L50.3781 42.6056L50.3784 42.6159L50.3789 42.6261L51.3778 42.58ZM52.0178 44.56L51.257 45.209L51.2618 45.2146L51.2666 45.2201L52.0178 44.56ZM53.6578 46.2C52.2651 46.2 51.3349 45.8453 50.7217 45.2705L49.3539 46.7295C50.4474 47.7547 51.9305 48.2 53.6578 48.2V46.2ZM50.7277 45.2761C50.0948 44.6729 49.7136 43.8274 49.6567 42.6324L47.6589 42.7276C47.7354 44.3326 48.2741 45.7004 49.3479 46.7239L50.7277 45.2761ZM49.6575 42.6573L49.6375 41.7773L47.6381 41.8227L47.6581 42.7027L49.6575 42.6573ZM49.6375 41.8227L49.6575 40.9427L47.6581 40.8973L47.6381 41.7773L49.6375 41.8227ZM49.6566 40.968C49.7131 39.7938 50.0963 38.9552 50.7421 38.3492L49.3735 36.8908C48.2859 37.9115 47.7358 39.2728 47.6589 40.872L49.6566 40.968ZM50.7421 38.3492C51.3743 37.7559 52.3024 37.4 53.6578 37.4V35.4C51.9466 35.4 50.4746 35.8575 49.3735 36.8908L50.7421 38.3492ZM53.6578 37.4C55.0132 37.4 55.9412 37.7559 56.5735 38.3492L57.9421 36.8908C56.841 35.8575 55.369 35.4 53.6578 35.4V37.4ZM56.5735 38.3492C57.2193 38.9552 57.6025 39.7938 57.6589 40.968L59.6566 40.872C59.5798 39.2728 59.0297 37.9115 57.9421 36.8908L56.5735 38.3492ZM57.6612 41.0031C57.6707 41.1161 57.6778 41.3702 57.6778 41.8H59.6778C59.6778 41.3765 59.6716 41.044 59.6543 40.837L57.6612 41.0031ZM57.6778 41.8C57.6778 42.2298 57.6707 42.484 57.6612 42.597L59.6543 42.7631C59.6716 42.5561 59.6778 42.2235 59.6778 41.8H57.6778ZM57.6589 42.6324C57.602 43.8274 57.2207 44.6729 56.5879 45.2761L57.9677 46.7239C59.0415 45.7004 59.5802 44.3326 59.6567 42.7276L57.6589 42.6324ZM56.5939 45.2705C55.9807 45.8453 55.0505 46.2 53.6578 46.2V48.2C55.3851 48.2 56.8682 47.7547 57.9617 46.7295L56.5939 45.2705ZM53.6578 46.22C54.5873 46.22 55.4335 45.9205 56.049 45.2201L54.5466 43.8999C54.3888 44.0795 54.1416 44.22 53.6578 44.22V46.22ZM56.0586 45.209C56.6421 44.5249 56.891 43.6169 56.9367 42.6261L54.9389 42.5339C54.9046 43.2764 54.7269 43.6884 54.537 43.9111L56.0586 45.209ZM56.9328 42.6795C56.9519 42.4888 56.9578 42.1798 56.9578 41.8H54.9578C54.9578 42.1936 54.9503 42.4046 54.9428 42.4805L56.9328 42.6795ZM56.9578 41.8C56.9578 41.4203 56.9519 41.1112 56.9328 40.9205L54.9428 41.1195C54.9503 41.1954 54.9578 41.4064 54.9578 41.8H56.9578ZM56.9367 40.9739C56.8911 39.9855 56.6427 39.0756 56.049 38.3999L54.5466 39.7201C54.7262 39.9245 54.9045 40.3212 54.9389 41.0661L56.9367 40.9739ZM56.0586 38.4111C55.4462 37.693 54.5972 37.38 53.6578 37.38V39.38C54.1317 39.38 54.3761 39.5203 54.537 39.709L56.0586 38.4111ZM53.6578 37.38C52.7184 37.38 51.8694 37.693 51.257 38.4111L52.7786 39.709C52.9395 39.5203 53.1838 39.38 53.6578 39.38V37.38ZM51.2666 38.3999C50.6729 39.0756 50.4245 39.9855 50.3789 40.9739L52.3767 41.0661C52.4111 40.3212 52.5894 39.9245 52.769 39.7201L51.2666 38.3999ZM50.3781 40.9944L50.3581 41.7744L52.3575 41.8256L52.3775 41.0456L50.3781 40.9944ZM50.3581 41.8256L50.3781 42.6056L52.3775 42.5544L52.3575 41.7744L50.3581 41.8256ZM50.3789 42.6261C50.4246 43.6169 50.6735 44.5249 51.257 45.209L52.7786 43.9111C52.5887 43.6884 52.411 43.2764 52.3767 42.5339L50.3789 42.6261ZM51.2666 45.2201C51.8821 45.9205 52.7283 46.22 53.6578 46.22V44.22C53.174 44.22 52.9268 44.0795 52.769 43.8999L51.2666 45.2201ZM61.0337 46.86L61.7408 46.1529L61.0337 46.86ZM61.0337 36.74L61.7408 37.4471L61.7408 37.4471L61.0337 36.74ZM63.3537 36.74L62.6466 37.4471L62.6466 37.4471L63.3537 36.74ZM63.4937 37.9H62.4937V40.7886L64.2797 38.5183L63.4937 37.9ZM69.7537 37.62L69.0049 38.2829L69.0104 38.289L69.7537 37.62ZM70.6937 46.86L69.9866 46.1529L69.9595 46.1801L69.9345 46.2092L70.6937 46.86ZM67.5337 39.2L66.7712 39.847L66.7818 39.8594L66.7927 39.8715L67.5337 39.2ZM64.2137 39.2L63.4849 38.5153L63.4793 38.5213L63.4738 38.5273L64.2137 39.2ZM63.4737 46.86L62.7666 46.1529L62.7395 46.1801L62.7145 46.2092L63.4737 46.86ZM61.3737 46C61.4261 46 61.4951 46.0097 61.5695 46.0403C61.644 46.071 61.7014 46.1135 61.7408 46.1529L60.3266 47.5671C60.6096 47.8501 60.9782 48 61.3737 48V46ZM61.7408 46.1529C61.7803 46.1923 61.8227 46.2497 61.8534 46.3243C61.884 46.3986 61.8937 46.4676 61.8937 46.52H59.8937C59.8937 46.9155 60.0436 47.2841 60.3266 47.5671L61.7408 46.1529ZM61.8937 46.52V37.08H59.8937V46.52H61.8937ZM61.8937 37.08C61.8937 37.1324 61.884 37.2014 61.8534 37.2758C61.8227 37.3503 61.7803 37.4077 61.7408 37.4471L60.3266 36.0329C60.0436 36.3159 59.8937 36.6845 59.8937 37.08H61.8937ZM61.7408 37.4471C61.7014 37.4866 61.644 37.529 61.5695 37.5597C61.4951 37.5903 61.4261 37.6 61.3737 37.6V35.6C60.9782 35.6 60.6096 35.7499 60.3266 36.0329L61.7408 37.4471ZM61.3737 37.6H63.0137V35.6H61.3737V37.6ZM63.0137 37.6C62.9613 37.6 62.8923 37.5903 62.818 37.5597C62.7434 37.529 62.6861 37.4866 62.6466 37.4471L64.0608 36.0329C63.7778 35.7499 63.4093 35.6 63.0137 35.6V37.6ZM62.6466 37.4471C62.6072 37.4077 62.5648 37.3503 62.5341 37.2758C62.5034 37.2014 62.4937 37.1324 62.4937 37.08H64.4937C64.4937 36.6845 64.3438 36.3159 64.0608 36.0329L62.6466 37.4471ZM62.4937 37.08V37.9H64.4937V37.08H62.4937ZM64.2797 38.5183C64.8501 37.7932 65.6545 37.4 66.8337 37.4V35.4C65.1329 35.4 63.7107 36.0068 62.7078 37.2817L64.2797 38.5183ZM66.8337 37.4C67.8152 37.4 68.5005 37.7129 69.005 38.2828L70.5025 36.9572C69.567 35.9004 68.3056 35.4 66.8337 35.4V37.4ZM69.0104 38.289C69.5219 38.8573 69.8337 39.6871 69.8337 40.9H71.8337C71.8337 39.3396 71.4255 37.9827 70.497 36.951L69.0104 38.289ZM69.8337 40.9V46.52H71.8337V40.9H69.8337ZM69.8337 46.52C69.8337 46.4676 69.8434 46.3986 69.8741 46.3243C69.9048 46.2497 69.9472 46.1923 69.9866 46.1529L71.4008 47.5671C71.6838 47.2841 71.8337 46.9155 71.8337 46.52H69.8337ZM69.9345 46.2092C69.9969 46.1364 70.0782 46.0773 70.168 46.0403C70.2534 46.0052 70.3216 46 70.3537 46V48C70.7303 48 71.1461 47.8689 71.453 47.5108L69.9345 46.2092ZM70.3537 46H68.5937V48H70.3537V46ZM68.5937 46C68.6461 46 68.7151 46.0097 68.7895 46.0403C68.864 46.071 68.9214 46.1135 68.9608 46.1529L67.5466 47.5671C67.8296 47.8501 68.1982 48 68.5937 48V46ZM68.9608 46.1529C69.0003 46.1923 69.0427 46.2497 69.0734 46.3243C69.104 46.3986 69.1137 46.4676 69.1137 46.52H67.1137C67.1137 46.9155 67.2636 47.2841 67.5466 47.5671L68.9608 46.1529ZM69.1137 46.52V41.02H67.1137V46.52H69.1137ZM69.1137 41.02C69.1137 40.0769 68.8808 39.1973 68.2747 38.5285L66.7927 39.8715C66.96 40.056 67.1137 40.3898 67.1137 41.02H69.1137ZM68.2962 38.553C67.6871 37.8352 66.8284 37.54 65.8937 37.54V39.54C66.3991 39.54 66.6337 39.6849 66.7712 39.847L68.2962 38.553ZM65.8937 37.54C64.9623 37.54 64.1197 37.8396 63.4849 38.5153L64.9426 39.8847C65.1344 39.6805 65.4118 39.54 65.8937 39.54V37.54ZM63.4738 38.5273C62.8611 39.2013 62.6137 40.0747 62.6137 41.02H64.6137C64.6137 40.4186 64.7663 40.0787 64.9537 39.8727L63.4738 38.5273ZM62.6137 41.02V46.52H64.6137V41.02H62.6137ZM62.6137 46.52C62.6137 46.4676 62.6234 46.3986 62.6541 46.3243C62.6848 46.2497 62.7272 46.1923 62.7666 46.1529L64.1808 47.5671C64.4638 47.2841 64.6137 46.9155 64.6137 46.52H62.6137ZM62.7145 46.2092C62.7769 46.1364 62.8582 46.0773 62.948 46.0403C63.0334 46.0052 63.1016 46 63.1337 46V48C63.5103 48 63.9261 47.8689 64.233 47.5108L62.7145 46.2092ZM63.1337 46H61.3737V48H63.1337V46ZM73.5142 46.86L74.2213 46.1529L73.5142 46.86ZM73.5142 36.74L74.2213 37.4471V37.4471L73.5142 36.74ZM75.8342 36.74L75.1271 37.4471L75.1271 37.4471L75.8342 36.74ZM75.9742 37.9H74.9742V40.7886L76.7602 38.5183L75.9742 37.9ZM82.2342 37.62L81.4854 38.2829L81.4909 38.289L82.2342 37.62ZM83.1742 46.86L82.4671 46.1529L82.4399 46.1801L82.4149 46.2092L83.1742 46.86ZM80.0142 39.2L79.2517 39.847L79.2623 39.8594L79.2732 39.8715L80.0142 39.2ZM76.6942 39.2L75.9654 38.5153L75.9598 38.5213L75.9543 38.5273L76.6942 39.2ZM75.9542 46.86L75.2471 46.1529L75.2199 46.1801L75.1949 46.2092L75.9542 46.86ZM73.8542 46C73.9066 46 73.9756 46.0097 74.0499 46.0403C74.1245 46.071 74.1819 46.1135 74.2213 46.1529L72.8071 47.5671C73.0901 47.8501 73.4587 48 73.8542 48V46ZM74.2213 46.1529C74.2607 46.1923 74.3032 46.2497 74.3339 46.3243C74.3645 46.3986 74.3742 46.4676 74.3742 46.52H72.3742C72.3742 46.9155 72.5241 47.2841 72.8071 47.5671L74.2213 46.1529ZM74.3742 46.52V37.08H72.3742V46.52H74.3742ZM74.3742 37.08C74.3742 37.1324 74.3645 37.2014 74.3339 37.2758C74.3032 37.3503 74.2607 37.4077 74.2213 37.4471L72.8071 36.0329C72.5241 36.3159 72.3742 36.6845 72.3742 37.08H74.3742ZM74.2213 37.4471C74.1819 37.4866 74.1245 37.529 74.0499 37.5597C73.9756 37.5903 73.9066 37.6 73.8542 37.6V35.6C73.4587 35.6 73.0901 35.7499 72.8071 36.0329L74.2213 37.4471ZM73.8542 37.6H75.4942V35.6H73.8542V37.6ZM75.4942 37.6C75.4418 37.6 75.3728 37.5903 75.2984 37.5597C75.2239 37.529 75.1665 37.4866 75.1271 37.4471L76.5413 36.0329C76.2583 35.7499 75.8897 35.6 75.4942 35.6V37.6ZM75.1271 37.4471C75.0877 37.4077 75.0452 37.3503 75.0145 37.2758C74.9839 37.2014 74.9742 37.1324 74.9742 37.08H76.9742C76.9742 36.6845 76.8243 36.3159 76.5413 36.0329L75.1271 37.4471ZM74.9742 37.08V37.9H76.9742V37.08H74.9742ZM76.7602 38.5183C77.3306 37.7932 78.135 37.4 79.3142 37.4V35.4C77.6134 35.4 76.1912 36.0068 75.1882 37.2817L76.7602 38.5183ZM79.3142 37.4C80.2957 37.4 80.9809 37.7129 81.4854 38.2828L82.983 36.9572C82.0475 35.9004 80.786 35.4 79.3142 35.4V37.4ZM81.4909 38.289C82.0024 38.8573 82.3142 39.6871 82.3142 40.9H84.3142C84.3142 39.3396 83.906 37.9827 82.9775 36.951L81.4909 38.289ZM82.3142 40.9V46.52H84.3142V40.9H82.3142ZM82.3142 46.52C82.3142 46.4676 82.3239 46.3986 82.3545 46.3243C82.3852 46.2497 82.4277 46.1923 82.4671 46.1529L83.8813 47.5671C84.1643 47.2841 84.3142 46.9155 84.3142 46.52H82.3142ZM82.4149 46.2092C82.4774 46.1364 82.5586 46.0773 82.6484 46.0403C82.7338 46.0052 82.8021 46 82.8342 46V48C83.2108 48 83.6265 47.8689 83.9335 47.5108L82.4149 46.2092ZM82.8342 46H81.0742V48H82.8342V46ZM81.0742 46C81.1266 46 81.1956 46.0097 81.27 46.0403C81.3445 46.071 81.4019 46.1135 81.4413 46.1529L80.0271 47.5671C80.3101 47.8501 80.6787 48 81.0742 48V46ZM81.4413 46.1529C81.4807 46.1923 81.5232 46.2497 81.5539 46.3243C81.5845 46.3986 81.5942 46.4676 81.5942 46.52H79.5942C79.5942 46.9155 79.7441 47.2841 80.0271 47.5671L81.4413 46.1529ZM81.5942 46.52V41.02H79.5942V46.52H81.5942ZM81.5942 41.02C81.5942 40.0769 81.3613 39.1973 80.7552 38.5285L79.2732 39.8715C79.4404 40.056 79.5942 40.3898 79.5942 41.02H81.5942ZM80.7767 38.553C80.1676 37.8352 79.3089 37.54 78.3742 37.54V39.54C78.8795 39.54 79.1141 39.6849 79.2517 39.847L80.7767 38.553ZM78.3742 37.54C77.4428 37.54 76.6002 37.8396 75.9654 38.5153L77.423 39.8847C77.6149 39.6805 77.8923 39.54 78.3742 39.54V37.54ZM75.9543 38.5273C75.3416 39.2013 75.0942 40.0747 75.0942 41.02H77.0942C77.0942 40.4186 77.2468 40.0787 77.4341 39.8727L75.9543 38.5273ZM75.0942 41.02V46.52H77.0942V41.02H75.0942ZM75.0942 46.52C75.0942 46.4676 75.1039 46.3986 75.1345 46.3243C75.1652 46.2497 75.2077 46.1923 75.2471 46.1529L76.6613 47.5671C76.9443 47.2841 77.0942 46.9155 77.0942 46.52H75.0942ZM75.1949 46.2092C75.2574 46.1364 75.3386 46.0773 75.4285 46.0403C75.5138 46.0052 75.5821 46 75.6142 46V48C75.9908 48 76.4065 47.8689 76.7135 47.5108L75.1949 46.2092ZM75.6142 46H73.8542V48H75.6142V46ZM86.7947 45.92L86.0876 46.6271L86.093 46.6326L86.0985 46.6379L86.7947 45.92ZM85.4147 42.28L86.4141 42.2458L86.4139 42.24L85.4147 42.28ZM85.3947 41.78L84.3955 41.74L84.3939 41.78L84.3955 41.82L85.3947 41.78ZM85.4147 41.28L84.4156 41.2362L84.4155 41.24L85.4147 41.28ZM86.8147 37.7L86.113 36.9875L86.1076 36.9929L86.8147 37.7ZM93.9747 37.84L93.2272 38.5044L93.2324 38.5101L93.9747 37.84ZM95.1347 42.44L95.8418 43.1471L95.8418 43.1471L95.1347 42.44ZM88.1347 42.58V41.58H87.1347V42.58H88.1347ZM88.1347 42.74H87.1347V42.7582L87.1353 42.7764L88.1347 42.74ZM88.7347 44.6L87.9296 45.1932L87.9384 45.2052L87.9476 45.2169L88.7347 44.6ZM92.2147 44.42L91.4407 43.7868L91.4338 43.7952L91.4272 43.8037L92.2147 44.42ZM92.4947 44.14L92.0475 43.2456L92.0131 43.2628L91.9802 43.2825L92.4947 44.14ZM94.8547 44.2L94.1476 44.9071L94.2061 44.9656L94.2734 45.0137L94.8547 44.2ZM94.4147 45.6L93.6635 44.9399L93.6621 44.9415L94.4147 45.6ZM92.7947 46.72L93.2072 47.631L92.7947 46.72ZM92.5547 40.9V41.9H93.5547V40.9H92.5547ZM91.9547 38.94L91.1759 39.5673L91.1811 39.5738L91.1864 39.5802L91.9547 38.94ZM88.7147 38.94L87.9359 38.3127L88.7147 38.94ZM88.1347 40.9H87.1347V41.9H88.1347V40.9ZM90.3347 46.2C89.0573 46.2 88.1468 45.8382 87.4908 45.2021L86.0985 46.6379C87.2025 47.7085 88.6521 48.2 90.3347 48.2V46.2ZM87.5018 45.2129C86.8594 44.5706 86.4612 43.6246 86.4141 42.2458L84.4153 42.3142C84.4748 44.0555 84.9966 45.5361 86.0876 46.6271L87.5018 45.2129ZM86.4139 42.24L86.3939 41.74L84.3955 41.82L84.4155 42.32L86.4139 42.24ZM86.3939 41.82L86.4139 41.32L84.4155 41.24L84.3955 41.74L86.3939 41.82ZM86.4137 41.3238C86.4722 39.9907 86.872 39.0569 87.5218 38.4071L86.1076 36.9929C85.024 38.0764 84.4905 39.5294 84.4156 41.2362L86.4137 41.3238ZM87.5164 38.4125C88.1748 37.764 89.0778 37.4 90.3347 37.4V35.4C88.6582 35.4 87.2145 35.9027 86.113 36.9875L87.5164 38.4125ZM90.3347 37.4C91.692 37.4 92.6055 37.8049 93.2273 38.5044L94.7221 37.1756C93.6372 35.9551 92.124 35.4 90.3347 35.4V37.4ZM93.2324 38.5101C93.8962 39.2454 94.2747 40.2663 94.2747 41.68H96.2747C96.2747 39.8937 95.7864 38.3546 94.7169 37.1699L93.2324 38.5101ZM94.2747 41.68V42.1H96.2747V41.68H94.2747ZM94.2747 42.1C94.2747 42.0476 94.2844 41.9786 94.315 41.9043C94.3457 41.8297 94.3881 41.7723 94.4276 41.7329L95.8418 43.1471C96.1248 42.8641 96.2747 42.4955 96.2747 42.1H94.2747ZM94.4276 41.7329C94.4764 41.6841 94.5397 41.6412 94.6122 41.613C94.6827 41.5856 94.7411 41.58 94.7747 41.58V43.58C95.1543 43.58 95.5392 43.4497 95.8418 43.1471L94.4276 41.7329ZM94.7747 41.58H88.1347V43.58H94.7747V41.58ZM87.1347 42.58V42.74H89.1347V42.58H87.1347ZM87.1353 42.7764C87.1681 43.6764 87.4182 44.4991 87.9296 45.1932L89.5397 44.0068C89.3045 43.6876 89.1546 43.2703 89.134 42.7037L87.1353 42.7764ZM87.9476 45.2169C88.5373 45.9693 89.3633 46.34 90.3147 46.34V44.34C89.9327 44.34 89.7053 44.2174 89.5217 43.9831L87.9476 45.2169ZM90.3147 46.34C91.4052 46.34 92.3304 45.8947 93.0022 45.0363L91.4272 43.8037C91.1389 44.172 90.7974 44.34 90.3147 44.34V46.34ZM92.9886 45.0532C93.0115 45.0253 93.0309 45.0026 93.0471 44.9844C93.0634 44.966 93.0749 44.954 93.0818 44.9471C93.0891 44.9398 93.0882 44.9412 93.0799 44.9482C93.0754 44.952 93.0676 44.9583 93.0566 44.9662C93.0457 44.9741 93.0298 44.9851 93.0092 44.9975L91.9802 43.2825C91.7481 43.4218 91.5584 43.6429 91.4407 43.7868L92.9886 45.0532ZM92.9419 45.0344C92.875 45.0679 92.8261 45.0776 92.8135 45.0798C92.7997 45.0822 92.8046 45.08 92.8347 45.08V43.08C92.6205 43.08 92.3278 43.1054 92.0475 43.2456L92.9419 45.0344ZM92.8347 45.08H94.5547V43.08H92.8347V45.08ZM94.5547 45.08C94.502 45.08 94.4292 45.0708 94.3483 45.0385C94.2662 45.0057 94.1984 44.958 94.1476 44.9071L95.5618 43.4929C95.282 43.2131 94.922 43.08 94.5547 43.08V45.08ZM94.2734 45.0137C94.2162 44.9729 94.1394 44.9009 94.0792 44.7891C94.0176 44.6747 93.9947 44.558 93.9947 44.46H95.9947C95.9947 44.0029 95.7688 43.6241 95.4359 43.3863L94.2734 45.0137ZM93.9947 44.46C93.9947 44.4189 94.0063 44.4373 93.9584 44.5316C93.9107 44.6252 93.8206 44.7611 93.6635 44.9399L95.1658 46.2601C95.5944 45.7725 95.9947 45.1567 95.9947 44.46H93.9947ZM93.6621 44.9415C93.4107 45.2288 93.0039 45.5275 92.3822 45.8091L93.2072 47.631C93.9988 47.2725 94.672 46.8245 95.1672 46.2585L93.6621 44.9415ZM92.3822 45.8091C91.8287 46.0597 91.1541 46.2 90.3347 46.2V48.2C91.3819 48.2 92.3473 48.0203 93.2072 47.631L92.3822 45.8091ZM93.5547 40.9V40.84H91.5547V40.9H93.5547ZM93.5547 40.84C93.5547 39.8816 93.3081 39.0021 92.7229 38.2998L91.1864 39.5802C91.4012 39.8379 91.5547 40.2251 91.5547 40.84H93.5547ZM92.7334 38.3127C92.1316 37.5656 91.2878 37.22 90.3347 37.22V39.22C90.7682 39.22 91.0044 39.3544 91.1759 39.5673L92.7334 38.3127ZM90.3347 37.22C89.3815 37.22 88.5377 37.5656 87.9359 38.3127L89.4934 39.5673C89.665 39.3544 89.9012 39.22 90.3347 39.22V37.22ZM87.9359 38.3127C87.3704 39.0146 87.1347 39.8892 87.1347 40.84H89.1347C89.1347 40.2174 89.2856 39.8254 89.4934 39.5673L87.9359 38.3127ZM87.1347 40.84V40.9H89.1347V40.84H87.1347ZM88.1347 41.9H92.5547V39.9H88.1347V41.9ZM98.3776 45.98L97.6933 46.7092L97.6989 46.7144L98.3776 45.98ZM96.9976 42.6L95.9979 42.625L95.9983 42.637L96.9976 42.6ZM96.9776 41.8L95.9779 41.775L95.9773 41.8L95.9779 41.825L96.9776 41.8ZM96.9976 41L95.9982 40.963L95.9979 40.975L96.9976 41ZM98.3776 37.62L97.6989 36.8856L97.6933 36.8908L98.3776 37.62ZM104.538 36.96L104.077 37.8478L104.084 37.8512L104.538 36.96ZM106.158 38.34L105.313 38.8756L105.321 38.8876L105.329 38.8995L106.158 38.34ZM106.738 39.86L105.739 39.9155L105.74 39.9375L105.743 39.9595L106.738 39.86ZM106.598 40.2L105.939 39.4474L105.914 39.4694L105.891 39.4929L106.598 40.2ZM104.178 40.26L103.471 40.9671L103.541 41.0371L103.623 41.0921L104.178 40.26ZM103.978 39.94L103.044 40.299L103.055 40.3267L103.067 40.3538L103.978 39.94ZM103.178 38.82L102.6 39.636L102.607 39.6416L102.615 39.6469L103.178 38.82ZM100.338 39.14L101.079 39.8115L101.084 39.8059L101.089 39.8001L100.338 39.14ZM99.7176 41.1L98.7181 41.0697L98.718 41.073L99.7176 41.1ZM99.6976 41.84L98.698 41.813L98.6972 41.8416L98.6981 41.8703L99.6976 41.84ZM99.7176 42.5L98.7181 42.5303L98.7181 42.5305L99.7176 42.5ZM103.198 44.78L102.62 43.964L103.198 44.78ZM103.978 43.66L103.067 43.2462L103.055 43.2733L103.044 43.301L103.978 43.66ZM104.178 43.36L104.802 44.1409L104.81 44.1346L104.818 44.1282L104.178 43.36ZM106.598 43.4L105.891 44.1071L105.914 44.1307L105.939 44.1526L106.598 43.4ZM106.738 43.74L105.743 43.6405L105.74 43.6617L105.739 43.683L106.738 43.74ZM106.178 45.24L105.339 44.695V44.695L106.178 45.24ZM104.578 46.62L104.105 45.739L104.578 46.62ZM101.898 46.2C100.623 46.2 99.7123 45.8518 99.0564 45.2456L97.6989 46.7144C98.803 47.7348 100.239 48.2 101.898 48.2V46.2ZM99.062 45.2508C98.4268 44.6548 98.0427 43.7993 97.9969 42.563L95.9983 42.637C96.0592 44.2807 96.5951 45.6786 97.6933 46.7092L99.062 45.2508ZM97.9973 42.575L97.9773 41.775L95.9779 41.825L95.9979 42.625L97.9973 42.575ZM97.9773 41.825L97.9973 41.025L95.9979 40.975L95.9779 41.775L97.9773 41.825ZM97.9969 41.037C98.0427 39.8007 98.4268 38.9453 99.062 38.3492L97.6933 36.8908C96.5951 37.9214 96.0592 39.3193 95.9983 40.963L97.9969 41.037ZM99.0564 38.3544C99.7123 37.7482 100.623 37.4 101.898 37.4V35.4C100.239 35.4 98.803 35.8652 97.6989 36.8856L99.0564 38.3544ZM101.898 37.4C102.821 37.4 103.534 37.5661 104.077 37.8478L104.998 36.0723C104.101 35.6073 103.054 35.4 101.898 35.4V37.4ZM104.084 37.8512C104.7 38.1649 105.085 38.5162 105.313 38.8756L107.002 37.8045C106.537 37.0705 105.842 36.5018 104.991 36.0688L104.084 37.8512ZM105.329 38.8995C105.621 39.3322 105.725 39.6668 105.739 39.9155L107.736 39.8045C107.697 39.0932 107.414 38.4144 106.986 37.7805L105.329 38.8995ZM105.743 39.9595C105.734 39.8783 105.743 39.7733 105.788 39.6643C105.832 39.5573 105.894 39.4866 105.939 39.4474L107.256 40.9526C107.59 40.6608 107.78 40.2368 107.733 39.7605L105.743 39.9595ZM105.891 39.4929C105.93 39.4535 105.987 39.411 106.062 39.3803C106.136 39.3497 106.205 39.34 106.258 39.34V41.34C106.653 41.34 107.022 41.1901 107.305 40.9071L105.891 39.4929ZM106.258 39.34H104.498V41.34H106.258V39.34ZM104.498 39.34C104.488 39.34 104.596 39.337 104.732 39.428L103.623 41.0921C103.919 41.2897 104.241 41.34 104.498 41.34V39.34ZM104.885 39.5529C104.903 39.5712 104.915 39.5855 104.92 39.5928C104.926 39.6003 104.928 39.6032 104.926 39.6C104.924 39.5969 104.919 39.5895 104.913 39.5768C104.906 39.5641 104.898 39.5475 104.888 39.5262L103.067 40.3538C103.154 40.5435 103.28 40.7762 103.471 40.9671L104.885 39.5529ZM104.911 39.581C104.665 38.9415 104.295 38.3705 103.74 37.9931L102.615 39.6469C102.727 39.7228 102.89 39.8985 103.044 40.299L104.911 39.581ZM103.756 38.004C103.223 37.6269 102.591 37.48 101.938 37.48V39.48C102.298 39.48 102.492 39.5597 102.6 39.636L103.756 38.004ZM101.938 37.48C101.021 37.48 100.194 37.7882 99.5865 38.4799L101.089 39.8001C101.254 39.6118 101.494 39.48 101.938 39.48V37.48ZM99.5966 38.4685C98.9846 39.1438 98.7483 40.0726 98.7181 41.0697L100.717 41.1303C100.74 40.3675 100.917 39.9895 101.079 39.8115L99.5966 38.4685ZM98.718 41.073L98.698 41.813L100.697 41.867L100.717 41.127L98.718 41.073ZM98.6981 41.8703L98.7181 42.5303L100.717 42.4697L100.697 41.8097L98.6981 41.8703ZM98.7181 42.5305C98.7482 43.5168 98.974 44.432 99.5497 45.1115C100.155 45.8262 101.009 46.12 101.938 46.12V44.12C101.44 44.12 101.21 43.9772 101.076 43.8185C100.911 43.6247 100.74 43.2299 100.717 42.4695L98.7181 42.5305ZM101.938 46.12C102.598 46.12 103.239 45.9759 103.776 45.596L102.62 43.964C102.516 44.0374 102.317 44.12 101.938 44.12V46.12ZM103.776 45.596C104.311 45.2168 104.669 44.6489 104.911 44.019L103.044 43.301C102.887 43.7111 102.724 43.8899 102.62 43.964L103.776 45.596ZM104.888 44.0738C104.906 44.0341 104.914 44.0228 104.91 44.0297C104.907 44.0339 104.898 44.0468 104.882 44.0649C104.867 44.0829 104.84 44.1104 104.802 44.1409L103.553 42.5791C103.297 42.7838 103.151 43.0619 103.067 43.2462L104.888 44.0738ZM104.818 44.1282C104.673 44.2492 104.531 44.26 104.498 44.26V42.26C104.197 42.26 103.843 42.3375 103.537 42.5918L104.818 44.1282ZM104.498 44.26H106.258V42.26H104.498V44.26ZM106.258 44.26C106.205 44.26 106.136 44.2503 106.062 44.2197C105.987 44.189 105.93 44.1466 105.891 44.1071L107.305 42.6929C107.022 42.4099 106.653 42.26 106.258 42.26V44.26ZM105.939 44.1526C105.894 44.1135 105.832 44.0427 105.788 43.9358C105.743 43.8267 105.734 43.7217 105.743 43.6405L107.733 43.8395C107.78 43.3632 107.59 42.9392 107.256 42.6474L105.939 44.1526ZM105.739 43.683C105.725 43.9242 105.624 44.2571 105.339 44.695L107.016 45.785C107.425 45.1562 107.696 44.4891 107.736 43.7971L105.739 43.683ZM105.339 44.695C105.107 45.0529 104.718 45.4098 104.105 45.739L105.051 47.501C105.878 47.0569 106.555 46.4938 107.016 45.785L105.339 44.695ZM104.105 45.739C103.568 46.0273 102.848 46.2 101.898 46.2V48.2C103.081 48.2 104.148 47.986 105.051 47.501L104.105 45.739ZM110.783 46.06L110.054 46.744L110.061 46.7518L110.069 46.7595L110.783 46.06ZM109.883 38.72H110.883V37.72H109.883V38.72ZM107.963 38.58L107.211 39.2385L107.233 39.2636L107.256 39.2871L107.963 38.58ZM107.963 36.74L108.671 37.4471V37.4471L107.963 36.74ZM109.883 36.6V37.6H110.883V36.6H109.883ZM110.023 32.94L110.674 33.6993L110.703 33.6743L110.731 33.6471L110.023 32.94ZM112.323 32.94L111.564 33.5908L111.614 33.6492L111.673 33.6993L112.323 32.94ZM112.463 36.6H111.463V37.6H112.463V36.6ZM115.303 36.74L114.544 37.3908L114.594 37.4492L114.653 37.4993L115.303 36.74ZM112.463 38.72V37.72H111.463V38.72H112.463ZM112.763 44.36L111.937 44.9233L111.937 44.9233L112.763 44.36ZM115.483 44.94L116.191 44.2329L115.483 44.94ZM115.483 46.86L114.776 46.1529L114.749 46.1801L114.724 46.2092L115.483 46.86ZM113.523 46C112.473 46 111.86 45.7308 111.498 45.3605L110.069 46.7595C110.933 47.6426 112.147 48 113.523 48V46ZM111.513 45.3761C111.146 44.9843 110.883 44.3344 110.883 43.26H108.883C108.883 44.639 109.221 45.8557 110.054 46.744L111.513 45.3761ZM110.883 43.26V38.72H108.883V43.26H110.883ZM109.883 37.72H108.303V39.72H109.883V37.72ZM108.303 37.72C108.356 37.72 108.425 37.7297 108.499 37.7603C108.574 37.791 108.631 37.8335 108.671 37.8729L107.256 39.2871C107.539 39.5701 107.908 39.72 108.303 39.72V37.72ZM108.716 37.9215C108.738 37.9469 108.768 37.9888 108.79 38.0476C108.814 38.1072 108.823 38.1672 108.823 38.22H106.823C106.823 38.6117 106.969 38.962 107.211 39.2385L108.716 37.9215ZM108.823 38.22V37.08H106.823V38.22H108.823ZM108.823 37.08C108.823 37.1324 108.814 37.2014 108.783 37.2758C108.752 37.3503 108.71 37.4077 108.671 37.4471L107.256 36.0329C106.973 36.3159 106.823 36.6845 106.823 37.08H108.823ZM108.671 37.4471C108.631 37.4866 108.574 37.529 108.499 37.5597C108.425 37.5903 108.356 37.6 108.303 37.6V35.6C107.908 35.6 107.539 35.7499 107.256 36.0329L108.671 37.4471ZM108.303 37.6H109.883V35.6H108.303V37.6ZM110.883 36.6V33.28H108.883V36.6H110.883ZM110.883 33.28C110.883 33.3122 110.878 33.3804 110.843 33.4658C110.806 33.5556 110.747 33.6368 110.674 33.6993L109.373 32.1808C109.015 32.4877 108.883 32.9034 108.883 33.28H110.883ZM110.731 33.6471C110.691 33.6866 110.634 33.729 110.559 33.7597C110.485 33.7903 110.416 33.8 110.363 33.8V31.8C109.968 31.8 109.599 31.9499 109.316 32.2329L110.731 33.6471ZM110.363 33.8H111.983V31.8H110.363V33.8ZM111.983 33.8C111.951 33.8 111.883 33.7948 111.798 33.7597C111.708 33.7227 111.627 33.6637 111.564 33.5908L113.083 32.2892C112.776 31.9311 112.36 31.8 111.983 31.8V33.8ZM111.673 33.6993C111.6 33.6368 111.541 33.5556 111.504 33.4658C111.469 33.3804 111.463 33.3122 111.463 33.28H113.463C113.463 32.9034 113.332 32.4877 112.974 32.1808L111.673 33.6993ZM111.463 33.28V36.6H113.463V33.28H111.463ZM112.463 37.6H114.963V35.6H112.463V37.6ZM114.963 37.6C114.931 37.6 114.863 37.5948 114.778 37.5597C114.688 37.5227 114.607 37.4637 114.544 37.3908L116.063 36.0892C115.756 35.7311 115.34 35.6 114.963 35.6V37.6ZM114.653 37.4993C114.58 37.4368 114.521 37.3556 114.484 37.2658C114.449 37.1804 114.443 37.1122 114.443 37.08H116.443C116.443 36.7034 116.312 36.2877 115.954 35.9808L114.653 37.4993ZM114.443 37.08V38.22H116.443V37.08H114.443ZM114.443 38.22C114.443 38.1864 114.449 38.128 114.476 38.0576C114.505 37.985 114.547 37.9218 114.596 37.8729L116.011 39.2871C116.313 38.9846 116.443 38.5996 116.443 38.22H114.443ZM114.596 37.8729C114.636 37.8335 114.693 37.791 114.768 37.7603C114.842 37.7297 114.911 37.72 114.963 37.72V39.72C115.359 39.72 115.728 39.5701 116.011 39.2871L114.596 37.8729ZM114.963 37.72H112.463V39.72H114.963V37.72ZM111.463 38.72V43.06H113.463V38.72H111.463ZM111.463 43.06C111.463 43.7215 111.574 44.3904 111.937 44.9233L113.59 43.7967C113.553 43.743 113.463 43.5452 113.463 43.06H111.463ZM111.937 44.9233C112.38 45.5731 113.081 45.8 113.763 45.8V43.8C113.631 43.8 113.576 43.7788 113.566 43.7747C113.562 43.7731 113.567 43.7746 113.575 43.7811C113.583 43.7878 113.588 43.7942 113.59 43.7967L111.937 44.9233ZM113.763 45.8H115.143V43.8H113.763V45.8ZM115.143 45.8C115.091 45.8 115.022 45.7903 114.948 45.7597C114.873 45.729 114.816 45.6866 114.776 45.6471L116.191 44.2329C115.908 43.9499 115.539 43.8 115.143 43.8V45.8ZM114.776 45.6471C114.737 45.6077 114.694 45.5503 114.664 45.4758C114.633 45.4014 114.623 45.3324 114.623 45.28H116.623C116.623 44.8845 116.474 44.5159 116.191 44.2329L114.776 45.6471ZM114.623 45.28V46.52H116.623V45.28H114.623ZM114.623 46.52C114.623 46.4676 114.633 46.3986 114.664 46.3243C114.694 46.2497 114.737 46.1923 114.776 46.1529L116.191 47.5671C116.474 47.2841 116.623 46.9155 116.623 46.52H114.623ZM114.724 46.2092C114.787 46.1364 114.868 46.0773 114.958 46.0403C115.043 46.0052 115.111 46 115.143 46V48C115.52 48 115.936 47.8689 116.243 47.5108L114.724 46.2092ZM115.143 46H113.523V48H115.143V46ZM123.794 46.84L124.458 46.0926L123.794 46.84ZM123.574 46.4L124.564 46.2586L124.561 46.238L124.557 46.2175L123.574 46.4ZM121.194 33.58L120.201 33.704L120.205 33.7334L120.21 33.7625L121.194 33.58ZM121.174 33.42H120.174V33.4823L120.181 33.544L121.174 33.42ZM121.294 33.12L120.643 32.3608L120.614 32.3857L120.586 32.4129L121.294 33.12ZM123.914 33.4L122.925 33.5484L122.927 33.5643L122.93 33.5802L123.914 33.4ZM125.574 42.46L124.59 42.6402L126.529 42.7536L125.574 42.46ZM127.374 36.6L126.445 36.2286L126.43 36.2669L126.418 36.3064L127.374 36.6ZM129.754 36.6L128.791 36.8696L128.795 36.8837L128.799 36.8975L129.754 36.6ZM131.574 42.44L130.619 42.7375L132.557 42.6206L131.574 42.44ZM133.234 33.4L134.217 33.5806L134.217 33.5789L133.234 33.4ZM133.394 33.1L133.948 33.9321L133.962 33.9231L133.975 33.9137L133.394 33.1ZM135.834 33.12L135.126 33.8271V33.8271L135.834 33.12ZM135.934 33.58L134.985 33.2638L134.963 33.3294L134.95 33.3975L135.934 33.58ZM133.554 46.4L132.57 46.2175L132.569 46.2265L132.567 46.2356L133.554 46.4ZM130.814 46.5L131.778 46.2369L131.771 46.2093L131.762 46.1821L130.814 46.5ZM128.574 39.82L129.522 39.5021L128.574 36.6747L127.625 39.5021L128.574 39.82ZM126.334 46.5L127.262 46.8714L127.273 46.845L127.282 46.8179L126.334 46.5ZM124.274 46C124.262 46 124.281 45.9984 124.32 46.0113C124.362 46.0253 124.412 46.0515 124.458 46.0926L123.129 47.5874C123.474 47.894 123.891 48 124.274 48V46ZM124.458 46.0926C124.495 46.1256 124.524 46.1648 124.543 46.2028C124.561 46.2388 124.564 46.2612 124.564 46.2586L122.584 46.5414C122.638 46.9193 122.803 47.297 123.129 47.5874L124.458 46.0926ZM124.557 46.2175L122.177 33.3975L120.21 33.7625L122.59 46.5825L124.557 46.2175ZM122.186 33.456L122.166 33.296L120.181 33.544L120.201 33.704L122.186 33.456ZM122.174 33.42C122.174 33.4727 122.164 33.5455 122.132 33.6264C122.099 33.7084 122.052 33.7763 122.001 33.8271L120.586 32.4129C120.307 32.6927 120.174 33.0526 120.174 33.42H122.174ZM121.944 33.8793C121.919 33.9007 121.875 33.9325 121.81 33.9585C121.743 33.9853 121.669 34 121.594 34V32C121.212 32 120.888 32.1505 120.643 32.3608L121.944 33.8793ZM121.594 34H123.354V32H121.594V34ZM123.354 34C123.402 34 123.3 34.0119 123.162 33.9137C123.09 33.8623 123.029 33.7944 122.986 33.718C122.944 33.6447 122.93 33.5823 122.925 33.5484L124.903 33.2517C124.85 32.9014 124.677 32.538 124.325 32.2863C124.001 32.0548 123.638 32 123.354 32V34ZM122.93 33.5802L124.59 42.6402L126.557 42.2798L124.897 33.2198L122.93 33.5802ZM126.529 42.7536L128.329 36.8936L126.418 36.3064L124.618 42.1664L126.529 42.7536ZM128.302 36.9714C128.321 36.9238 128.315 36.9673 128.242 37.0221C128.206 37.0495 128.165 37.0711 128.122 37.0847C128.08 37.0979 128.048 37.1 128.034 37.1V35.1C127.688 35.1 127.338 35.1983 127.035 35.4279C126.742 35.6494 126.559 35.9429 126.445 36.2286L128.302 36.9714ZM128.034 37.1H129.114V35.1H128.034V37.1ZM129.114 37.1C129.11 37.1 129.015 37.0964 128.908 37.013C128.805 36.9325 128.785 36.8509 128.791 36.8696L130.717 36.3304C130.628 36.0158 130.456 35.6842 130.139 35.437C129.819 35.1869 129.45 35.1 129.114 35.1V37.1ZM128.799 36.8975L130.619 42.7375L132.528 42.1425L130.708 36.3025L128.799 36.8975ZM132.557 42.6206L134.217 33.5806L132.25 33.2194L130.59 42.2594L132.557 42.6206ZM134.217 33.5789C134.217 33.5798 134.215 33.5899 134.21 33.6073C134.204 33.6246 134.194 33.6519 134.176 33.6856C134.139 33.7552 134.068 33.8521 133.948 33.9321L132.839 32.268C132.435 32.5372 132.299 32.9516 132.25 33.2211L134.217 33.5789ZM133.975 33.9137C133.901 33.9662 133.838 33.9873 133.806 33.9952C133.776 34.0027 133.768 34 133.794 34V32C133.512 32 133.142 32.0509 132.812 32.2863L133.975 33.9137ZM133.794 34H135.554V32H133.794V34ZM135.554 34C135.478 34 135.394 33.9852 135.31 33.9492C135.227 33.9136 135.166 33.8668 135.126 33.8271L136.541 32.4129C136.286 32.158 135.943 32 135.554 32V34ZM135.126 33.8271C135.076 33.7763 135.028 33.7084 134.995 33.6264C134.963 33.5455 134.954 33.4727 134.954 33.42H136.954C136.954 33.0527 136.82 32.6927 136.541 32.4129L135.126 33.8271ZM134.954 33.42C134.954 33.4213 134.953 33.4088 134.956 33.386C134.959 33.3642 134.966 33.3205 134.985 33.2638L136.882 33.8962C136.943 33.7127 136.954 33.5393 136.954 33.42H134.954ZM134.95 33.3975L132.57 46.2175L134.537 46.5825L136.917 33.7625L134.95 33.3975ZM132.567 46.2356C132.56 46.2789 132.566 46.1865 132.678 46.0908C132.791 45.9935 132.888 46 132.854 46V48C133.219 48 133.633 47.9065 133.979 47.6093C134.324 47.3135 134.481 46.9212 134.54 46.5644L132.567 46.2356ZM132.854 46H131.514V48H132.854V46ZM131.514 46C131.503 46 131.518 45.9987 131.55 46.0083C131.584 46.0186 131.626 46.0383 131.668 46.0707L130.44 47.6494C130.772 47.908 131.157 48 131.514 48V46ZM131.668 46.0707C131.688 46.0864 131.713 46.1111 131.736 46.1453C131.758 46.1795 131.772 46.2122 131.778 46.2369L129.849 46.7631C129.946 47.1185 130.149 47.4232 130.44 47.6494L131.668 46.0707ZM131.762 46.1821L129.522 39.5021L127.625 40.1379L129.865 46.8179L131.762 46.1821ZM127.625 39.5021L125.385 46.1821L127.282 46.8179L129.522 40.1379L127.625 39.5021ZM125.405 46.1286C125.394 46.1553 125.409 46.1052 125.483 46.0536C125.518 46.0297 125.552 46.0148 125.58 46.0068C125.607 45.9992 125.62 46 125.614 46V48C125.952 48 126.307 47.9164 126.624 47.6964C126.938 47.4782 127.139 47.178 127.262 46.8714L125.405 46.1286ZM125.614 46H124.274V48H125.614V46ZM138.772 46.8L138.325 47.6944L138.337 47.7008L138.35 47.7067L138.772 46.8ZM137.432 45.68L136.607 46.2455L136.613 46.2534L136.618 46.2612L137.432 45.68ZM138.052 41.94L137.445 41.1452L138.052 41.94ZM141.072 40.8L140.928 39.8105L140.918 39.812L141.072 40.8ZM143.812 40.4L143.956 41.3895L144.812 41.2646V40.4H143.812ZM140.872 38.48L141.387 39.3376L141.398 39.3303L140.872 38.48ZM140.232 38.96L139.525 38.2529L139.511 38.267L139.497 38.2817L140.232 38.96ZM139.912 39.3L139.205 38.5929L139.038 38.7598L138.963 38.9838L139.912 39.3ZM137.752 39.42L137.045 40.1271L137.072 40.1543L137.101 40.1793L137.752 39.42ZM137.632 39.1L136.633 39.06L136.632 39.08V39.1H137.632ZM138.112 37.96L137.312 37.36L137.306 37.3681L137.3 37.3764L138.112 37.96ZM139.572 36.86L139.147 35.9548L139.572 36.86ZM146.352 46.86L145.645 46.1529L145.618 46.1801L145.593 46.2092L146.352 46.86ZM143.912 45.74H144.912V42.5203L143.088 45.1735L143.912 45.74ZM142.652 46.8L143.099 47.6945L143.108 47.6901L142.652 46.8ZM143.132 44.58L142.415 43.8829L143.132 44.58ZM143.832 42.06H144.832V40.8873L143.674 41.0726L143.832 42.06ZM141.832 42.38L141.985 43.3682L141.99 43.3675L141.832 42.38ZM140.072 42.96L139.517 42.128L139.511 42.1323L139.504 42.1368L140.072 42.96ZM140.032 44.94L139.477 45.7721L140.032 44.94ZM140.652 46.2C140.107 46.2 139.625 46.094 139.194 45.8933L138.35 47.7067C139.065 48.0394 139.837 48.2 140.652 48.2V46.2ZM139.219 45.9056C138.791 45.6917 138.476 45.4208 138.246 45.0988L136.618 46.2612C137.055 46.8726 137.633 47.3483 138.325 47.6944L139.219 45.9056ZM138.257 45.1145C138.05 44.8125 137.952 44.4959 137.952 44.14H135.952C135.952 44.9041 136.174 45.6142 136.607 46.2455L138.257 45.1145ZM137.952 44.14C137.952 43.5515 138.168 43.1095 138.659 42.7348L137.445 41.1452C136.469 41.8905 135.952 42.9152 135.952 44.14H137.952ZM138.659 42.7348C139.217 42.3085 140.048 41.9721 141.226 41.788L140.918 39.812C139.536 40.0279 138.354 40.4515 137.445 41.1452L138.659 42.7348ZM141.216 41.7895L143.956 41.3895L143.668 39.4105L140.928 39.8105L141.216 41.7895ZM144.812 40.4V39.98H142.812V40.4H144.812ZM144.812 39.98C144.812 39.2392 144.626 38.4999 144.079 37.9529L142.665 39.3671C142.705 39.4068 142.812 39.5475 142.812 39.98H144.812ZM144.079 37.9529C143.515 37.3885 142.723 37.22 141.952 37.22V39.22C142.488 39.22 142.643 39.3448 142.665 39.3671L144.079 37.9529ZM141.952 37.22C141.387 37.22 140.829 37.3308 140.346 37.6297L141.398 39.3303C141.476 39.2825 141.637 39.22 141.952 39.22V37.22ZM140.358 37.6225C140.045 37.8101 139.76 38.0181 139.525 38.2529L140.939 39.6671C141.024 39.5819 141.166 39.4699 141.387 39.3375L140.358 37.6225ZM139.497 38.2817C139.335 38.458 139.242 38.5562 139.205 38.5929L140.619 40.0071C140.689 39.9371 140.81 39.8087 140.967 39.6383L139.497 38.2817ZM138.963 38.9838C138.979 38.9378 139.031 38.8122 139.172 38.6991C139.325 38.577 139.493 38.54 139.612 38.54V40.54C139.878 40.54 140.169 40.463 140.422 40.2609C140.663 40.0678 140.792 39.8222 140.861 39.6162L138.963 38.9838ZM139.612 38.54H138.072V40.54H139.612V38.54ZM138.072 38.54C138.125 38.54 138.188 38.5494 138.253 38.5737C138.318 38.5979 138.368 38.6307 138.403 38.6608L137.101 40.1793C137.371 40.4105 137.707 40.54 138.072 40.54V38.54ZM138.459 38.7129C138.521 38.7746 138.569 38.8495 138.598 38.9289C138.627 39.0052 138.632 39.0668 138.632 39.1H136.632C136.632 39.4476 136.744 39.8264 137.045 40.1271L138.459 38.7129ZM138.631 39.14C138.633 39.0849 138.671 38.8954 138.924 38.5436L137.3 37.3764C136.939 37.878 136.657 38.4484 136.633 39.06L138.631 39.14ZM138.912 38.56C139.105 38.3023 139.442 38.0259 139.997 37.7652L139.147 35.9548C138.396 36.3075 137.759 36.7644 137.312 37.36L138.912 38.56ZM139.997 37.7652C140.483 37.5373 141.128 37.4 141.972 37.4V35.4C140.922 35.4 139.968 35.5694 139.147 35.9548L139.997 37.7652ZM141.972 37.4C143.426 37.4 144.26 37.7305 144.712 38.1737L146.112 36.7463C145.124 35.7761 143.665 35.4 141.972 35.4V37.4ZM144.712 38.1737C145.213 38.666 145.492 39.3218 145.492 40.24H147.492C147.492 38.8649 147.051 37.6673 146.112 36.7463L144.712 38.1737ZM145.492 40.24V46.52H147.492V40.24H145.492ZM145.492 46.52C145.492 46.4676 145.502 46.3986 145.532 46.3243C145.563 46.2497 145.605 46.1923 145.645 46.1529L147.059 47.5671C147.342 47.2841 147.492 46.9155 147.492 46.52H145.492ZM145.593 46.2092C145.655 46.1364 145.736 46.0773 145.826 46.0403C145.912 46.0052 145.98 46 146.012 46V48C146.389 48 146.804 47.8689 147.111 47.5108L145.593 46.2092ZM146.012 46H144.392V48H146.012V46ZM144.392 46C144.444 46 144.513 46.0097 144.588 46.0403C144.662 46.071 144.72 46.1135 144.759 46.1529L143.345 47.5671C143.628 47.8501 143.996 48 144.392 48V46ZM144.759 46.1529C144.799 46.1923 144.841 46.2497 144.872 46.3243C144.902 46.3986 144.912 46.4676 144.912 46.52H142.912C142.912 46.9155 143.062 47.2841 143.345 47.5671L144.759 46.1529ZM144.912 46.52V45.74H142.912V46.52H144.912ZM143.088 45.1735C142.905 45.4401 142.623 45.6915 142.196 45.91L143.108 47.6901C143.775 47.3485 144.333 46.8933 144.736 46.3065L143.088 45.1735ZM142.205 45.9056C141.849 46.0833 141.347 46.2 140.652 46.2V48.2C141.557 48.2 142.388 48.0501 143.099 47.6944L142.205 45.9056ZM141.332 46.3C142.307 46.3 143.175 45.9703 143.849 45.2771L142.415 43.8829C142.156 44.1498 141.824 44.3 141.332 44.3V46.3ZM143.849 45.2771C144.556 44.5497 144.832 43.5612 144.832 42.48H142.832C142.832 43.2388 142.641 43.6503 142.415 43.8829L143.849 45.2771ZM144.832 42.48V42.06H142.832V42.48H144.832ZM143.674 41.0726L141.674 41.3926L141.99 43.3675L143.99 43.0475L143.674 41.0726ZM141.679 41.3918C140.841 41.5218 140.091 41.7456 139.517 42.128L140.627 43.7921C140.853 43.6411 141.276 43.4782 141.985 43.3682L141.679 41.3918ZM139.504 42.1368C138.913 42.5445 138.492 43.1517 138.492 43.94H140.492C140.492 43.9276 140.493 43.9229 140.493 43.9229C140.494 43.9225 140.494 43.9219 140.494 43.921C140.495 43.92 140.496 43.9179 140.498 43.9143C140.505 43.9015 140.538 43.8534 140.64 43.7832L139.504 42.1368ZM138.492 43.94C138.492 44.7067 138.844 45.3497 139.477 45.7721L140.587 44.108C140.523 44.0656 140.509 44.0385 140.507 44.0349C140.505 44.0318 140.492 44.0087 140.492 43.94H138.492ZM139.477 45.7721C140.028 46.1393 140.662 46.3 141.332 46.3V44.3C140.988 44.3 140.756 44.2207 140.587 44.108L139.477 45.7721ZM149.218 32.94L149.869 33.6993L149.898 33.6743L149.925 33.6471L149.218 32.94ZM151.558 32.94L150.799 33.5908L150.849 33.6492L150.907 33.6993L151.558 32.94ZM151.558 46.86L150.851 46.1529L150.824 46.1801L150.799 46.2092L151.558 46.86ZM149.558 46C149.61 46 149.679 46.0097 149.754 46.0403C149.828 46.071 149.885 46.1135 149.925 46.1529L148.511 47.5671C148.794 47.8501 149.162 48 149.558 48V46ZM149.925 46.1529C149.964 46.1923 150.007 46.2497 150.037 46.3243C150.068 46.3986 150.078 46.4676 150.078 46.52H148.078C148.078 46.9155 148.228 47.2841 148.511 47.5671L149.925 46.1529ZM150.078 46.52V33.28H148.078V46.52H150.078ZM150.078 33.28C150.078 33.3122 150.073 33.3804 150.037 33.4658C150 33.5556 149.941 33.6368 149.869 33.6993L148.567 32.1808C148.209 32.4877 148.078 32.9034 148.078 33.28H150.078ZM149.925 33.6471C149.885 33.6866 149.828 33.729 149.754 33.7597C149.679 33.7903 149.61 33.8 149.558 33.8V31.8C149.162 31.8 148.794 31.9499 148.511 32.2329L149.925 33.6471ZM149.558 33.8H151.218V31.8H149.558V33.8ZM151.218 33.8C151.186 33.8 151.117 33.7948 151.032 33.7597C150.942 33.7227 150.861 33.6637 150.799 33.5908L152.317 32.2892C152.01 31.9311 151.594 31.8 151.218 31.8V33.8ZM150.907 33.6993C150.834 33.6368 150.775 33.5556 150.738 33.4658C150.703 33.3804 150.698 33.3122 150.698 33.28H152.698C152.698 32.9034 152.567 32.4877 152.209 32.1808L150.907 33.6993ZM150.698 33.28V46.52H152.698V33.28H150.698ZM150.698 46.52C150.698 46.4676 150.707 46.3986 150.738 46.3243C150.769 46.2497 150.811 46.1923 150.851 46.1529L152.265 47.5671C152.548 47.2841 152.698 46.9155 152.698 46.52H150.698ZM150.799 46.2092C150.861 46.1364 150.942 46.0773 151.032 46.0403C151.117 46.0052 151.186 46 151.218 46V48C151.594 48 152.01 47.8689 152.317 47.5108L150.799 46.2092ZM151.218 46H149.558V48H151.218V46ZM154.511 32.94L155.162 33.6993L155.191 33.6743L155.218 33.6471L154.511 32.94ZM156.851 32.94L156.092 33.5908L156.142 33.6492L156.2 33.6993L156.851 32.94ZM156.851 46.86L156.144 46.1529L156.117 46.1801L156.092 46.2092L156.851 46.86ZM154.851 46C154.903 46 154.972 46.0097 155.047 46.0403C155.121 46.071 155.178 46.1135 155.218 46.1529L153.804 47.5671C154.087 47.8501 154.455 48 154.851 48V46ZM155.218 46.1529C155.257 46.1923 155.3 46.2497 155.33 46.3243C155.361 46.3986 155.371 46.4676 155.371 46.52H153.371C153.371 46.9155 153.521 47.2841 153.804 47.5671L155.218 46.1529ZM155.371 46.52V33.28H153.371V46.52H155.371ZM155.371 33.28C155.371 33.3122 155.366 33.3804 155.33 33.4658C155.293 33.5556 155.234 33.6368 155.162 33.6993L153.86 32.1808C153.502 32.4877 153.371 32.9034 153.371 33.28H155.371ZM155.218 33.6471C155.178 33.6866 155.121 33.729 155.047 33.7597C154.972 33.7903 154.903 33.8 154.851 33.8V31.8C154.455 31.8 154.087 31.9499 153.804 32.2329L155.218 33.6471ZM154.851 33.8H156.511V31.8H154.851V33.8ZM156.511 33.8C156.479 33.8 156.41 33.7948 156.325 33.7597C156.235 33.7227 156.154 33.6637 156.092 33.5908L157.61 32.2892C157.303 31.9311 156.887 31.8 156.511 31.8V33.8ZM156.2 33.6993C156.127 33.6368 156.068 33.5556 156.031 33.4658C155.996 33.3804 155.991 33.3122 155.991 33.28H157.991C157.991 32.9034 157.86 32.4877 157.502 32.1808L156.2 33.6993ZM155.991 33.28V46.52H157.991V33.28H155.991ZM155.991 46.52C155.991 46.4676 156 46.3986 156.031 46.3243C156.062 46.2497 156.104 46.1923 156.144 46.1529L157.558 47.5671C157.841 47.2841 157.991 46.9155 157.991 46.52H155.991ZM156.092 46.2092C156.154 46.1364 156.235 46.0773 156.325 46.0403C156.41 46.0052 156.479 46 156.511 46V48C156.887 48 157.303 47.8689 157.61 47.5108L156.092 46.2092ZM156.511 46H154.851V48H156.511V46ZM160.584 45.92L159.877 46.6271L159.882 46.6326L159.888 46.6379L160.584 45.92ZM159.204 42.28L160.203 42.2458L160.203 42.24L159.204 42.28ZM159.184 41.78L158.185 41.74L158.183 41.78L158.185 41.82L159.184 41.78ZM159.204 41.28L158.205 41.2362L158.205 41.24L159.204 41.28ZM160.604 37.7L159.902 36.9875L159.897 36.9929L160.604 37.7ZM167.764 37.84L167.016 38.5044L167.021 38.5101L167.764 37.84ZM168.924 42.44L169.631 43.1471L169.631 43.1471L168.924 42.44ZM161.924 42.58V41.58H160.924V42.58H161.924ZM161.924 42.74H160.924V42.7582L160.924 42.7764L161.924 42.74ZM162.524 44.6L161.719 45.1932L161.728 45.2052L161.737 45.2169L162.524 44.6ZM166.004 44.42L165.23 43.7868L165.223 43.7952L165.216 43.8037L166.004 44.42ZM166.284 44.14L165.837 43.2456L165.802 43.2628L165.769 43.2825L166.284 44.14ZM168.644 44.2L167.937 44.9071L167.995 44.9656L168.062 45.0137L168.644 44.2ZM168.204 45.6L167.453 44.9399L167.451 44.9415L168.204 45.6ZM166.584 46.72L166.996 47.631L166.584 46.72ZM166.344 40.9V41.9H167.344V40.9H166.344ZM165.744 38.94L164.965 39.5673L164.97 39.5738L164.976 39.5802L165.744 38.94ZM162.504 38.94L161.725 38.3127L162.504 38.94ZM161.924 40.9H160.924V41.9H161.924V40.9ZM164.124 46.2C162.846 46.2 161.936 45.8382 161.28 45.2021L159.888 46.6379C160.992 47.7085 162.441 48.2 164.124 48.2V46.2ZM161.291 45.2129C160.648 44.5706 160.25 43.6246 160.203 42.2458L158.204 42.3142C158.264 44.0555 158.786 45.5361 159.877 46.6271L161.291 45.2129ZM160.203 42.24L160.183 41.74L158.185 41.82L158.205 42.32L160.203 42.24ZM160.183 41.82L160.203 41.32L158.205 41.24L158.185 41.74L160.183 41.82ZM160.203 41.3238C160.261 39.9907 160.661 39.0569 161.311 38.4071L159.897 36.9929C158.813 38.0764 158.28 39.5294 158.205 41.2362L160.203 41.3238ZM161.305 38.4125C161.964 37.764 162.867 37.4 164.124 37.4V35.4C162.447 35.4 161.004 35.9027 159.902 36.9875L161.305 38.4125ZM164.124 37.4C165.481 37.4 166.395 37.8049 167.016 38.5044L168.511 37.1756C167.426 35.9551 165.913 35.4 164.124 35.4V37.4ZM167.021 38.5101C167.685 39.2454 168.064 40.2663 168.064 41.68H170.064C170.064 39.8937 169.575 38.3546 168.506 37.1699L167.021 38.5101ZM168.064 41.68V42.1H170.064V41.68H168.064ZM168.064 42.1C168.064 42.0476 168.073 41.9786 168.104 41.9043C168.135 41.8297 168.177 41.7723 168.217 41.7329L169.631 43.1471C169.914 42.8641 170.064 42.4955 170.064 42.1H168.064ZM168.217 41.7329C168.265 41.6841 168.329 41.6412 168.401 41.613C168.472 41.5856 168.53 41.58 168.564 41.58V43.58C168.943 43.58 169.328 43.4497 169.631 43.1471L168.217 41.7329ZM168.564 41.58H161.924V43.58H168.564V41.58ZM160.924 42.58V42.74H162.924V42.58H160.924ZM160.924 42.7764C160.957 43.6764 161.207 44.4991 161.719 45.1932L163.329 44.0068C163.094 43.6876 162.944 43.2703 162.923 42.7037L160.924 42.7764ZM161.737 45.2169C162.326 45.9693 163.152 46.34 164.104 46.34V44.34C163.722 44.34 163.494 44.2174 163.311 43.9831L161.737 45.2169ZM164.104 46.34C165.194 46.34 166.119 45.8947 166.791 45.0363L165.216 43.8037C164.928 44.172 164.586 44.34 164.104 44.34V46.34ZM166.778 45.0532C166.801 45.0253 166.82 45.0026 166.836 44.9844C166.852 44.966 166.864 44.954 166.871 44.9471C166.878 44.9398 166.877 44.9412 166.869 44.9482C166.864 44.952 166.857 44.9583 166.846 44.9662C166.835 44.9741 166.819 44.9851 166.798 44.9975L165.769 43.2825C165.537 43.4218 165.348 43.6429 165.23 43.7868L166.778 45.0532ZM166.731 45.0344C166.664 45.0679 166.615 45.0776 166.603 45.0798C166.589 45.0822 166.594 45.08 166.624 45.08V43.08C166.41 43.08 166.117 43.1054 165.837 43.2456L166.731 45.0344ZM166.624 45.08H168.344V43.08H166.624V45.08ZM168.344 45.08C168.291 45.08 168.218 45.0708 168.137 45.0385C168.055 45.0057 167.987 44.958 167.937 44.9071L169.351 43.4929C169.071 43.2131 168.711 43.08 168.344 43.08V45.08ZM168.062 45.0137C168.005 44.9729 167.928 44.9009 167.868 44.7891C167.807 44.6747 167.784 44.558 167.784 44.46H169.784C169.784 44.0029 169.558 43.6241 169.225 43.3863L168.062 45.0137ZM167.784 44.46C167.784 44.4189 167.795 44.4373 167.747 44.5316C167.7 44.6252 167.61 44.7611 167.453 44.9399L168.955 46.2601C169.383 45.7725 169.784 45.1567 169.784 44.46H167.784ZM167.451 44.9415C167.2 45.2288 166.793 45.5275 166.171 45.8091L166.996 47.631C167.788 47.2725 168.461 46.8245 168.956 46.2585L167.451 44.9415ZM166.171 45.8091C165.618 46.0597 164.943 46.2 164.124 46.2V48.2C165.171 48.2 166.136 48.0203 166.996 47.631L166.171 45.8091ZM167.344 40.9V40.84H165.344V40.9H167.344ZM167.344 40.84C167.344 39.8816 167.097 39.0021 166.512 38.2998L164.976 39.5802C165.19 39.8379 165.344 40.2251 165.344 40.84H167.344ZM166.522 38.3127C165.921 37.5656 165.077 37.22 164.124 37.22V39.22C164.557 39.22 164.793 39.3544 164.965 39.5673L166.522 38.3127ZM164.124 37.22C163.171 37.22 162.327 37.5656 161.725 38.3127L163.282 39.5673C163.454 39.3544 163.69 39.22 164.124 39.22V37.22ZM161.725 38.3127C161.16 39.0146 160.924 39.8892 160.924 40.84H162.924C162.924 40.2174 163.075 39.8254 163.282 39.5673L161.725 38.3127ZM160.924 40.84V40.9H162.924V40.84H160.924ZM161.924 41.9H166.344V39.9H161.924V41.9ZM173.108 46.06L172.378 46.744L172.385 46.7518L172.393 46.7595L173.108 46.06ZM172.208 38.72H173.208V37.72H172.208V38.72ZM170.288 38.58L169.535 39.2385L169.557 39.2636L169.581 39.2871L170.288 38.58ZM170.288 36.74L170.995 37.4471L170.995 37.4471L170.288 36.74ZM172.208 36.6V37.6H173.208V36.6H172.208ZM172.348 32.94L172.998 33.6993L173.028 33.6743L173.055 33.6471L172.348 32.94ZM174.648 32.94L173.888 33.5908L173.938 33.6492L173.997 33.6993L174.648 32.94ZM174.788 36.6H173.788V37.6H174.788V36.6ZM177.628 36.74L176.868 37.3908L176.918 37.4492L176.977 37.4993L177.628 36.74ZM174.788 38.72V37.72H173.788V38.72H174.788ZM175.088 44.36L174.261 44.9233V44.9233L175.088 44.36ZM177.808 44.94L178.515 44.2329L177.808 44.94ZM177.808 46.86L177.101 46.1529L177.073 46.1801L177.048 46.2092L177.808 46.86ZM175.848 46C174.798 46 174.185 45.7308 173.822 45.3605L172.393 46.7595C173.257 47.6426 174.471 48 175.848 48V46ZM173.837 45.3761C173.47 44.9843 173.208 44.3344 173.208 43.26H171.208C171.208 44.639 171.545 45.8557 172.378 46.744L173.837 45.3761ZM173.208 43.26V38.72H171.208V43.26H173.208ZM172.208 37.72H170.628V39.72H172.208V37.72ZM170.628 37.72C170.68 37.72 170.749 37.7297 170.823 37.7603C170.898 37.791 170.955 37.8335 170.995 37.8729L169.581 39.2871C169.864 39.5701 170.232 39.72 170.628 39.72V37.72ZM171.04 37.9215C171.062 37.9469 171.092 37.9888 171.115 38.0476C171.138 38.1072 171.148 38.1672 171.148 38.22H169.148C169.148 38.6117 169.293 38.962 169.535 39.2385L171.04 37.9215ZM171.148 38.22V37.08H169.148V38.22H171.148ZM171.148 37.08C171.148 37.1324 171.138 37.2014 171.107 37.2758C171.077 37.3503 171.034 37.4077 170.995 37.4471L169.581 36.0329C169.298 36.3159 169.148 36.6845 169.148 37.08H171.148ZM170.995 37.4471C170.955 37.4866 170.898 37.529 170.823 37.5597C170.749 37.5903 170.68 37.6 170.628 37.6V35.6C170.232 35.6 169.864 35.7499 169.581 36.0329L170.995 37.4471ZM170.628 37.6H172.208V35.6H170.628V37.6ZM173.208 36.6V33.28H171.208V36.6H173.208ZM173.208 33.28C173.208 33.3122 173.202 33.3804 173.167 33.4658C173.13 33.5556 173.071 33.6368 172.998 33.6993L171.697 32.1808C171.339 32.4877 171.208 32.9034 171.208 33.28H173.208ZM173.055 33.6471C173.015 33.6866 172.958 33.729 172.883 33.7597C172.809 33.7903 172.74 33.8 172.688 33.8V31.8C172.292 31.8 171.924 31.9499 171.641 32.2329L173.055 33.6471ZM172.688 33.8H174.308V31.8H172.688V33.8ZM174.308 33.8C174.275 33.8 174.207 33.7948 174.122 33.7597C174.032 33.7227 173.951 33.6637 173.888 33.5908L175.407 32.2892C175.1 31.9311 174.684 31.8 174.308 31.8V33.8ZM173.997 33.6993C173.924 33.6368 173.865 33.5556 173.828 33.4658C173.793 33.3804 173.788 33.3122 173.788 33.28H175.788C175.788 32.9034 175.657 32.4877 175.298 32.1808L173.997 33.6993ZM173.788 33.28V36.6H175.788V33.28H173.788ZM174.788 37.6H177.288V35.6H174.788V37.6ZM177.288 37.6C177.255 37.6 177.187 37.5948 177.102 37.5597C177.012 37.5227 176.931 37.4637 176.868 37.3908L178.387 36.0892C178.08 35.7311 177.664 35.6 177.288 35.6V37.6ZM176.977 37.4993C176.904 37.4368 176.845 37.3556 176.808 37.2658C176.773 37.1804 176.768 37.1122 176.768 37.08H178.768C178.768 36.7034 178.637 36.2877 178.278 35.9808L176.977 37.4993ZM176.768 37.08V38.22H178.768V37.08H176.768ZM176.768 38.22C176.768 38.1864 176.773 38.128 176.801 38.0576C176.829 37.985 176.872 37.9218 176.921 37.8729L178.335 39.2871C178.637 38.9846 178.768 38.5996 178.768 38.22H176.768ZM176.921 37.8729C176.96 37.8335 177.017 37.791 177.092 37.7603C177.166 37.7297 177.235 37.72 177.288 37.72V39.72C177.683 39.72 178.052 39.5701 178.335 39.2871L176.921 37.8729ZM177.288 37.72H174.788V39.72H177.288V37.72ZM173.788 38.72V43.06H175.788V38.72H173.788ZM173.788 43.06C173.788 43.7215 173.898 44.3904 174.261 44.9233L175.914 43.7967C175.877 43.743 175.788 43.5452 175.788 43.06H173.788ZM174.261 44.9233C174.704 45.5731 175.406 45.8 176.088 45.8V43.8C175.955 43.8 175.9 43.7788 175.89 43.7747C175.887 43.7731 175.891 43.7746 175.899 43.7811C175.907 43.7878 175.912 43.7942 175.914 43.7967L174.261 44.9233ZM176.088 45.8H177.468V43.8H176.088V45.8ZM177.468 45.8C177.415 45.8 177.346 45.7903 177.272 45.7597C177.197 45.729 177.14 45.6866 177.101 45.6471L178.515 44.2329C178.232 43.9499 177.863 43.8 177.468 43.8V45.8ZM177.101 45.6471C177.061 45.6077 177.019 45.5503 176.988 45.4758C176.957 45.4014 176.948 45.3324 176.948 45.28H178.948C178.948 44.8845 178.798 44.5159 178.515 44.2329L177.101 45.6471ZM176.948 45.28V46.52H178.948V45.28H176.948ZM176.948 46.52C176.948 46.4676 176.957 46.3986 176.988 46.3243C177.019 46.2497 177.061 46.1923 177.101 46.1529L178.515 47.5671C178.798 47.2841 178.948 46.9155 178.948 46.52H176.948ZM177.048 46.2092C177.111 46.1364 177.192 46.0773 177.282 46.0403C177.367 46.0052 177.436 46 177.468 46V48C177.844 48 178.26 47.8689 178.567 47.5108L177.048 46.2092ZM177.468 46H175.848V48H177.468V46Z" fill="#4B370D"/>
</g>
</g>
<defs>
<filter id="filter0_d_126:12956" x="35.126" y="32.8" width="142.822" height="16.4" filterUnits="userSpaceOnUse" color-interpolation-filters="sRGB">
<feFlood flood-opacity="0" result="BackgroundImageFix"/>
<feColorMatrix in="SourceAlpha" type="matrix" values="0 0 0 0 0 0 0 0 0 0 0 0 0 0 0 0 0 0 127 0" result="hardAlpha"/>
<feOffset dy="2"/>
<feColorMatrix type="matrix" values="0 0 0 0 0.294118 0 0 0 0 0.215686 0 0 0 0 0.0509804 0 0 0 1 0"/>
<feBlend mode="normal" in2="BackgroundImageFix" result="effect1_dropShadow_126:12956"/>
<feBlend mode="normal" in="SourceGraphic" in2="effect1_dropShadow_126:12956" result="shape"/>
</filter>
<linearGradient id="paint0_linear_126:12956" x1="106.65" y1="47.3049" x2="106.65" y2="19.0032" gradientUnits="userSpaceOnUse">
<stop stop-color="#C6753F"/>
<stop offset="0.5" stop-color="#C6753F" stop-opacity="0"/>
</linearGradient>
<clipPath id="clip0_126:12956">
<rect width="212" height="91" fill="white" transform="translate(0.5)"/>
</clipPath>
</defs>
</svg>
