<svg width="219" height="55" viewBox="0 0 219 55" fill="none" xmlns="http://www.w3.org/2000/svg">
<g clip-path="url(#clip0_56:75048)">
<path d="M205.966 2.86501C209.117 2.86501 212.555 5.44351 213.415 8.45177C216.28 18.909 216.709 29.6528 214.99 40.1101C214.417 43.2616 211.123 45.6969 207.971 45.6969C142.362 45.6969 76.7537 45.6969 11.1451 45.6969C7.99355 45.6969 4.6988 43.1184 4.12579 40.1101C2.40679 29.7961 2.83654 18.909 5.70155 8.45177C6.56105 5.44351 9.99906 2.86501 13.1506 2.86501C77.47 2.86501 141.646 2.86501 205.966 2.86501ZM205.966 0H13.1506C8.70981 0 4.12579 3.43801 2.97979 7.73552C0.114785 18.4793 -0.458216 29.9393 1.40404 40.6831C2.12029 45.1239 6.56105 48.7051 11.1451 48.7051H207.971C212.555 48.7051 216.996 45.1239 217.855 40.6831C219.718 29.9393 219.145 18.4793 216.28 7.73552C214.99 3.43801 210.406 0 205.966 0Z" fill="#6A2D01"/>
<path d="M11.1451 54.4351C6.56107 54.4351 2.12031 50.8538 1.2608 46.4131C-0.60145 35.6693 -0.0284491 24.2093 2.83656 13.4655C4.12581 9.16799 8.70982 5.72998 13.1506 5.72998H205.966C210.406 5.72998 214.99 9.16799 216.136 13.4655C219.001 24.2093 219.574 35.6693 217.712 46.4131C216.996 50.8538 212.555 54.4351 207.828 54.4351H11.1451Z" fill="#A88F7C"/>
<path d="M11.1451 50.1377C7.13406 50.1377 3.40955 47.1295 2.6933 43.2617C0.974294 32.8044 1.40404 21.6309 4.26905 11.0304C5.2718 7.30586 9.28281 4.29761 13.1506 4.29761H205.966C209.833 4.29761 213.844 7.30586 214.847 11.0304C217.712 21.6309 218.285 32.8044 216.423 43.2617C215.707 46.9862 211.982 50.1377 207.971 50.1377H11.1451Z" fill="#C6753F"/>
<path opacity="0.5" d="M11.1451 50.1377C7.13406 50.1377 3.40955 47.1295 2.6933 43.2617C0.974294 32.8044 1.40404 21.6309 4.26905 11.0304C5.2718 7.30586 9.28281 4.29761 13.1506 4.29761H205.966C209.833 4.29761 213.844 7.30586 214.847 11.0304C217.712 21.6309 218.285 32.8044 216.423 43.2617C215.707 46.9862 211.982 50.1377 207.971 50.1377H11.1451Z" fill="#6A2D01"/>
<path d="M214.99 45.9833C214.417 49.1348 211.123 51.5701 207.971 51.5701C142.362 51.5701 76.7537 51.5701 11.1451 51.5701C7.99357 51.5701 4.69881 48.9916 4.12581 45.9833C2.4068 35.526 2.83656 24.639 5.70156 14.1817C6.56106 11.1735 9.99907 8.59497 13.1506 8.59497C77.47 8.59497 141.789 8.59497 205.966 8.59497C209.117 8.59497 212.555 11.1735 213.415 14.1817C216.28 24.639 216.709 35.526 214.99 45.9833Z" fill="#C6753F"/>
<path opacity="0.3" d="M214.99 45.9833C214.417 49.1348 211.123 51.5701 207.971 51.5701C142.362 51.5701 76.7537 51.5701 11.1451 51.5701C7.99357 51.5701 4.69881 48.9916 4.12581 45.9833C2.4068 35.526 2.83656 24.639 5.70156 14.1817C6.56106 11.1735 9.99907 8.59497 13.1506 8.59497C77.47 8.59497 141.789 8.59497 205.966 8.59497C209.117 8.59497 212.555 11.1735 213.415 14.1817C216.28 24.639 216.709 35.526 214.99 45.9833Z" fill="#6A2D01"/>
<path d="M205.966 5.73C209.117 5.73 212.555 8.3085 213.415 11.3168C216.28 21.774 216.709 32.5178 214.99 42.9751C214.417 46.1266 211.123 48.5618 207.971 48.5618C142.362 48.5618 76.7537 48.5618 11.1451 48.5618C7.99355 48.5618 4.6988 45.9833 4.12579 42.9751C2.40679 32.6611 2.83654 21.774 5.70155 11.3168C6.56105 8.3085 9.99906 5.73 13.1506 5.73C77.47 5.73 141.646 5.73 205.966 5.73ZM205.966 2.86499H13.1506C8.70981 2.86499 4.12579 6.303 2.97979 10.6005C0.114785 21.3443 -0.458216 32.8043 1.40404 43.5481C2.12029 47.9888 6.56105 51.5701 11.1451 51.5701H207.971C212.555 51.5701 216.996 47.9888 217.855 43.5481C219.718 32.8043 219.145 21.3443 216.28 10.6005C214.99 6.303 210.406 2.86499 205.966 2.86499Z" fill="#6A2D01"/>
<path opacity="0.3" d="M11.1451 45.8401C10.7153 45.8401 9.85582 45.2671 9.71257 44.9806C7.99357 35.5261 8.56657 25.3553 11.1451 15.7576C11.2883 15.1846 12.4343 14.3251 13.0073 14.3251H205.822C206.395 14.3251 207.541 15.1846 207.685 15.7576C210.263 25.3553 210.693 35.3829 209.117 44.9806C208.974 45.2671 208.258 45.8401 207.685 45.8401H11.1451Z" fill="#A88F7C"/>
<path d="M34.7814 22.0605V31.2285C34.7814 32.9475 34.0651 34.38 32.4894 35.526C30.9136 36.6721 29.1946 37.3883 27.1891 37.3883H19.5968V15.9008H27.1891C29.3379 15.9008 31.0569 16.4738 32.4894 17.763C33.9219 19.0523 34.7814 20.3415 34.7814 22.0605ZM28.6216 31.3718V22.2038C28.6216 21.774 28.4784 21.4875 28.1919 21.0578C27.9054 20.7713 27.4756 20.628 27.1891 20.628H25.6134V32.9475H27.1891C27.6189 32.9475 27.9054 32.8043 28.1919 32.5178C28.4784 32.088 28.6216 31.8015 28.6216 31.3718Z" stroke="#6A2D01" stroke-width="5.73001" stroke-miterlimit="10" stroke-linecap="round" stroke-linejoin="round"/>
<path d="M42.3736 25.212V37.5315H36.3571V19.0522L39.9384 19.9117C41.0844 19.3387 42.5169 19.0522 43.9494 19.0522H46.9577V23.6363H43.9494C43.5196 23.6363 43.2331 23.7795 42.9466 24.066C42.5169 24.3525 42.3736 24.7823 42.3736 25.212Z" stroke="#6A2D01" stroke-width="5.73001" stroke-miterlimit="10" stroke-linecap="round" stroke-linejoin="round"/>
<path d="M54.5499 32.8043V37.3883H48.5334V32.8043H54.5499Z" stroke="#6A2D01" stroke-width="5.73001" stroke-miterlimit="10" stroke-linecap="round" stroke-linejoin="round"/>
<path d="M70.021 35.9559L69.8777 37.5316H63.8612L68.4452 16.0441H74.4617L79.0457 37.5316H73.0292L72.886 35.9559H70.021ZM72.0265 31.3719L71.3102 25.2121L70.594 31.3719H72.0265Z" stroke="#6A2D01" stroke-width="5.73001" stroke-miterlimit="10" stroke-linecap="round" stroke-linejoin="round"/>
<path d="M80.4782 19.0522L84.0595 19.9117C85.2055 19.3387 86.638 19.0522 88.0705 19.0522C90.2192 19.0522 91.9382 19.6252 93.3707 20.9145C94.8032 22.0605 95.6627 23.6363 95.6627 25.212V31.3718C95.6627 33.0908 94.9465 34.5233 93.3707 35.6693C91.9382 36.8153 90.076 37.5315 88.0705 37.5315C87.4975 37.5315 87.0677 37.5315 86.4947 37.3883V40.5398L80.4782 42.1155V19.0522ZM86.4947 31.3718C86.4947 31.8015 86.638 32.088 86.9245 32.5178C87.211 32.8043 87.6407 32.9475 87.9272 32.9475C88.357 32.9475 88.6435 32.8043 88.93 32.5178C89.2165 32.2313 89.3597 31.8015 89.3597 31.3718V25.212C89.3597 24.7823 89.2165 24.4958 88.93 24.066C88.6435 23.7795 88.2137 23.6363 87.9272 23.6363C87.4975 23.6363 87.211 23.7795 86.9245 24.066C86.638 24.3525 86.4947 24.7823 86.4947 25.212V31.3718Z" stroke="#6A2D01" stroke-width="5.73001" stroke-miterlimit="10" stroke-linecap="round" stroke-linejoin="round"/>
<path d="M103.255 31.3718C103.255 31.8015 103.398 32.088 103.685 32.5178C103.971 32.8043 104.401 32.9475 104.688 32.9475C105.117 32.9475 105.404 32.8043 105.69 32.5178C105.977 32.2313 106.12 31.8015 106.12 31.3718H112.137C112.137 33.0908 111.42 34.5233 109.845 35.6693C108.412 36.8153 106.55 37.5315 104.544 37.5315C102.396 37.5315 100.677 36.9585 99.244 35.6693C97.8115 34.5233 96.952 32.9475 96.952 31.3718V25.212C96.952 23.493 97.6683 22.0605 99.244 20.9145C100.82 19.7685 102.539 19.0522 104.544 19.0522C106.693 19.0522 108.412 19.6252 109.845 20.9145C111.277 22.0605 112.137 23.6363 112.137 25.212V29.796H102.969L103.255 31.3718ZM103.255 25.212V26.7878H106.263V25.212C106.263 24.7823 106.12 24.4958 105.834 24.066C105.547 23.7795 105.117 23.6363 104.831 23.6363C104.401 23.6363 104.115 23.7795 103.828 24.066C103.398 24.3525 103.255 24.7823 103.255 25.212Z" stroke="#6A2D01" stroke-width="5.73001" stroke-miterlimit="10" stroke-linecap="round" stroke-linejoin="round"/>
<path d="M121.591 37.3883V15.9008H127.608V32.8043H132.192V37.3883H121.591Z" stroke="#6A2D01" stroke-width="5.73001" stroke-miterlimit="10" stroke-linecap="round" stroke-linejoin="round"/>
<path d="M139.784 15.9008V20.4848H133.767V15.9008H139.784ZM139.784 22.0605V37.3883H133.767V22.0605H139.784Z" stroke="#6A2D01" stroke-width="5.73001" stroke-miterlimit="10" stroke-linecap="round" stroke-linejoin="round"/>
<path d="M144.368 19.0523V16.0441H150.384V19.0523H153.393V23.6363H150.384V37.5316H144.368V23.6363H141.36V19.0523H144.368Z" stroke="#6A2D01" stroke-width="5.73001" stroke-miterlimit="10" stroke-linecap="round" stroke-linejoin="round"/>
<path d="M157.977 19.0523V16.0441H163.993V19.0523H167.001V23.6363H163.993V37.5316H157.977V23.6363H154.968V19.0523H157.977Z" stroke="#6A2D01" stroke-width="5.73001" stroke-miterlimit="10" stroke-linecap="round" stroke-linejoin="round"/>
<path d="M174.594 15.9008V37.3883H168.577V15.9008H174.594Z" stroke="#6A2D01" stroke-width="5.73001" stroke-miterlimit="10" stroke-linecap="round" stroke-linejoin="round"/>
<path d="M182.186 31.2286C182.186 31.6583 182.329 31.9448 182.616 32.3746C182.902 32.6611 183.332 32.8043 183.619 32.8043C184.048 32.8043 184.335 32.6611 184.621 32.3746C184.908 32.0881 185.051 31.6583 185.051 31.2286H191.068C191.068 32.9476 190.351 34.3801 188.776 35.5261C187.2 36.6721 185.481 37.3884 183.475 37.3884C181.327 37.3884 179.608 36.8153 178.175 35.5261C176.742 34.3801 175.883 32.8043 175.883 31.2286V25.0688C175.883 23.3498 176.599 21.9173 178.175 20.7713C179.608 19.6253 181.47 18.9091 183.475 18.9091C185.624 18.9091 187.343 19.4821 188.776 20.7713C190.208 21.9173 191.068 23.4931 191.068 25.0688V29.6528H181.9L182.186 31.2286ZM182.186 25.0688V26.6446H185.194V25.0688C185.194 24.6391 185.051 24.3526 184.765 23.9228C184.478 23.6363 184.048 23.4931 183.762 23.4931C183.332 23.4931 183.046 23.6363 182.759 23.9228C182.329 24.3526 182.186 24.7823 182.186 25.0688Z" stroke="#6A2D01" stroke-width="5.73001" stroke-miterlimit="10" stroke-linecap="round" stroke-linejoin="round"/>
<path d="M34.7814 22.0605V31.2285C34.7814 32.9475 34.0651 34.38 32.4894 35.526C30.9136 36.6721 29.1946 37.3883 27.1891 37.3883H19.5968V15.9008H27.1891C29.3379 15.9008 31.0569 16.4738 32.4894 17.763C33.9219 19.0523 34.7814 20.3415 34.7814 22.0605ZM28.6216 31.3718V22.2038C28.6216 21.774 28.4784 21.4875 28.1919 21.0578C27.9054 20.7713 27.4756 20.628 27.1891 20.628H25.6134V32.9475H27.1891C27.6189 32.9475 27.9054 32.8043 28.1919 32.5178C28.4784 32.088 28.6216 31.8015 28.6216 31.3718Z" fill="#6A2D01"/>
<path d="M42.3736 25.212V37.5315H36.3571V19.0522L39.9384 19.9117C41.0844 19.3387 42.5169 19.0522 43.9494 19.0522H46.9577V23.6363H43.9494C43.5196 23.6363 43.2331 23.7795 42.9466 24.066C42.5169 24.3525 42.3736 24.7823 42.3736 25.212Z" fill="#6A2D01"/>
<path d="M54.5499 32.8043V37.3883H48.5334V32.8043H54.5499Z" fill="#6A2D01"/>
<path d="M70.021 35.9559L69.8777 37.5316H63.8612L68.4452 16.0441H74.4617L79.0457 37.5316H73.0292L72.886 35.9559H70.021ZM72.0265 31.3719L71.3102 25.2121L70.594 31.3719H72.0265Z" fill="#6A2D01"/>
<path d="M80.4782 19.0522L84.0595 19.9117C85.2055 19.3387 86.638 19.0522 88.0705 19.0522C90.2192 19.0522 91.9382 19.6252 93.3707 20.9145C94.8032 22.0605 95.6627 23.6363 95.6627 25.212V31.3718C95.6627 33.0908 94.9465 34.5233 93.3707 35.6693C91.9382 36.8153 90.076 37.5315 88.0705 37.5315C87.4975 37.5315 87.0677 37.5315 86.4947 37.3883V40.5398L80.4782 42.1155V19.0522ZM86.4947 31.3718C86.4947 31.8015 86.638 32.088 86.9245 32.5178C87.211 32.8043 87.6407 32.9475 87.9272 32.9475C88.357 32.9475 88.6435 32.8043 88.93 32.5178C89.2165 32.2313 89.3597 31.8015 89.3597 31.3718V25.212C89.3597 24.7823 89.2165 24.4958 88.93 24.066C88.6435 23.7795 88.2137 23.6363 87.9272 23.6363C87.4975 23.6363 87.211 23.7795 86.9245 24.066C86.638 24.3525 86.4947 24.7823 86.4947 25.212V31.3718Z" fill="#6A2D01"/>
<path d="M103.255 31.3718C103.255 31.8015 103.398 32.088 103.685 32.5178C103.971 32.8043 104.401 32.9475 104.688 32.9475C105.117 32.9475 105.404 32.8043 105.69 32.5178C105.977 32.2313 106.12 31.8015 106.12 31.3718H112.137C112.137 33.0908 111.42 34.5233 109.845 35.6693C108.412 36.8153 106.55 37.5315 104.544 37.5315C102.396 37.5315 100.677 36.9585 99.244 35.6693C97.8115 34.5233 96.952 32.9475 96.952 31.3718V25.212C96.952 23.493 97.6683 22.0605 99.244 20.9145C100.82 19.7685 102.539 19.0522 104.544 19.0522C106.693 19.0522 108.412 19.6252 109.845 20.9145C111.277 22.0605 112.137 23.6363 112.137 25.212V29.796H102.969L103.255 31.3718ZM103.255 25.212V26.7878H106.263V25.212C106.263 24.7823 106.12 24.4958 105.834 24.066C105.547 23.7795 105.117 23.6363 104.831 23.6363C104.401 23.6363 104.115 23.7795 103.828 24.066C103.398 24.3525 103.255 24.7823 103.255 25.212Z" fill="#6A2D01"/>
<path d="M121.591 37.3883V15.9008H127.608V32.8043H132.192V37.3883H121.591Z" fill="#6A2D01"/>
<path d="M139.784 15.9008V20.4848H133.767V15.9008H139.784ZM139.784 22.0605V37.3883H133.767V22.0605H139.784Z" fill="#6A2D01"/>
<path d="M144.368 19.0523V16.0441H150.384V19.0523H153.393V23.6363H150.384V37.5316H144.368V23.6363H141.36V19.0523H144.368Z" fill="#6A2D01"/>
<path d="M157.977 19.0523V16.0441H163.993V19.0523H167.001V23.6363H163.993V37.5316H157.977V23.6363H154.968V19.0523H157.977Z" fill="#6A2D01"/>
<path d="M174.594 15.9008V37.3883H168.577V15.9008H174.594Z" fill="#6A2D01"/>
<path d="M182.186 31.2286C182.186 31.6583 182.329 31.9448 182.616 32.3746C182.902 32.6611 183.332 32.8043 183.619 32.8043C184.048 32.8043 184.335 32.6611 184.621 32.3746C184.908 32.0881 185.051 31.6583 185.051 31.2286H191.068C191.068 32.9476 190.351 34.3801 188.776 35.5261C187.2 36.6721 185.481 37.3884 183.475 37.3884C181.327 37.3884 179.608 36.8153 178.175 35.5261C176.742 34.3801 175.883 32.8043 175.883 31.2286V25.0688C175.883 23.3498 176.599 21.9173 178.175 20.7713C179.608 19.6253 181.47 18.9091 183.475 18.9091C185.624 18.9091 187.343 19.4821 188.776 20.7713C190.208 21.9173 191.068 23.4931 191.068 25.0688V29.6528H181.9L182.186 31.2286ZM182.186 25.0688V26.6446H185.194V25.0688C185.194 24.6391 185.051 24.3526 184.765 23.9228C184.478 23.6363 184.048 23.4931 183.762 23.4931C183.332 23.4931 183.046 23.6363 182.759 23.9228C182.329 24.3526 182.186 24.7823 182.186 25.0688Z" fill="#6A2D01"/>
<path d="M34.7814 22.0605V31.2285C34.7814 32.9475 34.0651 34.38 32.4894 35.526C30.9136 36.6721 29.1946 37.3883 27.1891 37.3883H19.5968V15.9008H27.1891C29.3379 15.9008 31.0569 16.4738 32.4894 17.763C33.9219 19.0523 34.7814 20.3415 34.7814 22.0605ZM28.6216 31.3718V22.2038C28.6216 21.774 28.4784 21.4875 28.1919 21.0578C27.9054 20.7713 27.4756 20.628 27.1891 20.628H25.6134V32.9475H27.1891C27.6189 32.9475 27.9054 32.8043 28.1919 32.5178C28.4784 32.088 28.6216 31.8015 28.6216 31.3718Z" fill="#6A2D01"/>
<path d="M42.3736 25.212V37.5315H36.3571V19.0522L39.9384 19.9117C41.0844 19.3387 42.5169 19.0522 43.9494 19.0522H46.9577V23.6363H43.9494C43.5196 23.6363 43.2331 23.7795 42.9466 24.066C42.5169 24.3525 42.3736 24.7823 42.3736 25.212Z" fill="#6A2D01"/>
<path d="M54.5499 32.8043V37.3883H48.5334V32.8043H54.5499Z" fill="#6A2D01"/>
<path d="M70.021 35.9559L69.8777 37.5316H63.8612L68.4452 16.0441H74.4617L79.0457 37.5316H73.0292L72.886 35.9559H70.021ZM72.0265 31.3719L71.3102 25.2121L70.594 31.3719H72.0265Z" fill="#6A2D01"/>
<path d="M80.4782 19.0522L84.0595 19.9117C85.2055 19.3387 86.638 19.0522 88.0705 19.0522C90.2192 19.0522 91.9382 19.6252 93.3707 20.9145C94.8032 22.0605 95.6627 23.6363 95.6627 25.212V31.3718C95.6627 33.0908 94.9465 34.5233 93.3707 35.6693C91.9382 36.8153 90.076 37.5315 88.0705 37.5315C87.4975 37.5315 87.0677 37.5315 86.4947 37.3883V40.5398L80.4782 42.1155V19.0522ZM86.4947 31.3718C86.4947 31.8015 86.638 32.088 86.9245 32.5178C87.211 32.8043 87.6407 32.9475 87.9272 32.9475C88.357 32.9475 88.6435 32.8043 88.93 32.5178C89.2165 32.2313 89.3597 31.8015 89.3597 31.3718V25.212C89.3597 24.7823 89.2165 24.4958 88.93 24.066C88.6435 23.7795 88.2137 23.6363 87.9272 23.6363C87.4975 23.6363 87.211 23.7795 86.9245 24.066C86.638 24.3525 86.4947 24.7823 86.4947 25.212V31.3718Z" fill="#6A2D01"/>
<path d="M103.255 31.3718C103.255 31.8015 103.398 32.088 103.685 32.5178C103.971 32.8043 104.401 32.9475 104.688 32.9475C105.117 32.9475 105.404 32.8043 105.69 32.5178C105.977 32.2313 106.12 31.8015 106.12 31.3718H112.137C112.137 33.0908 111.42 34.5233 109.845 35.6693C108.412 36.8153 106.55 37.5315 104.544 37.5315C102.396 37.5315 100.677 36.9585 99.244 35.6693C97.8115 34.5233 96.952 32.9475 96.952 31.3718V25.212C96.952 23.493 97.6683 22.0605 99.244 20.9145C100.82 19.7685 102.539 19.0522 104.544 19.0522C106.693 19.0522 108.412 19.6252 109.845 20.9145C111.277 22.0605 112.137 23.6363 112.137 25.212V29.796H102.969L103.255 31.3718ZM103.255 25.212V26.7878H106.263V25.212C106.263 24.7823 106.12 24.4958 105.834 24.066C105.547 23.7795 105.117 23.6363 104.831 23.6363C104.401 23.6363 104.115 23.7795 103.828 24.066C103.398 24.3525 103.255 24.7823 103.255 25.212Z" fill="#6A2D01"/>
<path d="M121.591 37.3883V15.9008H127.608V32.8043H132.192V37.3883H121.591Z" fill="#6A2D01"/>
<path d="M139.784 15.9008V20.4848H133.767V15.9008H139.784ZM139.784 22.0605V37.3883H133.767V22.0605H139.784Z" fill="#6A2D01"/>
<path d="M144.368 19.0523V16.0441H150.384V19.0523H153.393V23.6363H150.384V37.5316H144.368V23.6363H141.36V19.0523H144.368Z" fill="#6A2D01"/>
<path d="M157.977 19.0523V16.0441H163.993V19.0523H167.001V23.6363H163.993V37.5316H157.977V23.6363H154.968V19.0523H157.977Z" fill="#6A2D01"/>
<path d="M174.594 15.9008V37.3883H168.577V15.9008H174.594Z" fill="#6A2D01"/>
<path d="M182.186 31.2286C182.186 31.6583 182.329 31.9448 182.616 32.3746C182.902 32.6611 183.332 32.8043 183.619 32.8043C184.048 32.8043 184.335 32.6611 184.621 32.3746C184.908 32.0881 185.051 31.6583 185.051 31.2286H191.068C191.068 32.9476 190.351 34.3801 188.776 35.5261C187.2 36.6721 185.481 37.3884 183.475 37.3884C181.327 37.3884 179.608 36.8153 178.175 35.5261C176.742 34.3801 175.883 32.8043 175.883 31.2286V25.0688C175.883 23.3498 176.599 21.9173 178.175 20.7713C179.608 19.6253 181.47 18.9091 183.475 18.9091C185.624 18.9091 187.343 19.4821 188.776 20.7713C190.208 21.9173 191.068 23.4931 191.068 25.0688V29.6528H181.9L182.186 31.2286ZM182.186 25.0688V26.6446H185.194V25.0688C185.194 24.6391 185.051 24.3526 184.765 23.9228C184.478 23.6363 184.048 23.4931 183.762 23.4931C183.332 23.4931 183.046 23.6363 182.759 23.9228C182.329 24.3526 182.186 24.7823 182.186 25.0688Z" fill="#6A2D01"/>
<path d="M34.7814 19.1955V28.3635C34.7814 30.0826 34.0651 31.5151 32.4894 32.6611C30.9136 33.8071 29.1946 34.5233 27.1891 34.5233H19.5968V13.0358H27.1891C29.3379 13.0358 31.0569 13.6088 32.4894 14.898C33.9219 16.1873 34.7814 17.4765 34.7814 19.1955ZM28.6216 28.5068V19.3388C28.6216 18.909 28.4784 18.6225 28.1919 18.1928C27.9054 17.9063 27.4756 17.763 27.1891 17.763H25.6134V30.0826H27.1891C27.6189 30.0826 27.9054 29.9393 28.1919 29.6528C28.4784 29.2231 28.6216 28.9366 28.6216 28.5068Z" stroke="#6A2D01" stroke-width="5.73001" stroke-miterlimit="10" stroke-linecap="round" stroke-linejoin="round"/>
<path d="M42.3736 22.3471V34.6667H36.3571V16.1874L39.9384 17.0469C41.0844 16.4739 42.5169 16.1874 43.9494 16.1874H46.9577V20.7714H43.9494C43.5196 20.7714 43.2331 20.9146 42.9466 21.2011C42.5169 21.4876 42.3736 21.9174 42.3736 22.3471Z" stroke="#6A2D01" stroke-width="5.73001" stroke-miterlimit="10" stroke-linecap="round" stroke-linejoin="round"/>
<path d="M54.5499 29.9393V34.5233H48.5334V29.9393H54.5499Z" stroke="#6A2D01" stroke-width="5.73001" stroke-miterlimit="10" stroke-linecap="round" stroke-linejoin="round"/>
<path d="M70.021 33.0909L69.8777 34.6666H63.8612L68.4452 13.1791H74.4617L79.0457 34.6666H73.0292L72.886 33.0909H70.021ZM72.0265 28.5069L71.3102 22.3471L70.594 28.5069H72.0265Z" stroke="#6A2D01" stroke-width="5.73001" stroke-miterlimit="10" stroke-linecap="round" stroke-linejoin="round"/>
<path d="M80.4782 16.1874L84.0595 17.0469C85.2055 16.4739 86.638 16.1874 88.0705 16.1874C90.2192 16.1874 91.9382 16.7604 93.3707 18.0496C94.8032 19.1956 95.6627 20.7714 95.6627 22.3471V28.5069C95.6627 30.2259 94.9465 31.6584 93.3707 32.8044C91.9382 33.9504 90.076 34.6667 88.0705 34.6667C87.4975 34.6667 87.0677 34.6667 86.4947 34.5234V37.6749L80.4782 39.2507V16.1874ZM86.4947 28.5069C86.4947 28.9367 86.638 29.2232 86.9245 29.6529C87.211 29.9394 87.6407 30.0827 87.9272 30.0827C88.357 30.0827 88.6435 29.9394 88.93 29.6529C89.2165 29.3664 89.3597 28.9367 89.3597 28.5069V22.3471C89.3597 21.9174 89.2165 21.6309 88.93 21.2011C88.6435 20.9146 88.2137 20.7714 87.9272 20.7714C87.4975 20.7714 87.211 20.9146 86.9245 21.2011C86.638 21.4876 86.4947 21.9174 86.4947 22.3471V28.5069Z" stroke="#6A2D01" stroke-width="5.73001" stroke-miterlimit="10" stroke-linecap="round" stroke-linejoin="round"/>
<path d="M103.255 28.5069C103.255 28.9367 103.398 29.2232 103.685 29.6529C103.971 29.9394 104.401 30.0827 104.688 30.0827C105.117 30.0827 105.404 29.9394 105.69 29.6529C105.977 29.3664 106.12 28.9367 106.12 28.5069H112.137C112.137 30.2259 111.42 31.6584 109.845 32.8044C108.412 33.9504 106.55 34.6667 104.544 34.6667C102.396 34.6667 100.677 34.0937 99.244 32.8044C97.8115 31.6584 96.952 30.0827 96.952 28.5069V22.3471C96.952 20.6281 97.6683 19.1956 99.244 18.0496C100.82 16.9036 102.539 16.1874 104.544 16.1874C106.693 16.1874 108.412 16.7604 109.845 18.0496C111.277 19.1956 112.137 20.7714 112.137 22.3471V26.9312H102.969L103.255 28.5069ZM103.255 22.3471V23.9229H106.263V22.3471C106.263 21.9174 106.12 21.6309 105.834 21.2011C105.547 20.9146 105.117 20.7714 104.831 20.7714C104.401 20.7714 104.115 20.9146 103.828 21.2011C103.398 21.4876 103.255 21.9174 103.255 22.3471Z" stroke="#6A2D01" stroke-width="5.73001" stroke-miterlimit="10" stroke-linecap="round" stroke-linejoin="round"/>
<path d="M121.591 34.5233V13.0358H127.608V29.9393H132.192V34.5233H121.591Z" stroke="#6A2D01" stroke-width="5.73001" stroke-miterlimit="10" stroke-linecap="round" stroke-linejoin="round"/>
<path d="M139.784 13.0358V17.6198H133.767V13.0358H139.784ZM139.784 19.1955V34.5233H133.767V19.1955H139.784Z" stroke="#6A2D01" stroke-width="5.73001" stroke-miterlimit="10" stroke-linecap="round" stroke-linejoin="round"/>
<path d="M144.368 16.1873V13.0358H150.384V16.044H153.393V20.628H150.384V34.5233H144.368V20.628H141.36V16.044L144.368 16.1873Z" stroke="#6A2D01" stroke-width="5.73001" stroke-miterlimit="10" stroke-linecap="round" stroke-linejoin="round"/>
<path d="M157.977 16.1873V13.0358H163.993V16.044H167.001V20.628H163.993V34.5233H157.977V20.628H154.968V16.044H157.977V16.1873Z" stroke="#6A2D01" stroke-width="5.73001" stroke-miterlimit="10" stroke-linecap="round" stroke-linejoin="round"/>
<path d="M174.594 13.0358V34.5233H168.577V13.0358H174.594Z" stroke="#6A2D01" stroke-width="5.73001" stroke-miterlimit="10" stroke-linecap="round" stroke-linejoin="round"/>
<path d="M182.186 28.3636C182.186 28.7933 182.329 29.0798 182.616 29.5096C182.902 29.7961 183.332 29.9393 183.619 29.9393C184.048 29.9393 184.335 29.7961 184.621 29.5096C184.908 29.2231 185.051 28.7933 185.051 28.3636H191.068C191.068 30.0826 190.351 31.5151 188.776 32.6611C187.2 33.8071 185.481 34.5234 183.475 34.5234C181.327 34.5234 179.608 33.9504 178.175 32.6611C176.742 31.5151 175.883 29.9393 175.883 28.3636V22.2038C175.883 20.4848 176.599 19.0523 178.175 17.9063C179.608 16.7603 181.47 16.0441 183.475 16.0441C185.624 16.0441 187.343 16.6171 188.776 17.9063C190.208 19.0523 191.068 20.6281 191.068 22.2038V26.7878H181.9L182.186 28.3636ZM182.186 22.2038V23.7796H185.194V22.2038C185.194 21.7741 185.051 21.4876 184.765 21.0578C184.478 20.7713 184.048 20.6281 183.762 20.6281C183.332 20.6281 183.046 20.7713 182.759 21.0578C182.329 21.4876 182.186 21.9173 182.186 22.2038Z" stroke="#6A2D01" stroke-width="5.73001" stroke-miterlimit="10" stroke-linecap="round" stroke-linejoin="round"/>
<path d="M34.7814 19.1955V28.3635C34.7814 30.0826 34.0651 31.5151 32.4894 32.6611C30.9136 33.8071 29.1946 34.5233 27.1891 34.5233H19.5968V13.0358H27.1891C29.3379 13.0358 31.0569 13.6088 32.4894 14.898C33.9219 16.1873 34.7814 17.4765 34.7814 19.1955ZM28.6216 28.5068V19.3388C28.6216 18.909 28.4784 18.6225 28.1919 18.1928C27.9054 17.9063 27.4756 17.763 27.1891 17.763H25.6134V30.0826H27.1891C27.6189 30.0826 27.9054 29.9393 28.1919 29.6528C28.4784 29.2231 28.6216 28.9366 28.6216 28.5068Z" fill="#FFE3A1"/>
<path d="M42.3736 22.3471V34.6667H36.3571V16.1874L39.9384 17.0469C41.0844 16.4739 42.5169 16.1874 43.9494 16.1874H46.9577V20.7714H43.9494C43.5196 20.7714 43.2331 20.9146 42.9466 21.2011C42.5169 21.4876 42.3736 21.9174 42.3736 22.3471Z" fill="#FFE3A1"/>
<path d="M54.5499 29.9393V34.5233H48.5334V29.9393H54.5499Z" fill="#FFE3A1"/>
<path d="M70.021 33.0909L69.8777 34.6666H63.8612L68.4452 13.1791H74.4617L79.0457 34.6666H73.0292L72.886 33.0909H70.021ZM72.0265 28.5069L71.3102 22.3471L70.594 28.5069H72.0265Z" fill="#FFE3A1"/>
<path d="M80.4782 16.1874L84.0595 17.0469C85.2055 16.4739 86.638 16.1874 88.0705 16.1874C90.2192 16.1874 91.9382 16.7604 93.3707 18.0496C94.8032 19.1956 95.6627 20.7714 95.6627 22.3471V28.5069C95.6627 30.2259 94.9465 31.6584 93.3707 32.8044C91.9382 33.9504 90.076 34.6667 88.0705 34.6667C87.4975 34.6667 87.0677 34.6667 86.4947 34.5234V37.6749L80.4782 39.2507V16.1874ZM86.4947 28.5069C86.4947 28.9367 86.638 29.2232 86.9245 29.6529C87.211 29.9394 87.6407 30.0827 87.9272 30.0827C88.357 30.0827 88.6435 29.9394 88.93 29.6529C89.2165 29.3664 89.3597 28.9367 89.3597 28.5069V22.3471C89.3597 21.9174 89.2165 21.6309 88.93 21.2011C88.6435 20.9146 88.2137 20.7714 87.9272 20.7714C87.4975 20.7714 87.211 20.9146 86.9245 21.2011C86.638 21.4876 86.4947 21.9174 86.4947 22.3471V28.5069Z" fill="#FFE3A1"/>
<path d="M103.255 28.5069C103.255 28.9367 103.398 29.2232 103.685 29.6529C103.971 29.9394 104.401 30.0827 104.688 30.0827C105.117 30.0827 105.404 29.9394 105.69 29.6529C105.977 29.3664 106.12 28.9367 106.12 28.5069H112.137C112.137 30.2259 111.42 31.6584 109.845 32.8044C108.412 33.9504 106.55 34.6667 104.544 34.6667C102.396 34.6667 100.677 34.0937 99.244 32.8044C97.8115 31.6584 96.952 30.0827 96.952 28.5069V22.3471C96.952 20.6281 97.6683 19.1956 99.244 18.0496C100.82 16.9036 102.539 16.1874 104.544 16.1874C106.693 16.1874 108.412 16.7604 109.845 18.0496C111.277 19.1956 112.137 20.7714 112.137 22.3471V26.9312H102.969L103.255 28.5069ZM103.255 22.3471V23.9229H106.263V22.3471C106.263 21.9174 106.12 21.6309 105.834 21.2011C105.547 20.9146 105.117 20.7714 104.831 20.7714C104.401 20.7714 104.115 20.9146 103.828 21.2011C103.398 21.4876 103.255 21.9174 103.255 22.3471Z" fill="#FFE3A1"/>
<path d="M121.591 34.5233V13.0358H127.608V29.9393H132.192V34.5233H121.591Z" fill="#FFE3A1"/>
<path d="M139.784 13.0358V17.6198H133.767V13.0358H139.784ZM139.784 19.1955V34.5233H133.767V19.1955H139.784Z" fill="#FFE3A1"/>
<path d="M144.368 16.1873V13.0358H150.384V16.044H153.393V20.628H150.384V34.5233H144.368V20.628H141.36V16.044L144.368 16.1873Z" fill="#FFE3A1"/>
<path d="M157.977 16.1873V13.0358H163.993V16.044H167.001V20.628H163.993V34.5233H157.977V20.628H154.968V16.044H157.977V16.1873Z" fill="#FFE3A1"/>
<path d="M174.594 13.0358V34.5233H168.577V13.0358H174.594Z" fill="#FFE3A1"/>
<path d="M182.186 28.3636C182.186 28.7933 182.329 29.0798 182.616 29.5096C182.902 29.7961 183.332 29.9393 183.619 29.9393C184.048 29.9393 184.335 29.7961 184.621 29.5096C184.908 29.2231 185.051 28.7933 185.051 28.3636H191.068C191.068 30.0826 190.351 31.5151 188.776 32.6611C187.2 33.8071 185.481 34.5234 183.475 34.5234C181.327 34.5234 179.608 33.9504 178.175 32.6611C176.742 31.5151 175.883 29.9393 175.883 28.3636V22.2038C175.883 20.4848 176.599 19.0523 178.175 17.9063C179.608 16.7603 181.47 16.0441 183.475 16.0441C185.624 16.0441 187.343 16.6171 188.776 17.9063C190.208 19.0523 191.068 20.6281 191.068 22.2038V26.7878H181.9L182.186 28.3636ZM182.186 22.2038V23.7796H185.194V22.2038C185.194 21.7741 185.051 21.4876 184.765 21.0578C184.478 20.7713 184.048 20.6281 183.762 20.6281C183.332 20.6281 183.046 20.7713 182.759 21.0578C182.329 21.4876 182.186 21.9173 182.186 22.2038Z" fill="#FFE3A1"/>
<g opacity="0.3">
<path opacity="0.3" d="M34.7814 19.1955V28.3635C34.7814 30.0826 34.0651 31.5151 32.4894 32.6611C30.9136 33.8071 29.1946 34.5233 27.1891 34.5233H19.5968V13.0358H27.1891C29.3379 13.0358 31.0569 13.6088 32.4894 14.898C33.9219 16.1873 34.7814 17.4765 34.7814 19.1955ZM28.6216 28.5068V19.3388C28.6216 18.909 28.4784 18.6225 28.1919 18.1928C27.9054 17.9063 27.4756 17.763 27.1891 17.763H25.6134V30.0826H27.1891C27.6189 30.0826 27.9054 29.9393 28.1919 29.6528C28.4784 29.2231 28.6216 28.9366 28.6216 28.5068Z" fill="url(#paint0_linear_56:75048)"/>
<path opacity="0.3" d="M42.3736 22.3471V34.6667H36.3571V16.1874L39.9384 17.0469C41.0844 16.4739 42.5169 16.1874 43.9494 16.1874H46.9577V20.7714H43.9494C43.5196 20.7714 43.2331 20.9146 42.9466 21.2011C42.5169 21.4876 42.3736 21.9174 42.3736 22.3471Z" fill="url(#paint1_linear_56:75048)"/>
<path opacity="0.3" d="M54.5499 29.9393V34.5233H48.5334V29.9393H54.5499Z" fill="url(#paint2_linear_56:75048)"/>
<path opacity="0.3" d="M70.021 33.0909L69.8777 34.6666H63.8612L68.4452 13.1791H74.4617L79.0457 34.6666H73.0292L72.886 33.0909H70.021ZM72.0265 28.5069L71.3102 22.3471L70.594 28.5069H72.0265Z" fill="url(#paint3_linear_56:75048)"/>
<path opacity="0.3" d="M80.4782 16.1874L84.0595 17.0469C85.2055 16.4739 86.638 16.1874 88.0705 16.1874C90.2192 16.1874 91.9382 16.7604 93.3707 18.0496C94.8032 19.1956 95.6627 20.7714 95.6627 22.3471V28.5069C95.6627 30.2259 94.9465 31.6584 93.3707 32.8044C91.9382 33.9504 90.076 34.6667 88.0705 34.6667C87.4975 34.6667 87.0677 34.6667 86.4947 34.5234V37.6749L80.4782 39.2507V16.1874ZM86.4947 28.5069C86.4947 28.9367 86.638 29.2232 86.9245 29.6529C87.211 29.9394 87.6407 30.0827 87.9272 30.0827C88.357 30.0827 88.6435 29.9394 88.93 29.6529C89.2165 29.3664 89.3597 28.9367 89.3597 28.5069V22.3471C89.3597 21.9174 89.2165 21.6309 88.93 21.2011C88.6435 20.9146 88.2137 20.7714 87.9272 20.7714C87.4975 20.7714 87.211 20.9146 86.9245 21.2011C86.638 21.4876 86.4947 21.9174 86.4947 22.3471V28.5069Z" fill="url(#paint4_linear_56:75048)"/>
<path opacity="0.3" d="M103.255 28.5069C103.255 28.9367 103.398 29.2232 103.685 29.6529C103.971 29.9394 104.401 30.0827 104.688 30.0827C105.117 30.0827 105.404 29.9394 105.69 29.6529C105.977 29.3664 106.12 28.9367 106.12 28.5069H112.137C112.137 30.2259 111.42 31.6584 109.845 32.8044C108.412 33.9504 106.55 34.6667 104.544 34.6667C102.396 34.6667 100.677 34.0937 99.244 32.8044C97.8115 31.6584 96.952 30.0827 96.952 28.5069V22.3471C96.952 20.6281 97.6683 19.1956 99.244 18.0496C100.82 16.9036 102.539 16.1874 104.544 16.1874C106.693 16.1874 108.412 16.7604 109.845 18.0496C111.277 19.1956 112.137 20.7714 112.137 22.3471V26.9312H102.969L103.255 28.5069ZM103.255 22.3471V23.9229H106.263V22.3471C106.263 21.9174 106.12 21.6309 105.834 21.2011C105.547 20.9146 105.117 20.7714 104.831 20.7714C104.401 20.7714 104.115 20.9146 103.828 21.2011C103.398 21.4876 103.255 21.9174 103.255 22.3471Z" fill="url(#paint5_linear_56:75048)"/>
<path opacity="0.3" d="M121.591 34.5233V13.0358H127.608V29.9393H132.192V34.5233H121.591Z" fill="url(#paint6_linear_56:75048)"/>
<path opacity="0.3" d="M139.784 13.0358V17.6198H133.767V13.0358H139.784ZM139.784 19.1955V34.5233H133.767V19.1955H139.784Z" fill="url(#paint7_linear_56:75048)"/>
<path opacity="0.3" d="M144.368 16.1873V13.0358H150.384V16.044H153.393V20.628H150.384V34.5233H144.368V20.628H141.36V16.044L144.368 16.1873Z" fill="url(#paint8_linear_56:75048)"/>
<path opacity="0.3" d="M157.977 16.1873V13.0358H163.993V16.044H167.001V20.628H163.993V34.5233H157.977V20.628H154.968V16.044H157.977V16.1873Z" fill="url(#paint9_linear_56:75048)"/>
<path opacity="0.3" d="M174.594 13.0358V34.5233H168.577V13.0358H174.594Z" fill="url(#paint10_linear_56:75048)"/>
<path opacity="0.3" d="M182.186 28.3636C182.186 28.7933 182.329 29.0798 182.616 29.5096C182.902 29.7961 183.332 29.9393 183.619 29.9393C184.048 29.9393 184.335 29.7961 184.621 29.5096C184.908 29.2231 185.051 28.7933 185.051 28.3636H191.068C191.068 30.0826 190.351 31.5151 188.776 32.6611C187.2 33.8071 185.481 34.5234 183.475 34.5234C181.327 34.5234 179.608 33.9504 178.175 32.6611C176.742 31.5151 175.883 29.9393 175.883 28.3636V22.2038C175.883 20.4848 176.599 19.0523 178.175 17.9063C179.608 16.7603 181.47 16.0441 183.475 16.0441C185.624 16.0441 187.343 16.6171 188.776 17.9063C190.208 19.0523 191.068 20.6281 191.068 22.2038V26.7878H181.9L182.186 28.3636ZM182.186 22.2038V23.7796H185.194V22.2038C185.194 21.7741 185.051 21.4876 184.765 21.0578C184.478 20.7713 184.048 20.6281 183.762 20.6281C183.332 20.6281 183.046 20.7713 182.759 21.0578C182.329 21.4876 182.186 21.9173 182.186 22.2038Z" fill="url(#paint11_linear_56:75048)"/>
</g>
</g>
<defs>
<linearGradient id="paint0_linear_56:75048" x1="105.465" y1="32.9438" x2="105.465" y2="6.76856" gradientUnits="userSpaceOnUse">
<stop stop-color="#C6753F"/>
<stop offset="0.5" stop-color="#C6753F" stop-opacity="0"/>
</linearGradient>
<linearGradient id="paint1_linear_56:75048" x1="105.465" y1="32.9439" x2="105.465" y2="6.76867" gradientUnits="userSpaceOnUse">
<stop stop-color="#C6753F"/>
<stop offset="0.5" stop-color="#C6753F" stop-opacity="0"/>
</linearGradient>
<linearGradient id="paint2_linear_56:75048" x1="105.465" y1="32.9439" x2="105.465" y2="6.76859" gradientUnits="userSpaceOnUse">
<stop stop-color="#C6753F"/>
<stop offset="0.5" stop-color="#C6753F" stop-opacity="0"/>
</linearGradient>
<linearGradient id="paint3_linear_56:75048" x1="105.465" y1="32.9439" x2="105.465" y2="6.76862" gradientUnits="userSpaceOnUse">
<stop stop-color="#C6753F"/>
<stop offset="0.5" stop-color="#C6753F" stop-opacity="0"/>
</linearGradient>
<linearGradient id="paint4_linear_56:75048" x1="105.465" y1="32.9439" x2="105.465" y2="6.76867" gradientUnits="userSpaceOnUse">
<stop stop-color="#C6753F"/>
<stop offset="0.5" stop-color="#C6753F" stop-opacity="0"/>
</linearGradient>
<linearGradient id="paint5_linear_56:75048" x1="105.465" y1="32.9439" x2="105.465" y2="6.76867" gradientUnits="userSpaceOnUse">
<stop stop-color="#C6753F"/>
<stop offset="0.5" stop-color="#C6753F" stop-opacity="0"/>
</linearGradient>
<linearGradient id="paint6_linear_56:75048" x1="105.465" y1="32.9438" x2="105.465" y2="6.76856" gradientUnits="userSpaceOnUse">
<stop stop-color="#C6753F"/>
<stop offset="0.5" stop-color="#C6753F" stop-opacity="0"/>
</linearGradient>
<linearGradient id="paint7_linear_56:75048" x1="105.465" y1="32.9438" x2="105.465" y2="6.76856" gradientUnits="userSpaceOnUse">
<stop stop-color="#C6753F"/>
<stop offset="0.5" stop-color="#C6753F" stop-opacity="0"/>
</linearGradient>
<linearGradient id="paint8_linear_56:75048" x1="105.465" y1="32.9438" x2="105.465" y2="6.76856" gradientUnits="userSpaceOnUse">
<stop stop-color="#C6753F"/>
<stop offset="0.5" stop-color="#C6753F" stop-opacity="0"/>
</linearGradient>
<linearGradient id="paint9_linear_56:75048" x1="105.465" y1="32.9438" x2="105.465" y2="6.76856" gradientUnits="userSpaceOnUse">
<stop stop-color="#C6753F"/>
<stop offset="0.5" stop-color="#C6753F" stop-opacity="0"/>
</linearGradient>
<linearGradient id="paint10_linear_56:75048" x1="105.465" y1="32.9438" x2="105.465" y2="6.76856" gradientUnits="userSpaceOnUse">
<stop stop-color="#C6753F"/>
<stop offset="0.5" stop-color="#C6753F" stop-opacity="0"/>
</linearGradient>
<linearGradient id="paint11_linear_56:75048" x1="105.465" y1="32.9439" x2="105.465" y2="6.76861" gradientUnits="userSpaceOnUse">
<stop stop-color="#C6753F"/>
<stop offset="0.5" stop-color="#C6753F" stop-opacity="0"/>
</linearGradient>
<clipPath id="clip0_56:75048">
<rect width="218.6" height="54.4351" fill="white" transform="translate(0.258057)"/>
</clipPath>
</defs>
</svg>
