<svg width="347" height="32" viewBox="0 0 347 32" fill="none" xmlns="http://www.w3.org/2000/svg">
<g filter="url(#filter0_di_1422:107722)">
<path d="M6.5062 29C6.05286 29 5.69286 28.88 5.4262 28.64C5.15953 28.3733 4.99953 28.0533 4.9462 27.68L0.586196 2.12C0.55953 2.04 0.546196 1.94667 0.546196 1.84C0.546196 1.62667 0.626196 1.44 0.786196 1.28C0.972863 1.09333 1.17286 0.999998 1.3862 0.999998H6.3462C7.09286 0.999998 7.5062 1.29333 7.5862 1.88L10.1862 17.48L13.0662 8.28C13.3595 7.56 13.7995 7.2 14.3862 7.2H17.2662C17.9329 7.2 18.3729 7.56 18.5862 8.28L21.4662 17.48L24.0662 1.88C24.1462 1.29333 24.5595 0.999998 25.3062 0.999998H30.2662C30.5062 0.999998 30.7062 1.09333 30.8662 1.28C31.0529 1.44 31.1462 1.62667 31.1462 1.84L31.1062 2.12L26.7462 27.68C26.6929 28.0533 26.5195 28.3733 26.2262 28.64C25.9595 28.88 25.6129 29 25.1862 29H21.3862C20.9595 29 20.6262 28.8933 20.3862 28.68C20.1462 28.4667 19.9729 28.2267 19.8662 27.96L15.8262 16.52L11.7862 27.96C11.5462 28.6533 11.0529 29 10.3062 29H6.5062ZM43.7253 29.4C40.5253 29.4 38.0053 28.5333 36.1653 26.8C34.3253 25.0667 33.3653 22.5467 33.2853 19.24V17.84C33.3919 14.6933 34.3653 12.24 36.2053 10.48C38.0719 8.69333 40.5653 7.8 43.6853 7.8C45.9519 7.8 47.8586 8.26667 49.4053 9.2C50.9786 10.1067 52.1519 11.36 52.9253 12.96C53.7253 14.56 54.1253 16.4 54.1253 18.48V19.44C54.1253 19.7067 54.0319 19.9467 53.8453 20.16C53.6586 20.3467 53.4186 20.44 53.1253 20.44H40.3253V20.72C40.3786 21.9733 40.6853 22.9867 41.2453 23.76C41.8053 24.5333 42.6186 24.92 43.6853 24.92C44.3519 24.92 44.8986 24.7867 45.3253 24.52C45.7519 24.2267 46.1386 23.88 46.4853 23.48C46.7253 23.1867 46.9119 23.0133 47.0453 22.96C47.2053 22.88 47.4453 22.84 47.7653 22.84H52.7253C52.9653 22.84 53.1653 22.92 53.3253 23.08C53.5119 23.2133 53.6053 23.4 53.6053 23.64C53.6053 24.3333 53.2053 25.1333 52.4053 26.04C51.6319 26.9467 50.4986 27.7333 49.0053 28.4C47.5119 29.0667 45.7519 29.4 43.7253 29.4ZM47.0853 16.48V16.4C47.0853 15.0933 46.7786 14.0667 46.1653 13.32C45.5786 12.5467 44.7519 12.16 43.6853 12.16C42.6453 12.16 41.8186 12.5467 41.2053 13.32C40.6186 14.0667 40.3253 15.0933 40.3253 16.4V16.48H47.0853ZM58.8753 29C58.6086 29 58.3686 28.9067 58.1553 28.72C57.9686 28.5067 57.8753 28.2667 57.8753 28V1.6C57.8753 1.30666 57.9686 1.06667 58.1553 0.88C58.3686 0.693332 58.6086 0.599998 58.8753 0.599998H63.5953C63.8886 0.599998 64.1286 0.693332 64.3153 0.88C64.5019 1.06667 64.5953 1.30666 64.5953 1.6V28C64.5953 28.2933 64.5019 28.5333 64.3153 28.72C64.1286 28.9067 63.8886 29 63.5953 29H58.8753ZM78.8806 29.4C75.8672 29.4 73.4272 28.6 71.5606 27C69.6939 25.3733 68.6939 23.12 68.5606 20.24L68.5206 18.64L68.5606 17C68.6672 14.12 69.6539 11.8667 71.5206 10.24C73.4139 8.61333 75.8672 7.8 78.8806 7.8C81.1472 7.8 83.0539 8.21333 84.6006 9.04C86.1739 9.84 87.3339 10.8133 88.0806 11.96C88.8539 13.08 89.2672 14.1067 89.3206 15.04C89.3472 15.3067 89.2539 15.5467 89.0406 15.76C88.8539 15.9467 88.6139 16.04 88.3206 16.04H83.2406C82.9472 16.04 82.7206 15.9733 82.5606 15.84C82.4006 15.7067 82.2539 15.5067 82.1206 15.24C81.8006 14.4133 81.3872 13.8267 80.8806 13.48C80.4006 13.1333 79.7739 12.96 79.0006 12.96C76.8139 12.96 75.6806 14.3733 75.6006 17.2L75.5606 18.72L75.6006 20.04C75.6539 21.48 75.9606 22.5467 76.5206 23.24C77.1072 23.9067 77.9339 24.24 79.0006 24.24C79.8272 24.24 80.4806 24.0667 80.9606 23.72C81.4406 23.3733 81.8272 22.7867 82.1206 21.96C82.2539 21.6933 82.4006 21.4933 82.5606 21.36C82.7206 21.2267 82.9472 21.16 83.2406 21.16H88.3206C88.5872 21.16 88.8139 21.2533 89.0006 21.44C89.2139 21.6 89.3206 21.8133 89.3206 22.08C89.3206 22.9333 88.9472 23.9333 88.2006 25.08C87.4806 26.2267 86.3339 27.24 84.7606 28.12C83.1872 28.9733 81.2272 29.4 78.8806 29.4ZM102.754 29.4C99.4477 29.4 96.901 28.6133 95.1143 27.04C93.3277 25.4667 92.3543 23.2533 92.1943 20.4C92.1677 20.0533 92.1543 19.4533 92.1543 18.6C92.1543 17.7467 92.1677 17.1467 92.1943 16.8C92.3543 13.9733 93.3543 11.7733 95.1943 10.2C97.0343 8.6 99.5543 7.8 102.754 7.8C105.981 7.8 108.514 8.6 110.354 10.2C112.194 11.7733 113.194 13.9733 113.354 16.8C113.381 17.1467 113.394 17.7467 113.394 18.6C113.394 19.4533 113.381 20.0533 113.354 20.4C113.194 23.2533 112.221 25.4667 110.434 27.04C108.648 28.6133 106.088 29.4 102.754 29.4ZM102.754 24.52C103.928 24.52 104.794 24.1733 105.354 23.48C105.914 22.76 106.234 21.6667 106.314 20.2C106.341 19.9333 106.354 19.4 106.354 18.6C106.354 17.8 106.341 17.2667 106.314 17C106.234 15.56 105.901 14.48 105.314 13.76C104.754 13.04 103.901 12.68 102.754 12.68C100.541 12.68 99.3677 14.12 99.2343 17L99.1943 18.6L99.2343 20.2C99.2877 21.6667 99.5943 22.76 100.154 23.48C100.741 24.1733 101.608 24.52 102.754 24.52ZM118.367 29C118.074 29 117.834 28.9067 117.647 28.72C117.461 28.5333 117.367 28.2933 117.367 28V9.2C117.367 8.90667 117.461 8.66667 117.647 8.48C117.834 8.29333 118.074 8.2 118.367 8.2H122.727C123.021 8.2 123.261 8.29333 123.447 8.48C123.634 8.66667 123.727 8.90667 123.727 9.2V10.56C124.341 9.76 125.154 9.10667 126.167 8.6C127.207 8.06667 128.367 7.8 129.647 7.8C132.581 7.8 134.607 8.94667 135.727 11.24C136.367 10.2267 137.261 9.4 138.407 8.76C139.554 8.12 140.781 7.8 142.087 7.8C144.274 7.8 146.047 8.54667 147.407 10.04C148.794 11.5067 149.487 13.7067 149.487 16.64V28C149.487 28.2667 149.394 28.5067 149.207 28.72C149.021 28.9067 148.781 29 148.487 29H143.847C143.554 29 143.301 28.9067 143.087 28.72C142.901 28.5333 142.807 28.2933 142.807 28V16.92C142.807 15.5867 142.527 14.6267 141.967 14.04C141.434 13.4533 140.701 13.16 139.767 13.16C138.914 13.16 138.207 13.4667 137.647 14.08C137.087 14.6667 136.807 15.6133 136.807 16.92V28C136.807 28.2667 136.714 28.5067 136.527 28.72C136.341 28.9067 136.101 29 135.807 29H131.167C130.874 29 130.634 28.9067 130.447 28.72C130.261 28.5333 130.167 28.2933 130.167 28V16.92C130.167 15.6133 129.874 14.6667 129.287 14.08C128.727 13.4667 128.007 13.16 127.127 13.16C126.274 13.16 125.554 13.4667 124.967 14.08C124.407 14.6667 124.127 15.6 124.127 16.88V28C124.127 28.2667 124.034 28.5067 123.847 28.72C123.661 28.9067 123.421 29 123.127 29H118.367ZM163.608 29.4C160.408 29.4 157.888 28.5333 156.048 26.8C154.208 25.0667 153.248 22.5467 153.168 19.24V17.84C153.275 14.6933 154.248 12.24 156.088 10.48C157.955 8.69333 160.448 7.8 163.568 7.8C165.835 7.8 167.741 8.26667 169.288 9.2C170.861 10.1067 172.035 11.36 172.808 12.96C173.608 14.56 174.008 16.4 174.008 18.48V19.44C174.008 19.7067 173.915 19.9467 173.728 20.16C173.541 20.3467 173.301 20.44 173.008 20.44H160.208V20.72C160.261 21.9733 160.568 22.9867 161.128 23.76C161.688 24.5333 162.501 24.92 163.568 24.92C164.235 24.92 164.781 24.7867 165.208 24.52C165.635 24.2267 166.021 23.88 166.368 23.48C166.608 23.1867 166.795 23.0133 166.928 22.96C167.088 22.88 167.328 22.84 167.648 22.84H172.608C172.848 22.84 173.048 22.92 173.208 23.08C173.395 23.2133 173.488 23.4 173.488 23.64C173.488 24.3333 173.088 25.1333 172.288 26.04C171.515 26.9467 170.381 27.7333 168.888 28.4C167.395 29.0667 165.635 29.4 163.608 29.4ZM166.968 16.48V16.4C166.968 15.0933 166.661 14.0667 166.048 13.32C165.461 12.5467 164.635 12.16 163.568 12.16C162.528 12.16 161.701 12.5467 161.088 13.32C160.501 14.0667 160.208 15.0933 160.208 16.4V16.48H166.968ZM192.936 29C192.67 29 192.43 28.9067 192.216 28.72C192.03 28.5067 191.936 28.2667 191.936 28V7.28H184.816C184.55 7.28 184.31 7.18667 184.096 7C183.91 6.78667 183.816 6.54667 183.816 6.28V2C183.816 1.70667 183.91 1.46667 184.096 1.28C184.31 1.09333 184.55 0.999998 184.816 0.999998H206.336C206.63 0.999998 206.87 1.09333 207.056 1.28C207.243 1.46667 207.336 1.70667 207.336 2V6.28C207.336 6.57333 207.243 6.81333 207.056 7C206.87 7.18667 206.63 7.28 206.336 7.28H199.216V28C199.216 28.2667 199.123 28.5067 198.936 28.72C198.75 28.9067 198.51 29 198.216 29H192.936ZM209.461 29C209.168 29 208.928 28.9067 208.741 28.72C208.555 28.5333 208.461 28.2933 208.461 28V9.2C208.461 8.90667 208.555 8.66667 208.741 8.48C208.928 8.29333 209.168 8.2 209.461 8.2H214.061C214.355 8.2 214.595 8.30667 214.781 8.52C214.995 8.70667 215.101 8.93333 215.101 9.2V10.8C216.568 9.06667 218.541 8.2 221.021 8.2H222.781C223.075 8.2 223.315 8.29333 223.501 8.48C223.688 8.66667 223.781 8.90667 223.781 9.2V13.32C223.781 13.5867 223.688 13.8267 223.501 14.04C223.315 14.2267 223.075 14.32 222.781 14.32H218.901C217.808 14.32 216.955 14.6267 216.341 15.24C215.755 15.8267 215.461 16.6667 215.461 17.76V28C215.461 28.2933 215.355 28.5333 215.141 28.72C214.955 28.9067 214.715 29 214.421 29H209.461ZM232.514 29.4C231.1 29.4 229.807 29.1333 228.634 28.6C227.487 28.04 226.58 27.2933 225.914 26.36C225.274 25.4 224.954 24.3467 224.954 23.2C224.954 21.36 225.7 19.88 227.194 18.76C228.714 17.64 230.794 16.8667 233.434 16.44L238.434 15.68V15.12C238.434 14.1067 238.22 13.36 237.794 12.88C237.367 12.4 236.647 12.16 235.634 12.16C235.02 12.16 234.514 12.2667 234.114 12.48C233.714 12.6933 233.3 12.9867 232.874 13.36C232.5 13.68 232.22 13.8933 232.034 14C231.954 14.2133 231.807 14.32 231.594 14.32H227.234C226.967 14.32 226.74 14.24 226.554 14.08C226.394 13.8933 226.327 13.68 226.354 13.44C226.38 12.72 226.727 11.92 227.394 11.04C228.087 10.16 229.127 9.4 230.514 8.76C231.927 8.12 233.66 7.8 235.714 7.8C238.994 7.8 241.42 8.53333 242.994 10C244.567 11.44 245.354 13.3867 245.354 15.84V28C245.354 28.2667 245.26 28.5067 245.074 28.72C244.887 28.9067 244.647 29 244.354 29H239.714C239.447 29 239.207 28.9067 238.994 28.72C238.807 28.5067 238.714 28.2667 238.714 28V26.6C238.127 27.4267 237.3 28.1067 236.234 28.64C235.194 29.1467 233.954 29.4 232.514 29.4ZM234.394 24.84C235.62 24.84 236.607 24.44 237.354 23.64C238.127 22.84 238.514 21.6667 238.514 20.12V19.56L235.114 20.16C232.714 20.5867 231.514 21.4267 231.514 22.68C231.514 23.3467 231.794 23.88 232.354 24.28C232.914 24.6533 233.594 24.84 234.394 24.84ZM256.682 29C256.308 29 256.015 28.92 255.802 28.76C255.615 28.5733 255.455 28.32 255.322 28L247.762 9.44L247.682 9.08C247.682 8.84 247.762 8.64 247.922 8.48C248.108 8.29333 248.335 8.2 248.602 8.2H253.122C253.708 8.2 254.095 8.48 254.282 9.04L258.802 21.32L263.362 9.04C263.548 8.48 263.935 8.2 264.522 8.2H269.042C269.282 8.2 269.495 8.29333 269.682 8.48C269.868 8.64 269.962 8.84 269.962 9.08L269.882 9.44L262.322 28C262.188 28.32 262.015 28.5733 261.802 28.76C261.588 28.92 261.295 29 260.922 29H256.682ZM281.889 29.4C278.689 29.4 276.169 28.5333 274.329 26.8C272.489 25.0667 271.529 22.5467 271.449 19.24V17.84C271.556 14.6933 272.529 12.24 274.369 10.48C276.236 8.69333 278.729 7.8 281.849 7.8C284.116 7.8 286.023 8.26667 287.569 9.2C289.143 10.1067 290.316 11.36 291.089 12.96C291.889 14.56 292.289 16.4 292.289 18.48V19.44C292.289 19.7067 292.196 19.9467 292.009 20.16C291.823 20.3467 291.583 20.44 291.289 20.44H278.489V20.72C278.543 21.9733 278.849 22.9867 279.409 23.76C279.969 24.5333 280.783 24.92 281.849 24.92C282.516 24.92 283.063 24.7867 283.489 24.52C283.916 24.2267 284.303 23.88 284.649 23.48C284.889 23.1867 285.076 23.0133 285.209 22.96C285.369 22.88 285.609 22.84 285.929 22.84H290.889C291.129 22.84 291.329 22.92 291.489 23.08C291.676 23.2133 291.769 23.4 291.769 23.64C291.769 24.3333 291.369 25.1333 290.569 26.04C289.796 26.9467 288.663 27.7333 287.169 28.4C285.676 29.0667 283.916 29.4 281.889 29.4ZM285.249 16.48V16.4C285.249 15.0933 284.943 14.0667 284.329 13.32C283.743 12.5467 282.916 12.16 281.849 12.16C280.809 12.16 279.983 12.5467 279.369 13.32C278.783 14.0667 278.489 15.0933 278.489 16.4V16.48H285.249ZM297.039 29C296.773 29 296.533 28.9067 296.319 28.72C296.133 28.5067 296.039 28.2667 296.039 28V1.6C296.039 1.30666 296.133 1.06667 296.319 0.88C296.533 0.693332 296.773 0.599998 297.039 0.599998H301.759C302.053 0.599998 302.293 0.693332 302.479 0.88C302.666 1.06667 302.759 1.30666 302.759 1.6V28C302.759 28.2933 302.666 28.5333 302.479 28.72C302.293 28.9067 302.053 29 301.759 29H297.039ZM317.085 29.4C313.885 29.4 311.365 28.5333 309.525 26.8C307.685 25.0667 306.725 22.5467 306.645 19.24V17.84C306.751 14.6933 307.725 12.24 309.565 10.48C311.431 8.69333 313.925 7.8 317.045 7.8C319.311 7.8 321.218 8.26667 322.765 9.2C324.338 10.1067 325.511 11.36 326.285 12.96C327.085 14.56 327.485 16.4 327.485 18.48V19.44C327.485 19.7067 327.391 19.9467 327.205 20.16C327.018 20.3467 326.778 20.44 326.485 20.44H313.685V20.72C313.738 21.9733 314.045 22.9867 314.605 23.76C315.165 24.5333 315.978 24.92 317.045 24.92C317.711 24.92 318.258 24.7867 318.685 24.52C319.111 24.2267 319.498 23.88 319.845 23.48C320.085 23.1867 320.271 23.0133 320.405 22.96C320.565 22.88 320.805 22.84 321.125 22.84H326.085C326.325 22.84 326.525 22.92 326.685 23.08C326.871 23.2133 326.965 23.4 326.965 23.64C326.965 24.3333 326.565 25.1333 325.765 26.04C324.991 26.9467 323.858 27.7333 322.365 28.4C320.871 29.0667 319.111 29.4 317.085 29.4ZM320.445 16.48V16.4C320.445 15.0933 320.138 14.0667 319.525 13.32C318.938 12.5467 318.111 12.16 317.045 12.16C316.005 12.16 315.178 12.5467 314.565 13.32C313.978 14.0667 313.685 15.0933 313.685 16.4V16.48H320.445ZM332.235 29C331.941 29 331.701 28.9067 331.515 28.72C331.328 28.5333 331.235 28.2933 331.235 28V9.2C331.235 8.90667 331.328 8.66667 331.515 8.48C331.701 8.29333 331.941 8.2 332.235 8.2H336.835C337.128 8.2 337.368 8.30667 337.555 8.52C337.768 8.70667 337.875 8.93333 337.875 9.2V10.8C339.341 9.06667 341.315 8.2 343.795 8.2H345.555C345.848 8.2 346.088 8.29333 346.275 8.48C346.461 8.66667 346.555 8.90667 346.555 9.2V13.32C346.555 13.5867 346.461 13.8267 346.275 14.04C346.088 14.2267 345.848 14.32 345.555 14.32H341.675C340.581 14.32 339.728 14.6267 339.115 15.24C338.528 15.8267 338.235 16.6667 338.235 17.76V28C338.235 28.2933 338.128 28.5333 337.915 28.72C337.728 28.9067 337.488 29 337.195 29H332.235Z" fill="#FCECD2"/>
<path d="M6.5062 29C6.05286 29 5.69286 28.88 5.4262 28.64C5.15953 28.3733 4.99953 28.0533 4.9462 27.68L0.586196 2.12C0.55953 2.04 0.546196 1.94667 0.546196 1.84C0.546196 1.62667 0.626196 1.44 0.786196 1.28C0.972863 1.09333 1.17286 0.999998 1.3862 0.999998H6.3462C7.09286 0.999998 7.5062 1.29333 7.5862 1.88L10.1862 17.48L13.0662 8.28C13.3595 7.56 13.7995 7.2 14.3862 7.2H17.2662C17.9329 7.2 18.3729 7.56 18.5862 8.28L21.4662 17.48L24.0662 1.88C24.1462 1.29333 24.5595 0.999998 25.3062 0.999998H30.2662C30.5062 0.999998 30.7062 1.09333 30.8662 1.28C31.0529 1.44 31.1462 1.62667 31.1462 1.84L31.1062 2.12L26.7462 27.68C26.6929 28.0533 26.5195 28.3733 26.2262 28.64C25.9595 28.88 25.6129 29 25.1862 29H21.3862C20.9595 29 20.6262 28.8933 20.3862 28.68C20.1462 28.4667 19.9729 28.2267 19.8662 27.96L15.8262 16.52L11.7862 27.96C11.5462 28.6533 11.0529 29 10.3062 29H6.5062ZM43.7253 29.4C40.5253 29.4 38.0053 28.5333 36.1653 26.8C34.3253 25.0667 33.3653 22.5467 33.2853 19.24V17.84C33.3919 14.6933 34.3653 12.24 36.2053 10.48C38.0719 8.69333 40.5653 7.8 43.6853 7.8C45.9519 7.8 47.8586 8.26667 49.4053 9.2C50.9786 10.1067 52.1519 11.36 52.9253 12.96C53.7253 14.56 54.1253 16.4 54.1253 18.48V19.44C54.1253 19.7067 54.0319 19.9467 53.8453 20.16C53.6586 20.3467 53.4186 20.44 53.1253 20.44H40.3253V20.72C40.3786 21.9733 40.6853 22.9867 41.2453 23.76C41.8053 24.5333 42.6186 24.92 43.6853 24.92C44.3519 24.92 44.8986 24.7867 45.3253 24.52C45.7519 24.2267 46.1386 23.88 46.4853 23.48C46.7253 23.1867 46.9119 23.0133 47.0453 22.96C47.2053 22.88 47.4453 22.84 47.7653 22.84H52.7253C52.9653 22.84 53.1653 22.92 53.3253 23.08C53.5119 23.2133 53.6053 23.4 53.6053 23.64C53.6053 24.3333 53.2053 25.1333 52.4053 26.04C51.6319 26.9467 50.4986 27.7333 49.0053 28.4C47.5119 29.0667 45.7519 29.4 43.7253 29.4ZM47.0853 16.48V16.4C47.0853 15.0933 46.7786 14.0667 46.1653 13.32C45.5786 12.5467 44.7519 12.16 43.6853 12.16C42.6453 12.16 41.8186 12.5467 41.2053 13.32C40.6186 14.0667 40.3253 15.0933 40.3253 16.4V16.48H47.0853ZM58.8753 29C58.6086 29 58.3686 28.9067 58.1553 28.72C57.9686 28.5067 57.8753 28.2667 57.8753 28V1.6C57.8753 1.30666 57.9686 1.06667 58.1553 0.88C58.3686 0.693332 58.6086 0.599998 58.8753 0.599998H63.5953C63.8886 0.599998 64.1286 0.693332 64.3153 0.88C64.5019 1.06667 64.5953 1.30666 64.5953 1.6V28C64.5953 28.2933 64.5019 28.5333 64.3153 28.72C64.1286 28.9067 63.8886 29 63.5953 29H58.8753ZM78.8806 29.4C75.8672 29.4 73.4272 28.6 71.5606 27C69.6939 25.3733 68.6939 23.12 68.5606 20.24L68.5206 18.64L68.5606 17C68.6672 14.12 69.6539 11.8667 71.5206 10.24C73.4139 8.61333 75.8672 7.8 78.8806 7.8C81.1472 7.8 83.0539 8.21333 84.6006 9.04C86.1739 9.84 87.3339 10.8133 88.0806 11.96C88.8539 13.08 89.2672 14.1067 89.3206 15.04C89.3472 15.3067 89.2539 15.5467 89.0406 15.76C88.8539 15.9467 88.6139 16.04 88.3206 16.04H83.2406C82.9472 16.04 82.7206 15.9733 82.5606 15.84C82.4006 15.7067 82.2539 15.5067 82.1206 15.24C81.8006 14.4133 81.3872 13.8267 80.8806 13.48C80.4006 13.1333 79.7739 12.96 79.0006 12.96C76.8139 12.96 75.6806 14.3733 75.6006 17.2L75.5606 18.72L75.6006 20.04C75.6539 21.48 75.9606 22.5467 76.5206 23.24C77.1072 23.9067 77.9339 24.24 79.0006 24.24C79.8272 24.24 80.4806 24.0667 80.9606 23.72C81.4406 23.3733 81.8272 22.7867 82.1206 21.96C82.2539 21.6933 82.4006 21.4933 82.5606 21.36C82.7206 21.2267 82.9472 21.16 83.2406 21.16H88.3206C88.5872 21.16 88.8139 21.2533 89.0006 21.44C89.2139 21.6 89.3206 21.8133 89.3206 22.08C89.3206 22.9333 88.9472 23.9333 88.2006 25.08C87.4806 26.2267 86.3339 27.24 84.7606 28.12C83.1872 28.9733 81.2272 29.4 78.8806 29.4ZM102.754 29.4C99.4477 29.4 96.901 28.6133 95.1143 27.04C93.3277 25.4667 92.3543 23.2533 92.1943 20.4C92.1677 20.0533 92.1543 19.4533 92.1543 18.6C92.1543 17.7467 92.1677 17.1467 92.1943 16.8C92.3543 13.9733 93.3543 11.7733 95.1943 10.2C97.0343 8.6 99.5543 7.8 102.754 7.8C105.981 7.8 108.514 8.6 110.354 10.2C112.194 11.7733 113.194 13.9733 113.354 16.8C113.381 17.1467 113.394 17.7467 113.394 18.6C113.394 19.4533 113.381 20.0533 113.354 20.4C113.194 23.2533 112.221 25.4667 110.434 27.04C108.648 28.6133 106.088 29.4 102.754 29.4ZM102.754 24.52C103.928 24.52 104.794 24.1733 105.354 23.48C105.914 22.76 106.234 21.6667 106.314 20.2C106.341 19.9333 106.354 19.4 106.354 18.6C106.354 17.8 106.341 17.2667 106.314 17C106.234 15.56 105.901 14.48 105.314 13.76C104.754 13.04 103.901 12.68 102.754 12.68C100.541 12.68 99.3677 14.12 99.2343 17L99.1943 18.6L99.2343 20.2C99.2877 21.6667 99.5943 22.76 100.154 23.48C100.741 24.1733 101.608 24.52 102.754 24.52ZM118.367 29C118.074 29 117.834 28.9067 117.647 28.72C117.461 28.5333 117.367 28.2933 117.367 28V9.2C117.367 8.90667 117.461 8.66667 117.647 8.48C117.834 8.29333 118.074 8.2 118.367 8.2H122.727C123.021 8.2 123.261 8.29333 123.447 8.48C123.634 8.66667 123.727 8.90667 123.727 9.2V10.56C124.341 9.76 125.154 9.10667 126.167 8.6C127.207 8.06667 128.367 7.8 129.647 7.8C132.581 7.8 134.607 8.94667 135.727 11.24C136.367 10.2267 137.261 9.4 138.407 8.76C139.554 8.12 140.781 7.8 142.087 7.8C144.274 7.8 146.047 8.54667 147.407 10.04C148.794 11.5067 149.487 13.7067 149.487 16.64V28C149.487 28.2667 149.394 28.5067 149.207 28.72C149.021 28.9067 148.781 29 148.487 29H143.847C143.554 29 143.301 28.9067 143.087 28.72C142.901 28.5333 142.807 28.2933 142.807 28V16.92C142.807 15.5867 142.527 14.6267 141.967 14.04C141.434 13.4533 140.701 13.16 139.767 13.16C138.914 13.16 138.207 13.4667 137.647 14.08C137.087 14.6667 136.807 15.6133 136.807 16.92V28C136.807 28.2667 136.714 28.5067 136.527 28.72C136.341 28.9067 136.101 29 135.807 29H131.167C130.874 29 130.634 28.9067 130.447 28.72C130.261 28.5333 130.167 28.2933 130.167 28V16.92C130.167 15.6133 129.874 14.6667 129.287 14.08C128.727 13.4667 128.007 13.16 127.127 13.16C126.274 13.16 125.554 13.4667 124.967 14.08C124.407 14.6667 124.127 15.6 124.127 16.88V28C124.127 28.2667 124.034 28.5067 123.847 28.72C123.661 28.9067 123.421 29 123.127 29H118.367ZM163.608 29.4C160.408 29.4 157.888 28.5333 156.048 26.8C154.208 25.0667 153.248 22.5467 153.168 19.24V17.84C153.275 14.6933 154.248 12.24 156.088 10.48C157.955 8.69333 160.448 7.8 163.568 7.8C165.835 7.8 167.741 8.26667 169.288 9.2C170.861 10.1067 172.035 11.36 172.808 12.96C173.608 14.56 174.008 16.4 174.008 18.48V19.44C174.008 19.7067 173.915 19.9467 173.728 20.16C173.541 20.3467 173.301 20.44 173.008 20.44H160.208V20.72C160.261 21.9733 160.568 22.9867 161.128 23.76C161.688 24.5333 162.501 24.92 163.568 24.92C164.235 24.92 164.781 24.7867 165.208 24.52C165.635 24.2267 166.021 23.88 166.368 23.48C166.608 23.1867 166.795 23.0133 166.928 22.96C167.088 22.88 167.328 22.84 167.648 22.84H172.608C172.848 22.84 173.048 22.92 173.208 23.08C173.395 23.2133 173.488 23.4 173.488 23.64C173.488 24.3333 173.088 25.1333 172.288 26.04C171.515 26.9467 170.381 27.7333 168.888 28.4C167.395 29.0667 165.635 29.4 163.608 29.4ZM166.968 16.48V16.4C166.968 15.0933 166.661 14.0667 166.048 13.32C165.461 12.5467 164.635 12.16 163.568 12.16C162.528 12.16 161.701 12.5467 161.088 13.32C160.501 14.0667 160.208 15.0933 160.208 16.4V16.48H166.968ZM192.936 29C192.67 29 192.43 28.9067 192.216 28.72C192.03 28.5067 191.936 28.2667 191.936 28V7.28H184.816C184.55 7.28 184.31 7.18667 184.096 7C183.91 6.78667 183.816 6.54667 183.816 6.28V2C183.816 1.70667 183.91 1.46667 184.096 1.28C184.31 1.09333 184.55 0.999998 184.816 0.999998H206.336C206.63 0.999998 206.87 1.09333 207.056 1.28C207.243 1.46667 207.336 1.70667 207.336 2V6.28C207.336 6.57333 207.243 6.81333 207.056 7C206.87 7.18667 206.63 7.28 206.336 7.28H199.216V28C199.216 28.2667 199.123 28.5067 198.936 28.72C198.75 28.9067 198.51 29 198.216 29H192.936ZM209.461 29C209.168 29 208.928 28.9067 208.741 28.72C208.555 28.5333 208.461 28.2933 208.461 28V9.2C208.461 8.90667 208.555 8.66667 208.741 8.48C208.928 8.29333 209.168 8.2 209.461 8.2H214.061C214.355 8.2 214.595 8.30667 214.781 8.52C214.995 8.70667 215.101 8.93333 215.101 9.2V10.8C216.568 9.06667 218.541 8.2 221.021 8.2H222.781C223.075 8.2 223.315 8.29333 223.501 8.48C223.688 8.66667 223.781 8.90667 223.781 9.2V13.32C223.781 13.5867 223.688 13.8267 223.501 14.04C223.315 14.2267 223.075 14.32 222.781 14.32H218.901C217.808 14.32 216.955 14.6267 216.341 15.24C215.755 15.8267 215.461 16.6667 215.461 17.76V28C215.461 28.2933 215.355 28.5333 215.141 28.72C214.955 28.9067 214.715 29 214.421 29H209.461ZM232.514 29.4C231.1 29.4 229.807 29.1333 228.634 28.6C227.487 28.04 226.58 27.2933 225.914 26.36C225.274 25.4 224.954 24.3467 224.954 23.2C224.954 21.36 225.7 19.88 227.194 18.76C228.714 17.64 230.794 16.8667 233.434 16.44L238.434 15.68V15.12C238.434 14.1067 238.22 13.36 237.794 12.88C237.367 12.4 236.647 12.16 235.634 12.16C235.02 12.16 234.514 12.2667 234.114 12.48C233.714 12.6933 233.3 12.9867 232.874 13.36C232.5 13.68 232.22 13.8933 232.034 14C231.954 14.2133 231.807 14.32 231.594 14.32H227.234C226.967 14.32 226.74 14.24 226.554 14.08C226.394 13.8933 226.327 13.68 226.354 13.44C226.38 12.72 226.727 11.92 227.394 11.04C228.087 10.16 229.127 9.4 230.514 8.76C231.927 8.12 233.66 7.8 235.714 7.8C238.994 7.8 241.42 8.53333 242.994 10C244.567 11.44 245.354 13.3867 245.354 15.84V28C245.354 28.2667 245.26 28.5067 245.074 28.72C244.887 28.9067 244.647 29 244.354 29H239.714C239.447 29 239.207 28.9067 238.994 28.72C238.807 28.5067 238.714 28.2667 238.714 28V26.6C238.127 27.4267 237.3 28.1067 236.234 28.64C235.194 29.1467 233.954 29.4 232.514 29.4ZM234.394 24.84C235.62 24.84 236.607 24.44 237.354 23.64C238.127 22.84 238.514 21.6667 238.514 20.12V19.56L235.114 20.16C232.714 20.5867 231.514 21.4267 231.514 22.68C231.514 23.3467 231.794 23.88 232.354 24.28C232.914 24.6533 233.594 24.84 234.394 24.84ZM256.682 29C256.308 29 256.015 28.92 255.802 28.76C255.615 28.5733 255.455 28.32 255.322 28L247.762 9.44L247.682 9.08C247.682 8.84 247.762 8.64 247.922 8.48C248.108 8.29333 248.335 8.2 248.602 8.2H253.122C253.708 8.2 254.095 8.48 254.282 9.04L258.802 21.32L263.362 9.04C263.548 8.48 263.935 8.2 264.522 8.2H269.042C269.282 8.2 269.495 8.29333 269.682 8.48C269.868 8.64 269.962 8.84 269.962 9.08L269.882 9.44L262.322 28C262.188 28.32 262.015 28.5733 261.802 28.76C261.588 28.92 261.295 29 260.922 29H256.682ZM281.889 29.4C278.689 29.4 276.169 28.5333 274.329 26.8C272.489 25.0667 271.529 22.5467 271.449 19.24V17.84C271.556 14.6933 272.529 12.24 274.369 10.48C276.236 8.69333 278.729 7.8 281.849 7.8C284.116 7.8 286.023 8.26667 287.569 9.2C289.143 10.1067 290.316 11.36 291.089 12.96C291.889 14.56 292.289 16.4 292.289 18.48V19.44C292.289 19.7067 292.196 19.9467 292.009 20.16C291.823 20.3467 291.583 20.44 291.289 20.44H278.489V20.72C278.543 21.9733 278.849 22.9867 279.409 23.76C279.969 24.5333 280.783 24.92 281.849 24.92C282.516 24.92 283.063 24.7867 283.489 24.52C283.916 24.2267 284.303 23.88 284.649 23.48C284.889 23.1867 285.076 23.0133 285.209 22.96C285.369 22.88 285.609 22.84 285.929 22.84H290.889C291.129 22.84 291.329 22.92 291.489 23.08C291.676 23.2133 291.769 23.4 291.769 23.64C291.769 24.3333 291.369 25.1333 290.569 26.04C289.796 26.9467 288.663 27.7333 287.169 28.4C285.676 29.0667 283.916 29.4 281.889 29.4ZM285.249 16.48V16.4C285.249 15.0933 284.943 14.0667 284.329 13.32C283.743 12.5467 282.916 12.16 281.849 12.16C280.809 12.16 279.983 12.5467 279.369 13.32C278.783 14.0667 278.489 15.0933 278.489 16.4V16.48H285.249ZM297.039 29C296.773 29 296.533 28.9067 296.319 28.72C296.133 28.5067 296.039 28.2667 296.039 28V1.6C296.039 1.30666 296.133 1.06667 296.319 0.88C296.533 0.693332 296.773 0.599998 297.039 0.599998H301.759C302.053 0.599998 302.293 0.693332 302.479 0.88C302.666 1.06667 302.759 1.30666 302.759 1.6V28C302.759 28.2933 302.666 28.5333 302.479 28.72C302.293 28.9067 302.053 29 301.759 29H297.039ZM317.085 29.4C313.885 29.4 311.365 28.5333 309.525 26.8C307.685 25.0667 306.725 22.5467 306.645 19.24V17.84C306.751 14.6933 307.725 12.24 309.565 10.48C311.431 8.69333 313.925 7.8 317.045 7.8C319.311 7.8 321.218 8.26667 322.765 9.2C324.338 10.1067 325.511 11.36 326.285 12.96C327.085 14.56 327.485 16.4 327.485 18.48V19.44C327.485 19.7067 327.391 19.9467 327.205 20.16C327.018 20.3467 326.778 20.44 326.485 20.44H313.685V20.72C313.738 21.9733 314.045 22.9867 314.605 23.76C315.165 24.5333 315.978 24.92 317.045 24.92C317.711 24.92 318.258 24.7867 318.685 24.52C319.111 24.2267 319.498 23.88 319.845 23.48C320.085 23.1867 320.271 23.0133 320.405 22.96C320.565 22.88 320.805 22.84 321.125 22.84H326.085C326.325 22.84 326.525 22.92 326.685 23.08C326.871 23.2133 326.965 23.4 326.965 23.64C326.965 24.3333 326.565 25.1333 325.765 26.04C324.991 26.9467 323.858 27.7333 322.365 28.4C320.871 29.0667 319.111 29.4 317.085 29.4ZM320.445 16.48V16.4C320.445 15.0933 320.138 14.0667 319.525 13.32C318.938 12.5467 318.111 12.16 317.045 12.16C316.005 12.16 315.178 12.5467 314.565 13.32C313.978 14.0667 313.685 15.0933 313.685 16.4V16.48H320.445ZM332.235 29C331.941 29 331.701 28.9067 331.515 28.72C331.328 28.5333 331.235 28.2933 331.235 28V9.2C331.235 8.90667 331.328 8.66667 331.515 8.48C331.701 8.29333 331.941 8.2 332.235 8.2H336.835C337.128 8.2 337.368 8.30667 337.555 8.52C337.768 8.70667 337.875 8.93333 337.875 9.2V10.8C339.341 9.06667 341.315 8.2 343.795 8.2H345.555C345.848 8.2 346.088 8.29333 346.275 8.48C346.461 8.66667 346.555 8.90667 346.555 9.2V13.32C346.555 13.5867 346.461 13.8267 346.275 14.04C346.088 14.2267 345.848 14.32 345.555 14.32H341.675C340.581 14.32 339.728 14.6267 339.115 15.24C338.528 15.8267 338.235 16.6667 338.235 17.76V28C338.235 28.2933 338.128 28.5333 337.915 28.72C337.728 28.9067 337.488 29 337.195 29H332.235Z" fill="url(#paint0_linear_1422:107722)" fill-opacity="0.3"/>
<path d="M5.4262 28.64L4.01198 30.0542L4.04917 30.0914L4.08827 30.1266L5.4262 28.64ZM4.9462 27.68L6.9261 27.3972L6.92227 27.3704L6.91772 27.3437L4.9462 27.68ZM0.586196 2.12L2.55772 1.7837L2.53198 1.63278L2.48356 1.48753L0.586196 2.12ZM0.786196 1.28L2.20041 2.69422L2.20041 2.69421L0.786196 1.28ZM7.5862 1.88L5.60454 2.15022L5.60854 2.17958L5.61341 2.2088L7.5862 1.88ZM10.1862 17.48L8.21341 17.8088L12.0949 18.0775L10.1862 17.48ZM13.0662 8.28L11.214 7.52541L11.1825 7.60278L11.1575 7.6825L13.0662 8.28ZM18.5862 8.28L16.6686 8.84818L16.673 8.86287L16.6775 8.87749L18.5862 8.28ZM21.4662 17.48L19.5575 18.0775L23.439 17.8088L21.4662 17.48ZM24.0662 1.88L26.039 2.2088L26.0439 2.17957L26.0479 2.15022L24.0662 1.88ZM30.8662 1.28L29.3477 2.58158L29.4478 2.69839L29.5646 2.79852L30.8662 1.28ZM31.1462 1.84L33.1261 2.12284L33.1462 1.98213V1.84H31.1462ZM31.1062 2.12L33.0777 2.4563L33.0823 2.42963L33.0861 2.40284L31.1062 2.12ZM26.7462 27.68L24.7747 27.3437L24.7701 27.3704L24.7663 27.3972L26.7462 27.68ZM26.2262 28.64L27.5641 30.1266L27.5715 30.1199L26.2262 28.64ZM19.8662 27.96L17.9803 28.626L17.994 28.6647L18.0092 28.7028L19.8662 27.96ZM15.8262 16.52L17.7121 15.854L15.8262 10.5139L13.9403 15.854L15.8262 16.52ZM11.7862 27.96L9.9003 27.294L9.89622 27.3058L11.7862 27.96ZM6.5062 27C6.45389 27 6.46947 26.9929 6.52865 27.0126C6.59423 27.0345 6.68137 27.0789 6.76413 27.1534L4.08827 30.1266C4.81144 30.7774 5.69371 31 6.5062 31V27ZM6.84041 27.2258C6.85081 27.2362 6.87382 27.2631 6.89505 27.3056C6.91628 27.348 6.92402 27.3826 6.9261 27.3972L2.9663 27.9628C3.08083 28.7646 3.43932 29.4816 4.01198 30.0542L6.84041 27.2258ZM6.91772 27.3437L2.55772 1.7837L-1.38533 2.4563L2.97467 28.0163L6.91772 27.3437ZM2.48356 1.48753C2.54014 1.65727 2.5462 1.78597 2.5462 1.84H-1.4538C-1.4538 2.10736 -1.42108 2.42273 -1.31117 2.75246L2.48356 1.48753ZM2.5462 1.84C2.5462 1.99027 2.51653 2.15974 2.44449 2.32784C2.37343 2.49363 2.27982 2.61481 2.20041 2.69422L-0.628015 -0.134217C-1.13784 0.375607 -1.4538 1.06156 -1.4538 1.84H2.5462ZM2.20041 2.69421C2.16038 2.73425 2.07008 2.81325 1.92197 2.88236C1.76655 2.95489 1.58198 3 1.3862 3V-1C0.522397 -1 -0.160662 -0.601571 -0.62802 -0.134212L2.20041 2.69421ZM1.3862 3H6.3462V-1H1.3862V3ZM6.3462 3C6.49144 3 6.31595 3.03357 6.0587 2.85101C5.92159 2.75371 5.80309 2.62276 5.71914 2.47301C5.6387 2.32953 5.61266 2.2098 5.60454 2.15022L9.56786 1.60977C9.46683 0.868938 9.108 0.11011 8.37369 -0.411016C7.70311 -0.886909 6.94762 -1 6.3462 -1V3ZM5.61341 2.2088L8.21341 17.8088L12.159 17.1512L9.55898 1.5512L5.61341 2.2088ZM12.0949 18.0775L14.9749 8.87749L11.1575 7.6825L8.27753 16.8825L12.0949 18.0775ZM14.9184 9.03459C14.9832 8.87542 14.9986 8.92308 14.8827 9.01791C14.8206 9.06867 14.7368 9.11933 14.6355 9.15483C14.5351 9.19005 14.4472 9.2 14.3862 9.2V5.2C13.6472 5.2 12.9392 5.43975 12.3497 5.92209C11.7938 6.37692 11.4425 6.96458 11.214 7.52541L14.9184 9.03459ZM14.3862 9.2H17.2662V5.2H14.3862V9.2ZM17.2662 9.2C17.2528 9.2 17.1932 9.19808 17.105 9.1694C17.013 9.13946 16.9164 9.08881 16.8297 9.01791C16.6539 8.87408 16.6398 8.75108 16.6686 8.84818L20.5038 7.71182C20.3192 7.08892 19.9785 6.42592 19.3627 5.92209C18.7257 5.40091 17.9777 5.2 17.2662 5.2V9.2ZM16.6775 8.87749L19.5575 18.0775L23.3749 16.8825L20.4949 7.6825L16.6775 8.87749ZM23.439 17.8088L26.039 2.2088L22.0934 1.5512L19.4934 17.1512L23.439 17.8088ZM26.0479 2.15022C26.0397 2.2098 26.0137 2.32953 25.9333 2.47301C25.8493 2.62276 25.7308 2.75371 25.5937 2.85101C25.3364 3.03357 25.161 3 25.3062 3V-1C24.7048 -1 23.9493 -0.886909 23.2787 -0.411015C22.5444 0.110112 22.1856 0.86894 22.0845 1.60978L26.0479 2.15022ZM25.3062 3H30.2662V-1H25.3062V3ZM30.2662 3C30.1199 3 29.9378 2.96979 29.7504 2.88236C29.5644 2.79553 29.4318 2.67969 29.3477 2.58158L32.3847 -0.0215782C31.8554 -0.639115 31.1062 -1 30.2662 -1V3ZM29.5646 2.79852C29.491 2.73545 29.3791 2.61804 29.2873 2.43443C29.192 2.24373 29.1462 2.03668 29.1462 1.84H33.1462C33.1462 0.950636 32.7226 0.237054 32.1678 -0.238519L29.5646 2.79852ZM29.1663 1.55716L29.1263 1.83716L33.0861 2.40284L33.1261 2.12284L29.1663 1.55716ZM29.1347 1.7837L24.7747 27.3437L28.7177 28.0163L33.0777 2.4563L29.1347 1.7837ZM24.7663 27.3972C24.7719 27.3579 24.7873 27.3033 24.8176 27.2474C24.8472 27.1928 24.8759 27.1646 24.8809 27.1601L27.5715 30.1199C28.1901 29.5575 28.6034 28.8218 28.7261 27.9628L24.7663 27.3972ZM24.8883 27.1534C24.9581 27.0905 25.0386 27.0454 25.112 27.02C25.1802 26.9964 25.2124 27 25.1862 27V31C26.0082 31 26.8629 30.7577 27.5641 30.1266L24.8883 27.1534ZM25.1862 27H21.3862V31H25.1862V27ZM21.3862 27C21.3361 27 21.3577 26.9934 21.4257 27.0152C21.5006 27.0391 21.6083 27.0904 21.7149 27.1852L19.0575 30.1748C19.7698 30.808 20.6334 31 21.3862 31V27ZM21.7149 27.1852C21.6949 27.1674 21.6919 27.1612 21.6976 27.169C21.7002 27.1727 21.7044 27.179 21.7092 27.1876C21.714 27.1963 21.7188 27.2063 21.7232 27.2172L18.0092 28.7028C18.2442 29.2903 18.6131 29.7798 19.0575 30.1748L21.7149 27.1852ZM21.7521 27.294L17.7121 15.854L13.9403 17.186L17.9803 28.626L21.7521 27.294ZM13.9403 15.854L9.90034 27.294L13.6721 28.626L17.7121 17.186L13.9403 15.854ZM9.89622 27.3058C9.88327 27.3432 9.92037 27.2202 10.0863 27.1036C10.2493 26.9891 10.3671 27 10.3062 27V31C10.992 31 11.7298 30.8376 12.3861 30.3764C13.0454 29.9131 13.4491 29.2701 13.6762 28.6142L9.89622 27.3058ZM10.3062 27H6.5062V31H10.3062V27ZM36.1653 26.8L37.5366 25.3442L37.5366 25.3442L36.1653 26.8ZM33.2853 19.24H31.2853V19.2642L31.2858 19.2884L33.2853 19.24ZM33.2853 17.84L31.2864 17.7722L31.2853 17.8061V17.84H33.2853ZM36.2053 10.48L37.5877 11.9253L37.5882 11.9248L36.2053 10.48ZM49.4053 9.2L48.3719 10.9124L48.3892 10.9228L48.4067 10.9329L49.4053 9.2ZM52.9253 12.96L51.1246 13.8303L51.1304 13.8424L51.1364 13.8544L52.9253 12.96ZM53.8453 20.16L55.2595 21.5742L55.3066 21.5271L55.3504 21.477L53.8453 20.16ZM40.3253 20.44V18.44H38.3253V20.44H40.3253ZM40.3253 20.72H38.3253V20.7625L38.3271 20.805L40.3253 20.72ZM41.2453 23.76L42.8651 22.587L42.8651 22.587L41.2453 23.76ZM45.3253 24.52L46.3853 26.216L46.4223 26.1928L46.4583 26.1681L45.3253 24.52ZM46.4853 23.48L47.9966 24.7899L48.0152 24.7684L48.0332 24.7465L46.4853 23.48ZM47.0453 22.96L47.788 24.817L47.8653 24.7861L47.9397 24.7489L47.0453 22.96ZM53.3253 23.08L51.911 24.4942L52.0281 24.6113L52.1628 24.7075L53.3253 23.08ZM52.4053 26.04L50.9056 24.7168L50.8945 24.7293L50.8836 24.7421L52.4053 26.04ZM49.0053 28.4L49.8206 30.2263L49.0053 28.4ZM47.0853 16.48V18.48H49.0853V16.48H47.0853ZM46.1653 13.32L44.5719 14.5288L44.5953 14.5596L44.6198 14.5895L46.1653 13.32ZM41.2053 13.32L39.6382 12.0772L39.6326 12.0844L41.2053 13.32ZM40.3253 16.48H38.3253V18.48H40.3253V16.48ZM43.7253 27.4C40.8938 27.4 38.9141 26.6419 37.5366 25.3442L34.7939 28.2558C37.0964 30.4248 40.1568 31.4 43.7253 31.4V27.4ZM37.5366 25.3442C36.1949 24.0803 35.3559 22.1358 35.2847 19.1916L31.2858 19.2884C31.3746 22.9576 32.4556 26.053 34.7939 28.2558L37.5366 25.3442ZM35.2853 19.24V17.84H31.2853V19.24H35.2853ZM35.2841 17.9078C35.3775 15.1527 36.21 13.2431 37.5877 11.9253L34.8228 9.03472C32.5205 11.2369 31.4063 14.2339 31.2864 17.7722L35.2841 17.9078ZM37.5882 11.9248C39.008 10.5659 40.9671 9.8 43.6853 9.8V5.8C40.1634 5.8 37.1358 6.82081 34.8223 9.03516L37.5882 11.9248ZM43.6853 9.8C45.6796 9.8 47.2074 10.2096 48.3719 10.9124L50.4386 7.48762C48.5098 6.3237 46.2242 5.8 43.6853 5.8V9.8ZM48.4067 10.9329C49.6402 11.6437 50.53 12.6002 51.1246 13.8303L54.726 12.0897C53.7739 10.1198 52.317 8.56962 50.4039 7.46714L48.4067 10.9329ZM51.1364 13.8544C51.7766 15.1348 52.1253 16.66 52.1253 18.48H56.1253C56.1253 16.14 55.6739 13.9852 54.7141 12.0656L51.1364 13.8544ZM52.1253 18.48V19.44H56.1253V18.48H52.1253ZM52.1253 19.44C52.1253 19.3343 52.1448 19.2144 52.1912 19.0951C52.2369 18.9776 52.2957 18.8937 52.3401 18.843L55.3504 21.477C55.8342 20.9241 56.1253 20.2233 56.1253 19.44H52.1253ZM52.4311 18.7458C52.5288 18.6481 52.6553 18.5624 52.8004 18.506C52.9413 18.4512 53.0581 18.44 53.1253 18.44V22.44C53.8844 22.44 54.6544 22.1793 55.2595 21.5742L52.4311 18.7458ZM53.1253 18.44H40.3253V22.44H53.1253V18.44ZM38.3253 20.44V20.72H42.3253V20.44H38.3253ZM38.3271 20.805C38.3919 22.3292 38.7733 23.7563 39.6254 24.933L42.8651 22.587C42.5973 22.217 42.3653 21.6175 42.3235 20.635L38.3271 20.805ZM39.6254 24.933C40.6097 26.2924 42.0642 26.92 43.6853 26.92V22.92C43.173 22.92 43.0008 22.7743 42.8651 22.587L39.6254 24.933ZM43.6853 26.92C44.6079 26.92 45.5531 26.7361 46.3853 26.216L44.2653 22.824C44.2441 22.8372 44.096 22.92 43.6853 22.92V26.92ZM46.4583 26.1681C47.028 25.7764 47.5412 25.3153 47.9966 24.7899L44.9739 22.1701C44.736 22.4447 44.4758 22.6769 44.1922 22.8719L46.4583 26.1681ZM48.0332 24.7465C48.0744 24.6961 48.107 24.6587 48.1313 24.632C48.1562 24.6048 48.1676 24.5943 48.1662 24.5956C48.165 24.5966 48.1587 24.6025 48.1473 24.6119C48.136 24.6212 48.1173 24.6361 48.0913 24.6545C48.046 24.6866 47.9429 24.755 47.788 24.817L46.3025 21.103C45.8951 21.266 45.6005 21.5194 45.4444 21.6644C45.2605 21.8351 45.0901 22.0268 44.9373 22.2135L48.0332 24.7465ZM47.9397 24.7489C47.8616 24.7879 47.7972 24.8105 47.755 24.8232C47.7124 24.8359 47.6839 24.8411 47.6741 24.8428C47.6577 24.8455 47.6832 24.84 47.7653 24.84V20.84C47.3431 20.84 46.7288 20.8822 46.1508 21.1711L47.9397 24.7489ZM47.7653 24.84H52.7253V20.84H47.7653V24.84ZM52.7253 24.84C52.6198 24.84 52.4742 24.8217 52.3125 24.757C52.1484 24.6913 52.0127 24.5959 51.911 24.4942L54.7395 21.6658C54.1799 21.1062 53.46 20.84 52.7253 20.84V24.84ZM52.1628 24.7075C52.0175 24.6037 51.8597 24.441 51.7464 24.2144C51.6347 23.9911 51.6053 23.7838 51.6053 23.64H55.6053C55.6053 22.7894 55.228 21.9813 54.4877 21.4525L52.1628 24.7075ZM51.6053 23.64C51.6053 23.5995 51.6165 23.6654 51.5164 23.8656C51.4155 24.0673 51.2283 24.351 50.9056 24.7168L53.9049 27.3632C54.809 26.3387 55.6053 25.0721 55.6053 23.64H51.6053ZM50.8836 24.7421C50.3614 25.3543 49.5069 25.9858 48.19 26.5737L49.8206 30.2263C51.4903 29.4809 52.9024 28.539 53.9269 27.3379L50.8836 24.7421ZM48.19 26.5737C47.0068 27.1019 45.5363 27.4 43.7253 27.4V31.4C45.9675 31.4 48.017 31.0314 49.8206 30.2263L48.19 26.5737ZM49.0853 16.48V16.4H45.0853V16.48H49.0853ZM49.0853 16.4C49.0853 14.7933 48.707 13.2634 47.7107 12.0505L44.6198 14.5895C44.8502 14.8699 45.0853 15.3933 45.0853 16.4H49.0853ZM47.7586 12.1112C46.7527 10.7853 45.3063 10.16 43.6853 10.16V14.16C44.1976 14.16 44.4044 14.3081 44.5719 14.5288L47.7586 12.1112ZM43.6853 10.16C42.0726 10.16 40.6539 10.7966 39.6383 12.0772L42.7723 14.5628C42.9833 14.2967 43.2179 14.16 43.6853 14.16V10.16ZM39.6326 12.0844C38.6813 13.2951 38.3253 14.8116 38.3253 16.4H42.3253C42.3253 15.375 42.5558 14.8383 42.7779 14.5556L39.6326 12.0844ZM38.3253 16.4V16.48H42.3253V16.4H38.3253ZM40.3253 18.48H47.0853V14.48H40.3253V18.48ZM58.1553 28.72L56.6501 30.037L56.7379 30.1374L56.8382 30.2252L58.1553 28.72ZM58.1553 0.88L56.8382 -0.625151L56.7881 -0.581302L56.741 -0.534217L58.1553 0.88ZM64.3153 0.88L62.901 2.29421L62.901 2.29422L64.3153 0.88ZM58.8753 27C58.9809 27 59.1008 27.0196 59.2202 27.066C59.3377 27.1117 59.4215 27.1704 59.4723 27.2148L56.8382 30.2252C57.3912 30.709 58.092 31 58.8753 31V27ZM59.6604 27.403C59.7048 27.4537 59.7636 27.5376 59.8093 27.6551C59.8557 27.7744 59.8753 27.8943 59.8753 28H55.8753C55.8753 28.7833 56.1663 29.4841 56.6501 30.037L59.6604 27.403ZM59.8753 28V1.6H55.8753V28H59.8753ZM59.8753 1.6C59.8753 1.66713 59.8641 1.78393 59.8093 1.92489C59.7529 2.06996 59.6672 2.19651 59.5695 2.29422L56.741 -0.534217C56.136 0.0708566 55.8753 0.840829 55.8753 1.6H59.8753ZM59.4723 2.38515C59.4215 2.42955 59.3377 2.48831 59.2202 2.53401C59.1008 2.58041 58.9809 2.6 58.8753 2.6V-1.4C58.092 -1.4 57.3912 -1.10897 56.8382 -0.625151L59.4723 2.38515ZM58.8753 2.6H63.5953V-1.4H58.8753V2.6ZM63.5953 2.6C63.5281 2.6 63.4113 2.58882 63.2704 2.53401C63.1253 2.47759 62.9987 2.39192 62.901 2.29421L65.7295 -0.534211C65.1244 -1.13929 64.3544 -1.4 63.5953 -1.4V2.6ZM62.901 2.29422C62.8033 2.19651 62.7177 2.06996 62.6613 1.92489C62.6064 1.78393 62.5953 1.66713 62.5953 1.6H66.5953C66.5953 0.840828 66.3345 0.0708561 65.7295 -0.534217L62.901 2.29422ZM62.5953 1.6V28H66.5953V1.6H62.5953ZM62.5953 28C62.5953 27.9329 62.6064 27.8161 62.6612 27.6751C62.7177 27.53 62.8033 27.4035 62.901 27.3058L65.7295 30.1342C66.3345 29.5291 66.5953 28.7592 66.5953 28H62.5953ZM62.901 27.3058C62.9988 27.2081 63.1253 27.1224 63.2704 27.066C63.4113 27.0112 63.5281 27 63.5953 27V31C64.3544 31 65.1244 30.7393 65.7295 30.1342L62.901 27.3058ZM63.5953 27H58.8753V31H63.5953V27ZM71.5606 27L70.2466 28.5078L70.2528 28.5132L70.259 28.5185L71.5606 27ZM68.5606 20.24L66.5612 20.29L66.5617 20.3112L66.5627 20.3325L68.5606 20.24ZM68.5206 18.64L66.5212 18.5912L66.52 18.6406L66.5212 18.69L68.5206 18.64ZM68.5606 17L66.5619 16.926L66.5615 16.9386L66.5612 16.9512L68.5606 17ZM71.5206 10.24L70.2172 8.72296L70.2066 8.73218L71.5206 10.24ZM84.6006 9.04L83.6578 10.8039L83.6759 10.8135L83.6941 10.8228L84.6006 9.04ZM88.0806 11.96L86.4046 13.0513L86.4194 13.0741L86.4348 13.0964L88.0806 11.96ZM89.3206 15.04L87.3238 15.1541L87.3263 15.1966L87.3305 15.239L89.3206 15.04ZM89.0406 15.76L90.4548 17.1742L90.4548 17.1742L89.0406 15.76ZM82.5606 15.84L83.8409 14.3036L83.8409 14.3036L82.5606 15.84ZM82.1206 15.24L80.2554 15.962L80.2895 16.05L80.3317 16.1344L82.1206 15.24ZM80.8806 13.48L79.7096 15.1014L79.7302 15.1163L79.7512 15.1306L80.8806 13.48ZM75.6006 17.2L73.6014 17.1434L73.6013 17.1474L75.6006 17.2ZM75.5606 18.72L73.5613 18.6674L73.5598 18.724L73.5615 18.7806L75.5606 18.72ZM75.6006 20.04L73.6014 20.1006L73.6019 20.114L75.6006 20.04ZM76.5206 23.24L74.9647 24.4967L74.9912 24.5295L75.0191 24.5613L76.5206 23.24ZM80.9606 23.72L82.1316 25.3414L82.1316 25.3414L80.9606 23.72ZM82.1206 21.96L80.3317 21.0656L80.2768 21.1754L80.2357 21.2912L82.1206 21.96ZM82.5606 21.36L81.2802 19.8236L81.2802 19.8236L82.5606 21.36ZM89.0006 21.44L87.5864 22.8542L87.6869 22.9547L87.8006 23.04L89.0006 21.44ZM88.2006 25.08L86.5246 23.9887L86.5156 24.0025L86.5068 24.0165L88.2006 25.08ZM84.7606 28.12L85.7141 29.8781L85.7255 29.8719L85.7369 29.8655L84.7606 28.12ZM78.8806 27.4C76.2327 27.4 74.2895 26.7049 72.8622 25.4815L70.259 28.5185C72.565 30.4951 75.5018 31.4 78.8806 31.4V27.4ZM72.8745 25.4922C71.4877 24.2836 70.671 22.5797 70.5584 20.1475L66.5627 20.3325C66.7168 23.6603 67.9001 26.463 70.2466 28.5078L72.8745 25.4922ZM70.5599 20.19L70.5199 18.59L66.5212 18.69L66.5612 20.29L70.5599 20.19ZM70.52 18.6888L70.56 17.0488L66.5612 16.9512L66.5212 18.5912L70.52 18.6888ZM70.5592 17.074C70.6491 14.6472 71.4534 12.9514 72.8345 11.7478L70.2066 8.73218C67.8544 10.7819 66.6854 13.5928 66.5619 16.926L70.5592 17.074ZM72.8239 11.757C74.283 10.5034 76.2419 9.8 78.8806 9.8V5.8C75.4925 5.8 72.5448 6.72328 70.2172 8.723L72.8239 11.757ZM78.8806 9.8C80.9118 9.8 82.4737 10.171 83.6578 10.8039L85.5433 7.27614C83.6341 6.25569 81.3827 5.8 78.8806 5.8V9.8ZM83.6941 10.8228C85.0434 11.5088 85.8971 12.2721 86.4046 13.0513L89.7566 10.8687C88.7707 9.3546 87.3045 8.17116 85.5071 7.25723L83.6941 10.8228ZM86.4348 13.0964C87.089 14.0439 87.2989 14.7178 87.3238 15.1541L91.3173 14.9259C91.2356 13.4955 90.6188 12.1161 89.7264 10.8236L86.4348 13.0964ZM87.3305 15.239C87.3138 15.0719 87.3343 14.8809 87.4066 14.6951C87.4762 14.5161 87.5702 14.4019 87.6264 14.3458L90.4548 17.1742C91.0321 16.5969 91.405 15.7844 91.3106 14.841L87.3305 15.239ZM87.6264 14.3458C87.7241 14.2481 87.8506 14.1624 87.9957 14.106C88.1366 14.0512 88.2534 14.04 88.3206 14.04V18.04C89.0797 18.04 89.8497 17.7793 90.4548 17.1742L87.6264 14.3458ZM88.3206 14.04H83.2406V18.04H88.3206V14.04ZM83.2406 14.04C83.2409 14.04 83.307 14.0395 83.4149 14.0713C83.5287 14.1047 83.6845 14.1732 83.8409 14.3036L81.2802 17.3764C81.9218 17.9111 82.6679 18.04 83.2406 18.04V14.04ZM83.8409 14.3036C83.9067 14.3584 83.9383 14.4004 83.9434 14.4073C83.9485 14.4143 83.9354 14.3975 83.9094 14.3456L80.3317 16.1344C80.5392 16.5495 80.8375 17.0075 81.2802 17.3764L83.8409 14.3036ZM83.9857 14.518C83.5817 13.4743 82.9679 12.4848 82.0099 11.8294L79.7512 15.1306C79.8066 15.1685 80.0194 15.3523 80.2554 15.962L83.9857 14.518ZM82.0516 11.8586C81.1398 11.2001 80.0662 10.96 79.0006 10.96V14.96C79.4816 14.96 79.6614 15.0665 79.7096 15.1014L82.0516 11.8586ZM79.0006 10.96C77.4397 10.96 75.9758 11.4899 74.9503 12.7688C73.9962 13.9586 73.6472 15.5234 73.6014 17.1434L77.5998 17.2566C77.6339 16.0499 77.8916 15.4948 78.0709 15.2712C78.1786 15.1368 78.3747 14.96 79.0006 14.96V10.96ZM73.6013 17.1474L73.5613 18.6674L77.5599 18.7726L77.5999 17.2526L73.6013 17.1474ZM73.5615 18.7806L73.6015 20.1006L77.5997 19.9794L77.5597 18.6594L73.5615 18.7806ZM73.6019 20.114C73.6622 21.7403 74.0114 23.3165 74.9647 24.4967L78.0765 21.9833C77.9097 21.7769 77.6456 21.2197 77.5992 19.966L73.6019 20.114ZM75.0191 24.5613C76.0617 25.7459 77.4855 26.24 79.0006 26.24V22.24C78.3824 22.24 78.1528 22.0674 78.022 21.9187L75.0191 24.5613ZM79.0006 26.24C80.0857 26.24 81.1995 26.0145 82.1316 25.3414L79.7896 22.0986C79.7617 22.1188 79.5688 22.24 79.0006 22.24V26.24ZM82.1316 25.3414C83.0641 24.6678 83.6382 23.6638 84.0054 22.6288L80.2357 21.2912C80.0163 21.9096 79.817 22.0788 79.7896 22.0986L82.1316 25.3414ZM83.9094 22.8544C83.9354 22.8025 83.9485 22.7857 83.9434 22.7927C83.9383 22.7996 83.9067 22.8416 83.8409 22.8964L81.2802 19.8236C80.8375 20.1925 80.5392 20.6505 80.3317 21.0656L83.9094 22.8544ZM83.8409 22.8964C83.6845 23.0268 83.5287 23.0953 83.4149 23.1287C83.307 23.1605 83.2409 23.16 83.2406 23.16V19.16C82.6679 19.16 81.9218 19.2889 81.2802 19.8236L83.8409 22.8964ZM83.2406 23.16H88.3206V19.16H83.2406V23.16ZM88.3206 23.16C88.2158 23.16 88.0778 23.1406 87.9291 23.0794C87.78 23.018 87.6652 22.9331 87.5864 22.8542L90.4148 20.0258C89.8488 19.4598 89.1116 19.16 88.3206 19.16V23.16ZM87.8006 23.04C87.6885 22.9559 87.5529 22.8168 87.4517 22.6144C87.3505 22.412 87.3206 22.2201 87.3206 22.08H91.3206C91.3206 21.1838 90.9175 20.3777 90.2006 19.84L87.8006 23.04ZM87.3206 22.08C87.3206 22.377 87.1761 22.9881 86.5246 23.9887L89.8766 26.1713C90.7184 24.8785 91.3206 23.4897 91.3206 22.08H87.3206ZM86.5068 24.0165C86.0144 24.8007 85.1584 25.6059 83.7843 26.3745L85.7369 29.8655C87.5094 28.8741 88.9468 27.6526 89.8944 26.1435L86.5068 24.0165ZM83.807 26.3619C82.6034 27.0147 80.9944 27.4 78.8806 27.4V31.4C81.46 31.4 83.771 30.9319 85.7141 29.8781L83.807 26.3619ZM95.1143 27.04L96.4361 25.539L96.4361 25.539L95.1143 27.04ZM92.1943 20.4L94.1912 20.288L94.19 20.2673L94.1884 20.2466L92.1943 20.4ZM92.1943 16.8L94.1884 16.9534L94.19 16.9332L94.1911 16.913L92.1943 16.8ZM95.1943 10.2L96.4941 11.7201L96.5004 11.7147L96.5067 11.7092L95.1943 10.2ZM110.354 10.2L109.042 11.7092L109.048 11.7147L109.055 11.7201L110.354 10.2ZM113.354 16.8L111.358 16.913L111.359 16.9332L111.36 16.9534L113.354 16.8ZM113.354 20.4L111.36 20.2466L111.359 20.2673L111.357 20.288L113.354 20.4ZM110.434 27.04L109.113 25.539L109.113 25.539L110.434 27.04ZM105.354 23.48L106.91 24.7367L106.922 24.7224L106.933 24.7079L105.354 23.48ZM106.314 20.2L104.324 20.001L104.32 20.046L104.317 20.0911L106.314 20.2ZM106.314 17L104.317 17.1109L104.32 17.155L104.324 17.199L106.314 17ZM105.314 13.76L103.736 14.9879L103.75 15.0058L103.764 15.0233L105.314 13.76ZM99.2343 17L97.2365 16.9075L97.2355 16.9288L97.2349 16.95L99.2343 17ZM99.1943 18.6L97.1949 18.55L97.1937 18.6L97.1949 18.65L99.1943 18.6ZM99.2343 20.2L97.2349 20.25L97.2352 20.2613L97.2356 20.2727L99.2343 20.2ZM100.154 23.48L98.5756 24.7079L98.6009 24.7404L98.6275 24.7719L100.154 23.48ZM102.754 27.4C99.7452 27.4 97.737 26.6846 96.4361 25.539L93.7926 28.541C96.065 30.5421 99.1501 31.4 102.754 31.4V27.4ZM96.4361 25.539C95.1302 24.3891 94.3276 22.7216 94.1912 20.288L90.1975 20.512C90.381 23.7851 91.5251 26.5442 93.7926 28.541L96.4361 25.539ZM94.1884 20.2466C94.1683 19.9849 94.1543 19.4544 94.1543 18.6H90.1543C90.1543 19.4523 90.167 20.1217 90.2002 20.5534L94.1884 20.2466ZM94.1543 18.6C94.1543 17.7456 94.1683 17.2151 94.1884 16.9534L90.2002 16.6466C90.167 17.0783 90.1543 17.7477 90.1543 18.6H94.1543ZM94.1911 16.913C94.326 14.5306 95.1391 12.8787 96.4941 11.7201L93.8946 8.67993C91.5696 10.668 90.3827 13.4161 90.1975 16.687L94.1911 16.913ZM96.5067 11.7092C97.8816 10.5136 99.8833 9.8 102.754 9.8V5.8C99.2253 5.8 96.187 6.68641 93.882 8.69079L96.5067 11.7092ZM102.754 9.8C105.657 9.8 107.67 10.516 109.042 11.7092L111.667 8.69079C109.359 6.68396 106.305 5.8 102.754 5.8V9.8ZM109.055 11.7201C110.41 12.8787 111.223 14.5306 111.358 16.913L115.351 16.687C115.166 13.4161 113.979 10.668 111.654 8.67993L109.055 11.7201ZM111.36 16.9534C111.38 17.2151 111.394 17.7456 111.394 18.6H115.394C115.394 17.7477 115.382 17.0783 115.348 16.6466L111.36 16.9534ZM111.394 18.6C111.394 19.4544 111.38 19.9849 111.36 20.2466L115.348 20.5534C115.382 20.1217 115.394 19.4523 115.394 18.6H111.394ZM111.357 20.288C111.221 22.7216 110.418 24.3891 109.113 25.539L111.756 28.541C114.024 26.5442 115.168 23.7851 115.351 20.512L111.357 20.288ZM109.113 25.539C107.814 26.6823 105.795 27.4 102.754 27.4V31.4C106.38 31.4 109.481 30.5444 111.756 28.541L109.113 25.539ZM102.754 26.52C104.326 26.52 105.858 26.0397 106.91 24.7367L103.798 22.2233C103.731 22.307 103.529 22.52 102.754 22.52V26.52ZM106.933 24.7079C107.854 23.5241 108.222 21.9551 108.311 20.3089L104.317 20.0911C104.247 21.3782 103.975 21.9959 103.776 22.2521L106.933 24.7079ZM108.304 20.399C108.343 20.0167 108.354 19.3836 108.354 18.6H104.354C104.354 19.4164 104.339 19.85 104.324 20.001L108.304 20.399ZM108.354 18.6C108.354 17.8164 108.343 17.1833 108.304 16.801L104.324 17.199C104.339 17.35 104.354 17.7836 104.354 18.6H108.354ZM108.311 16.8891C108.22 15.2451 107.829 13.6801 106.865 12.4967L103.764 15.0233C103.973 15.2799 104.249 15.8749 104.317 17.1109L108.311 16.8891ZM106.893 12.5321C105.859 11.202 104.344 10.68 102.754 10.68V14.68C103.458 14.68 103.65 14.878 103.736 14.9879L106.893 12.5321ZM102.754 10.68C101.174 10.68 99.7043 11.2197 98.6639 12.4967C97.6938 13.6872 97.3127 15.2607 97.2365 16.9075L101.232 17.0925C101.289 15.8593 101.562 15.2728 101.765 15.0233C101.898 14.8603 102.121 14.68 102.754 14.68V10.68ZM97.2349 16.95L97.1949 18.55L101.194 18.65L101.234 17.05L97.2349 16.95ZM97.1949 18.65L97.2349 20.25L101.234 20.15L101.194 18.55L97.1949 18.65ZM97.2356 20.2727C97.2957 21.9239 97.6436 23.5096 98.5756 24.7079L101.733 22.2521C101.545 22.0104 101.28 21.4094 101.233 20.1273L97.2356 20.2727ZM98.6275 24.7719C99.6903 26.0279 101.186 26.52 102.754 26.52V22.52C102.029 22.52 101.792 22.3188 101.681 22.1881L98.6275 24.7719ZM117.647 28.72L116.233 30.1342L116.233 30.1342L117.647 28.72ZM117.647 8.48L119.062 9.89422L119.062 9.89421L117.647 8.48ZM123.447 8.48L122.033 9.89421L122.033 9.89422L123.447 8.48ZM123.727 10.56H121.727V16.4558L125.315 11.7769L123.727 10.56ZM126.167 8.6L127.062 10.3889L127.071 10.3843L127.08 10.3796L126.167 8.6ZM135.727 11.24L133.93 12.1177L135.504 15.3395L137.418 12.308L135.727 11.24ZM138.407 8.76L137.433 7.0136L137.433 7.0136L138.407 8.76ZM147.407 10.04L145.929 11.3867L145.941 11.4005L145.954 11.414L147.407 10.04ZM149.207 28.72L150.622 30.1342L150.669 30.0871L150.713 30.037L149.207 28.72ZM143.087 28.72L141.673 30.1342L141.72 30.1813L141.77 30.2252L143.087 28.72ZM141.967 14.04L140.488 15.3853L140.504 15.4033L140.521 15.421L141.967 14.04ZM137.647 14.08L139.094 15.461L139.109 15.4449L139.124 15.4285L137.647 14.08ZM136.527 28.72L137.942 30.1342L137.989 30.0871L138.033 30.037L136.527 28.72ZM129.287 14.08L127.81 15.4285L127.841 15.4621L127.873 15.4942L129.287 14.08ZM124.967 14.08L123.522 12.6976L123.521 12.699L124.967 14.08ZM123.847 28.72L125.262 30.1342L125.309 30.0871L125.353 30.037L123.847 28.72ZM118.367 27C118.435 27 118.551 27.0112 118.692 27.066C118.837 27.1224 118.964 27.2081 119.062 27.3058L116.233 30.1342C116.838 30.7393 117.608 31 118.367 31V27ZM119.062 27.3058C119.159 27.4035 119.245 27.53 119.301 27.6751C119.356 27.8161 119.367 27.9329 119.367 28H115.367C115.367 28.7592 115.628 29.5291 116.233 30.1342L119.062 27.3058ZM119.367 28V9.2H115.367V28H119.367ZM119.367 9.2C119.367 9.26713 119.356 9.38393 119.301 9.52489C119.245 9.66996 119.159 9.79651 119.062 9.89422L116.233 7.06578C115.628 7.67086 115.367 8.44083 115.367 9.2H119.367ZM119.062 9.89421C118.964 9.99192 118.837 10.0776 118.692 10.134C118.551 10.1888 118.435 10.2 118.367 10.2V6.2C117.608 6.2 116.838 6.46071 116.233 7.06579L119.062 9.89421ZM118.367 10.2H122.727V6.2H118.367V10.2ZM122.727 10.2C122.66 10.2 122.544 10.1888 122.403 10.134C122.257 10.0776 122.131 9.99192 122.033 9.89421L124.862 7.06579C124.257 6.46071 123.487 6.2 122.727 6.2V10.2ZM122.033 9.89422C121.936 9.79651 121.85 9.66996 121.793 9.52489C121.739 9.38393 121.727 9.26713 121.727 9.2H125.727C125.727 8.44083 125.467 7.67086 124.862 7.06578L122.033 9.89422ZM121.727 9.2V10.56H125.727V9.2H121.727ZM125.315 11.7769C125.722 11.2459 126.286 10.7768 127.062 10.3889L125.273 6.81114C124.022 7.43654 122.96 8.27406 122.14 9.34314L125.315 11.7769ZM127.08 10.3796C127.812 10.0045 128.654 9.8 129.647 9.8V5.8C128.081 5.8 126.603 6.12879 125.255 6.82036L127.08 10.3796ZM129.647 9.8C130.857 9.8 131.738 10.036 132.383 10.4007C133.01 10.7559 133.53 11.2977 133.93 12.1177L137.525 10.3623C136.805 8.889 135.751 7.71073 134.352 6.9193C132.97 6.13728 131.371 5.8 129.647 5.8V9.8ZM137.418 12.308C137.863 11.6035 138.499 10.9995 139.382 10.5064L137.433 7.0136C136.023 7.80045 134.872 8.84987 134.036 10.172L137.418 12.308ZM139.382 10.5064C140.232 10.0318 141.124 9.8 142.087 9.8V5.8C140.438 5.8 138.876 6.20817 137.433 7.0136L139.382 10.5064ZM142.087 9.8C143.763 9.8 144.981 10.3465 145.929 11.3867L148.886 8.69334C147.113 6.74683 144.785 5.8 142.087 5.8V9.8ZM145.954 11.414C146.859 12.3705 147.487 13.9879 147.487 16.64H151.487C151.487 13.4255 150.73 10.6428 148.861 8.66598L145.954 11.414ZM147.487 16.64V28H151.487V16.64H147.487ZM147.487 28C147.487 27.8943 147.507 27.7744 147.553 27.6551C147.599 27.5376 147.658 27.4537 147.702 27.403L150.713 30.037C151.196 29.4841 151.487 28.7833 151.487 28H147.487ZM147.793 27.3058C147.891 27.2081 148.017 27.1224 148.163 27.066C148.304 27.0112 148.42 27 148.487 27V31C149.247 31 150.017 30.7393 150.622 30.1342L147.793 27.3058ZM148.487 27H143.847V31H148.487V27ZM143.847 27C143.916 27 144.016 27.0116 144.129 27.0533C144.243 27.0954 144.336 27.1553 144.404 27.2148L141.77 30.2252C142.362 30.7428 143.088 31 143.847 31V27ZM144.502 27.3058C144.599 27.4035 144.685 27.53 144.741 27.6751C144.796 27.8161 144.807 27.9329 144.807 28H140.807C140.807 28.7592 141.068 29.5291 141.673 30.1342L144.502 27.3058ZM144.807 28V16.92H140.807V28H144.807ZM144.807 16.92C144.807 15.3852 144.499 13.7951 143.414 12.659L140.521 15.421C140.556 15.4583 140.807 15.7881 140.807 16.92H144.807ZM143.447 12.6947C142.467 11.6166 141.155 11.16 139.767 11.16V15.16C140.246 15.16 140.401 15.2901 140.488 15.3853L143.447 12.6947ZM139.767 11.16C138.37 11.16 137.121 11.6903 136.17 12.7315L139.124 15.4285C139.294 15.243 139.459 15.16 139.767 15.16V11.16ZM136.201 12.699C135.122 13.8291 134.807 15.3985 134.807 16.92H138.807C138.807 15.8282 139.053 15.5042 139.094 15.461L136.201 12.699ZM134.807 16.92V28H138.807V16.92H134.807ZM134.807 28C134.807 27.8943 134.827 27.7744 134.873 27.6551C134.919 27.5376 134.978 27.4537 135.022 27.403L138.033 30.037C138.516 29.4841 138.807 28.7833 138.807 28H134.807ZM135.113 27.3058C135.211 27.2081 135.337 27.1224 135.483 27.066C135.624 27.0112 135.74 27 135.807 27V31C136.567 31 137.337 30.7393 137.942 30.1342L135.113 27.3058ZM135.807 27H131.167V31H135.807V27ZM131.167 27C131.235 27 131.351 27.0112 131.492 27.066C131.637 27.1224 131.764 27.2081 131.862 27.3058L129.033 30.1342C129.638 30.7393 130.408 31 131.167 31V27ZM131.862 27.3058C131.959 27.4035 132.045 27.53 132.101 27.6751C132.156 27.8161 132.167 27.9329 132.167 28H128.167C128.167 28.7592 128.428 29.5291 129.033 30.1342L131.862 27.3058ZM132.167 28V16.92H128.167V28H132.167ZM132.167 16.92C132.167 15.3783 131.83 13.7945 130.702 12.6658L127.873 15.4942C127.918 15.5388 128.167 15.8483 128.167 16.92H132.167ZM130.764 12.7315C129.801 11.6761 128.532 11.16 127.127 11.16V15.16C127.483 15.16 127.654 15.2573 127.81 15.4285L130.764 12.7315ZM127.127 11.16C125.732 11.16 124.488 11.6874 123.522 12.6976L126.413 15.4624C126.62 15.246 126.817 15.16 127.127 15.16V11.16ZM123.521 12.699C122.448 13.8229 122.127 15.3715 122.127 16.88H126.127C126.127 15.8285 126.367 15.5104 126.414 15.4609L123.521 12.699ZM122.127 16.88V28H126.127V16.88H122.127ZM122.127 28C122.127 27.8943 122.147 27.7744 122.193 27.6551C122.239 27.5376 122.298 27.4537 122.342 27.403L125.353 30.037C125.836 29.4841 126.127 28.7833 126.127 28H122.127ZM122.433 27.3058C122.531 27.2081 122.657 27.1224 122.803 27.066C122.944 27.0112 123.06 27 123.127 27V31C123.887 31 124.657 30.7393 125.262 30.1342L122.433 27.3058ZM123.127 27H118.367V31H123.127V27ZM156.048 26.8L157.419 25.3442L157.419 25.3442L156.048 26.8ZM153.168 19.24H151.168V19.2642L151.169 19.2884L153.168 19.24ZM153.168 17.84L151.169 17.7722L151.168 17.8061V17.84H153.168ZM156.088 10.48L157.471 11.9253L157.471 11.9248L156.088 10.48ZM169.288 9.2L168.255 10.9124L168.272 10.9228L168.289 10.9329L169.288 9.2ZM172.808 12.96L171.007 13.8303L171.013 13.8424L171.019 13.8544L172.808 12.96ZM173.728 20.16L175.142 21.5742L175.189 21.5271L175.233 21.477L173.728 20.16ZM160.208 20.44V18.44H158.208V20.44H160.208ZM160.208 20.72H158.208V20.7625L158.21 20.805L160.208 20.72ZM161.128 23.76L162.748 22.587L162.748 22.587L161.128 23.76ZM165.208 24.52L166.268 26.216L166.305 26.1928L166.341 26.1681L165.208 24.52ZM166.368 23.48L167.879 24.7899L167.898 24.7684L167.916 24.7465L166.368 23.48ZM166.928 22.96L167.671 24.817L167.748 24.7861L167.823 24.7489L166.928 22.96ZM173.208 23.08L171.794 24.4942L171.911 24.6113L172.046 24.7075L173.208 23.08ZM172.288 26.04L170.788 24.7168L170.777 24.7293L170.766 24.7421L172.288 26.04ZM168.888 28.4L169.703 30.2263L168.888 28.4ZM166.968 16.48V18.48H168.968V16.48H166.968ZM166.048 13.32L164.455 14.5288L164.478 14.5596L164.503 14.5895L166.048 13.32ZM161.088 13.32L159.521 12.0772L159.515 12.0844L161.088 13.32ZM160.208 16.48H158.208V18.48H160.208V16.48ZM163.608 27.4C160.777 27.4 158.797 26.6419 157.419 25.3442L154.677 28.2558C156.979 30.4248 160.04 31.4 163.608 31.4V27.4ZM157.419 25.3442C156.078 24.0803 155.239 22.1358 155.167 19.1916L151.169 19.2884C151.257 22.9576 152.338 26.053 154.677 28.2558L157.419 25.3442ZM155.168 19.24V17.84H151.168V19.24H155.168ZM155.167 17.9078C155.26 15.1527 156.093 13.2431 157.471 11.9253L154.706 9.03472C152.403 11.2369 151.289 14.2339 151.169 17.7722L155.167 17.9078ZM157.471 11.9248C158.891 10.5659 160.85 9.8 163.568 9.8V5.8C160.046 5.8 157.019 6.82081 154.705 9.03516L157.471 11.9248ZM163.568 9.8C165.562 9.8 167.09 10.2096 168.255 10.9124L170.321 7.48762C168.393 6.3237 166.107 5.8 163.568 5.8V9.8ZM168.289 10.9329C169.523 11.6437 170.413 12.6002 171.007 13.8303L174.609 12.0897C173.657 10.1198 172.2 8.56962 170.287 7.46714L168.289 10.9329ZM171.019 13.8544C171.659 15.1348 172.008 16.66 172.008 18.48H176.008C176.008 16.14 175.557 13.9852 174.597 12.0656L171.019 13.8544ZM172.008 18.48V19.44H176.008V18.48H172.008ZM172.008 19.44C172.008 19.3343 172.028 19.2144 172.074 19.0951C172.12 18.9776 172.179 18.8937 172.223 18.843L175.233 21.477C175.717 20.9241 176.008 20.2233 176.008 19.44H172.008ZM172.314 18.7458C172.412 18.6481 172.538 18.5624 172.683 18.506C172.824 18.4512 172.941 18.44 173.008 18.44V22.44C173.767 22.44 174.537 22.1793 175.142 21.5742L172.314 18.7458ZM173.008 18.44H160.208V22.44H173.008V18.44ZM158.208 20.44V20.72H162.208V20.44H158.208ZM158.21 20.805C158.275 22.3292 158.656 23.7563 159.508 24.933L162.748 22.587C162.48 22.217 162.248 21.6175 162.206 20.635L158.21 20.805ZM159.508 24.933C160.493 26.2924 161.947 26.92 163.568 26.92V22.92C163.056 22.92 162.884 22.7743 162.748 22.587L159.508 24.933ZM163.568 26.92C164.491 26.92 165.436 26.7361 166.268 26.216L164.148 22.824C164.127 22.8372 163.979 22.92 163.568 22.92V26.92ZM166.341 26.1681C166.911 25.7764 167.424 25.3153 167.879 24.7899L164.857 22.1701C164.619 22.4447 164.359 22.6769 164.075 22.8719L166.341 26.1681ZM167.916 24.7465C167.957 24.6961 167.99 24.6587 168.014 24.632C168.039 24.6048 168.05 24.5943 168.049 24.5956C168.048 24.5966 168.042 24.6025 168.03 24.6119C168.019 24.6212 168 24.6361 167.974 24.6545C167.929 24.6866 167.826 24.755 167.671 24.817L166.185 21.103C165.778 21.266 165.483 21.5194 165.327 21.6644C165.143 21.8351 164.973 22.0268 164.82 22.2135L167.916 24.7465ZM167.823 24.7489C167.744 24.7879 167.68 24.8105 167.638 24.8232C167.595 24.8359 167.567 24.8411 167.557 24.8428C167.54 24.8455 167.566 24.84 167.648 24.84V20.84C167.226 20.84 166.612 20.8822 166.034 21.1711L167.823 24.7489ZM167.648 24.84H172.608V20.84H167.648V24.84ZM172.608 24.84C172.503 24.84 172.357 24.8217 172.195 24.757C172.031 24.6913 171.896 24.5959 171.794 24.4942L174.622 21.6658C174.063 21.1062 173.343 20.84 172.608 20.84V24.84ZM172.046 24.7075C171.9 24.6037 171.743 24.441 171.629 24.2144C171.518 23.9911 171.488 23.7838 171.488 23.64H175.488C175.488 22.7894 175.111 21.9813 174.371 21.4525L172.046 24.7075ZM171.488 23.64C171.488 23.5995 171.499 23.6654 171.399 23.8656C171.298 24.0673 171.111 24.351 170.788 24.7168L173.788 27.3632C174.692 26.3387 175.488 25.0721 175.488 23.64H171.488ZM170.766 24.7421C170.244 25.3543 169.39 25.9858 168.073 26.5737L169.703 30.2263C171.373 29.4809 172.785 28.539 173.81 27.3379L170.766 24.7421ZM168.073 26.5737C166.89 27.1019 165.419 27.4 163.608 27.4V31.4C165.85 31.4 167.9 31.0314 169.703 30.2263L168.073 26.5737ZM168.968 16.48V16.4H164.968V16.48H168.968ZM168.968 16.4C168.968 14.7933 168.59 13.2634 167.594 12.0505L164.503 14.5895C164.733 14.8699 164.968 15.3933 164.968 16.4H168.968ZM167.641 12.1112C166.636 10.7853 165.189 10.16 163.568 10.16V14.16C164.08 14.16 164.287 14.3081 164.455 14.5288L167.641 12.1112ZM163.568 10.16C161.955 10.16 160.537 10.7966 159.521 12.0772L162.655 14.5628C162.866 14.2967 163.101 14.16 163.568 14.16V10.16ZM159.515 12.0844C158.564 13.2951 158.208 14.8116 158.208 16.4H162.208C162.208 15.375 162.439 14.8383 162.661 14.5556L159.515 12.0844ZM158.208 16.4V16.48H162.208V16.4H158.208ZM160.208 18.48H166.968V14.48H160.208V18.48ZM192.216 28.72L190.711 30.037L190.799 30.1374L190.899 30.2252L192.216 28.72ZM191.936 7.28H193.936V5.28H191.936V7.28ZM184.096 7L182.591 8.31701L182.679 8.41735L182.779 8.50516L184.096 7ZM184.096 1.28L182.779 -0.225152L182.729 -0.181302L182.682 -0.134217L184.096 1.28ZM207.056 7L208.47 8.41422L208.47 8.41421L207.056 7ZM199.216 7.28V5.28H197.216V7.28H199.216ZM198.936 28.72L200.35 30.1342L200.397 30.0871L200.441 30.037L198.936 28.72ZM192.936 27C193.042 27 193.162 27.0196 193.281 27.066C193.399 27.1117 193.482 27.1704 193.533 27.2148L190.899 30.2252C191.452 30.709 192.153 31 192.936 31V27ZM193.721 27.403C193.766 27.4537 193.825 27.5376 193.87 27.6551C193.917 27.7744 193.936 27.8943 193.936 28H189.936C189.936 28.7833 190.227 29.4841 190.711 30.037L193.721 27.403ZM193.936 28V7.28H189.936V28H193.936ZM191.936 5.28H184.816V9.28H191.936V5.28ZM184.816 5.28C184.922 5.28 185.042 5.29958 185.161 5.34599C185.279 5.39168 185.362 5.45044 185.413 5.49484L182.779 8.50516C183.332 8.98897 184.033 9.28 184.816 9.28V5.28ZM185.601 5.68299C185.646 5.73374 185.705 5.8176 185.75 5.93511C185.797 6.05443 185.816 6.17433 185.816 6.28H181.816C181.816 7.0633 182.107 7.76407 182.591 8.31701L185.601 5.68299ZM185.816 6.28V2H181.816V6.28H185.816ZM185.816 2C185.816 2.06713 185.805 2.18393 185.75 2.32489C185.694 2.46996 185.608 2.59651 185.51 2.69422L182.682 -0.134217C182.077 0.470858 181.816 1.24083 181.816 2H185.816ZM185.413 2.78515C185.362 2.82955 185.279 2.88831 185.161 2.93401C185.042 2.98041 184.922 3 184.816 3V-1C184.033 -1 183.332 -0.708974 182.779 -0.225152L185.413 2.78515ZM184.816 3H206.336V-1H184.816V3ZM206.336 3C206.269 3 206.152 2.98882 206.011 2.93401C205.866 2.87759 205.74 2.79192 205.642 2.69421L208.47 -0.134214C207.865 -0.739286 207.095 -1 206.336 -1V3ZM205.642 2.69421C205.544 2.5965 205.459 2.46995 205.402 2.32489C205.347 2.18393 205.336 2.06713 205.336 2H209.336C209.336 1.24083 209.075 0.470861 208.47 -0.134214L205.642 2.69421ZM205.336 2V6.28H209.336V2H205.336ZM205.336 6.28C205.336 6.21287 205.347 6.09607 205.402 5.95511C205.459 5.81005 205.544 5.6835 205.642 5.58579L208.47 8.41421C209.075 7.80913 209.336 7.03917 209.336 6.28H205.336ZM205.642 5.58578C205.74 5.48808 205.866 5.4024 206.011 5.34599C206.152 5.29117 206.269 5.28 206.336 5.28V9.28C207.095 9.28 207.865 9.01929 208.47 8.41422L205.642 5.58578ZM206.336 5.28H199.216V9.28H206.336V5.28ZM197.216 7.28V28H201.216V7.28H197.216ZM197.216 28C197.216 27.8943 197.236 27.7744 197.282 27.6551C197.328 27.5376 197.387 27.4537 197.431 27.403L200.441 30.037C200.925 29.4841 201.216 28.7833 201.216 28H197.216ZM197.522 27.3058C197.62 27.2081 197.746 27.1224 197.891 27.066C198.032 27.0112 198.149 27 198.216 27V31C198.975 31 199.745 30.7393 200.35 30.1342L197.522 27.3058ZM198.216 27H192.936V31H198.216V27ZM208.741 28.72L207.327 30.1342L207.327 30.1342L208.741 28.72ZM208.741 8.48L210.155 9.89422L210.155 9.89421L208.741 8.48ZM214.781 8.52L213.276 9.83701L213.364 9.93735L213.464 10.0251L214.781 8.52ZM215.101 10.8H213.101V16.2599L216.628 12.0919L215.101 10.8ZM223.501 8.48L222.087 9.89421L222.087 9.89422L223.501 8.48ZM223.501 14.04L224.915 15.4542L224.963 15.4071L225.006 15.357L223.501 14.04ZM216.341 15.24L217.755 16.6542L217.755 16.6542L216.341 15.24ZM215.141 28.72L213.824 27.2148L213.774 27.2587L213.727 27.3058L215.141 28.72ZM209.461 27C209.528 27 209.645 27.0112 209.786 27.066C209.931 27.1224 210.058 27.2081 210.155 27.3058L207.327 30.1342C207.932 30.7393 208.702 31 209.461 31V27ZM210.155 27.3058C210.253 27.4035 210.339 27.53 210.395 27.6751C210.45 27.8161 210.461 27.9329 210.461 28H206.461C206.461 28.7592 206.722 29.5291 207.327 30.1342L210.155 27.3058ZM210.461 28V9.2H206.461V28H210.461ZM210.461 9.2C210.461 9.26713 210.45 9.38393 210.395 9.52489C210.339 9.66996 210.253 9.79651 210.155 9.89422L207.327 7.06578C206.722 7.67086 206.461 8.44083 206.461 9.2H210.461ZM210.155 9.89421C210.058 9.99192 209.931 10.0776 209.786 10.134C209.645 10.1888 209.528 10.2 209.461 10.2V6.2C208.702 6.2 207.932 6.46071 207.327 7.06579L210.155 9.89421ZM209.461 10.2H214.061V6.2H209.461V10.2ZM214.061 10.2C213.961 10.2 213.813 10.1806 213.649 10.1076C213.483 10.0339 213.358 9.93121 213.276 9.83701L216.286 7.20299C215.705 6.53867 214.908 6.2 214.061 6.2V10.2ZM213.464 10.0251C213.391 9.96078 213.29 9.84856 213.212 9.68159C213.132 9.51154 213.101 9.3417 213.101 9.2H217.101C217.101 8.31664 216.715 7.55416 216.098 7.01485L213.464 10.0251ZM213.101 9.2V10.8H217.101V9.2H213.101ZM216.628 12.0919C217.677 10.8525 219.068 10.2 221.021 10.2V6.2C218.014 6.2 215.459 7.28082 213.574 9.50812L216.628 12.0919ZM221.021 10.2H222.781V6.2H221.021V10.2ZM222.781 10.2C222.714 10.2 222.597 10.1888 222.456 10.134C222.311 10.0776 222.185 9.99192 222.087 9.89421L224.915 7.06579C224.31 6.46071 223.54 6.2 222.781 6.2V10.2ZM222.087 9.89422C221.989 9.79651 221.904 9.66996 221.847 9.52489C221.792 9.38393 221.781 9.26713 221.781 9.2H225.781C225.781 8.44083 225.52 7.67086 224.915 7.06578L222.087 9.89422ZM221.781 9.2V13.32H225.781V9.2H221.781ZM221.781 13.32C221.781 13.2143 221.801 13.0944 221.847 12.9751C221.893 12.8576 221.952 12.7737 221.996 12.723L225.006 15.357C225.49 14.8041 225.781 14.1033 225.781 13.32H221.781ZM222.087 12.6258C222.185 12.5281 222.311 12.4424 222.456 12.386C222.597 12.3312 222.714 12.32 222.781 12.32V16.32C223.54 16.32 224.31 16.0593 224.915 15.4542L222.087 12.6258ZM222.781 12.32H218.901V16.32H222.781V12.32ZM218.901 12.32C217.423 12.32 216.007 12.7457 214.927 13.8258L217.755 16.6542C217.902 16.5077 218.193 16.32 218.901 16.32V12.32ZM214.927 13.8258C213.857 14.8953 213.461 16.3111 213.461 17.76H217.461C217.461 17.0222 217.652 16.758 217.755 16.6542L214.927 13.8258ZM213.461 17.76V28H217.461V17.76H213.461ZM213.461 28C213.461 27.8997 213.481 27.7518 213.554 27.5877C213.627 27.4219 213.73 27.2973 213.824 27.2148L216.458 30.2252C217.123 29.6439 217.461 28.8471 217.461 28H213.461ZM213.727 27.3058C213.825 27.2081 213.951 27.1224 214.096 27.066C214.237 27.0112 214.354 27 214.421 27V31C215.18 31 215.95 30.7393 216.555 30.1342L213.727 27.3058ZM214.421 27H209.461V31H214.421V27ZM228.634 28.6L227.756 30.3971L227.781 30.4093L227.806 30.4207L228.634 28.6ZM225.914 26.36L224.25 27.4694L224.267 27.4962L224.286 27.5225L225.914 26.36ZM227.194 18.76L226.007 17.1499L226 17.1549L225.994 17.16L227.194 18.76ZM233.434 16.44L233.133 14.4627L233.124 14.4641L233.115 14.4656L233.434 16.44ZM238.434 15.68L238.734 17.6573L240.434 17.399V15.68H238.434ZM237.794 12.88L236.299 14.2087L236.299 14.2087L237.794 12.88ZM234.114 12.48L235.055 14.2447L235.055 14.2447L234.114 12.48ZM232.874 13.36L234.175 14.8785L234.183 14.8719L234.191 14.8652L232.874 13.36ZM232.034 14L231.041 12.2635L230.415 12.6217L230.161 13.2978L232.034 14ZM226.554 14.08L225.035 15.3816L225.135 15.4984L225.252 15.5985L226.554 14.08ZM226.354 13.44L228.341 13.6609L228.35 13.5876L228.352 13.514L226.354 13.44ZM227.394 11.04L225.823 9.80225L225.811 9.81716L225.8 9.83228L227.394 11.04ZM230.514 8.76L229.689 6.93809L229.682 6.94106L229.676 6.94408L230.514 8.76ZM242.994 10L241.63 11.4629L241.637 11.4692L241.643 11.4753L242.994 10ZM245.074 28.72L246.488 30.1342L246.535 30.0871L246.579 30.037L245.074 28.72ZM238.994 28.72L237.489 30.037L237.576 30.1374L237.677 30.2252L238.994 28.72ZM238.714 26.6H240.714V20.3261L237.083 25.4425L238.714 26.6ZM236.234 28.64L237.11 30.438L237.119 30.4335L237.128 30.4289L236.234 28.64ZM237.354 23.64L235.916 22.25L235.904 22.2626L235.892 22.2754L237.354 23.64ZM238.514 19.56H240.514V17.1762L238.166 17.5904L238.514 19.56ZM235.114 20.16L234.766 18.1904L234.764 18.1909L235.114 20.16ZM232.354 24.28L231.191 25.9075L231.217 25.9262L231.244 25.9441L232.354 24.28ZM232.514 27.4C231.358 27.4 230.351 27.1835 229.461 26.7793L227.806 30.4207C229.264 31.0832 230.843 31.4 232.514 31.4V27.4ZM229.511 26.8029C228.629 26.3721 227.994 25.8308 227.541 25.1975L224.286 27.5225C225.167 28.7558 226.345 29.7079 227.756 30.3971L229.511 26.8029ZM227.578 25.2506C227.155 24.617 226.954 23.9492 226.954 23.2H222.954C222.954 24.7441 223.392 26.183 224.25 27.4694L227.578 25.2506ZM226.954 23.2C226.954 22.0002 227.395 21.1087 228.394 20.36L225.994 17.16C224.005 18.6513 222.954 20.7198 222.954 23.2H226.954ZM228.38 20.3701C229.56 19.5007 231.304 18.8101 233.753 18.4144L233.115 14.4656C230.283 14.9232 227.867 15.7793 226.007 17.1499L228.38 20.3701ZM233.734 18.4173L238.734 17.6573L238.133 13.7027L233.133 14.4627L233.734 18.4173ZM240.434 15.68V15.12H236.434V15.68H240.434ZM240.434 15.12C240.434 13.8862 240.184 12.5582 239.289 11.5513L236.299 14.2087C236.275 14.1824 236.309 14.2053 236.351 14.3494C236.393 14.4993 236.434 14.746 236.434 15.12H240.434ZM239.289 11.5513C238.31 10.4499 236.893 10.16 235.634 10.16V14.16C235.993 14.16 236.201 14.2038 236.301 14.2374C236.39 14.2668 236.357 14.2745 236.299 14.2087L239.289 11.5513ZM235.634 10.16C234.803 10.16 233.946 10.3026 233.173 10.7153L235.055 14.2447C235.081 14.2307 235.238 14.16 235.634 14.16V10.16ZM233.173 10.7153C232.609 11.0158 232.071 11.4048 231.557 11.8548L234.191 14.8652C234.53 14.5685 234.818 14.3709 235.055 14.2447L233.173 10.7153ZM231.572 11.8415C231.404 11.9855 231.272 12.0928 231.172 12.1691C231.064 12.2515 231.026 12.2724 231.041 12.2635L233.026 15.7365C233.392 15.5274 233.796 15.2033 234.175 14.8785L231.572 11.8415ZM230.161 13.2978C230.223 13.1316 230.372 12.8522 230.687 12.6225C231.013 12.3856 231.355 12.32 231.594 12.32V16.32C232.046 16.32 232.568 16.2011 233.04 15.8575C233.502 15.5212 233.764 15.0817 233.906 14.7022L230.161 13.2978ZM231.594 12.32H227.234V16.32H231.594V12.32ZM227.234 12.32C227.302 12.32 227.407 12.3308 227.529 12.374C227.654 12.4181 227.765 12.4845 227.855 12.5615L225.252 15.5985C225.833 16.0964 226.533 16.32 227.234 16.32V12.32ZM228.072 12.7784C228.151 12.8704 228.237 13.0062 228.293 13.1834C228.348 13.3615 228.356 13.5283 228.341 13.6609L224.366 13.2191C224.277 14.0209 224.522 14.783 225.035 15.3816L228.072 12.7784ZM228.352 13.514C228.358 13.37 228.446 12.9633 228.988 12.2477L225.8 9.83228C225.008 10.8767 224.403 12.07 224.355 13.366L228.352 13.514ZM228.965 12.2777C229.405 11.7189 230.153 11.1293 231.352 10.5759L229.676 6.94408C228.101 7.67068 226.769 8.60112 225.823 9.80225L228.965 12.2777ZM231.339 10.5819C232.423 10.0907 233.857 9.8 235.714 9.8V5.8C233.463 5.8 231.431 6.14926 229.689 6.93809L231.339 10.5819ZM235.714 9.8C238.746 9.8 240.58 10.4843 241.63 11.4629L244.357 8.53706C242.261 6.58234 239.242 5.8 235.714 5.8V9.8ZM241.643 11.4753C242.739 12.4781 243.354 13.8551 243.354 15.84H247.354C247.354 12.9183 246.395 10.4019 244.344 8.52465L241.643 11.4753ZM243.354 15.84V28H247.354V15.84H243.354ZM243.354 28C243.354 27.8943 243.373 27.7744 243.42 27.6551C243.465 27.5376 243.524 27.4537 243.569 27.403L246.579 30.037C247.063 29.4841 247.354 28.7833 247.354 28H243.354ZM243.659 27.3058C243.757 27.2081 243.884 27.1224 244.029 27.066C244.17 27.0112 244.287 27 244.354 27V31C245.113 31 245.883 30.7393 246.488 30.1342L243.659 27.3058ZM244.354 27H239.714V31H244.354V27ZM239.714 27C239.819 27 239.939 27.0196 240.059 27.066C240.176 27.1117 240.26 27.1704 240.311 27.2148L237.677 30.2252C238.23 30.709 238.93 31 239.714 31V27ZM240.499 27.403C240.543 27.4537 240.602 27.5376 240.648 27.6551C240.694 27.7744 240.714 27.8943 240.714 28H236.714C236.714 28.7833 237.005 29.4841 237.489 30.037L240.499 27.403ZM240.714 28V26.6H236.714V28H240.714ZM237.083 25.4425C236.717 25.9579 236.164 26.4387 235.339 26.8511L237.128 30.4289C238.437 29.7746 239.537 28.8955 240.345 27.7575L237.083 25.4425ZM235.358 26.842C234.649 27.1873 233.723 27.4 232.514 27.4V31.4C234.185 31.4 235.738 31.1061 237.11 30.438L235.358 26.842ZM234.394 26.84C236.101 26.84 237.643 26.2611 238.816 25.0046L235.892 22.2754C235.571 22.6189 235.14 22.84 234.394 22.84V26.84ZM238.792 25.03C240.046 23.732 240.514 21.9805 240.514 20.12H236.514C236.514 21.3528 236.208 21.948 235.916 22.25L238.792 25.03ZM240.514 20.12V19.56H236.514V20.12H240.514ZM238.166 17.5904L234.766 18.1904L235.461 22.1296L238.861 21.5296L238.166 17.5904ZM234.764 18.1909C233.443 18.4256 232.213 18.8093 231.267 19.4715C230.236 20.1933 229.514 21.2838 229.514 22.68H233.514C233.514 22.7015 233.504 22.759 233.474 22.8122C233.45 22.8545 233.451 22.8252 233.561 22.7485C233.815 22.5707 234.384 22.3211 235.464 22.1291L234.764 18.1909ZM229.514 22.68C229.514 24.0169 230.126 25.1464 231.191 25.9075L233.516 22.6525C233.483 22.629 233.472 22.616 233.473 22.6171C233.473 22.6175 233.476 22.6207 233.48 22.6268C233.485 22.6329 233.49 22.6409 233.494 22.6503C233.499 22.6598 233.504 22.6695 233.507 22.6788C233.511 22.688 233.513 22.6955 233.514 22.7005C233.516 22.7112 233.514 22.7061 233.514 22.68H229.514ZM231.244 25.9441C232.191 26.575 233.275 26.84 234.394 26.84V22.84C233.913 22.84 233.637 22.7316 233.463 22.6159L231.244 25.9441ZM255.802 28.76L254.387 30.1742L254.488 30.2747L254.602 30.36L255.802 28.76ZM255.322 28L253.469 28.7545L253.472 28.7619L253.475 28.7692L255.322 28ZM247.762 9.44L245.809 9.87386L245.846 10.0384L245.909 10.1945L247.762 9.44ZM247.682 9.08H245.682V9.29954L245.729 9.51386L247.682 9.08ZM247.922 8.48L249.336 9.89422L249.336 9.89421L247.922 8.48ZM254.282 9.04L252.384 9.67246L252.394 9.70181L252.405 9.73084L254.282 9.04ZM258.802 21.32L256.925 22.0108L258.793 27.0876L260.676 22.0162L258.802 21.32ZM263.362 9.04L265.236 9.73622L265.248 9.70453L265.259 9.67245L263.362 9.04ZM269.682 8.48L268.267 9.89421L268.322 9.94853L268.38 9.99852L269.682 8.48ZM269.962 9.08L271.914 9.51387L271.962 9.29955V9.08H269.962ZM269.882 9.44L271.734 10.1945L271.797 10.0384L271.834 9.87387L269.882 9.44ZM262.322 28L264.168 28.7692L264.171 28.7619L264.174 28.7545L262.322 28ZM261.802 28.76L263.002 30.36L263.062 30.3148L263.119 30.2652L261.802 28.76ZM256.682 27C256.572 27 256.754 26.9746 257.002 27.16L254.602 30.36C255.275 30.8654 256.044 31 256.682 31V27ZM257.216 27.3458C257.24 27.3702 257.244 27.3799 257.232 27.362C257.221 27.3438 257.198 27.3027 257.168 27.2308L253.475 28.7692C253.679 29.2586 253.968 29.7548 254.387 30.1742L257.216 27.3458ZM257.174 27.2455L249.614 8.68553L245.909 10.1945L253.469 28.7545L257.174 27.2455ZM249.714 9.00614L249.634 8.64614L245.729 9.51386L245.809 9.87386L249.714 9.00614ZM249.682 9.08C249.682 9.18543 249.663 9.33103 249.598 9.49278C249.533 9.65687 249.437 9.79253 249.336 9.89422L246.507 7.06578C245.948 7.62538 245.682 8.34528 245.682 9.08H249.682ZM249.336 9.89421C249.257 9.97308 249.142 10.058 248.993 10.1194C248.844 10.1806 248.706 10.2 248.602 10.2V6.2C247.81 6.2 247.073 6.49979 246.507 7.06579L249.336 9.89421ZM248.602 10.2H253.122V6.2H248.602V10.2ZM253.122 10.2C253.092 10.2 252.898 10.1888 252.678 10.0299C252.46 9.87169 252.391 9.69416 252.384 9.67246L256.179 8.40754C255.985 7.82584 255.63 7.2283 255.025 6.79011C254.418 6.35116 253.738 6.2 253.122 6.2V10.2ZM252.405 9.73084L256.925 22.0108L260.678 20.6292L256.158 8.34916L252.405 9.73084ZM260.676 22.0162L265.236 9.73622L261.487 8.34378L256.927 20.6238L260.676 22.0162ZM265.259 9.67245C265.252 9.69416 265.183 9.87169 264.965 10.0299C264.745 10.1888 264.551 10.2 264.522 10.2V6.2C263.905 6.2 263.225 6.35116 262.618 6.79011C262.013 7.2283 261.658 7.82584 261.464 8.40754L265.259 9.67245ZM264.522 10.2H269.042V6.2H264.522V10.2ZM269.042 10.2C268.894 10.2 268.734 10.1697 268.58 10.1023C268.43 10.0366 268.327 9.95382 268.267 9.89421L271.096 7.06579C270.575 6.54523 269.867 6.2 269.042 6.2V10.2ZM268.38 9.99852C268.282 9.91442 268.166 9.78184 268.079 9.59577C267.992 9.40843 267.962 9.22634 267.962 9.08H271.962C271.962 8.23998 271.601 7.4908 270.983 6.96148L268.38 9.99852ZM268.009 8.64613L267.929 9.00613L271.834 9.87387L271.914 9.51387L268.009 8.64613ZM268.029 8.68553L260.469 27.2455L264.174 28.7545L271.734 10.1945L268.029 8.68553ZM260.475 27.2308C260.455 27.2803 260.441 27.3004 260.441 27.3006C260.441 27.3006 260.441 27.3003 260.442 27.2997C260.442 27.2991 260.443 27.2982 260.444 27.2971C260.445 27.2948 260.448 27.2914 260.452 27.2873C260.459 27.2788 260.47 27.2676 260.485 27.2548L263.119 30.2652C263.608 29.837 263.942 29.3099 264.168 28.7692L260.475 27.2308ZM260.602 27.16C260.849 26.9746 261.031 27 260.922 27V31C261.559 31 262.328 30.8654 263.002 30.36L260.602 27.16ZM260.922 27H256.682V31H260.922V27ZM274.329 26.8L275.701 25.3442L275.701 25.3442L274.329 26.8ZM271.449 19.24H269.449V19.2642L269.45 19.2884L271.449 19.24ZM271.449 17.84L269.45 17.7722L269.449 17.8061V17.84H271.449ZM274.369 10.48L275.752 11.9253L275.752 11.9248L274.369 10.48ZM287.569 9.2L286.536 10.9124L286.553 10.9228L286.571 10.9329L287.569 9.2ZM291.089 12.96L289.289 13.8303L289.294 13.8424L289.3 13.8544L291.089 12.96ZM292.009 20.16L293.424 21.5742L293.471 21.5271L293.514 21.477L292.009 20.16ZM278.489 20.44V18.44H276.489V20.44H278.489ZM278.489 20.72H276.489V20.7625L276.491 20.805L278.489 20.72ZM279.409 23.76L281.029 22.587L281.029 22.587L279.409 23.76ZM283.489 24.52L284.549 26.216L284.586 26.1928L284.622 26.1681L283.489 24.52ZM284.649 23.48L286.161 24.7899L286.179 24.7684L286.197 24.7465L284.649 23.48ZM285.209 22.96L285.952 24.817L286.029 24.7861L286.104 24.7489L285.209 22.96ZM291.489 23.08L290.075 24.4942L290.192 24.6113L290.327 24.7075L291.489 23.08ZM290.569 26.04L289.07 24.7168L289.059 24.7293L289.048 24.7421L290.569 26.04ZM287.169 28.4L287.985 30.2263L287.169 28.4ZM285.249 16.48V18.48H287.249V16.48H285.249ZM284.329 13.32L282.736 14.5288L282.759 14.5596L282.784 14.5895L284.329 13.32ZM279.369 13.32L277.802 12.0772L277.797 12.0844L279.369 13.32ZM278.489 16.48H276.489V18.48H278.489V16.48ZM281.889 27.4C279.058 27.4 277.078 26.6419 275.701 25.3442L272.958 28.2558C275.26 30.4248 278.321 31.4 281.889 31.4V27.4ZM275.701 25.3442C274.359 24.0803 273.52 22.1358 273.449 19.1916L269.45 19.2884C269.539 22.9576 270.62 26.053 272.958 28.2558L275.701 25.3442ZM273.449 19.24V17.84H269.449V19.24H273.449ZM273.448 17.9078C273.542 15.1527 274.374 13.2431 275.752 11.9253L272.987 9.03472C270.685 11.2369 269.57 14.2339 269.45 17.7722L273.448 17.9078ZM275.752 11.9248C277.172 10.5659 279.131 9.8 281.849 9.8V5.8C278.327 5.8 275.3 6.82081 272.986 9.03516L275.752 11.9248ZM281.849 9.8C283.844 9.8 285.371 10.2096 286.536 10.9124L288.603 7.48762C286.674 6.3237 284.388 5.8 281.849 5.8V9.8ZM286.571 10.9329C287.804 11.6437 288.694 12.6002 289.289 13.8303L292.89 12.0897C291.938 10.1198 290.481 8.56962 288.568 7.46714L286.571 10.9329ZM289.3 13.8544C289.941 15.1348 290.289 16.66 290.289 18.48H294.289C294.289 16.14 293.838 13.9852 292.878 12.0656L289.3 13.8544ZM290.289 18.48V19.44H294.289V18.48H290.289ZM290.289 19.44C290.289 19.3343 290.309 19.2144 290.355 19.0951C290.401 18.9776 290.46 18.8937 290.504 18.843L293.514 21.477C293.998 20.9241 294.289 20.2233 294.289 19.44H290.289ZM290.595 18.7458C290.693 18.6481 290.819 18.5624 290.964 18.506C291.105 18.4512 291.222 18.44 291.289 18.44V22.44C292.048 22.44 292.818 22.1793 293.424 21.5742L290.595 18.7458ZM291.289 18.44H278.489V22.44H291.289V18.44ZM276.489 20.44V20.72H280.489V20.44H276.489ZM276.491 20.805C276.556 22.3292 276.937 23.7563 277.789 24.933L281.029 22.587C280.761 22.217 280.529 21.6175 280.488 20.635L276.491 20.805ZM277.789 24.933C278.774 26.2924 280.228 26.92 281.849 26.92V22.92C281.337 22.92 281.165 22.7743 281.029 22.587L277.789 24.933ZM281.849 26.92C282.772 26.92 283.717 26.7361 284.549 26.216L282.429 22.824C282.408 22.8372 282.26 22.92 281.849 22.92V26.92ZM284.622 26.1681C285.192 25.7764 285.705 25.3153 286.161 24.7899L283.138 22.1701C282.9 22.4447 282.64 22.6769 282.356 22.8719L284.622 26.1681ZM286.197 24.7465C286.238 24.6961 286.271 24.6587 286.295 24.632C286.32 24.6048 286.332 24.5943 286.33 24.5956C286.329 24.5966 286.323 24.6025 286.311 24.6119C286.3 24.6212 286.281 24.6361 286.255 24.6545C286.21 24.6866 286.107 24.755 285.952 24.817L284.467 21.103C284.059 21.266 283.765 21.5194 283.608 21.6644C283.425 21.8351 283.254 22.0268 283.101 22.2135L286.197 24.7465ZM286.104 24.7489C286.026 24.7879 285.961 24.8105 285.919 24.8232C285.876 24.8359 285.848 24.8411 285.838 24.8428C285.822 24.8455 285.847 24.84 285.929 24.84V20.84C285.507 20.84 284.893 20.8822 284.315 21.1711L286.104 24.7489ZM285.929 24.84H290.889V20.84H285.929V24.84ZM290.889 24.84C290.784 24.84 290.638 24.8217 290.477 24.757C290.312 24.6913 290.177 24.5959 290.075 24.4942L292.904 21.6658C292.344 21.1062 291.624 20.84 290.889 20.84V24.84ZM290.327 24.7075C290.182 24.6037 290.024 24.441 289.91 24.2144C289.799 23.9911 289.769 23.7838 289.769 23.64H293.769C293.769 22.7894 293.392 21.9813 292.652 21.4525L290.327 24.7075ZM289.769 23.64C289.769 23.5995 289.781 23.6654 289.68 23.8656C289.58 24.0673 289.392 24.351 289.07 24.7168L292.069 27.3632C292.973 26.3387 293.769 25.0721 293.769 23.64H289.769ZM289.048 24.7421C288.526 25.3543 287.671 25.9858 286.354 26.5737L287.985 30.2263C289.654 29.4809 291.066 28.539 292.091 27.3379L289.048 24.7421ZM286.354 26.5737C285.171 27.1019 283.7 27.4 281.889 27.4V31.4C284.132 31.4 286.181 31.0314 287.985 30.2263L286.354 26.5737ZM287.249 16.48V16.4H283.249V16.48H287.249ZM287.249 16.4C287.249 14.7933 286.871 13.2634 285.875 12.0505L282.784 14.5895C283.014 14.8699 283.249 15.3933 283.249 16.4H287.249ZM285.923 12.1112C284.917 10.7853 283.47 10.16 281.849 10.16V14.16C282.362 14.16 282.569 14.3081 282.736 14.5288L285.923 12.1112ZM281.849 10.16C280.237 10.16 278.818 10.7966 277.802 12.0772L280.936 14.5628C281.147 14.2967 281.382 14.16 281.849 14.16V10.16ZM277.797 12.0844C276.845 13.2951 276.489 14.8116 276.489 16.4H280.489C280.489 15.375 280.72 14.8383 280.942 14.5556L277.797 12.0844ZM276.489 16.4V16.48H280.489V16.4H276.489ZM278.489 18.48H285.249V14.48H278.489V18.48ZM296.319 28.72L294.814 30.037L294.902 30.1374L295.002 30.2252L296.319 28.72ZM296.319 0.88L295.002 -0.625151L294.952 -0.581302L294.905 -0.534217L296.319 0.88ZM302.479 0.88L301.065 2.29421L301.065 2.29422L302.479 0.88ZM297.039 27C297.145 27 297.265 27.0196 297.384 27.066C297.502 27.1117 297.586 27.1704 297.636 27.2148L295.002 30.2252C295.555 30.709 296.256 31 297.039 31V27ZM297.824 27.403C297.869 27.4537 297.928 27.5376 297.973 27.6551C298.02 27.7744 298.039 27.8943 298.039 28H294.039C294.039 28.7833 294.33 29.4841 294.814 30.037L297.824 27.403ZM298.039 28V1.6H294.039V28H298.039ZM298.039 1.6C298.039 1.66713 298.028 1.78393 297.973 1.92489C297.917 2.06996 297.831 2.19651 297.734 2.29422L294.905 -0.534217C294.3 0.0708566 294.039 0.840829 294.039 1.6H298.039ZM297.636 2.38515C297.586 2.42955 297.502 2.48831 297.384 2.53401C297.265 2.58041 297.145 2.6 297.039 2.6V-1.4C296.256 -1.4 295.555 -1.10897 295.002 -0.625151L297.636 2.38515ZM297.039 2.6H301.759V-1.4H297.039V2.6ZM301.759 2.6C301.692 2.6 301.575 2.58882 301.434 2.53401C301.289 2.47759 301.163 2.39192 301.065 2.29421L303.894 -0.534211C303.288 -1.13929 302.518 -1.4 301.759 -1.4V2.6ZM301.065 2.29422C300.967 2.19651 300.882 2.06996 300.825 1.92489C300.77 1.78393 300.759 1.66713 300.759 1.6H304.759C304.759 0.840828 304.499 0.0708561 303.894 -0.534217L301.065 2.29422ZM300.759 1.6V28H304.759V1.6H300.759ZM300.759 28C300.759 27.9329 300.77 27.8161 300.825 27.6751C300.882 27.53 300.967 27.4035 301.065 27.3058L303.894 30.1342C304.499 29.5291 304.759 28.7592 304.759 28H300.759ZM301.065 27.3058C301.163 27.2081 301.289 27.1224 301.434 27.066C301.575 27.0112 301.692 27 301.759 27V31C302.518 31 303.288 30.7393 303.894 30.1342L301.065 27.3058ZM301.759 27H297.039V31H301.759V27ZM309.525 26.8L310.896 25.3442L310.896 25.3442L309.525 26.8ZM306.645 19.24H304.645V19.2642L304.645 19.2884L306.645 19.24ZM306.645 17.84L304.646 17.7722L304.645 17.8061V17.84H306.645ZM309.565 10.48L310.947 11.9253L310.948 11.9248L309.565 10.48ZM322.765 9.2L321.731 10.9124L321.749 10.9228L321.766 10.9329L322.765 9.2ZM326.285 12.96L324.484 13.8303L324.49 13.8424L324.496 13.8544L326.285 12.96ZM327.205 20.16L328.619 21.5742L328.666 21.5271L328.71 21.477L327.205 20.16ZM313.685 20.44V18.44H311.685V20.44H313.685ZM313.685 20.72H311.685V20.7625L311.686 20.805L313.685 20.72ZM314.605 23.76L316.225 22.587L316.225 22.587L314.605 23.76ZM318.685 24.52L319.745 26.216L319.782 26.1928L319.818 26.1681L318.685 24.52ZM319.845 23.48L321.356 24.7899L321.375 24.7684L321.393 24.7465L319.845 23.48ZM320.405 22.96L321.147 24.817L321.225 24.7861L321.299 24.7489L320.405 22.96ZM326.685 23.08L325.27 24.4942L325.387 24.6113L325.522 24.7075L326.685 23.08ZM325.765 26.04L324.265 24.7168L324.254 24.7293L324.243 24.7421L325.765 26.04ZM322.365 28.4L323.18 30.2263L322.365 28.4ZM320.445 16.48V18.48H322.445V16.48H320.445ZM319.525 13.32L317.931 14.5288L317.955 14.5596L317.979 14.5895L319.525 13.32ZM314.565 13.32L312.998 12.0772L312.992 12.0844L314.565 13.32ZM313.685 16.48H311.685V18.48H313.685V16.48ZM317.085 27.4C314.253 27.4 312.274 26.6419 310.896 25.3442L308.153 28.2558C310.456 30.4248 313.516 31.4 317.085 31.4V27.4ZM310.896 25.3442C309.554 24.0803 308.715 22.1358 308.644 19.1916L304.645 19.2884C304.734 22.9576 305.815 26.053 308.153 28.2558L310.896 25.3442ZM308.645 19.24V17.84H304.645V19.24H308.645ZM308.643 17.9078C308.737 15.1527 309.569 13.2431 310.947 11.9253L308.182 9.03472C305.88 11.2369 304.766 14.2339 304.646 17.7722L308.643 17.9078ZM310.948 11.9248C312.367 10.5659 314.326 9.8 317.045 9.8V5.8C313.523 5.8 310.495 6.82081 308.182 9.03516L310.948 11.9248ZM317.045 9.8C319.039 9.8 320.567 10.2096 321.731 10.9124L323.798 7.48762C321.869 6.3237 319.584 5.8 317.045 5.8V9.8ZM321.766 10.9329C323 11.6437 323.889 12.6002 324.484 13.8303L328.085 12.0897C327.133 10.1198 325.676 8.56962 323.763 7.46714L321.766 10.9329ZM324.496 13.8544C325.136 15.1348 325.485 16.66 325.485 18.48H329.485C329.485 16.14 329.033 13.9852 328.073 12.0656L324.496 13.8544ZM325.485 18.48V19.44H329.485V18.48H325.485ZM325.485 19.44C325.485 19.3343 325.504 19.2144 325.551 19.0951C325.596 18.9776 325.655 18.8937 325.699 18.843L328.71 21.477C329.194 20.9241 329.485 20.2233 329.485 19.44H325.485ZM325.79 18.7458C325.888 18.6481 326.015 18.5624 326.16 18.506C326.301 18.4512 326.418 18.44 326.485 18.44V22.44C327.244 22.44 328.014 22.1793 328.619 21.5742L325.79 18.7458ZM326.485 18.44H313.685V22.44H326.485V18.44ZM311.685 20.44V20.72H315.685V20.44H311.685ZM311.686 20.805C311.751 22.3292 312.133 23.7563 312.985 24.933L316.225 22.587C315.957 22.217 315.725 21.6175 315.683 20.635L311.686 20.805ZM312.985 24.933C313.969 26.2924 315.424 26.92 317.045 26.92V22.92C316.532 22.92 316.36 22.7743 316.225 22.587L312.985 24.933ZM317.045 26.92C317.967 26.92 318.912 26.7361 319.745 26.216L317.625 22.824C317.603 22.8372 317.455 22.92 317.045 22.92V26.92ZM319.818 26.1681C320.387 25.7764 320.901 25.3153 321.356 24.7899L318.333 22.1701C318.095 22.4447 317.835 22.6769 317.552 22.8719L319.818 26.1681ZM321.393 24.7465C321.434 24.6961 321.466 24.6587 321.491 24.632C321.516 24.6048 321.527 24.5943 321.526 24.5956C321.524 24.5966 321.518 24.6025 321.507 24.6119C321.495 24.6212 321.477 24.6361 321.451 24.6545C321.405 24.6866 321.302 24.755 321.147 24.817L319.662 21.103C319.254 21.266 318.96 21.5194 318.804 21.6644C318.62 21.8351 318.45 22.0268 318.297 22.2135L321.393 24.7465ZM321.299 24.7489C321.221 24.7879 321.157 24.8105 321.114 24.8232C321.072 24.8359 321.043 24.8411 321.033 24.8428C321.017 24.8455 321.043 24.84 321.125 24.84V20.84C320.702 20.84 320.088 20.8822 319.51 21.1711L321.299 24.7489ZM321.125 24.84H326.085V20.84H321.125V24.84ZM326.085 24.84C325.979 24.84 325.834 24.8217 325.672 24.757C325.508 24.6913 325.372 24.5959 325.27 24.4942L328.099 21.6658C327.539 21.1062 326.819 20.84 326.085 20.84V24.84ZM325.522 24.7075C325.377 24.6037 325.219 24.441 325.106 24.2144C324.994 23.9911 324.965 23.7838 324.965 23.64H328.965C328.965 22.7894 328.587 21.9813 327.847 21.4525L325.522 24.7075ZM324.965 23.64C324.965 23.5995 324.976 23.6654 324.876 23.8656C324.775 24.0673 324.588 24.351 324.265 24.7168L327.264 27.3632C328.168 26.3387 328.965 25.0721 328.965 23.64H324.965ZM324.243 24.7421C323.721 25.3543 322.866 25.9858 321.549 26.5737L323.18 30.2263C324.85 29.4809 326.262 28.539 327.286 27.3379L324.243 24.7421ZM321.549 26.5737C320.366 27.1019 318.896 27.4 317.085 27.4V31.4C319.327 31.4 321.376 31.0314 323.18 30.2263L321.549 26.5737ZM322.445 16.48V16.4H318.445V16.48H322.445ZM322.445 16.4C322.445 14.7933 322.066 13.2634 321.07 12.0505L317.979 14.5895C318.21 14.8699 318.445 15.3933 318.445 16.4H322.445ZM321.118 12.1112C320.112 10.7853 318.666 10.16 317.045 10.16V14.16C317.557 14.16 317.764 14.3081 317.931 14.5288L321.118 12.1112ZM317.045 10.16C315.432 10.16 314.013 10.7966 312.998 12.0772L316.132 14.5628C316.343 14.2967 316.577 14.16 317.045 14.16V10.16ZM312.992 12.0844C312.041 13.2951 311.685 14.8116 311.685 16.4H315.685C315.685 15.375 315.915 14.8383 316.137 14.5556L312.992 12.0844ZM311.685 16.4V16.48H315.685V16.4H311.685ZM313.685 18.48H320.445V14.48H313.685V18.48ZM331.515 28.72L330.1 30.1342L330.1 30.1342L331.515 28.72ZM331.515 8.48L332.929 9.89422L332.929 9.89421L331.515 8.48ZM337.555 8.52L336.049 9.83701L336.137 9.93735L336.238 10.0251L337.555 8.52ZM337.875 10.8H335.875V16.2599L339.401 12.0919L337.875 10.8ZM346.275 8.48L344.86 9.89421L344.86 9.89422L346.275 8.48ZM346.275 14.04L347.689 15.4542L347.736 15.4071L347.78 15.357L346.275 14.04ZM339.115 15.24L340.529 16.6542L340.529 16.6542L339.115 15.24ZM337.915 28.72L336.598 27.2148L336.548 27.2587L336.5 27.3058L337.915 28.72ZM332.235 27C332.302 27 332.419 27.0112 332.56 27.066C332.705 27.1224 332.831 27.2081 332.929 27.3058L330.1 30.1342C330.705 30.7393 331.475 31 332.235 31V27ZM332.929 27.3058C333.027 27.4035 333.112 27.53 333.169 27.6751C333.223 27.8161 333.235 27.9329 333.235 28H329.235C329.235 28.7592 329.495 29.5291 330.1 30.1342L332.929 27.3058ZM333.235 28V9.2H329.235V28H333.235ZM333.235 9.2C333.235 9.26713 333.223 9.38393 333.169 9.52489C333.112 9.66996 333.027 9.79651 332.929 9.89422L330.1 7.06578C329.495 7.67086 329.235 8.44083 329.235 9.2H333.235ZM332.929 9.89421C332.831 9.99192 332.705 10.0776 332.56 10.134C332.419 10.1888 332.302 10.2 332.235 10.2V6.2C331.475 6.2 330.705 6.46071 330.1 7.06579L332.929 9.89421ZM332.235 10.2H336.835V6.2H332.235V10.2ZM336.835 10.2C336.734 10.2 336.586 10.1806 336.422 10.1076C336.257 10.0339 336.132 9.93121 336.049 9.83701L339.06 7.20299C338.479 6.53867 337.682 6.2 336.835 6.2V10.2ZM336.238 10.0251C336.164 9.96078 336.064 9.84856 335.985 9.68159C335.905 9.51154 335.875 9.3417 335.875 9.2H339.875C339.875 8.31664 339.488 7.55416 338.872 7.01485L336.238 10.0251ZM335.875 9.2V10.8H339.875V9.2H335.875ZM339.401 12.0919C340.45 10.8525 341.842 10.2 343.795 10.2V6.2C340.788 6.2 338.232 7.28082 336.348 9.50812L339.401 12.0919ZM343.795 10.2H345.555V6.2H343.795V10.2ZM345.555 10.2C345.488 10.2 345.371 10.1888 345.23 10.134C345.085 10.0776 344.958 9.99192 344.86 9.89421L347.689 7.06579C347.084 6.46071 346.314 6.2 345.555 6.2V10.2ZM344.86 9.89422C344.763 9.79651 344.677 9.66996 344.621 9.52489C344.566 9.38393 344.555 9.26713 344.555 9.2H348.555C348.555 8.44083 348.294 7.67086 347.689 7.06578L344.86 9.89422ZM344.555 9.2V13.32H348.555V9.2H344.555ZM344.555 13.32C344.555 13.2143 344.574 13.0944 344.621 12.9751C344.666 12.8576 344.725 12.7737 344.769 12.723L347.78 15.357C348.264 14.8041 348.555 14.1033 348.555 13.32H344.555ZM344.86 12.6258C344.958 12.5281 345.085 12.4424 345.23 12.386C345.371 12.3312 345.488 12.32 345.555 12.32V16.32C346.314 16.32 347.084 16.0593 347.689 15.4542L344.86 12.6258ZM345.555 12.32H341.675V16.32H345.555V12.32ZM341.675 12.32C340.196 12.32 338.781 12.7457 337.7 13.8258L340.529 16.6542C340.675 16.5077 340.966 16.32 341.675 16.32V12.32ZM337.7 13.8258C336.631 14.8953 336.235 16.3111 336.235 17.76H340.235C340.235 17.0222 340.425 16.758 340.529 16.6542L337.7 13.8258ZM336.235 17.76V28H340.235V17.76H336.235ZM336.235 28C336.235 27.8997 336.254 27.7518 336.327 27.5877C336.401 27.4219 336.503 27.2973 336.598 27.2148L339.232 30.2252C339.896 29.6439 340.235 28.8471 340.235 28H336.235ZM336.5 27.3058C336.598 27.2081 336.725 27.1224 336.87 27.066C337.011 27.0112 337.128 27 337.195 27V31C337.954 31 338.724 30.7393 339.329 30.1342L336.5 27.3058ZM337.195 27H332.235V31H337.195V27Z" fill="#6F5025"/>
</g>
<defs>
<filter id="filter0_di_1422:107722" x="0.546204" y="0.599976" width="346.008" height="30.8" filterUnits="userSpaceOnUse" color-interpolation-filters="sRGB">
<feFlood flood-opacity="0" result="BackgroundImageFix"/>
<feColorMatrix in="SourceAlpha" type="matrix" values="0 0 0 0 0 0 0 0 0 0 0 0 0 0 0 0 0 0 127 0" result="hardAlpha"/>
<feOffset dy="2"/>
<feColorMatrix type="matrix" values="0 0 0 0 0.415686 0 0 0 0 0.176471 0 0 0 0 0.00392157 0 0 0 1 0"/>
<feBlend mode="normal" in2="BackgroundImageFix" result="effect1_dropShadow_1422:107722"/>
<feBlend mode="normal" in="SourceGraphic" in2="effect1_dropShadow_1422:107722" result="shape"/>
<feColorMatrix in="SourceAlpha" type="matrix" values="0 0 0 0 0 0 0 0 0 0 0 0 0 0 0 0 0 0 127 0" result="hardAlpha"/>
<feOffset dy="0.5"/>
<feComposite in2="hardAlpha" operator="arithmetic" k2="-1" k3="1"/>
<feColorMatrix type="matrix" values="0 0 0 0 0.415686 0 0 0 0 0.176471 0 0 0 0 0.00392157 0 0 0 1 0"/>
<feBlend mode="normal" in2="shape" result="effect2_innerShadow_1422:107722"/>
</filter>
<linearGradient id="paint0_linear_1422:107722" x1="174.225" y1="28.5662" x2="174.225" y2="-23.9942" gradientUnits="userSpaceOnUse">
<stop stop-color="#C6753F"/>
<stop offset="0.5" stop-color="#C6753F" stop-opacity="0"/>
</linearGradient>
</defs>
</svg>
