<svg width="230" height="76" viewBox="0 0 230 76" fill="none" xmlns="http://www.w3.org/2000/svg">
<path d="M223.698 63.8215C222.903 68.1971 218.262 71.6445 213.886 71.6445C149.181 71.6445 84.4758 71.6445 19.7706 71.6445C15.395 71.6445 10.7543 68.1971 9.95874 63.8215C6.90911 48.4408 7.43948 32.5296 11.4173 17.1489C12.6106 12.7733 17.3839 9.32593 21.6269 9.32593C85.1388 9.32593 148.518 9.32593 212.03 9.32593C216.273 9.32593 221.179 12.7733 222.24 17.1489C226.217 32.5296 226.748 48.4408 223.698 63.8215Z" stroke="#6A2D01" stroke-width="7.95556" stroke-linecap="round" stroke-linejoin="round"/>
<path d="M223.698 63.8215C222.903 68.1971 218.262 71.6445 213.886 71.6445C149.181 71.6445 84.4758 71.6445 19.7706 71.6445C15.395 71.6445 10.7543 68.1971 9.95874 63.8215C6.90911 48.4408 7.43948 32.5296 11.4173 17.1489C12.6106 12.7733 17.3839 9.32593 21.6269 9.32593C85.1388 9.32593 148.518 9.32593 212.03 9.32593C216.273 9.32593 221.179 12.7733 222.24 17.1489C226.217 32.5296 226.748 48.4408 223.698 63.8215Z" fill="#9D7C63"/>
<path d="M19.7705 66.3408C16.5883 66.3408 13.1409 63.6889 12.4779 60.6393C9.5609 45.7889 10.0913 30.0104 13.9365 15.16C14.732 12.1104 18.4446 9.32593 21.6268 9.32593H212.03C215.212 9.32593 218.925 12.1104 219.72 15.16C223.565 30.0104 224.096 45.7889 221.179 60.6393C220.648 63.5563 217.201 66.3408 213.886 66.3408H19.7705Z" fill="#88664C"/>
<path d="M19.7705 68.9926C16.5883 68.9926 13.1409 66.3408 12.4779 63.2911C9.5609 48.4408 10.0913 32.6622 13.9365 17.8119C14.732 14.7622 18.4446 11.9778 21.6268 11.9778H212.03C215.212 11.9778 218.925 14.7622 219.72 17.8119C223.565 32.6622 224.096 48.4408 221.179 63.2911C220.648 66.2082 217.201 68.9926 213.886 68.9926H19.7705Z" fill="#A88F7C"/>
<g opacity="0.5">
<g opacity="0.5">
<path opacity="0.5" d="M201.29 12.9059H194.528C194.528 12.9059 201.025 12.9059 202.218 23.6459L201.29 12.9059ZM25.7372 28.9496V27.4911C25.6046 28.2866 25.7372 28.9496 25.7372 28.9496ZM25.7372 27.3585C26.0024 23.3807 27.5935 12.9059 38.0683 12.9059H26.0024L25.7372 27.3585Z" fill="#88664C"/>
</g>
</g>
<path d="M200.759 74.2962L202.351 55.6006L203.809 74.2962H200.759Z" fill="#735C4B"/>
<path d="M26.1348 48.5735L27.5933 74.2965H24.6763L26.1348 48.5735Z" fill="#735C4B"/>
<path d="M27.1958 8L25.7373 30.6733L24.1461 8H27.1958Z" fill="#735C4B"/>
<path d="M203.809 8.53027L202.218 25.1044L200.892 8.53027H203.809Z" fill="#735C4B"/>
<g opacity="0.2" filter="url(#filter0_d_1422:107727)">
<path d="M65.3046 49.0604C65.1319 49.0604 64.985 48.9999 64.864 48.879C64.7431 48.758 64.6826 48.6112 64.6826 48.4384V31.5657C64.6826 31.3756 64.7344 31.2201 64.8381 31.0992C64.9591 30.9782 65.1146 30.9177 65.3046 30.9177H72.2507C74.3241 30.9177 75.957 31.4102 77.1492 32.3951C78.3415 33.3627 78.9376 34.7882 78.9376 36.6716C78.9376 38.5549 78.3415 39.9804 77.1492 40.9481C75.9743 41.8984 74.3414 42.3736 72.2507 42.3736H68.3889V48.4384C68.3889 48.6112 68.3284 48.758 68.2075 48.879C68.1038 48.9999 67.9569 49.0604 67.7669 49.0604H65.3046ZM72.1211 39.4966C73.1233 39.4966 73.8922 39.2634 74.4278 38.7969C74.9635 38.313 75.2313 37.6046 75.2313 36.6716C75.2313 35.7731 74.9721 35.0733 74.4537 34.5722C73.9354 34.0538 73.1578 33.7947 72.1211 33.7947H68.3371V39.4966H72.1211ZM82.0783 49.0604C81.9055 49.0604 81.7587 48.9999 81.6377 48.879C81.5168 48.758 81.4563 48.6112 81.4563 48.4384V36.231C81.4563 36.0582 81.5168 35.9113 81.6377 35.7904C81.7587 35.6521 81.9055 35.583 82.0783 35.583H84.1777C84.3678 35.583 84.5233 35.6435 84.6442 35.7644C84.7652 35.8854 84.8256 36.0409 84.8256 36.231V37.2936C85.2403 36.7407 85.7587 36.3174 86.3807 36.0236C87.02 35.7299 87.7457 35.583 88.5578 35.583H89.6205C89.8106 35.583 89.9574 35.6435 90.0611 35.7644C90.1821 35.8681 90.2425 36.015 90.2425 36.205V38.0711C90.2425 38.2439 90.1821 38.3908 90.0611 38.5118C89.9574 38.6327 89.8106 38.6932 89.6205 38.6932H87.5989C86.7868 38.6932 86.1475 38.9264 85.6809 39.393C85.2144 39.8595 84.9812 40.4988 84.9812 41.3109V48.4384C84.9812 48.6112 84.9207 48.758 84.7997 48.879C84.6788 48.9999 84.5233 49.0604 84.3332 49.0604H82.0783ZM97.8924 49.3196C95.9745 49.3196 94.4453 48.7667 93.3049 47.6608C92.1818 46.5377 91.5857 44.9654 91.5166 42.9437L91.4906 42.2958L91.5166 41.6478C91.603 39.6781 92.2077 38.1316 93.3308 37.0085C94.4712 35.8854 95.9918 35.3238 97.8924 35.3238C99.9313 35.3238 101.504 35.9459 102.61 37.1899C103.733 38.434 104.294 40.0928 104.294 42.1662V42.7105C104.294 42.8833 104.234 43.0301 104.113 43.1511C103.992 43.272 103.836 43.3325 103.646 43.3325H95.0414V43.5399C95.076 44.4902 95.3352 45.2937 95.819 45.9503C96.3201 46.5896 97.0026 46.9092 97.8665 46.9092C98.8859 46.9092 99.7067 46.5118 100.329 45.717C100.484 45.5269 100.605 45.406 100.692 45.3541C100.795 45.3023 100.942 45.2764 101.132 45.2764H103.361C103.517 45.2764 103.646 45.3282 103.75 45.4319C103.871 45.5183 103.931 45.6306 103.931 45.7688C103.931 46.1835 103.681 46.676 103.18 47.2462C102.696 47.7991 101.996 48.2829 101.08 48.6976C100.165 49.1123 99.1019 49.3196 97.8924 49.3196ZM100.769 41.1554V41.0776C100.769 40.0582 100.51 39.2375 99.9918 38.6154C99.4907 37.9934 98.7909 37.6824 97.8924 37.6824C96.9939 37.6824 96.2941 37.9934 95.7931 38.6154C95.292 39.2375 95.0414 40.0582 95.0414 41.0776V41.1554H100.769ZM111.333 49.0604C111.074 49.0604 110.876 49.0086 110.737 48.9049C110.599 48.784 110.487 48.6198 110.4 48.4125L105.554 36.3865L105.502 36.1532C105.502 35.9977 105.554 35.8681 105.657 35.7644C105.778 35.6435 105.917 35.583 106.072 35.583H108.171C108.5 35.583 108.724 35.7472 108.845 36.0754L112.292 45.1727L115.739 36.0754C115.791 35.9545 115.869 35.8422 115.973 35.7385C116.094 35.6348 116.241 35.583 116.413 35.583H118.539C118.677 35.583 118.798 35.6435 118.901 35.7644C119.022 35.8681 119.083 35.9977 119.083 36.1532C119.083 36.2569 119.074 36.3346 119.057 36.3865L114.184 48.4125C114.098 48.6198 113.986 48.784 113.847 48.9049C113.709 49.0086 113.511 49.0604 113.251 49.0604H111.333ZM121.965 33.354C121.793 33.354 121.646 33.2936 121.525 33.1726C121.404 33.0517 121.343 32.9048 121.343 32.732V30.8659C121.343 30.6931 121.404 30.5463 121.525 30.4253C121.646 30.3044 121.793 30.2439 121.965 30.2439H124.324C124.497 30.2439 124.644 30.3044 124.765 30.4253C124.903 30.5463 124.972 30.6931 124.972 30.8659V32.732C124.972 32.9048 124.912 33.0517 124.791 33.1726C124.67 33.2936 124.514 33.354 124.324 33.354H121.965ZM122.069 49.0604C121.896 49.0604 121.75 48.9999 121.629 48.879C121.508 48.758 121.447 48.6112 121.447 48.4384V36.205C121.447 36.0323 121.508 35.8854 121.629 35.7644C121.75 35.6435 121.896 35.583 122.069 35.583H124.22C124.41 35.583 124.557 35.6435 124.661 35.7644C124.782 35.8681 124.842 36.015 124.842 36.205V48.4384C124.842 48.6112 124.782 48.758 124.661 48.879C124.557 48.9999 124.41 49.0604 124.22 49.0604H122.069ZM134.242 49.3196C132.221 49.3196 130.657 48.8012 129.551 47.7645C128.445 46.7105 127.849 45.2764 127.763 43.4621L127.737 42.3217L127.763 41.1813C127.849 39.3843 128.454 37.9588 129.577 36.9048C130.7 35.8508 132.255 35.3238 134.242 35.3238C136.229 35.3238 137.784 35.8508 138.907 36.9048C140.031 37.9588 140.635 39.3843 140.722 41.1813C140.739 41.3887 140.748 41.7688 140.748 42.3217C140.748 42.8746 140.739 43.2548 140.722 43.4621C140.635 45.2764 140.039 46.7105 138.933 47.7645C137.828 48.8012 136.264 49.3196 134.242 49.3196ZM134.242 46.7537C135.158 46.7537 135.866 46.4686 136.367 45.8984C136.869 45.3109 137.145 44.4556 137.197 43.3325C137.214 43.1597 137.223 42.8228 137.223 42.3217C137.223 41.8206 137.214 41.4837 137.197 41.3109C137.145 40.1878 136.869 39.3411 136.367 38.7709C135.866 38.1835 135.158 37.8897 134.242 37.8897C133.326 37.8897 132.618 38.1835 132.117 38.7709C131.616 39.3411 131.339 40.1878 131.288 41.3109L131.262 42.3217L131.288 43.3325C131.339 44.4556 131.616 45.3109 132.117 45.8984C132.618 46.4686 133.326 46.7537 134.242 46.7537ZM148.621 49.3196C147.032 49.3196 145.779 48.8012 144.863 47.7645C143.948 46.7105 143.49 45.285 143.49 43.488V36.205C143.49 36.0323 143.55 35.8854 143.671 35.7644C143.792 35.6435 143.939 35.583 144.112 35.583H146.392C146.583 35.583 146.729 35.6435 146.833 35.7644C146.954 35.8681 147.015 36.015 147.015 36.205V43.3325C147.015 45.4751 147.956 46.5464 149.84 46.5464C150.738 46.5464 151.447 46.2613 151.965 45.6911C152.501 45.1209 152.768 44.3347 152.768 43.3325V36.205C152.768 36.0323 152.829 35.8854 152.95 35.7644C153.071 35.6435 153.218 35.583 153.39 35.583H155.671C155.861 35.583 156.008 35.6435 156.112 35.7644C156.233 35.8681 156.293 36.015 156.293 36.205V48.4384C156.293 48.6112 156.233 48.758 156.112 48.879C156.008 48.9999 155.861 49.0604 155.671 49.0604H153.572C153.399 49.0604 153.252 48.9999 153.131 48.879C153.01 48.758 152.95 48.6112 152.95 48.4384V47.3757C151.982 48.6717 150.539 49.3196 148.621 49.3196ZM164.823 49.3196C163.527 49.3196 162.438 49.1295 161.557 48.7494C160.676 48.352 160.019 47.8941 159.587 47.3757C159.173 46.8401 158.965 46.3822 158.965 46.0021C158.965 45.8293 159.026 45.6911 159.147 45.5874C159.268 45.4837 159.406 45.4319 159.561 45.4319H161.609C161.764 45.4319 161.894 45.4924 161.998 45.6133C162.067 45.6652 162.248 45.8207 162.542 46.0798C162.836 46.3563 163.181 46.5723 163.579 46.7278C163.976 46.8833 164.417 46.9611 164.9 46.9611C165.592 46.9611 166.162 46.8228 166.611 46.5464C167.06 46.2699 167.285 45.8898 167.285 45.406C167.285 45.0431 167.181 44.7494 166.974 44.5248C166.784 44.3001 166.43 44.1014 165.911 43.9286C165.393 43.7386 164.624 43.5399 163.605 43.3325C162.136 43.0215 161.047 42.5463 160.339 41.907C159.648 41.2677 159.302 40.4211 159.302 39.3671C159.302 38.6759 159.509 38.0279 159.924 37.4232C160.339 36.8012 160.952 36.3001 161.764 35.9199C162.594 35.5225 163.579 35.3238 164.719 35.3238C165.877 35.3238 166.879 35.5139 167.726 35.894C168.572 36.2569 169.212 36.6975 169.643 37.2158C170.093 37.7169 170.317 38.1662 170.317 38.5636C170.317 38.7191 170.257 38.8573 170.136 38.9783C170.032 39.082 169.903 39.1338 169.747 39.1338H167.829C167.691 39.1338 167.544 39.0733 167.389 38.9524C167.268 38.866 167.078 38.7018 166.818 38.4599C166.559 38.218 166.257 38.0279 165.911 37.8897C165.566 37.7515 165.16 37.6824 164.693 37.6824C164.054 37.6824 163.553 37.8206 163.19 38.0971C162.844 38.3735 162.672 38.7364 162.672 39.1856C162.672 39.5139 162.758 39.7817 162.931 39.9891C163.103 40.1964 163.44 40.3951 163.941 40.5852C164.443 40.7753 165.194 40.9653 166.196 41.1554C167.855 41.4837 169.039 41.9934 169.747 42.6846C170.473 43.3757 170.836 44.2224 170.836 45.2245C170.836 46.4341 170.309 47.4189 169.255 48.1792C168.201 48.9395 166.723 49.3196 164.823 49.3196Z" fill="#FCECD2"/>
<path d="M65.3046 49.0604C65.1319 49.0604 64.985 48.9999 64.864 48.879C64.7431 48.758 64.6826 48.6112 64.6826 48.4384V31.5657C64.6826 31.3756 64.7344 31.2201 64.8381 31.0992C64.9591 30.9782 65.1146 30.9177 65.3046 30.9177H72.2507C74.3241 30.9177 75.957 31.4102 77.1492 32.3951C78.3415 33.3627 78.9376 34.7882 78.9376 36.6716C78.9376 38.5549 78.3415 39.9804 77.1492 40.9481C75.9743 41.8984 74.3414 42.3736 72.2507 42.3736H68.3889V48.4384C68.3889 48.6112 68.3284 48.758 68.2075 48.879C68.1038 48.9999 67.9569 49.0604 67.7669 49.0604H65.3046ZM72.1211 39.4966C73.1233 39.4966 73.8922 39.2634 74.4278 38.7969C74.9635 38.313 75.2313 37.6046 75.2313 36.6716C75.2313 35.7731 74.9721 35.0733 74.4537 34.5722C73.9354 34.0538 73.1578 33.7947 72.1211 33.7947H68.3371V39.4966H72.1211ZM82.0783 49.0604C81.9055 49.0604 81.7587 48.9999 81.6377 48.879C81.5168 48.758 81.4563 48.6112 81.4563 48.4384V36.231C81.4563 36.0582 81.5168 35.9113 81.6377 35.7904C81.7587 35.6521 81.9055 35.583 82.0783 35.583H84.1777C84.3678 35.583 84.5233 35.6435 84.6442 35.7644C84.7652 35.8854 84.8256 36.0409 84.8256 36.231V37.2936C85.2403 36.7407 85.7587 36.3174 86.3807 36.0236C87.02 35.7299 87.7457 35.583 88.5578 35.583H89.6205C89.8106 35.583 89.9574 35.6435 90.0611 35.7644C90.1821 35.8681 90.2425 36.015 90.2425 36.205V38.0711C90.2425 38.2439 90.1821 38.3908 90.0611 38.5118C89.9574 38.6327 89.8106 38.6932 89.6205 38.6932H87.5989C86.7868 38.6932 86.1475 38.9264 85.6809 39.393C85.2144 39.8595 84.9812 40.4988 84.9812 41.3109V48.4384C84.9812 48.6112 84.9207 48.758 84.7997 48.879C84.6788 48.9999 84.5233 49.0604 84.3332 49.0604H82.0783ZM97.8924 49.3196C95.9745 49.3196 94.4453 48.7667 93.3049 47.6608C92.1818 46.5377 91.5857 44.9654 91.5166 42.9437L91.4906 42.2958L91.5166 41.6478C91.603 39.6781 92.2077 38.1316 93.3308 37.0085C94.4712 35.8854 95.9918 35.3238 97.8924 35.3238C99.9313 35.3238 101.504 35.9459 102.61 37.1899C103.733 38.434 104.294 40.0928 104.294 42.1662V42.7105C104.294 42.8833 104.234 43.0301 104.113 43.1511C103.992 43.272 103.836 43.3325 103.646 43.3325H95.0414V43.5399C95.076 44.4902 95.3352 45.2937 95.819 45.9503C96.3201 46.5896 97.0026 46.9092 97.8665 46.9092C98.8859 46.9092 99.7067 46.5118 100.329 45.717C100.484 45.5269 100.605 45.406 100.692 45.3541C100.795 45.3023 100.942 45.2764 101.132 45.2764H103.361C103.517 45.2764 103.646 45.3282 103.75 45.4319C103.871 45.5183 103.931 45.6306 103.931 45.7688C103.931 46.1835 103.681 46.676 103.18 47.2462C102.696 47.7991 101.996 48.2829 101.08 48.6976C100.165 49.1123 99.1019 49.3196 97.8924 49.3196ZM100.769 41.1554V41.0776C100.769 40.0582 100.51 39.2375 99.9918 38.6154C99.4907 37.9934 98.7909 37.6824 97.8924 37.6824C96.9939 37.6824 96.2941 37.9934 95.7931 38.6154C95.292 39.2375 95.0414 40.0582 95.0414 41.0776V41.1554H100.769ZM111.333 49.0604C111.074 49.0604 110.876 49.0086 110.737 48.9049C110.599 48.784 110.487 48.6198 110.4 48.4125L105.554 36.3865L105.502 36.1532C105.502 35.9977 105.554 35.8681 105.657 35.7644C105.778 35.6435 105.917 35.583 106.072 35.583H108.171C108.5 35.583 108.724 35.7472 108.845 36.0754L112.292 45.1727L115.739 36.0754C115.791 35.9545 115.869 35.8422 115.973 35.7385C116.094 35.6348 116.241 35.583 116.413 35.583H118.539C118.677 35.583 118.798 35.6435 118.901 35.7644C119.022 35.8681 119.083 35.9977 119.083 36.1532C119.083 36.2569 119.074 36.3346 119.057 36.3865L114.184 48.4125C114.098 48.6198 113.986 48.784 113.847 48.9049C113.709 49.0086 113.511 49.0604 113.251 49.0604H111.333ZM121.965 33.354C121.793 33.354 121.646 33.2936 121.525 33.1726C121.404 33.0517 121.343 32.9048 121.343 32.732V30.8659C121.343 30.6931 121.404 30.5463 121.525 30.4253C121.646 30.3044 121.793 30.2439 121.965 30.2439H124.324C124.497 30.2439 124.644 30.3044 124.765 30.4253C124.903 30.5463 124.972 30.6931 124.972 30.8659V32.732C124.972 32.9048 124.912 33.0517 124.791 33.1726C124.67 33.2936 124.514 33.354 124.324 33.354H121.965ZM122.069 49.0604C121.896 49.0604 121.75 48.9999 121.629 48.879C121.508 48.758 121.447 48.6112 121.447 48.4384V36.205C121.447 36.0323 121.508 35.8854 121.629 35.7644C121.75 35.6435 121.896 35.583 122.069 35.583H124.22C124.41 35.583 124.557 35.6435 124.661 35.7644C124.782 35.8681 124.842 36.015 124.842 36.205V48.4384C124.842 48.6112 124.782 48.758 124.661 48.879C124.557 48.9999 124.41 49.0604 124.22 49.0604H122.069ZM134.242 49.3196C132.221 49.3196 130.657 48.8012 129.551 47.7645C128.445 46.7105 127.849 45.2764 127.763 43.4621L127.737 42.3217L127.763 41.1813C127.849 39.3843 128.454 37.9588 129.577 36.9048C130.7 35.8508 132.255 35.3238 134.242 35.3238C136.229 35.3238 137.784 35.8508 138.907 36.9048C140.031 37.9588 140.635 39.3843 140.722 41.1813C140.739 41.3887 140.748 41.7688 140.748 42.3217C140.748 42.8746 140.739 43.2548 140.722 43.4621C140.635 45.2764 140.039 46.7105 138.933 47.7645C137.828 48.8012 136.264 49.3196 134.242 49.3196ZM134.242 46.7537C135.158 46.7537 135.866 46.4686 136.367 45.8984C136.869 45.3109 137.145 44.4556 137.197 43.3325C137.214 43.1597 137.223 42.8228 137.223 42.3217C137.223 41.8206 137.214 41.4837 137.197 41.3109C137.145 40.1878 136.869 39.3411 136.367 38.7709C135.866 38.1835 135.158 37.8897 134.242 37.8897C133.326 37.8897 132.618 38.1835 132.117 38.7709C131.616 39.3411 131.339 40.1878 131.288 41.3109L131.262 42.3217L131.288 43.3325C131.339 44.4556 131.616 45.3109 132.117 45.8984C132.618 46.4686 133.326 46.7537 134.242 46.7537ZM148.621 49.3196C147.032 49.3196 145.779 48.8012 144.863 47.7645C143.948 46.7105 143.49 45.285 143.49 43.488V36.205C143.49 36.0323 143.55 35.8854 143.671 35.7644C143.792 35.6435 143.939 35.583 144.112 35.583H146.392C146.583 35.583 146.729 35.6435 146.833 35.7644C146.954 35.8681 147.015 36.015 147.015 36.205V43.3325C147.015 45.4751 147.956 46.5464 149.84 46.5464C150.738 46.5464 151.447 46.2613 151.965 45.6911C152.501 45.1209 152.768 44.3347 152.768 43.3325V36.205C152.768 36.0323 152.829 35.8854 152.95 35.7644C153.071 35.6435 153.218 35.583 153.39 35.583H155.671C155.861 35.583 156.008 35.6435 156.112 35.7644C156.233 35.8681 156.293 36.015 156.293 36.205V48.4384C156.293 48.6112 156.233 48.758 156.112 48.879C156.008 48.9999 155.861 49.0604 155.671 49.0604H153.572C153.399 49.0604 153.252 48.9999 153.131 48.879C153.01 48.758 152.95 48.6112 152.95 48.4384V47.3757C151.982 48.6717 150.539 49.3196 148.621 49.3196ZM164.823 49.3196C163.527 49.3196 162.438 49.1295 161.557 48.7494C160.676 48.352 160.019 47.8941 159.587 47.3757C159.173 46.8401 158.965 46.3822 158.965 46.0021C158.965 45.8293 159.026 45.6911 159.147 45.5874C159.268 45.4837 159.406 45.4319 159.561 45.4319H161.609C161.764 45.4319 161.894 45.4924 161.998 45.6133C162.067 45.6652 162.248 45.8207 162.542 46.0798C162.836 46.3563 163.181 46.5723 163.579 46.7278C163.976 46.8833 164.417 46.9611 164.9 46.9611C165.592 46.9611 166.162 46.8228 166.611 46.5464C167.06 46.2699 167.285 45.8898 167.285 45.406C167.285 45.0431 167.181 44.7494 166.974 44.5248C166.784 44.3001 166.43 44.1014 165.911 43.9286C165.393 43.7386 164.624 43.5399 163.605 43.3325C162.136 43.0215 161.047 42.5463 160.339 41.907C159.648 41.2677 159.302 40.4211 159.302 39.3671C159.302 38.6759 159.509 38.0279 159.924 37.4232C160.339 36.8012 160.952 36.3001 161.764 35.9199C162.594 35.5225 163.579 35.3238 164.719 35.3238C165.877 35.3238 166.879 35.5139 167.726 35.894C168.572 36.2569 169.212 36.6975 169.643 37.2158C170.093 37.7169 170.317 38.1662 170.317 38.5636C170.317 38.7191 170.257 38.8573 170.136 38.9783C170.032 39.082 169.903 39.1338 169.747 39.1338H167.829C167.691 39.1338 167.544 39.0733 167.389 38.9524C167.268 38.866 167.078 38.7018 166.818 38.4599C166.559 38.218 166.257 38.0279 165.911 37.8897C165.566 37.7515 165.16 37.6824 164.693 37.6824C164.054 37.6824 163.553 37.8206 163.19 38.0971C162.844 38.3735 162.672 38.7364 162.672 39.1856C162.672 39.5139 162.758 39.7817 162.931 39.9891C163.103 40.1964 163.44 40.3951 163.941 40.5852C164.443 40.7753 165.194 40.9653 166.196 41.1554C167.855 41.4837 169.039 41.9934 169.747 42.6846C170.473 43.3757 170.836 44.2224 170.836 45.2245C170.836 46.4341 170.309 47.4189 169.255 48.1792C168.201 48.9395 166.723 49.3196 164.823 49.3196Z" fill="url(#paint0_linear_1422:107727)" fill-opacity="0.3"/>
<path d="M64.864 48.879L64.2095 49.5335L64.2095 49.5335L64.864 48.879ZM64.8381 31.0992L64.1836 30.4446L64.1585 30.4698L64.1353 30.4968L64.8381 31.0992ZM77.1492 32.3951L76.5597 33.1087L76.5659 33.1138L77.1492 32.3951ZM77.1492 40.9481L77.7313 41.6678L77.7325 41.6668L77.1492 40.9481ZM68.3889 42.3736V41.4479H67.4633V42.3736H68.3889ZM68.2075 48.879L67.5529 48.2245L67.5278 48.2496L67.5047 48.2766L68.2075 48.879ZM74.4278 38.7969L75.0358 39.4949L75.0421 39.4894L75.0483 39.4838L74.4278 38.7969ZM74.4537 34.5722L73.7992 35.2267L73.8048 35.2323L73.8104 35.2377L74.4537 34.5722ZM68.3371 33.7947V32.869H67.4114V33.7947H68.3371ZM68.3371 39.4966H67.4114V40.4223H68.3371V39.4966ZM65.3046 48.1348C65.3285 48.1348 65.3695 48.1394 65.4173 48.1591C65.4654 48.1789 65.4993 48.2052 65.5186 48.2245L64.2095 49.5335C64.506 49.83 64.8892 49.9861 65.3046 49.9861V48.1348ZM65.5186 48.2245C65.5378 48.2437 65.5641 48.2777 65.5839 48.3257C65.6036 48.3735 65.6083 48.4146 65.6083 48.4384H63.757C63.757 48.8539 63.913 49.237 64.2095 49.5335L65.5186 48.2245ZM65.6083 48.4384V31.5657H63.757V48.4384H65.6083ZM65.6083 31.5657C65.6083 31.5546 65.6097 31.5689 65.5996 31.5992C65.5888 31.6317 65.5693 31.6685 65.5409 31.7016L64.1353 30.4968C63.8612 30.8166 63.757 31.1994 63.757 31.5657H65.6083ZM65.4927 31.7537C65.4647 31.7816 65.4259 31.8083 65.381 31.8258C65.3379 31.8425 65.3086 31.8434 65.3046 31.8434V29.9921C64.899 29.9921 64.4982 30.13 64.1836 30.4446L65.4927 31.7537ZM65.3046 31.8434H72.2507V29.9921H65.3046V31.8434ZM72.2507 31.8434C74.1825 31.8434 75.5824 32.3014 76.5597 33.1087L77.7388 31.6814C76.3316 30.519 74.4658 29.9921 72.2507 29.9921V31.8434ZM76.5659 33.1138C77.4928 33.8661 78.0119 34.9976 78.0119 36.6716H79.8632C79.8632 34.5788 79.1901 32.8593 77.7325 31.6764L76.5659 33.1138ZM78.0119 36.6716C78.0119 38.3456 77.4928 39.4771 76.5659 40.2293L77.7325 41.6668C79.1901 40.4838 79.8632 38.7643 79.8632 36.6716H78.0119ZM76.5671 40.2284C75.6101 41.0024 74.2099 41.4479 72.2507 41.4479V43.2992C74.4729 43.2992 76.3384 42.7944 77.7313 41.6678L76.5671 40.2284ZM72.2507 41.4479H68.3889V43.2992H72.2507V41.4479ZM67.4633 42.3736V48.4384H69.3145V42.3736H67.4633ZM67.4633 48.4384C67.4633 48.4146 67.4679 48.3735 67.4876 48.3257C67.5074 48.2777 67.5337 48.2437 67.5529 48.2245L68.862 49.5335C69.1585 49.237 69.3145 48.8539 69.3145 48.4384H67.4633ZM67.5047 48.2766C67.5477 48.2264 67.605 48.1847 67.6671 48.1591C67.7252 48.1352 67.7643 48.1348 67.7669 48.1348V49.9861C68.1698 49.9861 68.5965 49.8474 68.9103 49.4814L67.5047 48.2766ZM67.7669 48.1348H65.3046V49.9861H67.7669V48.1348ZM72.1211 40.4223C73.2557 40.4223 74.2737 40.1586 75.0358 39.4949L73.8199 38.0988C73.5107 38.3682 72.9909 38.571 72.1211 38.571V40.4223ZM75.0483 39.4838C75.8314 38.7765 76.1569 37.7851 76.1569 36.6716H74.3056C74.3056 37.4241 74.0956 37.8496 73.8074 38.1099L75.0483 39.4838ZM76.1569 36.6716C76.1569 35.5878 75.8382 34.6231 75.0971 33.9067L73.8104 35.2377C74.106 35.5235 74.3056 35.9583 74.3056 36.6716H76.1569ZM75.1083 33.9177C74.3551 33.1645 73.3005 32.869 72.1211 32.869V34.7203C73.0152 34.7203 73.5157 34.9432 73.7992 35.2267L75.1083 33.9177ZM72.1211 32.869H68.3371V34.7203H72.1211V32.869ZM67.4114 33.7947V39.4966H69.2627V33.7947H67.4114ZM68.3371 40.4223H72.1211V38.571H68.3371V40.4223ZM81.6377 48.879L82.2922 48.2245L82.2922 48.2245L81.6377 48.879ZM81.6377 35.7904L82.2922 36.4449L82.314 36.4231L82.3343 36.3999L81.6377 35.7904ZM84.6442 35.7644L83.9897 36.419L83.9897 36.419L84.6442 35.7644ZM84.8256 37.2936H83.9V40.0705L85.5662 37.849L84.8256 37.2936ZM86.3807 36.0236L85.9942 35.1825L85.9855 35.1866L86.3807 36.0236ZM90.0611 35.7644L89.3583 36.3668L89.4046 36.4209L89.4587 36.4672L90.0611 35.7644ZM90.0611 38.5118L89.4066 37.8572L89.3814 37.8824L89.3583 37.9093L90.0611 38.5118ZM85.6809 39.393L85.0264 38.7384L85.0264 38.7384L85.6809 39.393ZM82.0783 48.1348C82.1021 48.1348 82.1432 48.1394 82.191 48.1591C82.239 48.1789 82.273 48.2052 82.2922 48.2245L80.9832 49.5335C81.2797 49.83 81.6628 49.9861 82.0783 49.9861V48.1348ZM82.2922 48.2245C82.3115 48.2437 82.3378 48.2777 82.3576 48.3257C82.3773 48.3735 82.3819 48.4146 82.3819 48.4384H80.5306C80.5306 48.8539 80.6867 49.237 80.9832 49.5335L82.2922 48.2245ZM82.3819 48.4384V36.231H80.5306V48.4384H82.3819ZM82.3819 36.231C82.3819 36.2548 82.3773 36.2958 82.3576 36.3437C82.3378 36.3917 82.3115 36.4257 82.2922 36.4449L80.9832 35.1358C80.6867 35.4323 80.5306 35.8155 80.5306 36.231H82.3819ZM82.3343 36.3999C82.3218 36.4142 82.289 36.4459 82.2327 36.4724C82.175 36.4995 82.1192 36.5087 82.0783 36.5087V34.6574C81.6201 34.6574 81.2253 34.8561 80.9411 35.1808L82.3343 36.3999ZM82.0783 36.5087H84.1777V34.6574H82.0783V36.5087ZM84.1777 36.5087C84.1738 36.5087 84.1444 36.5078 84.1014 36.4911C84.0564 36.4736 84.0176 36.4469 83.9897 36.419L85.2987 35.1099C84.9841 34.7953 84.5834 34.6574 84.1777 34.6574V36.5087ZM83.9897 36.419C83.9617 36.391 83.935 36.3522 83.9176 36.3073C83.9008 36.2643 83.9 36.2349 83.9 36.231H85.7513C85.7513 35.8253 85.6133 35.4245 85.2987 35.1099L83.9897 36.419ZM83.9 36.231V37.2936H85.7513V36.231H83.9ZM85.5662 37.849C85.8909 37.4161 86.2909 37.0897 86.776 36.8606L85.9855 35.1866C85.2265 35.545 84.5898 36.0653 84.0851 36.7382L85.5662 37.849ZM86.7672 36.8647C87.2679 36.6347 87.8587 36.5087 88.5578 36.5087V34.6574C87.6328 34.6574 86.7721 34.8251 85.9943 35.1825L86.7672 36.8647ZM88.5578 36.5087H89.6205V34.6574H88.5578V36.5087ZM89.6205 36.5087C89.6179 36.5087 89.5788 36.5082 89.5208 36.4843C89.4586 36.4587 89.4013 36.417 89.3583 36.3668L90.7639 35.162C90.4502 34.796 90.0234 34.6574 89.6205 34.6574V36.5087ZM89.4587 36.4672C89.4085 36.4242 89.3668 36.3669 89.3412 36.3048C89.3173 36.2467 89.3169 36.2076 89.3169 36.205H91.1682C91.1682 35.8021 91.0295 35.3754 90.6635 35.0616L89.4587 36.4672ZM89.3169 36.205V38.0711H91.1682V36.205H89.3169ZM89.3169 38.0711C89.3169 38.0473 89.3215 38.0063 89.3412 37.9584C89.361 37.9104 89.3873 37.8764 89.4066 37.8572L90.7156 39.1663C91.0121 38.8698 91.1682 38.4866 91.1682 38.0711H89.3169ZM89.3583 37.9093C89.4013 37.8592 89.4586 37.8175 89.5208 37.7919C89.5788 37.768 89.6179 37.7675 89.6205 37.7675V39.6188C90.0234 39.6188 90.4502 39.4802 90.7639 39.1142L89.3583 37.9093ZM89.6205 37.7675H87.5989V39.6188H89.6205V37.7675ZM87.5989 37.7675C86.6015 37.7675 85.7049 38.06 85.0264 38.7384L86.3355 40.0475C86.59 39.7929 86.9721 39.6188 87.5989 39.6188V37.7675ZM85.0264 38.7384C84.3479 39.4169 84.0555 40.3135 84.0555 41.3109H85.9068C85.9068 40.6841 86.0809 40.3021 86.3355 40.0475L85.0264 38.7384ZM84.0555 41.3109V48.4384H85.9068V41.3109H84.0555ZM84.0555 48.4384C84.0555 48.4146 84.0602 48.3735 84.0799 48.3257C84.0996 48.2777 84.126 48.2437 84.1452 48.2245L85.4543 49.5335C85.7508 49.237 85.9068 48.8539 85.9068 48.4384H84.0555ZM84.1452 48.2245C84.1731 48.1965 84.212 48.1698 84.2569 48.1524C84.2999 48.1356 84.3293 48.1348 84.3332 48.1348V49.9861C84.7389 49.9861 85.1397 49.8481 85.4543 49.5335L84.1452 48.2245ZM84.3332 48.1348H82.0783V49.9861H84.3332V48.1348ZM93.3049 47.6608L92.6504 48.3154L92.6554 48.3204L92.6605 48.3254L93.3049 47.6608ZM91.5166 42.9437L92.4417 42.9121L92.4415 42.9068L91.5166 42.9437ZM91.4906 42.2958L90.5657 42.2588L90.5643 42.2958L90.5657 42.3328L91.4906 42.2958ZM91.5166 41.6478L90.5918 41.6073L90.5917 41.6108L91.5166 41.6478ZM93.3308 37.0085L92.6813 36.349L92.6763 36.354L93.3308 37.0085ZM102.61 37.1899L101.918 37.8049L101.922 37.8102L102.61 37.1899ZM104.113 43.1511L104.767 43.8056L104.767 43.8056L104.113 43.1511ZM95.0414 43.3325V42.4069H94.1158V43.3325H95.0414ZM95.0414 43.5399H94.1158V43.5567L94.1164 43.5735L95.0414 43.5399ZM95.819 45.9503L95.0738 46.4993L95.0819 46.5104L95.0904 46.5213L95.819 45.9503ZM100.329 45.717L99.6123 45.1308L99.606 45.1386L99.5998 45.1465L100.329 45.717ZM100.692 45.3541L100.278 44.5262L100.246 44.5421L100.215 44.5604L100.692 45.3541ZM103.75 45.4319L103.095 46.0864L103.15 46.1406L103.212 46.1851L103.75 45.4319ZM103.18 47.2462L102.484 46.6351L102.483 46.6366L103.18 47.2462ZM101.08 48.6976L101.462 49.5408L101.08 48.6976ZM100.769 41.1554V42.081H101.695V41.1554H100.769ZM99.9918 38.6154L99.2709 39.1961L99.2758 39.2021L99.2807 39.208L99.9918 38.6154ZM95.7931 38.6154L95.0722 38.0347L95.0722 38.0347L95.7931 38.6154ZM95.0414 41.1554H94.1158V42.081H95.0414V41.1554ZM97.8924 48.394C96.162 48.394 94.8823 47.9011 93.9493 46.9963L92.6605 48.3254C94.0083 49.6323 95.787 50.2453 97.8924 50.2453V48.394ZM93.9594 47.0063C93.044 46.0908 92.505 44.7659 92.4417 42.9121L90.5915 42.9754C90.6663 45.1648 91.3196 46.9846 92.6504 48.3154L93.9594 47.0063ZM92.4415 42.9068L92.4156 42.2588L90.5657 42.3328L90.5917 42.9807L92.4415 42.9068ZM92.4156 42.3328L92.4415 41.6848L90.5917 41.6108L90.5657 42.2588L92.4156 42.3328ZM92.4413 41.6884C92.5201 39.8916 93.063 38.5854 93.9854 37.663L92.6763 36.354C91.3525 37.6778 90.6858 39.4646 90.5918 41.6073L92.4413 41.6884ZM93.9803 37.668C94.9157 36.7469 96.186 36.2495 97.8924 36.2495V34.3982C95.7975 34.3982 94.0268 35.0239 92.6813 36.349L93.9803 37.668ZM97.8924 36.2495C99.7314 36.2495 101.026 36.802 101.918 37.8049L103.301 36.575C101.981 35.0897 100.131 34.3982 97.8924 34.3982V36.2495ZM101.922 37.8102C102.858 38.8463 103.369 40.2652 103.369 42.1662H105.22C105.22 39.9203 104.607 38.0217 103.297 36.5697L101.922 37.8102ZM103.369 42.1662V42.7105H105.22V42.1662H103.369ZM103.369 42.7105C103.369 42.6867 103.373 42.6456 103.393 42.5978C103.413 42.5498 103.439 42.5158 103.458 42.4966L104.767 43.8056C105.064 43.5091 105.22 43.126 105.22 42.7105H103.369ZM103.458 42.4966C103.486 42.4686 103.525 42.4419 103.57 42.4245C103.613 42.4077 103.642 42.4069 103.646 42.4069V44.2582C104.052 44.2582 104.453 44.1202 104.767 43.8056L103.458 42.4966ZM103.646 42.4069H95.0414V44.2582H103.646V42.4069ZM94.1158 43.3325V43.5399H95.9671V43.3325H94.1158ZM94.1164 43.5735C94.1566 44.6781 94.4621 45.6693 95.0738 46.4993L96.5642 45.4012C96.2082 44.918 95.9954 44.3023 95.9665 43.5062L94.1164 43.5735ZM95.0904 46.5213C95.7795 47.4004 96.739 47.8349 97.8665 47.8349V45.9836C97.2661 45.9836 96.8606 45.7787 96.5475 45.3792L95.0904 46.5213ZM97.8665 47.8349C99.1673 47.8349 100.258 47.3091 101.058 46.2875L99.5998 45.1465C99.1552 45.7145 98.6046 45.9836 97.8665 45.9836V47.8349ZM101.045 46.3031C101.111 46.2226 101.159 46.1699 101.191 46.1383C101.206 46.1229 101.213 46.1168 101.213 46.1171C101.212 46.1174 101.209 46.1205 101.202 46.1254C101.195 46.1303 101.184 46.1382 101.168 46.1479L100.215 44.5604C99.9758 44.7041 99.7657 44.9433 99.6123 45.1308L101.045 46.3031ZM101.106 46.1821C101.081 46.1943 101.062 46.2009 101.052 46.2042C101.041 46.2074 101.037 46.208 101.04 46.2074C101.044 46.2068 101.053 46.2054 101.069 46.2042C101.085 46.2029 101.105 46.202 101.132 46.202V44.3507C100.88 44.3507 100.567 44.3816 100.278 44.5262L101.106 46.1821ZM101.132 46.202H103.361V44.3507H101.132V46.202ZM103.361 46.202C103.335 46.202 103.288 46.1972 103.231 46.1747C103.174 46.1517 103.128 46.1187 103.095 46.0864L104.404 44.7774C104.116 44.4887 103.746 44.3507 103.361 44.3507V46.202ZM103.212 46.1851C103.176 46.1596 103.118 46.1072 103.071 46.0198C103.023 45.9299 103.006 45.8398 103.006 45.7688H104.857C104.857 45.3062 104.631 44.9235 104.288 44.6787L103.212 46.1851ZM103.006 45.7688C103.006 45.8348 102.947 46.109 102.484 46.6351L103.875 47.8572C104.415 47.2429 104.857 46.5322 104.857 45.7688H103.006ZM102.483 46.6366C102.112 47.0605 101.536 47.4753 100.699 47.8543L101.462 49.5408C102.457 49.0905 103.28 48.5376 103.876 47.8557L102.483 46.6366ZM100.699 47.8543C99.9245 48.2048 98.9965 48.394 97.8924 48.394V50.2453C99.2073 50.2453 100.405 50.0197 101.462 49.5408L100.699 47.8543ZM101.695 41.1554V41.0776H99.8437V41.1554H101.695ZM101.695 41.0776C101.695 39.8992 101.393 38.8507 100.703 38.0228L99.2807 39.208C99.6276 39.6243 99.8437 40.2172 99.8437 41.0776H101.695ZM100.713 38.0347C100.012 37.1655 99.0314 36.7567 97.8924 36.7567V38.608C98.5504 38.608 98.969 38.8213 99.2709 39.1961L100.713 38.0347ZM97.8924 36.7567C96.7534 36.7567 95.7724 37.1655 95.0722 38.0347L96.5139 39.1961C96.8159 38.8213 97.2344 38.608 97.8924 38.608V36.7567ZM95.0722 38.0347C94.4056 38.8622 94.1158 39.9063 94.1158 41.0776H95.9671C95.9671 40.2101 96.1783 39.6127 96.5139 39.1961L95.0722 38.0347ZM94.1158 41.0776V41.1554H95.9671V41.0776H94.1158ZM95.0414 42.081H100.769V40.2298H95.0414V42.081ZM110.737 48.9049L110.128 49.6015L110.154 49.6245L110.182 49.6454L110.737 48.9049ZM110.4 48.4125L109.542 48.7585L109.546 48.7685L110.4 48.4125ZM105.554 36.3865L104.65 36.5873L104.667 36.6617L104.695 36.7325L105.554 36.3865ZM105.502 36.1532H104.576V36.2548L104.598 36.354L105.502 36.1532ZM105.657 35.7644L106.312 36.419L106.312 36.419L105.657 35.7644ZM108.845 36.0754L107.977 36.3955L107.98 36.4034L108.845 36.0754ZM112.292 45.1727L111.427 45.5007L112.292 47.7851L113.158 45.5007L112.292 45.1727ZM115.739 36.0754L114.889 35.7108L114.881 35.729L114.874 35.7475L115.739 36.0754ZM115.973 35.7385L115.37 35.0357L115.343 35.0588L115.318 35.084L115.973 35.7385ZM118.901 35.7644L118.199 36.3668L118.245 36.4209L118.299 36.4672L118.901 35.7644ZM119.057 36.3865L119.915 36.7341L119.926 36.7069L119.935 36.6792L119.057 36.3865ZM114.184 48.4125L115.039 48.7685L115.042 48.7601L114.184 48.4125ZM113.847 48.9049L114.403 49.6454L114.431 49.6245L114.457 49.6015L113.847 48.9049ZM111.333 48.1348C111.299 48.1348 111.273 48.1331 111.254 48.1309C111.236 48.1288 111.226 48.1265 111.224 48.1259C111.219 48.1247 111.249 48.1319 111.293 48.1644L110.182 49.6454C110.543 49.916 110.969 49.9861 111.333 49.9861V48.1348ZM111.347 48.2083C111.336 48.1991 111.299 48.1617 111.255 48.0565L109.546 48.7685C109.675 49.078 109.862 49.3688 110.128 49.6015L111.347 48.2083ZM111.259 48.0665L106.412 36.0405L104.695 36.7325L109.542 48.7585L111.259 48.0665ZM106.457 36.1857L106.405 35.9524L104.598 36.354L104.65 36.5873L106.457 36.1857ZM106.427 36.1532C106.427 36.1798 106.423 36.2268 106.4 36.2832C106.377 36.3406 106.344 36.3867 106.312 36.419L105.003 35.1099C104.714 35.3985 104.576 35.7687 104.576 36.1532H106.427ZM106.312 36.419C106.302 36.4293 106.273 36.4546 106.223 36.4764C106.171 36.4989 106.118 36.5087 106.072 36.5087V34.6574C105.645 34.6574 105.278 34.8344 105.003 35.1099L106.312 36.419ZM106.072 36.5087H108.171V34.6574H106.072V36.5087ZM108.171 36.5087C108.176 36.5087 108.162 36.5092 108.135 36.5012C108.106 36.4926 108.072 36.4772 108.04 36.4535C107.971 36.4033 107.963 36.3584 107.977 36.3955L109.714 35.7554C109.607 35.4642 109.426 35.1731 109.132 34.9588C108.834 34.741 108.495 34.6574 108.171 34.6574V36.5087ZM107.98 36.4034L111.427 45.5007L113.158 44.8447L109.711 35.7475L107.98 36.4034ZM113.158 45.5007L116.605 36.4034L114.874 35.7475L111.427 44.8447L113.158 45.5007ZM116.59 36.4401C116.591 36.4391 116.597 36.4229 116.627 36.393L115.318 35.084C115.141 35.2614 114.992 35.4699 114.889 35.7108L116.59 36.4401ZM116.575 36.4413C116.551 36.4621 116.518 36.4818 116.482 36.4948C116.446 36.5074 116.42 36.5087 116.413 36.5087V34.6574C116.04 34.6574 115.674 34.7756 115.37 35.0357L116.575 36.4413ZM116.413 36.5087H118.539V34.6574H116.413V36.5087ZM118.539 36.5087C118.467 36.5087 118.39 36.4918 118.319 36.4563C118.251 36.4224 118.213 36.3836 118.199 36.3668L119.604 35.162C119.355 34.8707 118.99 34.6574 118.539 34.6574V36.5087ZM118.299 36.4672C118.271 36.4431 118.23 36.3984 118.199 36.3308C118.167 36.2626 118.157 36.1987 118.157 36.1532H120.009C120.009 35.72 119.824 35.3362 119.504 35.0616L118.299 36.4672ZM118.157 36.1532C118.157 36.1811 118.156 36.191 118.156 36.1871C118.157 36.1846 118.158 36.1755 118.161 36.1612C118.163 36.1473 118.169 36.1238 118.179 36.0938L119.935 36.6792C120.001 36.4826 120.009 36.2839 120.009 36.1532H118.157ZM118.199 36.0389L113.326 48.0649L115.042 48.7601L119.915 36.7341L118.199 36.0389ZM113.33 48.0565C113.286 48.1617 113.248 48.1991 113.238 48.2083L114.457 49.6015C114.723 49.3688 114.91 49.078 115.039 48.7685L113.33 48.0565ZM113.292 48.1644C113.335 48.1319 113.366 48.1247 113.361 48.1259C113.359 48.1265 113.349 48.1288 113.33 48.1309C113.312 48.1331 113.286 48.1348 113.251 48.1348V49.9861C113.616 49.9861 114.042 49.916 114.403 49.6454L113.292 48.1644ZM113.251 48.1348H111.333V49.9861H113.251V48.1348ZM121.525 33.1726L122.179 32.5181L122.179 32.5181L121.525 33.1726ZM121.525 30.4253L120.87 29.7708L120.87 29.7708L121.525 30.4253ZM124.765 30.4253L124.11 31.0798L124.132 31.1016L124.155 31.1219L124.765 30.4253ZM124.791 33.1726L124.136 32.5181L124.136 32.5181L124.791 33.1726ZM121.629 48.879L122.283 48.2245L122.283 48.2245L121.629 48.879ZM121.629 35.7644L122.283 36.419L122.283 36.419L121.629 35.7644ZM124.661 35.7644L123.958 36.3668L124.005 36.4209L124.059 36.4672L124.661 35.7644ZM124.661 48.879L124.006 48.2245L123.981 48.2496L123.958 48.2766L124.661 48.879ZM121.965 32.4284C121.989 32.4284 122.03 32.4331 122.078 32.4528C122.126 32.4725 122.16 32.4989 122.179 32.5181L120.87 33.8272C121.167 34.1237 121.55 34.2797 121.965 34.2797V32.4284ZM122.179 32.5181C122.199 32.5373 122.225 32.5713 122.245 32.6193C122.264 32.6672 122.269 32.7082 122.269 32.732H120.418C120.418 33.1475 120.574 33.5306 120.87 33.8272L122.179 32.5181ZM122.269 32.732V30.8659H120.418V32.732H122.269ZM122.269 30.8659C122.269 30.8897 122.264 30.9308 122.245 30.9786C122.225 31.0266 122.199 31.0606 122.179 31.0798L120.87 29.7708C120.574 30.0673 120.418 30.4504 120.418 30.8659H122.269ZM122.179 31.0798C122.16 31.0991 122.126 31.1254 122.078 31.1452C122.03 31.1649 121.989 31.1695 121.965 31.1695V29.3182C121.55 29.3182 121.167 29.4743 120.87 29.7708L122.179 31.0798ZM121.965 31.1695H124.324V29.3182H121.965V31.1695ZM124.324 31.1695C124.3 31.1695 124.259 31.1649 124.211 31.1452C124.163 31.1254 124.129 31.0991 124.11 31.0798L125.419 29.7708C125.123 29.4743 124.74 29.3182 124.324 29.3182V31.1695ZM124.155 31.1219C124.141 31.1094 124.109 31.0766 124.083 31.0203C124.055 30.9626 124.046 30.9068 124.046 30.8659H125.898C125.898 30.4077 125.699 30.0128 125.374 29.7287L124.155 31.1219ZM124.046 30.8659V32.732H125.898V30.8659H124.046ZM124.046 32.732C124.046 32.7082 124.051 32.6672 124.071 32.6193C124.09 32.5713 124.117 32.5373 124.136 32.5181L125.445 33.8272C125.742 33.5306 125.898 33.1475 125.898 32.732H124.046ZM124.136 32.5181C124.164 32.4901 124.203 32.4635 124.248 32.446C124.291 32.4293 124.32 32.4284 124.324 32.4284V34.2797C124.73 34.2797 125.13 34.1418 125.445 33.8272L124.136 32.5181ZM124.324 32.4284H121.965V34.2797H124.324V32.4284ZM122.069 48.1348C122.093 48.1348 122.134 48.1394 122.182 48.1591C122.23 48.1789 122.264 48.2052 122.283 48.2245L120.974 49.5335C121.271 49.83 121.654 49.9861 122.069 49.9861V48.1348ZM122.283 48.2245C122.302 48.2437 122.329 48.2777 122.348 48.3257C122.368 48.3735 122.373 48.4146 122.373 48.4384H120.521C120.521 48.8539 120.678 49.237 120.974 49.5335L122.283 48.2245ZM122.373 48.4384V36.205H120.521V48.4384H122.373ZM122.373 36.205C122.373 36.2289 122.368 36.2699 122.348 36.3177C122.329 36.3658 122.302 36.3997 122.283 36.419L120.974 35.1099C120.678 35.4064 120.521 35.7896 120.521 36.205H122.373ZM122.283 36.419C122.264 36.4382 122.23 36.4645 122.182 36.4843C122.134 36.504 122.093 36.5087 122.069 36.5087V34.6574C121.654 34.6574 121.271 34.8134 120.974 35.1099L122.283 36.419ZM122.069 36.5087H124.22V34.6574H122.069V36.5087ZM124.22 36.5087C124.218 36.5087 124.179 36.5082 124.121 36.4843C124.058 36.4587 124.001 36.417 123.958 36.3668L125.364 35.162C125.05 34.796 124.623 34.6574 124.22 34.6574V36.5087ZM124.059 36.4672C124.008 36.4242 123.967 36.3669 123.941 36.3048C123.917 36.2467 123.917 36.2076 123.917 36.205H125.768C125.768 35.8021 125.629 35.3754 125.263 35.0616L124.059 36.4672ZM123.917 36.205V48.4384H125.768V36.205H123.917ZM123.917 48.4384C123.917 48.4146 123.921 48.3735 123.941 48.3257C123.961 48.2777 123.987 48.2437 124.006 48.2245L125.316 49.5335C125.612 49.237 125.768 48.8539 125.768 48.4384H123.917ZM123.958 48.2766C124.001 48.2264 124.058 48.1847 124.121 48.1591C124.179 48.1352 124.218 48.1348 124.22 48.1348V49.9861C124.623 49.9861 125.05 49.8474 125.364 49.4814L123.958 48.2766ZM124.22 48.1348H122.069V49.9861H124.22V48.1348ZM129.551 47.7645L128.912 48.4346L128.918 48.4398L129.551 47.7645ZM127.763 43.4621L126.837 43.4831L126.837 43.4946L126.838 43.5061L127.763 43.4621ZM127.737 42.3217L126.811 42.3007L126.811 42.3217L126.811 42.3427L127.737 42.3217ZM127.763 41.1813L126.838 41.1369L126.837 41.1486L126.837 41.1603L127.763 41.1813ZM129.577 36.9048L130.21 37.5798L130.21 37.5798L129.577 36.9048ZM138.907 36.9048L138.274 37.5798L138.274 37.5798L138.907 36.9048ZM140.722 41.1813L139.797 41.2258L139.798 41.242L139.799 41.2582L140.722 41.1813ZM140.722 43.4621L139.799 43.3852L139.798 43.4016L139.797 43.4181L140.722 43.4621ZM138.933 47.7645L139.566 48.4398L139.572 48.4346L138.933 47.7645ZM136.367 45.8984L137.063 46.5095L137.072 46.4991L136.367 45.8984ZM137.197 43.3325L136.276 43.2404L136.273 43.2651L136.272 43.2898L137.197 43.3325ZM137.197 41.3109L136.272 41.3536L136.273 41.3783L136.276 41.403L137.197 41.3109ZM136.367 38.7709L135.663 39.3717L135.672 39.382L136.367 38.7709ZM132.117 38.7709L132.812 39.382L132.821 39.3716L132.117 38.7709ZM131.288 41.3109L130.363 41.2682L130.362 41.2777L130.362 41.2872L131.288 41.3109ZM131.262 42.3217L130.336 42.298L130.336 42.3217L130.336 42.3454L131.262 42.3217ZM131.288 43.3325L130.362 43.3562L130.362 43.3657L130.363 43.3752L131.288 43.3325ZM132.117 45.8984L131.413 46.4992L131.422 46.5094L132.117 45.8984ZM134.242 48.394C132.375 48.394 131.068 47.9175 130.184 47.0892L128.918 48.4398C130.246 49.685 132.066 50.2453 134.242 50.2453V48.394ZM130.19 47.0945C129.288 46.235 128.765 45.0425 128.687 43.4181L126.838 43.5061C126.933 45.5102 127.602 47.1861 128.912 48.4346L130.19 47.0945ZM128.688 43.4411L128.662 42.3007L126.811 42.3427L126.837 43.4831L128.688 43.4411ZM128.662 42.3427L128.688 41.2024L126.837 41.1603L126.811 42.3007L128.662 42.3427ZM128.687 41.2258C128.764 39.6255 129.292 38.4419 130.21 37.5798L128.943 36.2299C127.616 37.4757 126.934 39.1432 126.838 41.1369L128.687 41.2258ZM130.21 37.5798C131.116 36.7294 132.42 36.2495 134.242 36.2495V34.3982C132.09 34.3982 130.284 34.9722 128.943 36.2299L130.21 37.5798ZM134.242 36.2495C136.065 36.2495 137.368 36.7294 138.274 37.5798L139.541 36.2299C138.201 34.9722 136.394 34.3982 134.242 34.3982V36.2495ZM138.274 37.5798C139.193 38.4419 139.72 39.6255 139.797 41.2258L141.646 41.1369C141.55 39.1432 140.868 37.4757 139.541 36.2299L138.274 37.5798ZM139.799 41.2582C139.813 41.422 139.822 41.7659 139.822 42.3217H141.673C141.673 41.7717 141.665 41.3553 141.644 41.1044L139.799 41.2582ZM139.822 42.3217C139.822 42.8775 139.813 43.2214 139.799 43.3852L141.644 43.539C141.665 43.2881 141.673 42.8717 141.673 42.3217H139.822ZM139.797 43.4181C139.72 45.0425 139.196 46.235 138.295 47.0945L139.572 48.4346C140.882 47.1861 141.551 45.5102 141.646 43.5061L139.797 43.4181ZM138.3 47.0892C137.417 47.9175 136.109 48.394 134.242 48.394V50.2453C136.419 50.2453 138.238 49.685 139.566 48.4398L138.3 47.0892ZM134.242 47.6794C135.364 47.6794 136.35 47.3207 137.063 46.5094L135.672 45.2874C135.383 45.6166 134.952 45.8281 134.242 45.8281V47.6794ZM137.072 46.4991C137.755 45.6981 138.064 44.6132 138.121 43.3752L136.272 43.2898C136.226 44.2981 135.982 44.9238 135.663 45.2977L137.072 46.4991ZM138.118 43.4246C138.14 43.1987 138.148 42.8164 138.148 42.3217H136.297C136.297 42.8292 136.288 43.1208 136.276 43.2404L138.118 43.4246ZM138.148 42.3217C138.148 41.827 138.14 41.4447 138.118 41.2188L136.276 41.403C136.288 41.5227 136.297 41.8142 136.297 42.3217H138.148ZM138.121 41.2682C138.064 40.0324 137.756 38.9482 137.063 38.1599L135.672 39.382C135.982 39.734 136.226 40.3432 136.272 41.3536L138.121 41.2682ZM137.072 38.1702C136.362 37.3377 135.373 36.9641 134.242 36.9641V38.8154C134.943 38.8154 135.371 39.0292 135.663 39.3716L137.072 38.1702ZM134.242 36.9641C133.111 36.9641 132.123 37.3377 131.413 38.1702L132.821 39.3716C133.113 39.0292 133.542 38.8154 134.242 38.8154V36.9641ZM131.422 38.1599C130.729 38.9482 130.42 40.0324 130.363 41.2682L132.212 41.3536C132.259 40.3432 132.503 39.734 132.812 39.382L131.422 38.1599ZM130.362 41.2872L130.336 42.298L132.187 42.3454L132.213 41.3346L130.362 41.2872ZM130.336 42.3454L130.362 43.3562L132.213 43.3088L132.187 42.298L130.336 42.3454ZM130.363 43.3752C130.42 44.6132 130.729 45.6981 131.413 46.4991L132.821 45.2977C132.502 44.9238 132.259 44.2981 132.212 43.2898L130.363 43.3752ZM131.422 46.5094C132.134 47.3207 133.12 47.6794 134.242 47.6794V45.8281C133.533 45.8281 133.101 45.6166 132.812 45.2874L131.422 46.5094ZM144.863 47.7645L144.165 48.3716L144.17 48.3773L144.863 47.7645ZM143.671 35.7644L144.326 36.419L144.326 36.419L143.671 35.7644ZM146.833 35.7644L146.13 36.3668L146.177 36.4209L146.231 36.4672L146.833 35.7644ZM151.965 45.6911L151.29 45.0573L151.285 45.0628L151.28 45.0684L151.965 45.6911ZM152.95 35.7644L153.604 36.419L153.604 36.419L152.95 35.7644ZM156.112 35.7644L155.409 36.3668L155.455 36.4209L155.509 36.4672L156.112 35.7644ZM156.112 48.879L155.457 48.2245L155.432 48.2496L155.409 48.2766L156.112 48.879ZM152.95 47.3757H153.875V44.5889L152.208 46.8219L152.95 47.3757ZM148.621 48.394C147.253 48.394 146.27 47.9589 145.557 47.1517L144.17 48.3773C145.288 49.6436 146.81 50.2453 148.621 50.2453V48.394ZM145.562 47.1574C144.831 46.3155 144.415 45.1275 144.415 43.488H142.564C142.564 45.4425 143.065 47.1055 144.165 48.3716L145.562 47.1574ZM144.415 43.488V36.205H142.564V43.488H144.415ZM144.415 36.205C144.415 36.2289 144.411 36.2699 144.391 36.3177C144.371 36.3658 144.345 36.3997 144.326 36.419L143.017 35.1099C142.72 35.4064 142.564 35.7896 142.564 36.205H144.415ZM144.326 36.419C144.306 36.4382 144.272 36.4645 144.224 36.4843C144.177 36.504 144.136 36.5087 144.112 36.5087V34.6574C143.696 34.6574 143.313 34.8134 143.017 35.1099L144.326 36.419ZM144.112 36.5087H146.392V34.6574H144.112V36.5087ZM146.392 36.5087C146.39 36.5087 146.351 36.5082 146.293 36.4843C146.231 36.4587 146.173 36.417 146.13 36.3668L147.536 35.162C147.222 34.796 146.795 34.6574 146.392 34.6574V36.5087ZM146.231 36.4672C146.181 36.4242 146.139 36.3669 146.113 36.3048C146.089 36.2467 146.089 36.2076 146.089 36.205H147.94C147.94 35.8021 147.802 35.3754 147.436 35.0616L146.231 36.4672ZM146.089 36.205V43.3325H147.94V36.205H146.089ZM146.089 43.3325C146.089 44.5193 146.347 45.5822 147.026 46.354C147.724 47.1487 148.722 47.472 149.84 47.472V45.6207C149.074 45.6207 148.659 45.4084 148.416 45.1318C148.153 44.8323 147.94 44.2884 147.94 43.3325H146.089ZM149.84 47.472C150.951 47.472 151.926 47.1094 152.65 46.3137L151.28 45.0684C150.967 45.4131 150.525 45.6207 149.84 45.6207V47.472ZM152.64 46.3248C153.378 45.5388 153.694 44.5015 153.694 43.3325H151.843C151.843 44.1679 151.623 44.703 151.29 45.0573L152.64 46.3248ZM153.694 43.3325V36.205H151.843V43.3325H153.694ZM153.694 36.205C153.694 36.2289 153.689 36.2699 153.67 36.3177C153.65 36.3658 153.624 36.3997 153.604 36.419L152.295 35.1099C151.999 35.4064 151.843 35.7896 151.843 36.205H153.694ZM153.604 36.419C153.585 36.4382 153.551 36.4645 153.503 36.4843C153.455 36.504 153.414 36.5087 153.39 36.5087V34.6574C152.975 34.6574 152.592 34.8134 152.295 35.1099L153.604 36.419ZM153.39 36.5087H155.671V34.6574H153.39V36.5087ZM155.671 36.5087C155.669 36.5087 155.629 36.5082 155.571 36.4843C155.509 36.4587 155.452 36.417 155.409 36.3668L156.815 35.162C156.501 34.796 156.074 34.6574 155.671 34.6574V36.5087ZM155.509 36.4672C155.459 36.4242 155.418 36.3669 155.392 36.3048C155.368 36.2467 155.368 36.2076 155.368 36.205H157.219C157.219 35.8021 157.08 35.3754 156.714 35.0616L155.509 36.4672ZM155.368 36.205V48.4384H157.219V36.205H155.368ZM155.368 48.4384C155.368 48.4146 155.372 48.3735 155.392 48.3257C155.412 48.2777 155.438 48.2437 155.457 48.2245L156.766 49.5335C157.063 49.237 157.219 48.8539 157.219 48.4384H155.368ZM155.409 48.2766C155.452 48.2264 155.509 48.1847 155.571 48.1591C155.629 48.1352 155.669 48.1348 155.671 48.1348V49.9861C156.074 49.9861 156.501 49.8474 156.815 49.4814L155.409 48.2766ZM155.671 48.1348H153.572V49.9861H155.671V48.1348ZM153.572 48.1348C153.596 48.1348 153.637 48.1394 153.685 48.1591C153.733 48.1789 153.767 48.2052 153.786 48.2245L152.477 49.5335C152.773 49.83 153.156 49.9861 153.572 49.9861V48.1348ZM153.786 48.2245C153.805 48.2437 153.831 48.2777 153.851 48.3257C153.871 48.3735 153.875 48.4146 153.875 48.4384H152.024C152.024 48.8539 152.18 49.237 152.477 49.5335L153.786 48.2245ZM153.875 48.4384V47.3757H152.024V48.4384H153.875ZM152.208 46.8219C151.449 47.8387 150.309 48.394 148.621 48.394V50.2453C150.77 50.2453 152.515 49.5046 153.691 47.9296L152.208 46.8219ZM161.557 48.7494L161.176 49.5932L161.183 49.5963L161.19 49.5993L161.557 48.7494ZM159.587 47.3757L158.855 47.9424L158.865 47.9556L158.876 47.9683L159.587 47.3757ZM159.147 45.5874L159.749 46.2902L159.749 46.2902L159.147 45.5874ZM161.998 45.6133L161.295 46.2157L161.361 46.2929L161.442 46.3538L161.998 45.6133ZM162.542 46.0798L163.176 45.4058L163.165 45.3956L163.154 45.3858L162.542 46.0798ZM166.974 44.5248L166.267 45.1227L166.28 45.1379L166.294 45.1526L166.974 44.5248ZM165.911 43.9286L165.593 44.7977L165.606 44.8024L165.619 44.8068L165.911 43.9286ZM163.605 43.3325L163.413 44.2381L163.42 44.2396L163.605 43.3325ZM160.339 41.907L159.71 42.5866L159.719 42.5942L160.339 41.907ZM159.924 37.4232L160.688 37.9467L160.694 37.9366L159.924 37.4232ZM161.764 35.9199L162.157 36.7583L162.164 36.7547L161.764 35.9199ZM167.726 35.894L167.346 36.7385L167.354 36.7417L167.361 36.7448L167.726 35.894ZM169.643 37.2158L168.932 37.8084L168.943 37.8213L168.954 37.8338L169.643 37.2158ZM167.389 38.9524L167.957 38.2217L167.942 38.2101L167.927 38.1991L167.389 38.9524ZM166.818 38.4599L166.187 39.1366L166.187 39.1366L166.818 38.4599ZM165.911 37.8897L166.255 37.0303L166.255 37.0303L165.911 37.8897ZM163.19 38.0971L162.629 37.3608L162.62 37.3674L162.612 37.3743L163.19 38.0971ZM162.931 39.9891L163.642 39.3965L163.642 39.3965L162.931 39.9891ZM163.941 40.5852L164.27 39.7197L164.27 39.7197L163.941 40.5852ZM166.196 41.1554L166.376 40.2473L166.369 40.246L166.196 41.1554ZM169.747 42.6846L169.101 43.3472L169.109 43.3549L169.747 42.6846ZM169.255 48.1792L168.713 47.4285L168.713 47.4285L169.255 48.1792ZM164.823 48.394C163.611 48.394 162.656 48.2154 161.924 47.8995L161.19 49.5993C162.22 50.0436 163.442 50.2453 164.823 50.2453V48.394ZM161.938 47.9056C161.133 47.5426 160.61 47.1576 160.298 46.7832L158.876 47.9683C159.428 48.6306 160.219 49.1614 161.176 49.5932L161.938 47.9056ZM160.319 46.8091C159.943 46.3232 159.891 46.0698 159.891 46.0021H158.04C158.04 46.6946 158.402 47.357 158.855 47.9424L160.319 46.8091ZM159.891 46.0021C159.891 46.0249 159.886 46.0762 159.859 46.1398C159.83 46.2055 159.788 46.2565 159.749 46.2902L158.544 44.8846C158.199 45.1803 158.04 45.585 158.04 46.0021H159.891ZM159.749 46.2902C159.734 46.3032 159.706 46.3225 159.666 46.3375C159.626 46.3526 159.589 46.3575 159.561 46.3575V44.5062C159.179 44.5062 158.828 44.641 158.544 44.8846L159.749 46.2902ZM159.561 46.3575H161.609V44.5062H159.561V46.3575ZM161.609 46.3575C161.563 46.3575 161.499 46.3479 161.431 46.3161C161.364 46.2845 161.319 46.2438 161.295 46.2157L162.7 45.0109C162.426 44.6905 162.042 44.5062 161.609 44.5062V46.3575ZM161.442 46.3538C161.442 46.3533 161.452 46.3616 161.48 46.3847C161.506 46.4061 161.54 46.4348 161.583 46.4716C161.669 46.5453 161.784 46.6457 161.929 46.7739L163.154 45.3858C162.873 45.1377 162.659 44.9522 162.553 44.8728L161.442 46.3538ZM161.908 46.7539C162.292 47.116 162.74 47.3937 163.241 47.5898L163.916 45.8658C163.622 45.7508 163.379 45.5966 163.176 45.4058L161.908 46.7539ZM163.241 47.5898C163.76 47.7926 164.317 47.8867 164.9 47.8867V46.0354C164.517 46.0354 164.192 45.974 163.916 45.8658L163.241 47.5898ZM164.9 47.8867C165.711 47.8867 166.462 47.7248 167.096 47.3347L166.126 45.758C165.861 45.9209 165.472 46.0354 164.9 46.0354V47.8867ZM167.096 47.3347C167.789 46.908 168.211 46.2446 168.211 45.406H166.359C166.359 45.5349 166.331 45.6318 166.126 45.758L167.096 47.3347ZM168.211 45.406C168.211 44.8566 168.048 44.3237 167.654 43.8969L166.294 45.1526C166.315 45.1751 166.359 45.2296 166.359 45.406H168.211ZM167.681 43.9268C167.322 43.5029 166.766 43.2379 166.204 43.0505L165.619 44.8068C165.84 44.8806 166.001 44.9517 166.113 45.0146C166.168 45.0455 166.207 45.0718 166.232 45.0918C166.258 45.1119 166.267 45.1229 166.267 45.1227L167.681 43.9268ZM166.23 43.0596C165.645 42.8451 164.822 42.6355 163.789 42.4254L163.42 44.2396C164.426 44.4443 165.141 44.632 165.593 44.7977L166.23 43.0596ZM163.796 42.427C162.404 42.1321 161.496 41.7044 160.959 41.2198L159.719 42.5942C160.599 43.3883 161.868 43.9109 163.413 44.2381L163.796 42.427ZM160.967 41.2275C160.489 40.7853 160.228 40.1972 160.228 39.3671H158.376C158.376 40.6449 158.806 41.7501 159.71 42.5865L160.967 41.2275ZM160.228 39.3671C160.228 38.8744 160.372 38.4072 160.688 37.9467L159.161 36.8997C158.647 37.6487 158.376 38.4774 158.376 39.3671H160.228ZM160.694 37.9366C160.998 37.4812 161.467 37.0811 162.157 36.7583L161.372 35.0816C160.437 35.5191 159.68 36.1211 159.154 36.9097L160.694 37.9366ZM162.164 36.7547C162.843 36.4297 163.685 36.2495 164.719 36.2495V34.3982C163.473 34.3982 162.345 34.6153 161.364 35.0852L162.164 36.7547ZM164.719 36.2495C165.777 36.2495 166.645 36.4234 167.346 36.7385L168.105 35.0496C167.113 34.6044 165.976 34.3982 164.719 34.3982V36.2495ZM167.361 36.7448C168.12 37.0701 168.622 37.4356 168.932 37.8084L170.355 36.6233C169.801 35.9594 169.025 35.4437 168.09 35.0432L167.361 36.7448ZM168.954 37.8338C169.349 38.2739 169.392 38.5072 169.392 38.5636H171.243C171.243 37.8252 170.837 37.16 170.333 36.5979L168.954 37.8338ZM169.392 38.5636C169.392 38.5177 169.401 38.4644 169.424 38.4129C169.446 38.3631 169.471 38.3341 169.481 38.3237L170.79 39.6328C171.066 39.3573 171.243 38.9903 171.243 38.5636H169.392ZM169.481 38.3237C169.514 38.2915 169.56 38.2584 169.617 38.2355C169.674 38.2129 169.721 38.2081 169.747 38.2081V40.0594C170.132 40.0594 170.502 39.9214 170.79 39.6328L169.481 38.3237ZM169.747 38.2081H167.829V40.0594H169.747V38.2081ZM167.829 38.2081C167.898 38.2081 167.946 38.2235 167.968 38.2325C167.988 38.2406 167.984 38.2426 167.957 38.2217L166.82 39.683C167.071 39.878 167.414 40.0594 167.829 40.0594V38.2081ZM167.927 38.1991C167.86 38.1515 167.709 38.0248 167.45 37.7832L166.187 39.1366C166.446 39.3788 166.675 39.5804 166.851 39.7056L167.927 38.1991ZM167.45 37.7832C167.103 37.4593 166.702 37.2089 166.255 37.0303L165.567 38.7492C165.812 38.847 166.016 38.9768 166.187 39.1366L167.45 37.7832ZM166.255 37.0303C165.776 36.8388 165.249 36.7567 164.693 36.7567V38.608C165.071 38.608 165.355 38.6642 165.567 38.7492L166.255 37.0303ZM164.693 36.7567C163.931 36.7567 163.206 36.9207 162.629 37.3608L163.751 38.8334C163.899 38.7205 164.177 38.608 164.693 38.608V36.7567ZM162.612 37.3743C162.043 37.8295 161.746 38.4601 161.746 39.1856H163.597C163.597 39.0126 163.646 38.9176 163.768 38.8199L162.612 37.3743ZM161.746 39.1856C161.746 39.6818 161.88 40.1741 162.22 40.5817L163.642 39.3965C163.636 39.3894 163.597 39.346 163.597 39.1856H161.746ZM162.22 40.5817C162.553 40.9821 163.083 41.2496 163.613 41.4507L164.27 39.7197C164.052 39.637 163.893 39.5612 163.783 39.4963C163.669 39.4288 163.637 39.3908 163.642 39.3965L162.22 40.5817ZM163.613 41.4507C164.192 41.6701 165.007 41.872 166.024 42.0648L166.369 40.246C165.381 40.0587 164.694 39.8805 164.27 39.7197L163.613 41.4507ZM166.017 42.0634C167.61 42.3788 168.583 42.8419 169.101 43.3471L170.394 42.022C169.495 41.1449 168.1 40.5886 166.376 40.2474L166.017 42.0634ZM169.109 43.3549C169.651 43.8713 169.91 44.4757 169.91 45.2245H171.761C171.761 43.969 171.295 42.8801 170.386 42.0143L169.109 43.3549ZM169.91 45.2245C169.91 46.1116 169.547 46.827 168.713 47.4285L169.796 48.9299C171.07 48.0108 171.761 46.7565 171.761 45.2245H169.91ZM168.713 47.4285C167.875 48.0334 166.615 48.394 164.823 48.394V50.2453C166.832 50.2453 168.527 49.8456 169.796 48.9299L168.713 47.4285Z" fill="#4B370D"/>
</g>
<g clip-path="url(#clip0_1422:107727)">
<path d="M6.63672 26.3511C5.92006 26.5501 5.17219 26.6113 4.43272 26.5315L3.11111 26.4021L2.46402 25.2884C2.35029 25.0923 2.25618 24.8962 2.17382 24.7472C1.33449 23.1182 1.16151 21.2267 1.69146 19.4725C1.36544 19.0307 1.07934 18.5609 0.836531 18.0685C0.360446 17.1561 0.091142 16.1501 0.0477634 15.1219C0.00438474 14.0937 0.18799 13.0685 0.585537 12.1193C1.40125 10.2212 3.06797 8.87604 5.24452 8.24857H5.2955C5.83277 5.89555 7.64853 4.10333 10.2016 3.36213L10.2525 3.31507C11.5663 2.94251 21.2803 3.36997 23.7628 3.58959C25.2726 2.12287 27.9708 0.989498 31.5003 0.487521H31.6219C36.0103 -0.13603 56.5756 -0.104655 59.0738 1.05225C59.2424 0.965969 59.4071 0.867925 59.5836 0.793413L59.6542 0.76597C63.8073 -1.04978 69.3917 0.844402 71.8546 4.94258V4.96611C73.5471 4.93243 75.2207 5.32626 76.7206 6.11116C78.2205 6.89606 79.4981 8.04667 80.4353 9.45646L81.047 10.3741L80.6823 11.2997C80.4787 11.8349 80.1696 12.3238 79.7735 12.7375C79.3774 13.1511 78.9023 13.481 78.3764 13.7076C77.7088 13.9904 76.9915 14.1371 76.2665 14.139C73.9135 14.2252 71.7409 13.1546 69.8741 12.0095C69.0035 13.2623 67.7865 14.234 66.372 14.8057C65.2713 15.2665 64.1212 15.5994 62.9445 15.7978L62.3092 15.9155L61.6621 15.6645C61.4503 15.5861 61.2385 15.4959 61.0346 15.3978C60.9013 15.4684 60.764 15.5351 60.6424 15.5939L60.415 15.688H60.3836C59.1051 16.19 39.5359 14.4331 37.1868 14.2292C36.3422 15.0046 35.3607 15.6164 34.2925 16.0331L33.9866 16.1626L33.6141 16.2528C32.8572 16.4332 32.0454 16.5861 31.2611 16.6998C28.559 17.092 15.4841 18.2685 13.7703 17.8763C13.5893 18.5632 13.2356 19.1922 12.7427 19.7037C12.2498 20.2151 11.6342 20.5918 10.9545 20.798L10.829 20.8372H10.7663C10.7035 20.8804 10.5937 20.9784 10.5153 21.0451C10.2549 21.2973 9.95892 21.51 9.63683 21.6765C9.68389 22.9785 9.40151 24.4216 8.20147 25.5236L8.13481 25.5864L8.06422 25.6413C7.63341 25.9593 7.15029 26.1996 6.63672 26.3511Z" fill="#7D95B5"/>
<path d="M70.6155 7.33883C70.4342 6.81318 70.1948 6.30939 69.9018 5.83681C67.8782 2.5465 63.6859 0.969993 60.5367 2.30729C60.0485 2.51627 59.5938 2.79645 59.1877 3.13869C57.07 1.64845 36.8026 1.10725 32.7083 1.67982C28.9788 2.2014 26.6336 3.64067 26.1474 5.38583C23.4296 4.77797 12.492 4.23676 10.9312 4.67992C9.85249 4.95309 8.89528 5.57718 8.21017 6.45398C7.52506 7.33078 7.15094 8.4105 7.14671 9.52322C6.78366 9.56036 6.42428 9.62726 6.07217 9.72323C2.72304 10.6723 1.33475 14.1665 2.97402 17.5274C3.34691 18.2864 3.83803 18.9814 4.42898 19.5863C3.64464 20.9432 3.64464 22.8021 4.5231 24.6335C4.59369 24.7826 4.67213 24.9237 4.75449 25.0649C5.13117 25.1307 5.51724 25.1202 5.88978 25.034C6.26232 24.9478 6.61373 24.7876 6.92317 24.5629C8.12322 23.3864 7.84871 21.5079 7.25653 19.4647C8.82521 21.3118 8.85265 19.4294 10.2096 19.1706C11.8606 18.6216 12.0253 16.9274 11.9939 15.2489C14.7666 16.6529 28.4651 15.6411 31.775 14.8254C33.3437 14.1273 34.3163 13.1822 34.6104 12.1233C35.3634 12.288 36.1281 12.4135 36.9085 12.5155C38.9478 12.7782 58.3876 14.3822 59.4622 13.9626C59.9559 13.7663 60.4142 13.4908 60.8191 13.1469C61.3205 13.4977 61.8567 13.7961 62.4192 14.0371C65.3447 13.5508 68.2037 12.4214 68.7802 9.10359C71.0822 10.6723 73.6117 12.6331 76.1608 12.6017C77.5844 12.6253 78.4511 11.9233 78.8079 10.8762C76.9608 8.11533 73.5136 6.66822 70.6155 7.33883Z" fill="white"/>
<path d="M68.0898 3.75842C68.1721 3.95059 68.2506 4.15059 68.3133 4.32706C68.4231 4.30353 68.5329 4.28 68.6467 4.26431C68.4663 4.08392 68.2819 3.91921 68.0898 3.75842Z" fill="#C9DDE9"/>
<path d="M76.2704 8.43311C75.8233 9.16647 75.035 9.60962 73.8781 9.60962C71.329 9.66061 68.8035 7.64876 66.4975 6.11145C65.9249 9.42921 63.0621 10.5587 60.1404 11.045C59.5889 10.845 59.0625 10.5818 58.5717 10.2606C58.1796 10.594 40.6574 9.77825 39.7162 9.92335H39.677C37.6328 10.1719 35.5645 10.1442 33.5278 9.84099C32.7434 9.74295 31.9591 9.57825 31.21 9.40961C30.9159 10.4724 29.9237 11.394 28.3629 12.092C25.0687 12.9038 12.8094 13.5784 10.0407 12.1744C10.0681 13.8333 9.90344 15.5235 8.2524 16.0765C6.89941 16.3314 6.85629 18.2138 5.29937 16.3667C5.88763 18.3942 6.16605 20.2884 4.96601 21.4649C4.64195 21.718 4.25857 21.8841 3.85226 21.9473C3.86865 22.8933 4.09784 23.8236 4.52286 24.6689C4.59345 24.814 4.67189 24.9552 4.75425 25.0964C5.13093 25.1622 5.517 25.1517 5.88954 25.0655C6.26208 24.9793 6.61349 24.8191 6.92294 24.5944C8.12298 23.4179 7.84847 21.5394 7.2563 19.4962C8.82498 21.3433 8.85242 19.4609 10.2093 19.2021C11.8604 18.653 12.0251 16.9589 11.9937 15.2804C14.7663 16.6844 28.4648 15.6725 31.7747 14.8568C33.3434 14.1588 34.316 13.2137 34.6102 12.1548C35.3631 12.3195 36.1278 12.445 36.9083 12.547C38.9475 12.8097 58.3874 14.4137 59.462 13.9941C59.9556 13.7978 60.4139 13.5223 60.8189 13.1784C61.3202 13.5292 61.8564 13.8276 62.4189 14.0686C65.3445 13.5823 68.2034 12.4528 68.7799 9.13509C71.082 10.7038 73.6115 12.6646 76.1606 12.6332C77.5841 12.6568 78.4508 11.9548 78.8077 10.9077C78.1446 9.91421 77.2801 9.07113 76.2704 8.43311Z" fill="#C9DDE9"/>
<path d="M3.2407 15.9312C3.06245 15.7654 2.89478 15.5885 2.73871 15.4017C2.79193 15.7236 2.87867 16.0391 2.99753 16.343C3.07099 16.2013 3.15218 16.0639 3.2407 15.9312Z" fill="#C9DDE9"/>
<path d="M25.8531 8.26435C28.6936 8.74621 31.6093 8.51719 34.3397 7.59768L13.6135 7.22119C14.0057 7.79768 24.7433 8.08788 25.8531 8.26435Z" fill="#C9DDE9"/>
<path d="M9.38201 11.3821C9.72639 11.5655 10.1182 11.6405 10.506 11.5971C10.8938 11.5537 11.2593 11.394 11.5546 11.1389L8.41727 10.6644C8.66865 10.9859 9.00188 11.2337 9.38201 11.3821Z" fill="#C9DDE9"/>
<path d="M62.6543 6.36215C63.1053 5.66408 62.9289 4.91896 62.4347 4.23267L61.87 7.05237C62.2069 6.92573 62.4859 6.68024 62.6543 6.36215Z" fill="#C9DDE9"/>
</g>
<defs>
<filter id="filter0_d_1422:107727" x="64.6826" y="30.2439" width="106.153" height="20.927" filterUnits="userSpaceOnUse" color-interpolation-filters="sRGB">
<feFlood flood-opacity="0" result="BackgroundImageFix"/>
<feColorMatrix in="SourceAlpha" type="matrix" values="0 0 0 0 0 0 0 0 0 0 0 0 0 0 0 0 0 0 127 0" result="hardAlpha"/>
<feOffset dy="1.85129"/>
<feColorMatrix type="matrix" values="0 0 0 0 0.294118 0 0 0 0 0.215686 0 0 0 0 0.0509804 0 0 0 1 0"/>
<feBlend mode="normal" in2="BackgroundImageFix" result="effect1_dropShadow_1422:107727"/>
<feBlend mode="normal" in="SourceGraphic" in2="effect1_dropShadow_1422:107727" result="shape"/>
</filter>
<linearGradient id="paint0_linear_1422:107727" x1="117.546" y1="50.4524" x2="117.546" y2="14.0645" gradientUnits="userSpaceOnUse">
<stop stop-color="#C6753F"/>
<stop offset="0.5" stop-color="#C6753F" stop-opacity="0"/>
</linearGradient>
<clipPath id="clip0_1422:107727">
<rect width="81.0341" height="26.5185" fill="white" transform="translate(0.0444336 0.0444336)"/>
</clipPath>
</defs>
</svg>
