<svg width="172" height="147" viewBox="0 0 172 147" fill="none" xmlns="http://www.w3.org/2000/svg">
<g clip-path="url(#clip0_56:74937)">
<path d="M161.658 23.5C160.158 18.1 154.258 13.7 148.858 13.7C106.958 13.7 65.158 13.7 23.258 13.7C17.858 13.7 11.958 18.1 10.458 23.5C1.95803 55.5999 1.55803 89.2 9.25803 121.2C10.558 126.6 16.458 131 21.958 131C39.858 131 57.858 131 75.758 131C77.558 134.6 79.958 138.2 82.158 141.8C83.958 144.7 86.158 144.7 88.058 141.9C90.358 138.3 92.858 134.7 94.858 131.1C113.258 131.1 131.658 131.1 150.158 131.1C155.658 131.1 161.558 126.7 162.858 121.3C170.658 89.2 170.158 55.5999 161.658 23.5Z" stroke="#6A2D01" stroke-width="6" stroke-linecap="round" stroke-linejoin="round"/>
<path d="M161.658 21.5C160.158 16.1 154.258 11.7 148.858 11.7C106.958 11.7 65.158 11.7 23.258 11.7C17.858 11.7 11.958 16.1 10.458 21.5C1.95803 53.5999 1.55803 87.2 9.25803 119.2C10.558 124.6 16.458 129 21.958 129C39.858 129 57.858 129 75.758 129C77.558 132.6 79.958 136.2 82.158 139.8C83.958 142.7 86.158 142.7 88.058 139.9C90.358 136.3 92.858 132.7 94.858 129.1C113.258 129.1 131.658 129.1 150.158 129.1C155.658 129.1 161.558 124.7 162.858 119.3C170.658 87.2 170.158 53.5999 161.658 21.5Z" stroke="#6A2D01" stroke-width="4" stroke-linecap="round" stroke-linejoin="round"/>
<path d="M161.658 21.5C160.158 16.1 154.258 11.7 148.858 11.7C106.958 11.7 65.158 11.7 23.258 11.7C17.858 11.7 11.958 16.1 10.458 21.5C1.95803 53.5999 1.55803 87.2 9.25803 119.2C10.558 124.6 16.458 129 21.958 129C39.858 129 57.858 129 75.758 129C77.558 132.6 79.958 136.2 82.158 139.8C83.958 142.7 86.158 142.7 88.058 139.9C90.358 136.3 92.858 132.7 94.858 129.1C113.258 129.1 131.658 129.1 150.158 129.1C155.658 129.1 161.558 124.7 162.858 119.3C170.658 87.2 170.158 53.5999 161.658 21.5Z" fill="#FFC985"/>
<path d="M85.258 138C85.158 138 84.658 137.8 83.958 136.7C83.458 135.8 82.858 134.9 82.258 134C80.658 131.4 78.958 128.7 77.658 126.1L77.058 125H22.058C17.358 125 12.358 121.1 11.258 116.7C3.65803 85.1 4.05803 51.7 12.458 19.9C13.658 15.5 18.758 11.6 23.258 11.6H148.858C153.458 11.6 158.458 15.5 159.658 20C168.058 51.7 168.458 85.2 160.858 116.8C159.758 121.2 154.758 125.1 150.058 125.1H93.758L93.158 126.2C91.858 128.6 90.158 131.2 88.558 133.6C87.858 134.7 87.058 135.8 86.458 136.9C85.858 137.8 85.358 138 85.258 138Z" fill="#FCECD2"/>
<path d="M70.3874 14.3232L70.3016 18.2222L66.4026 18.1364L66.7038 4.43976L70.6029 4.52552L70.4534 11.3239L72.4529 11.3679L72.6024 4.5695L76.5015 4.65526L76.2002 18.352L72.3011 18.2662L72.3869 14.3671L70.3874 14.3232V14.3232Z" stroke="#6A2D01" stroke-width="4" stroke-miterlimit="10" stroke-linecap="round" stroke-linejoin="round"/>
<path d="M81.0848 14.5584C81.0782 14.8584 81.1738 15.0605 81.3693 15.2649C81.5649 15.4692 81.7626 15.5736 82.0626 15.5802C82.3625 15.5868 82.5646 15.4912 82.769 15.2957C82.9733 15.1001 83.0777 14.9023 83.0843 14.6024L86.9834 14.6882C86.9592 15.7879 86.4395 16.6767 85.5221 17.4567C84.6048 18.2367 83.3985 18.5103 81.9988 18.4795C80.6991 18.4509 79.5082 18.0246 78.5238 17.3028C77.5417 16.481 77.1616 15.5724 77.1857 14.4727L77.2715 10.5736C77.2957 9.47388 77.8154 8.5851 78.7327 7.80508C79.7501 7.02726 80.8564 6.75153 82.2561 6.78231C83.5558 6.8109 84.7467 7.23719 85.7311 7.95901C86.7154 8.68083 87.0933 9.68939 87.0691 10.7891L87.0054 13.6884L81.1068 13.5587L81.0848 14.5584ZM81.1706 10.6594L81.1486 11.6591L83.1481 11.7031L83.1701 10.7034C83.1767 10.4034 83.0811 10.2013 82.8855 9.99693C82.69 9.79258 82.4922 9.68821 82.1923 9.68161C81.8924 9.67502 81.6902 9.77059 81.4859 9.96615C81.2815 10.1617 81.175 10.4594 81.1706 10.6594Z" stroke="#6A2D01" stroke-width="4" stroke-miterlimit="10" stroke-linecap="round" stroke-linejoin="round"/>
<path d="M87.9831 14.7102L88.0689 10.8111C88.0931 9.71137 88.6128 8.82258 89.5301 8.04257C90.5475 7.26475 91.6538 6.98901 93.0535 7.0198C94.0532 7.04179 94.8486 7.25934 95.6397 7.67683L97.9523 7.12755L97.695 18.8247L95.4088 18.1743C94.6002 18.5566 93.796 18.739 92.7962 18.717C91.4965 18.6884 90.3056 18.2621 89.3212 17.5403C88.439 16.7207 87.9589 15.8099 87.9831 14.7102ZM91.968 10.8969L91.8822 14.7959C91.8756 15.0959 91.9712 15.298 92.1667 15.5024C92.3623 15.7067 92.56 15.8111 92.86 15.8177C93.1599 15.8243 93.362 15.7287 93.5664 15.5331C93.7707 15.3376 93.8751 15.1398 93.8817 14.8399L93.9675 10.9408C93.9741 10.6409 93.8785 10.4388 93.6829 10.2344C93.4874 10.0301 93.2896 9.9257 92.9897 9.9191C92.6898 9.9125 92.4876 10.0081 92.2833 10.2036C92.0789 10.3992 91.9724 10.6969 91.968 10.8969Z" stroke="#6A2D01" stroke-width="4" stroke-miterlimit="10" stroke-linecap="round" stroke-linejoin="round"/>
<path d="M108.392 19.06L106.106 18.4096C105.298 18.7919 104.493 18.9743 103.494 18.9523C102.194 18.9237 101.003 18.4974 100.019 17.7756C99.0365 16.9538 98.6564 16.0452 98.6806 14.9455L98.7663 11.0464C98.7905 9.94667 99.3102 9.05788 100.228 8.27787C101.245 7.50005 102.351 7.22431 103.751 7.2551C104.051 7.2617 104.451 7.27049 104.748 7.37706L104.792 5.37755L108.713 4.46355L108.392 19.06ZM104.665 11.1761C104.672 10.8762 104.576 10.6741 104.38 10.4697C104.185 10.2654 103.987 10.161 103.687 10.1544C103.387 10.1478 103.185 10.2434 102.981 10.4389C102.776 10.6345 102.672 10.8322 102.665 11.1322L102.58 15.0312C102.573 15.3311 102.669 15.5333 102.864 15.7376C103.06 15.942 103.257 16.0464 103.557 16.053C103.857 16.0596 104.059 15.964 104.264 15.7684C104.468 15.5729 104.573 15.3751 104.579 15.0752L104.665 11.1761Z" stroke="#6A2D01" stroke-width="4" stroke-miterlimit="10" stroke-linecap="round" stroke-linejoin="round"/>
<path d="M70.3874 14.3232L70.3016 18.2222L66.4026 18.1364L66.7038 4.43976L70.6029 4.52552L70.4534 11.3239L72.4529 11.3679L72.6024 4.5695L76.5015 4.65526L76.2002 18.352L72.3011 18.2662L72.3869 14.3671L70.3874 14.3232Z" fill="#6A2D01"/>
<path d="M81.0848 14.5584C81.0782 14.8584 81.1738 15.0605 81.3693 15.2649C81.5649 15.4692 81.7626 15.5736 82.0626 15.5802C82.3625 15.5868 82.5646 15.4912 82.769 15.2957C82.9733 15.1001 83.0777 14.9023 83.0843 14.6024L86.9834 14.6882C86.9592 15.7879 86.4395 16.6767 85.5221 17.4567C84.6048 18.2367 83.3985 18.5103 81.9988 18.4795C80.6991 18.4509 79.5082 18.0246 78.5238 17.3028C77.5417 16.481 77.1616 15.5724 77.1857 14.4727L77.2715 10.5736C77.2957 9.47388 77.8154 8.5851 78.7327 7.80508C79.7501 7.02726 80.8564 6.75153 82.2561 6.78231C83.5558 6.8109 84.7467 7.23719 85.7311 7.95901C86.7154 8.68083 87.0933 9.68939 87.0691 10.7891L87.0054 13.6884L81.1068 13.5587L81.0848 14.5584ZM81.1706 10.6594L81.1486 11.6591L83.1481 11.7031L83.1701 10.7034C83.1767 10.4034 83.0811 10.2013 82.8855 9.99693C82.69 9.79258 82.4922 9.68821 82.1923 9.68161C81.8924 9.67502 81.6902 9.77059 81.4859 9.96615C81.2815 10.1617 81.175 10.4594 81.1706 10.6594Z" fill="#6A2D01"/>
<path d="M87.9831 14.7102L88.0689 10.8111C88.0931 9.71137 88.6128 8.82258 89.5301 8.04257C90.5475 7.26475 91.6538 6.98901 93.0535 7.0198C94.0532 7.04179 94.8486 7.25934 95.6397 7.67683L97.9523 7.12755L97.695 18.8247L95.4088 18.1743C94.6002 18.5566 93.796 18.739 92.7962 18.717C91.4965 18.6884 90.3056 18.2621 89.3212 17.5403C88.439 16.7207 87.9589 15.8099 87.9831 14.7102ZM91.968 10.8969L91.8822 14.7959C91.8756 15.0959 91.9712 15.298 92.1667 15.5024C92.3623 15.7067 92.56 15.8111 92.86 15.8177C93.1599 15.8243 93.362 15.7287 93.5664 15.5331C93.7707 15.3376 93.8751 15.1398 93.8817 14.8399L93.9675 10.9408C93.9741 10.6409 93.8785 10.4388 93.6829 10.2344C93.4874 10.0301 93.2896 9.9257 92.9897 9.9191C92.6898 9.9125 92.4876 10.0081 92.2833 10.2036C92.0789 10.3992 91.9724 10.6969 91.968 10.8969Z" fill="#6A2D01"/>
<path d="M108.392 19.06L106.106 18.4096C105.298 18.7919 104.493 18.9743 103.494 18.9523C102.194 18.9237 101.003 18.4974 100.019 17.7756C99.0365 16.9538 98.6564 16.0452 98.6806 14.9455L98.7663 11.0464C98.7905 9.94667 99.3102 9.05788 100.228 8.27787C101.245 7.50005 102.351 7.22431 103.751 7.2551C104.051 7.2617 104.451 7.27049 104.748 7.37706L104.792 5.37755L108.713 4.46355L108.392 19.06ZM104.665 11.1761C104.672 10.8762 104.576 10.6741 104.38 10.4697C104.185 10.2654 103.987 10.161 103.687 10.1544C103.387 10.1478 103.185 10.2434 102.981 10.4389C102.776 10.6345 102.672 10.8322 102.665 11.1322L102.58 15.0312C102.573 15.3311 102.669 15.5333 102.864 15.7376C103.06 15.942 103.257 16.0464 103.557 16.053C103.857 16.0596 104.059 15.964 104.264 15.7684C104.468 15.5729 104.573 15.3751 104.579 15.0752L104.665 11.1761Z" fill="#6A2D01"/>
<path d="M70.3874 14.3232L70.3016 18.2222L66.4026 18.1364L66.7038 4.43976L70.6029 4.52552L70.4534 11.3239L72.4529 11.3679L72.6024 4.5695L76.5015 4.65526L76.2002 18.352L72.3011 18.2662L72.3869 14.3671L70.3874 14.3232Z" fill="#6A2D01"/>
<path d="M81.0848 14.5584C81.0782 14.8584 81.1738 15.0605 81.3693 15.2649C81.5649 15.4692 81.7626 15.5736 82.0626 15.5802C82.3625 15.5868 82.5646 15.4912 82.769 15.2957C82.9733 15.1001 83.0777 14.9023 83.0843 14.6024L86.9834 14.6882C86.9592 15.7879 86.4395 16.6767 85.5221 17.4567C84.6048 18.2367 83.3985 18.5103 81.9988 18.4795C80.6991 18.4509 79.5082 18.0246 78.5238 17.3028C77.5417 16.481 77.1616 15.5724 77.1857 14.4727L77.2715 10.5736C77.2957 9.47388 77.8154 8.5851 78.7327 7.80508C79.7501 7.02726 80.8564 6.75153 82.2561 6.78231C83.5558 6.8109 84.7467 7.23719 85.7311 7.95901C86.7154 8.68083 87.0933 9.68939 87.0691 10.7891L87.0054 13.6884L81.1068 13.5587L81.0848 14.5584ZM81.1706 10.6594L81.1486 11.6591L83.1481 11.7031L83.1701 10.7034C83.1767 10.4034 83.0811 10.2013 82.8855 9.99693C82.69 9.79258 82.4922 9.68821 82.1923 9.68161C81.8924 9.67502 81.6902 9.77059 81.4859 9.96615C81.2815 10.1617 81.175 10.4594 81.1706 10.6594Z" fill="#6A2D01"/>
<path d="M87.9831 14.7102L88.0689 10.8111C88.0931 9.71137 88.6128 8.82258 89.5301 8.04257C90.5475 7.26475 91.6538 6.98901 93.0535 7.0198C94.0532 7.04179 94.8486 7.25934 95.6397 7.67683L97.9523 7.12755L97.695 18.8247L95.4088 18.1743C94.6002 18.5566 93.796 18.739 92.7962 18.717C91.4965 18.6884 90.3056 18.2621 89.3212 17.5403C88.439 16.7207 87.9589 15.8099 87.9831 14.7102ZM91.968 10.8969L91.8822 14.7959C91.8756 15.0959 91.9712 15.298 92.1667 15.5024C92.3623 15.7067 92.56 15.8111 92.86 15.8177C93.1599 15.8243 93.362 15.7287 93.5664 15.5331C93.7707 15.3376 93.8751 15.1398 93.8817 14.8399L93.9675 10.9408C93.9741 10.6409 93.8785 10.4388 93.6829 10.2344C93.4874 10.0301 93.2896 9.9257 92.9897 9.9191C92.6898 9.9125 92.4876 10.0081 92.2833 10.2036C92.0789 10.3992 91.9724 10.6969 91.968 10.8969Z" fill="#6A2D01"/>
<path d="M108.392 19.06L106.106 18.4096C105.298 18.7919 104.493 18.9743 103.494 18.9523C102.194 18.9237 101.003 18.4974 100.019 17.7756C99.0365 16.9538 98.6564 16.0452 98.6806 14.9455L98.7663 11.0464C98.7905 9.94667 99.3102 9.05788 100.228 8.27787C101.245 7.50005 102.351 7.22431 103.751 7.2551C104.051 7.2617 104.451 7.27049 104.748 7.37706L104.792 5.37755L108.713 4.46355L108.392 19.06ZM104.665 11.1761C104.672 10.8762 104.576 10.6741 104.38 10.4697C104.185 10.2654 103.987 10.161 103.687 10.1544C103.387 10.1478 103.185 10.2434 102.981 10.4389C102.776 10.6345 102.672 10.8322 102.665 11.1322L102.58 15.0312C102.573 15.3311 102.669 15.5333 102.864 15.7376C103.06 15.942 103.257 16.0464 103.557 16.053C103.857 16.0596 104.059 15.964 104.264 15.7684C104.468 15.5729 104.573 15.3751 104.579 15.0752L104.665 11.1761Z" fill="#6A2D01"/>
<path d="M70.458 12.7V16.6H66.558V2.90002H70.458V9.70002H72.458V2.90002H76.358V16.6H72.458V12.7H70.458V12.7Z" stroke="#6A2D01" stroke-width="4" stroke-miterlimit="10" stroke-linecap="round" stroke-linejoin="round"/>
<path d="M81.158 12.7C81.158 13 81.258 13.2 81.458 13.4C81.658 13.6 81.858 13.7 82.158 13.7C82.458 13.7 82.658 13.6 82.858 13.4C83.058 13.2 83.158 13 83.158 12.7H87.058C87.058 13.8 86.558 14.7 85.658 15.5C84.758 16.3 83.558 16.6 82.158 16.6C80.858 16.6 79.658 16.2 78.658 15.5C77.658 14.7 77.258 13.8 77.258 12.7V8.80002C77.258 7.70002 77.758 6.80002 78.658 6.00002C79.658 5.20002 80.758 4.90002 82.158 4.90002C83.458 4.90002 84.658 5.30002 85.658 6.00002C86.658 6.70002 87.058 7.70002 87.058 8.80002V11.7H81.158V12.7ZM81.158 8.80002V9.80002H83.158V8.80002C83.158 8.50002 83.058 8.30002 82.858 8.10002C82.658 7.90002 82.458 7.80002 82.158 7.80002C81.858 7.80002 81.658 7.90002 81.458 8.10002C81.258 8.30002 81.158 8.60002 81.158 8.80002Z" stroke="#6A2D01" stroke-width="4" stroke-miterlimit="10" stroke-linecap="round" stroke-linejoin="round"/>
<path d="M88.058 12.7V8.80002C88.058 7.70002 88.558 6.80002 89.458 6.00002C90.458 5.20002 91.558 4.90002 92.958 4.90002C93.958 4.90002 94.758 5.10002 95.558 5.50002L97.858 4.90002V16.6L95.558 16C94.758 16.4 93.958 16.6 92.958 16.6C91.658 16.6 90.458 16.2 89.458 15.5C88.558 14.7 88.058 13.8 88.058 12.7ZM91.958 8.80002V12.7C91.958 13 92.058 13.2 92.258 13.4C92.458 13.6 92.658 13.7 92.958 13.7C93.258 13.7 93.458 13.6 93.658 13.4C93.858 13.2 93.958 13 93.958 12.7V8.80002C93.958 8.50002 93.858 8.30002 93.658 8.10002C93.458 7.90002 93.258 7.80002 92.958 7.80002C92.658 7.80002 92.458 7.90002 92.258 8.10002C92.058 8.30002 91.958 8.60002 91.958 8.80002Z" stroke="#6A2D01" stroke-width="4" stroke-miterlimit="10" stroke-linecap="round" stroke-linejoin="round"/>
<path d="M108.558 16.6L106.258 16C105.458 16.4 104.658 16.6 103.658 16.6C102.358 16.6 101.158 16.2 100.158 15.5C99.158 14.7 98.758 13.8 98.758 12.7V8.8C98.758 7.7 99.258 6.8 100.158 6C101.158 5.2 102.258 4.9 103.658 4.9C103.958 4.9 104.358 4.9 104.658 5V3L108.558 2V16.6ZM104.658 8.8C104.658 8.5 104.558 8.3 104.358 8.1C104.158 7.9 103.958 7.8 103.658 7.8C103.358 7.8 103.158 7.9 102.958 8.1C102.758 8.3 102.658 8.5 102.658 8.8V12.7C102.658 13 102.758 13.2 102.958 13.4C103.158 13.6 103.358 13.7 103.658 13.7C103.958 13.7 104.158 13.6 104.358 13.4C104.558 13.2 104.658 13 104.658 12.7V8.8Z" stroke="#6A2D01" stroke-width="4" stroke-miterlimit="10" stroke-linecap="round" stroke-linejoin="round"/>
<path d="M70.458 12.7V16.6H66.558V2.90002H70.458V9.70002H72.458V2.90002H76.358V16.6H72.458V12.7H70.458Z" fill="#FFE3A1"/>
<path d="M81.158 12.7C81.158 13 81.258 13.2 81.458 13.4C81.658 13.6 81.858 13.7 82.158 13.7C82.458 13.7 82.658 13.6 82.858 13.4C83.058 13.2 83.158 13 83.158 12.7H87.058C87.058 13.8 86.558 14.7 85.658 15.5C84.758 16.3 83.558 16.6 82.158 16.6C80.858 16.6 79.658 16.2 78.658 15.5C77.658 14.7 77.258 13.8 77.258 12.7V8.80002C77.258 7.70002 77.758 6.80002 78.658 6.00002C79.658 5.20002 80.758 4.90002 82.158 4.90002C83.458 4.90002 84.658 5.30002 85.658 6.00002C86.658 6.70002 87.058 7.70002 87.058 8.80002V11.7H81.158V12.7ZM81.158 8.80002V9.80002H83.158V8.80002C83.158 8.50002 83.058 8.30002 82.858 8.10002C82.658 7.90002 82.458 7.80002 82.158 7.80002C81.858 7.80002 81.658 7.90002 81.458 8.10002C81.258 8.30002 81.158 8.60002 81.158 8.80002Z" fill="#FFE3A1"/>
<path d="M88.058 12.7V8.80002C88.058 7.70002 88.558 6.80002 89.458 6.00002C90.458 5.20002 91.558 4.90002 92.958 4.90002C93.958 4.90002 94.758 5.10002 95.558 5.50002L97.858 4.90002V16.6L95.558 16C94.758 16.4 93.958 16.6 92.958 16.6C91.658 16.6 90.458 16.2 89.458 15.5C88.558 14.7 88.058 13.8 88.058 12.7ZM91.958 8.80002V12.7C91.958 13 92.058 13.2 92.258 13.4C92.458 13.6 92.658 13.7 92.958 13.7C93.258 13.7 93.458 13.6 93.658 13.4C93.858 13.2 93.958 13 93.958 12.7V8.80002C93.958 8.50002 93.858 8.30002 93.658 8.10002C93.458 7.90002 93.258 7.80002 92.958 7.80002C92.658 7.80002 92.458 7.90002 92.258 8.10002C92.058 8.30002 91.958 8.60002 91.958 8.80002Z" fill="#FFE3A1"/>
<path d="M108.558 16.6L106.258 16C105.458 16.4 104.658 16.6 103.658 16.6C102.358 16.6 101.158 16.2 100.158 15.5C99.158 14.7 98.758 13.8 98.758 12.7V8.8C98.758 7.7 99.258 6.8 100.158 6C101.158 5.2 102.258 4.9 103.658 4.9C103.958 4.9 104.358 4.9 104.658 5V3L108.558 2V16.6ZM104.658 8.8C104.658 8.5 104.558 8.3 104.358 8.1C104.158 7.9 103.958 7.8 103.658 7.8C103.358 7.8 103.158 7.9 102.958 8.1C102.758 8.3 102.658 8.5 102.658 8.8V12.7C102.658 13 102.758 13.2 102.958 13.4C103.158 13.6 103.358 13.7 103.658 13.7C103.958 13.7 104.158 13.6 104.358 13.4C104.558 13.2 104.658 13 104.658 12.7V8.8Z" fill="#FFE3A1"/>
<g opacity="0.3">
<path opacity="0.3" d="M70.458 12.7V16.6H66.558V2.90002H70.458V9.70002H72.458V2.90002H76.358V16.6H72.458V12.7H70.458Z" fill="url(#paint0_linear_56:74937)"/>
<path opacity="0.3" d="M81.158 12.7C81.158 13 81.258 13.2 81.458 13.4C81.658 13.6 81.858 13.7 82.158 13.7C82.458 13.7 82.658 13.6 82.858 13.4C83.058 13.2 83.158 13 83.158 12.7H87.058C87.058 13.8 86.558 14.7 85.658 15.5C84.758 16.3 83.558 16.6 82.158 16.6C80.858 16.6 79.658 16.2 78.658 15.5C77.658 14.7 77.258 13.8 77.258 12.7V8.80002C77.258 7.70002 77.758 6.80002 78.658 6.00002C79.658 5.20002 80.758 4.90002 82.158 4.90002C83.458 4.90002 84.658 5.30002 85.658 6.00002C86.658 6.70002 87.058 7.70002 87.058 8.80002V11.7H81.158V12.7ZM81.158 8.80002V9.80002H83.158V8.80002C83.158 8.50002 83.058 8.30002 82.858 8.10002C82.658 7.90002 82.458 7.80002 82.158 7.80002C81.858 7.80002 81.658 7.90002 81.458 8.10002C81.258 8.30002 81.158 8.60002 81.158 8.80002Z" fill="url(#paint1_linear_56:74937)"/>
<path opacity="0.3" d="M88.058 12.7V8.80002C88.058 7.70002 88.558 6.80002 89.458 6.00002C90.458 5.20002 91.558 4.90002 92.958 4.90002C93.958 4.90002 94.758 5.10002 95.558 5.50002L97.858 4.90002V16.6L95.558 16C94.758 16.4 93.958 16.6 92.958 16.6C91.658 16.6 90.458 16.2 89.458 15.5C88.558 14.7 88.058 13.8 88.058 12.7ZM91.958 8.80002V12.7C91.958 13 92.058 13.2 92.258 13.4C92.458 13.6 92.658 13.7 92.958 13.7C93.258 13.7 93.458 13.6 93.658 13.4C93.858 13.2 93.958 13 93.958 12.7V8.80002C93.958 8.50002 93.858 8.30002 93.658 8.10002C93.458 7.90002 93.258 7.80002 92.958 7.80002C92.658 7.80002 92.458 7.90002 92.258 8.10002C92.058 8.30002 91.958 8.60002 91.958 8.80002Z" fill="url(#paint2_linear_56:74937)"/>
<path opacity="0.3" d="M108.558 16.6L106.258 16C105.458 16.4 104.658 16.6 103.658 16.6C102.358 16.6 101.158 16.2 100.158 15.5C99.158 14.7 98.758 13.8 98.758 12.7V8.8C98.758 7.7 99.258 6.8 100.158 6C101.158 5.2 102.258 4.9 103.658 4.9C103.958 4.9 104.358 4.9 104.658 5V3L108.558 2V16.6ZM104.658 8.8C104.658 8.5 104.558 8.3 104.358 8.1C104.158 7.9 103.958 7.8 103.658 7.8C103.358 7.8 103.158 7.9 102.958 8.1C102.758 8.3 102.658 8.5 102.658 8.8V12.7C102.658 13 102.758 13.2 102.958 13.4C103.158 13.6 103.358 13.7 103.658 13.7C103.958 13.7 104.158 13.6 104.358 13.4C104.558 13.2 104.658 13 104.658 12.7V8.8Z" fill="url(#paint3_linear_56:74937)"/>
</g>
<path d="M105.358 47.6C103.658 47.7 100.758 51.1 98.158 55.6C93.258 56.5 89.158 57.7 88.758 59.1C88.958 61.1 90.658 64.7 93.958 68.6C93.458 73.4 93.658 77 94.358 78.8C97.058 78.2 100.258 77.8 104.658 76.3C109.058 78 112.258 78.4 114.758 79C115.658 77.6 116.058 74 115.858 69.2C119.358 65.5 121.358 62 121.558 60C121.258 58.6 117.158 57.2 112.258 56C109.658 51.3 106.958 47.7 105.358 47.6Z" stroke="#6A2D01" stroke-width="6" stroke-linecap="round" stroke-linejoin="round"/>
<path d="M105.358 45.3C103.658 45.4 100.758 48.8 98.158 53.3C93.258 54.2 89.158 55.4 88.758 56.8C88.958 58.8 90.658 62.4001 93.958 66.3001C93.458 71.1001 93.658 74.7 94.358 76.5C97.058 75.9 100.258 75.5 104.658 74C109.058 75.7 112.258 76.1 114.758 76.7C115.658 75.3 116.058 71.7001 115.858 66.9001C119.358 63.2001 121.358 59.7001 121.558 57.7001C121.258 56.3001 117.158 54.9001 112.258 53.7001C109.658 49.0001 106.958 45.4 105.358 45.3Z" stroke="#6A2D01" stroke-width="6" stroke-linecap="round" stroke-linejoin="round"/>
<path d="M105.358 45.3C103.658 45.4 100.758 48.8 98.158 53.3C93.258 54.2 89.158 55.4 88.758 56.8C88.958 58.8 90.658 62.4001 93.958 66.3001C93.458 71.1001 93.658 74.7001 94.358 76.5C97.058 75.9 100.258 75.5 104.658 74C109.058 75.7001 112.258 76.1 114.758 76.7C115.658 75.3 116.058 71.7001 115.858 66.9001C119.358 63.2001 121.358 59.7001 121.558 57.7001C121.258 56.3001 117.158 54.9001 112.258 53.7001C109.658 49.0001 106.958 45.4 105.358 45.3Z" fill="#FFB000"/>
<path d="M103.858 59.5L88.658 56.8C88.658 56.8 88.158 63.2001 93.258 65.8001C90.758 69.0001 94.258 76.6 94.758 76.5C94.758 76.5 96.358 66.1 101.858 60.2001L103.858 59.5Z" fill="#FFB000"/>
<path d="M103.858 59.5C96.958 60.8 93.158 66.9001 93.158 66.9001C89.458 62.8001 88.658 56.8 88.658 56.8L97.358 57.8L103.858 59.5Z" fill="#FF8002"/>
<path d="M105.358 45.3C105.358 45.3 104.358 49.0001 103.958 52.4001C103.558 55.8001 104.158 60.3 104.158 60.3L111.858 53.3C109.158 45.8 105.358 45.3 105.358 45.3Z" fill="#FFFF6E"/>
<path d="M121.358 57.6C121.358 57.6 113.658 57.8 104.158 60.3C106.558 56.1 111.858 53.3 111.858 53.3C111.858 53.3 119.758 55.2 121.358 57.6Z" fill="white"/>
<path d="M103.858 59.5C103.858 59.5 96.758 57.4 88.658 56.8C88.658 56.3 91.858 53.7 98.058 53.5C98.058 53.5 102.458 45.6 105.258 45.4C105.258 45.4 104.058 48.6 103.858 52.5C103.658 56.3 103.858 59.5 103.858 59.5Z" fill="#FFD01C"/>
<path d="M103.958 60.6L104.358 59.6C104.358 59.6 112.758 62 115.858 67C115.858 67 115.958 73.5 114.658 76.6C114.658 76.6 111.558 74 108.558 69.2C104.558 63 103.958 60.6 103.958 60.6Z" fill="#FFD01C"/>
<path d="M103.958 60.6C103.958 60.6 105.558 64.3 108.258 68.7C110.958 73.1 115.358 77.7 115.358 77.7L109.558 77.5L104.158 74C104.158 74 98.758 76.6 94.358 76.6C98.958 64.2 103.958 60.6 103.958 60.6Z" fill="#FF7E00"/>
<path d="M95.658 73.2C99.858 63.5 103.958 60.7 103.958 60.7L104.058 74.2C104.058 74.2 98.658 76.8 94.258 76.8C94.758 75.4 95.258 74.2 95.658 73.2Z" fill="#FF8002"/>
<path d="M103.158 75.8C102.858 74 102.758 72.1 102.858 70.3C102.958 68.5 103.158 66.7 103.658 65C103.558 66.8 103.658 68.5 103.858 70.3C104.058 72 104.558 73.7 105.058 75.3L103.158 75.8Z" fill="#8F3815"/>
<path d="M103.958 60.6C103.958 60.6 108.158 69.9 112.258 73.8C112.258 73.8 107.358 66.3 105.458 59.9H102.258L103.958 60.6Z" fill="#FFFF6E"/>
<path d="M103.758 60.6L105.358 59.9H102.158C102.158 59.9 99.858 62.5 95.858 72.3C101.058 62.8 103.758 60.6 103.758 60.6Z" fill="#FFD01C"/>
<path d="M105.358 45.3C105.458 44.5 104.458 48.8 105.558 59.8V61.2L104.058 60.7C95.158 56.8 88.758 56.8 88.758 56.8C88.758 56.8 98.558 56.6 103.858 58.9C103.758 58.8 102.958 52.4 105.358 45.3Z" fill="white"/>
<path d="M115.858 68.4001C115.658 67.9001 115.258 67.4001 114.958 66.9001C114.658 66.4001 114.258 65.9001 113.858 65.4001C113.058 64.4001 112.158 63.6 111.158 62.8C112.358 63.3 113.458 63.9 114.558 64.7C115.058 65.1 115.558 65.5001 116.058 65.9001C116.558 66.4001 117.058 66.8001 117.458 67.3001L115.858 68.4001Z" fill="#8F3815"/>
<path d="M65.258 47.6C63.558 47.7 60.658 51.1 58.058 55.6C53.158 56.5 49.058 57.7 48.658 59.1C48.858 61.1 50.558 64.7 53.858 68.6C53.358 73.4 53.558 77 54.258 78.8C56.958 78.2 60.158 77.8 64.558 76.3C68.958 78 72.158 78.4 74.658 79C75.558 77.6 75.958 74 75.758 69.2C79.258 65.5 81.258 62 81.458 60C81.158 58.6 77.058 57.2 72.158 56C69.558 51.3 66.858 47.7 65.258 47.6Z" stroke="#6A2D01" stroke-width="6" stroke-linecap="round" stroke-linejoin="round"/>
<path d="M65.258 45.3C63.558 45.4 60.658 48.8 58.058 53.3C53.158 54.2 49.058 55.4 48.658 56.8C48.858 58.8 50.558 62.4001 53.858 66.3001C53.358 71.1001 53.558 74.7 54.258 76.5C56.958 75.9 60.158 75.5 64.558 74C68.958 75.7 72.158 76.1 74.658 76.7C75.558 75.3 75.958 71.7001 75.758 66.9001C79.258 63.2001 81.258 59.7001 81.458 57.7001C81.158 56.3001 77.058 54.9001 72.158 53.7001C69.558 49.0001 66.858 45.4 65.258 45.3Z" stroke="#6A2D01" stroke-width="6" stroke-linecap="round" stroke-linejoin="round"/>
<path d="M65.258 45.3C63.558 45.4 60.658 48.8 58.058 53.3C53.158 54.2 49.058 55.4 48.658 56.8C48.858 58.8 50.558 62.4001 53.858 66.3001C53.358 71.1001 53.558 74.7001 54.258 76.5C56.958 75.9 60.158 75.5 64.558 74C68.958 75.7001 72.158 76.1 74.658 76.7C75.558 75.3 75.958 71.7001 75.758 66.9001C79.258 63.2001 81.258 59.7001 81.458 57.7001C81.158 56.3001 77.058 54.9001 72.158 53.7001C69.558 49.0001 66.858 45.4 65.258 45.3Z" fill="#FFB000"/>
<path d="M63.758 59.5L48.558 56.8C48.558 56.8 48.058 63.2001 53.158 65.8001C50.658 69.0001 54.158 76.6 54.658 76.5C54.658 76.5 56.258 66.1 61.758 60.2001L63.758 59.5Z" fill="#FFB000"/>
<path d="M63.758 59.5C56.858 60.8 53.058 66.9001 53.058 66.9001C49.358 62.8001 48.558 56.8 48.558 56.8L57.258 57.8L63.758 59.5Z" fill="#FF8002"/>
<path d="M65.258 45.3C65.258 45.3 64.258 49.0001 63.858 52.4001C63.458 55.8001 64.058 60.3 64.058 60.3L71.758 53.3C69.058 45.8 65.258 45.3 65.258 45.3Z" fill="#FFFF6E"/>
<path d="M81.258 57.6C81.258 57.6 73.558 57.8 64.058 60.3C66.458 56.1 71.758 53.3 71.758 53.3C71.758 53.3 79.658 55.2 81.258 57.6Z" fill="white"/>
<path d="M63.758 59.5C63.758 59.5 56.658 57.4 48.558 56.8C48.558 56.3 51.758 53.7 57.958 53.5C57.958 53.5 62.358 45.6 65.158 45.4C65.158 45.4 63.958 48.6 63.758 52.5C63.558 56.4 63.758 59.5 63.758 59.5Z" fill="#FFD01C"/>
<path d="M63.858 60.6L64.258 59.6C64.258 59.6 72.658 62 75.758 67C75.758 67 75.858 73.5 74.558 76.6C74.558 76.6 71.458 74 68.458 69.2C64.458 63 63.858 60.6 63.858 60.6Z" fill="#FFD01C"/>
<path d="M63.858 60.6C63.858 60.6 65.458 64.3 68.158 68.7C70.858 73.1 75.258 77.7 75.258 77.7L69.458 77.5L64.058 74C64.058 74 58.658 76.6 54.258 76.6C58.858 64.2 63.858 60.6 63.858 60.6Z" fill="#FF7E00"/>
<path d="M55.558 73.2C59.858 63.5 63.858 60.6 63.858 60.6L63.958 74.1C63.958 74.1 58.558 76.7 54.158 76.7C54.658 75.4 55.158 74.2 55.558 73.2Z" fill="#FF8002"/>
<path d="M63.058 75.8C62.758 74 62.658 72.1 62.758 70.3C62.858 68.5 63.058 66.7 63.558 65C63.458 66.8 63.558 68.5 63.758 70.3C63.958 72 64.458 73.7 64.958 75.3L63.058 75.8Z" fill="#8F3815"/>
<path d="M63.858 60.6C63.858 60.6 68.058 69.9 72.158 73.8C72.158 73.8 67.258 66.3 65.358 59.9H62.158L63.858 60.6Z" fill="#FFFF6E"/>
<path d="M63.658 60.6L65.258 59.9H62.058C62.058 59.9 59.758 62.5 55.758 72.3C60.958 62.8 63.658 60.6 63.658 60.6Z" fill="#FFD01C"/>
<path d="M65.258 45.3C65.358 44.5 64.358 48.8 65.458 59.8V61.2L63.858 60.6C54.958 56.7 48.558 56.7 48.558 56.7C48.558 56.7 58.358 56.5 63.658 58.8C63.658 58.8 62.858 52.4 65.258 45.3Z" fill="white"/>
<path d="M75.758 68.4001C75.558 67.9001 75.158 67.4001 74.858 66.9001C74.558 66.4001 74.158 65.9001 73.758 65.4001C72.958 64.4001 72.058 63.6 71.058 62.8C72.258 63.3 73.358 63.9 74.458 64.7C74.958 65.1 75.458 65.5001 75.958 65.9001C76.458 66.4001 76.958 66.8001 77.358 67.3001L75.758 68.4001Z" fill="#8F3815"/>
<path d="M55.2 110.505C54.9266 110.505 54.7015 110.433 54.5246 110.288C54.3638 110.127 54.2673 109.934 54.2351 109.709L51.6541 94.2708C51.638 94.2386 51.6299 94.1904 51.6299 94.1261C51.6299 93.9974 51.6782 93.8848 51.7747 93.7884C51.8872 93.6758 52.0079 93.6195 52.1365 93.6195H55.2965C55.7629 93.6195 56.0202 93.8044 56.0684 94.1743L57.5399 103.293L59.2043 98.0098C59.333 97.5756 59.5983 97.3585 60.0004 97.3585H61.8095C62.2116 97.3585 62.4769 97.5756 62.6056 98.0098L64.27 103.268L65.7656 94.1743C65.7977 93.9813 65.8701 93.8446 65.9827 93.7642C66.0952 93.6677 66.2721 93.6195 66.5134 93.6195H69.6734C69.8181 93.6195 69.9387 93.6758 70.0352 93.7884C70.1317 93.8848 70.1799 93.9974 70.1799 94.1261V94.2708L67.5989 109.709C67.5667 109.934 67.4622 110.127 67.2853 110.288C67.1084 110.433 66.8913 110.505 66.634 110.505H64.1976C63.9403 110.505 63.7393 110.441 63.5946 110.312C63.4498 110.183 63.3533 110.039 63.3051 109.878L60.917 103.196L58.5289 109.878C58.4646 110.039 58.36 110.183 58.2153 110.312C58.0706 110.441 57.8696 110.505 57.6123 110.505H55.2ZM77.9335 110.746C75.9073 110.746 74.3474 110.28 73.2538 109.347C72.1764 108.398 71.5894 107.056 71.4929 105.319C71.4768 105.11 71.4688 104.748 71.4688 104.233C71.4688 103.719 71.4768 103.357 71.4929 103.148C71.5894 101.443 72.1924 100.116 73.3021 99.1676C74.4278 98.2027 75.9716 97.7203 77.9335 97.7203C79.8955 97.7203 81.4313 98.2027 82.5409 99.1676C83.6666 100.116 84.2777 101.443 84.3742 103.148C84.4063 103.566 84.4224 103.928 84.4224 104.233C84.4224 104.539 84.4063 104.901 84.3742 105.319C84.2777 107.056 83.6827 108.398 82.5891 109.347C81.5117 110.28 79.9598 110.746 77.9335 110.746ZM77.9335 107.707C78.5929 107.707 79.0834 107.506 79.405 107.104C79.7266 106.686 79.9116 106.05 79.9598 105.198C79.9759 105.037 79.9839 104.716 79.9839 104.233C79.9839 103.751 79.9759 103.429 79.9598 103.268C79.9116 102.432 79.7266 101.805 79.405 101.387C79.0834 100.969 78.5929 100.76 77.9335 100.76C77.2742 100.76 76.7837 100.969 76.4621 101.387C76.1405 101.805 75.9555 102.432 75.9073 103.268L75.8831 104.233L75.9073 105.198C75.9555 106.05 76.1405 106.686 76.4621 107.104C76.7837 107.506 77.2742 107.707 77.9335 107.707ZM92.7508 110.746C90.7245 110.746 89.1646 110.28 88.0711 109.347C86.9936 108.398 86.4067 107.056 86.3102 105.319C86.2941 105.11 86.286 104.748 86.286 104.233C86.286 103.719 86.2941 103.357 86.3102 103.148C86.4067 101.443 87.0097 100.116 88.1193 99.1676C89.245 98.2027 90.7889 97.7203 92.7508 97.7203C94.7127 97.7203 96.2485 98.2027 97.3582 99.1676C98.4839 100.116 99.095 101.443 99.1914 103.148C99.2236 103.566 99.2397 103.928 99.2397 104.233C99.2397 104.539 99.2236 104.901 99.1914 105.319C99.095 107.056 98.4999 108.398 97.4064 109.347C96.3289 110.28 94.7771 110.746 92.7508 110.746ZM92.7508 107.707C93.4101 107.707 93.9006 107.506 94.2223 107.104C94.5439 106.686 94.7288 106.05 94.7771 105.198C94.7932 105.037 94.8012 104.716 94.8012 104.233C94.8012 103.751 94.7932 103.429 94.7771 103.268C94.7288 102.432 94.5439 101.805 94.2223 101.387C93.9006 100.969 93.4101 100.76 92.7508 100.76C92.0915 100.76 91.601 100.969 91.2793 101.387C90.9577 101.805 90.7728 102.432 90.7245 103.268L90.7004 104.233L90.7245 105.198C90.7728 106.05 90.9577 106.686 91.2793 107.104C91.601 107.506 92.0915 107.707 92.7508 107.707ZM102.165 110.505C101.988 110.505 101.835 110.449 101.706 110.336C101.594 110.224 101.538 110.079 101.538 109.902V93.9813C101.538 93.8044 101.594 93.6597 101.706 93.5471C101.835 93.4346 101.988 93.3783 102.165 93.3783H105.18C105.357 93.3783 105.502 93.4346 105.614 93.5471C105.727 93.6597 105.783 93.8044 105.783 93.9813V109.902C105.783 110.063 105.727 110.208 105.614 110.336C105.502 110.449 105.357 110.505 105.18 110.505H102.165ZM110.898 115.088C110.753 115.088 110.633 115.04 110.536 114.944C110.44 114.847 110.391 114.726 110.391 114.582C110.391 114.469 110.407 114.365 110.44 114.268L112.345 109.733L107.714 98.7817C107.666 98.653 107.641 98.5646 107.641 98.5163C107.674 98.3555 107.738 98.2269 107.834 98.1304C107.947 98.0178 108.076 97.9615 108.22 97.9615H111.091C111.429 97.9615 111.662 98.1304 111.79 98.4681L114.468 105.319L117.218 98.4681C117.379 98.1304 117.62 97.9615 117.942 97.9615H120.788C120.933 97.9615 121.053 98.0178 121.15 98.1304C121.262 98.2269 121.319 98.3394 121.319 98.4681C121.319 98.5806 121.303 98.6852 121.27 98.7817L114.444 114.582C114.283 114.919 114.034 115.088 113.696 115.088H110.898Z" fill="#6F5025"/>
</g>
<defs>
<linearGradient id="paint0_linear_56:74937" x1="87.5539" y1="13.1391" x2="87.5539" y2="-1.50938" gradientUnits="userSpaceOnUse">
<stop stop-color="#C6753F"/>
<stop offset="0.5" stop-color="#C6753F" stop-opacity="0"/>
</linearGradient>
<linearGradient id="paint1_linear_56:74937" x1="87.5539" y1="13.1391" x2="87.5539" y2="-1.50938" gradientUnits="userSpaceOnUse">
<stop stop-color="#C6753F"/>
<stop offset="0.5" stop-color="#C6753F" stop-opacity="0"/>
</linearGradient>
<linearGradient id="paint2_linear_56:74937" x1="87.5539" y1="13.1391" x2="87.5539" y2="-1.50938" gradientUnits="userSpaceOnUse">
<stop stop-color="#C6753F"/>
<stop offset="0.5" stop-color="#C6753F" stop-opacity="0"/>
</linearGradient>
<linearGradient id="paint3_linear_56:74937" x1="87.5539" y1="13.1391" x2="87.5539" y2="-1.5094" gradientUnits="userSpaceOnUse">
<stop stop-color="#C6753F"/>
<stop offset="0.5" stop-color="#C6753F" stop-opacity="0"/>
</linearGradient>
<clipPath id="clip0_56:74937">
<rect width="170.6" height="147" fill="white" transform="translate(0.858032)"/>
</clipPath>
</defs>
</svg>
